<svg width="42" height="41" viewBox="0 0 42 41" fill="none" xmlns="http://www.w3.org/2000/svg">
<path d="M19.25 12.5C19.4489 12.5 19.6397 12.579 19.7803 12.7197C19.921 12.8603 20 13.0511 20 13.25V21.25H28C28.1812 21.25 28.3563 21.3156 28.4929 21.4348C28.6295 21.5539 28.7184 21.7184 28.743 21.898L28.75 22C28.75 26.97 24.72 30.5 19.75 30.5C17.3631 30.5 15.0739 29.5518 13.386 27.864C11.6982 26.1761 10.75 23.8869 10.75 21.5C10.75 16.53 14.28 12.5 19.25 12.5ZM22.25 10C24.6369 10 26.9261 10.9482 28.614 12.636C30.3018 14.3239 31.25 16.6131 31.25 19C31.25 19.1989 31.171 19.3897 31.0303 19.5303C30.8897 19.671 30.6989 19.75 30.5 19.75H22.25C22.0511 19.75 21.8603 19.671 21.7197 19.5303C21.579 19.3897 21.5 19.1989 21.5 19V10.75C21.5 10.5511 21.579 10.3603 21.7197 10.2197C21.8603 10.079 22.0511 10 22.25 10Z" fill="black"/>
</svg>
