<svg width="56" height="44" viewBox="0 0 56 44" fill="none" xmlns="http://www.w3.org/2000/svg">
<rect width="56" height="44" rx="12" fill="#CFA16C"/>
<path fill-rule="evenodd" clip-rule="evenodd" d="M30.752 16.3516C30.977 16.1266 31.2822 16.0002 31.6004 16.0002C31.9186 16.0002 32.2238 16.1266 32.4488 16.3516L37.2488 21.1516C37.4738 21.3766 37.6001 21.6818 37.6001 22C37.6001 22.3182 37.4738 22.6234 37.2488 22.8484L32.4488 27.6484C32.2225 27.867 31.9193 27.9879 31.6047 27.9852C31.2901 27.9825 30.9891 27.8563 30.7666 27.6338C30.5441 27.4113 30.4179 27.1103 30.4152 26.7957C30.4124 26.481 30.5334 26.1779 30.752 25.9516L33.5036 23.2H19.6004C19.2821 23.2 18.9769 23.0736 18.7519 22.8485C18.5268 22.6235 18.4004 22.3182 18.4004 22C18.4004 21.6817 18.5268 21.3765 18.7519 21.1515C18.9769 20.9264 19.2821 20.8 19.6004 20.8H33.5036L30.752 18.0484C30.527 17.8234 30.4006 17.5182 30.4006 17.2C30.4006 16.8818 30.527 16.5766 30.752 16.3516Z" fill="white"/>
</svg>
