<svg width="56" height="56" viewBox="0 0 56 56" fill="none" xmlns="http://www.w3.org/2000/svg">
<rect width="56" height="56" rx="7" fill="#34B206"/>
<path d="M31.7934 9C35.2702 8.99834 38.6425 10.189 41.3478 12.3734C44.0531 14.5578 45.928 17.6039 46.6596 21.0037C47.3913 24.4034 46.9355 27.9513 45.3684 31.0557C43.8013 34.16 41.2175 36.6331 38.0479 38.0625C37.0348 40.3028 35.4935 42.264 33.5562 43.7777C31.619 45.2914 29.3435 46.3126 26.9251 46.7535C24.5066 47.1945 22.0173 47.0421 19.6707 46.3095C17.324 45.5769 15.1901 44.2858 13.4518 42.5471C11.7135 40.8084 10.4228 38.6739 9.69033 36.3267C8.95788 33.9795 8.80555 31.4896 9.24641 29.0706C9.68726 26.6515 10.7082 24.3756 12.2215 22.4378C13.7349 20.5001 15.6955 18.9584 17.9354 17.9451C19.1402 15.2786 21.0885 13.0165 23.5465 11.4298C26.0045 9.84322 28.868 8.99955 31.7934 9ZM26.0936 22.3026H22.2938V24.203C21.0591 24.2 19.8717 24.6781 18.9833 25.5358C18.095 26.3936 17.5755 27.5637 17.535 28.798C17.4945 30.0324 17.9361 31.234 18.7663 32.1483C19.5965 33.0625 20.7499 33.6174 21.9822 33.6954L22.2938 33.7049H26.0936L26.2646 33.7201C26.4837 33.7598 26.6818 33.8751 26.8245 34.046C26.9672 34.2169 27.0453 34.4324 27.0453 34.6551C27.0453 34.8777 26.9672 35.0933 26.8245 35.2642C26.6818 35.4351 26.4837 35.5504 26.2646 35.5901L26.0936 35.6053H18.494V39.406H22.2938V41.3064H26.0936V39.406C27.3284 39.409 28.5157 38.931 29.4041 38.0732C30.2924 37.2154 30.8119 36.0454 30.8524 34.811C30.8929 33.5766 30.4513 32.375 29.6211 31.4608C28.791 30.5466 27.6375 29.9917 26.4052 29.9136L26.0936 29.9041H22.2938L22.1228 29.8889C21.9038 29.8493 21.7056 29.7339 21.5629 29.5631C21.4203 29.3922 21.3421 29.1766 21.3421 28.954C21.3421 28.7313 21.4203 28.5157 21.5629 28.3449C21.7056 28.174 21.9038 28.0586 22.1228 28.019L22.2938 28.0038H29.8935V24.203H26.0936V22.3026ZM31.7934 12.8008C30.1832 12.7986 28.591 13.1385 27.122 13.798C25.653 14.4575 24.3408 15.4215 23.2723 16.6262C25.4197 16.4958 27.5703 16.8229 29.5819 17.5858C31.5935 18.3487 33.4203 19.5301 34.9414 21.0518C36.4626 22.5735 37.6435 24.4008 38.4059 26.413C39.1684 28.4252 39.4952 30.5764 39.3646 32.7243C41.092 31.1881 42.3117 29.1629 42.862 26.9173C43.4122 24.6718 43.267 22.312 42.4455 20.1509C41.6241 17.9898 40.1652 16.1295 38.2625 14.8168C36.3597 13.5041 34.1029 12.801 31.7915 12.8008H31.7934Z" fill="white"/>
</svg>
