<svg width="58" height="58" viewBox="0 0 58 58" fill="none" xmlns="http://www.w3.org/2000/svg">
<path d="M12.4531 45.5154L26.1908 45.4685L56.1752 15.5943C57.3519 14.4106 57.9994 12.8386 57.9994 11.1664C57.9994 9.49421 57.3519 7.92221 56.1752 6.73852L51.238 1.77202C48.8846 -0.595369 44.7785 -0.582844 42.4438 1.76262L12.4531 31.6431V45.5154ZM46.8362 6.19991L51.7828 11.157L46.8113 16.111L41.8741 11.1476L46.8362 6.19991ZM18.6791 34.2547L37.4505 15.5505L42.3877 20.517L23.6195 39.2149L18.6791 39.2306V34.2547Z" fill="black"/>
<path d="M6.226 58.0001H49.808C53.2417 58.0001 56.034 55.1912 56.034 51.7372V24.5937L49.808 30.8566V51.7372H16.0569C15.9759 51.7372 15.8919 51.7685 15.8109 51.7685C15.7082 51.7685 15.6055 51.7403 15.4996 51.7372H6.226V7.89672H27.5407L33.7667 1.63379H6.226C2.79236 1.63379 0 4.44271 0 7.89672V51.7372C0 55.1912 2.79236 58.0001 6.226 58.0001Z" fill="black"/>
</svg>
