<svg width="38" height="39" viewBox="0 0 38 39" fill="none" xmlns="http://www.w3.org/2000/svg">
<path d="M10 13.125C10 11.676 11.176 10.5 12.625 10.5H20.875C22.3255 10.5 23.5 11.676 23.5 13.125V13.5H24.073C24.4911 13.5 24.9009 13.6165 25.2564 13.8364C25.612 14.0563 25.8993 14.3709 26.086 14.745L27.763 18.0975C27.9191 18.4101 28.0002 18.7547 28 19.104V24C28 24.5967 27.7629 25.169 27.341 25.591C26.919 26.0129 26.3467 26.25 25.75 26.25H24.9055C24.7398 26.8946 24.3643 27.4659 23.8383 27.8737C23.3123 28.2816 22.6656 28.503 22 28.503C21.3344 28.503 20.6877 28.2816 20.1617 27.8737C19.6357 27.4659 19.2602 26.8946 19.0945 26.25H17.4055C17.2344 26.9141 16.841 27.4996 16.2908 27.9088C15.7405 28.3181 15.0666 28.5265 14.3814 28.4993C13.6962 28.4722 13.0409 28.211 12.5248 27.7594C12.0087 27.3078 11.6629 26.6931 11.545 26.0175C11.0846 25.8097 10.6939 25.4734 10.4198 25.049C10.1458 24.6246 10 24.1302 10 23.625V13.125ZM23.5 15V18H26.0365L24.7435 15.414C24.6812 15.2896 24.5854 15.185 24.467 15.1118C24.3486 15.0387 24.2122 15 24.073 15H23.5ZM14.5 24C14.1022 24 13.7206 24.158 13.4393 24.4393C13.158 24.7206 13 25.1022 13 25.5C13 25.8978 13.158 26.2794 13.4393 26.5607C13.7206 26.842 14.1022 27 14.5 27C14.8978 27 15.2794 26.842 15.5607 26.5607C15.842 26.2794 16 25.8978 16 25.5C16 25.1022 15.842 24.7206 15.5607 24.4393C15.2794 24.158 14.8978 24 14.5 24ZM20.5 25.5C20.5 25.8978 20.658 26.2794 20.9393 26.5607C21.2206 26.842 21.6022 27 22 27C22.3978 27 22.7794 26.842 23.0607 26.5607C23.342 26.2794 23.5 25.8978 23.5 25.5C23.5 25.1022 23.342 24.7206 23.0607 24.4393C22.7794 24.158 22.3978 24 22 24C21.6022 24 21.2206 24.158 20.9393 24.4393C20.658 24.7206 20.5 25.1022 20.5 25.5Z" fill="black"/>
</svg>
