<svg width="59" height="59" viewBox="0 0 59 59" fill="none" xmlns="http://www.w3.org/2000/svg">
<g id="Group 1000001829">
<rect id="Rectangle 3895" x="0.5" y="0.5" width="58" height="58" rx="17.5" fill="white" stroke="#EBEBEB"/>
<g id="Group">
<path id="Vector" d="M30.1934 25.2051V33.822H42.1377C41.6132 36.5931 40.0393 38.9396 37.6787 40.5173L44.8816 46.1203C49.0783 42.2368 51.4995 36.5326 51.4995 29.7565C51.4995 28.1788 51.3583 26.6616 51.0959 25.2053L30.1934 25.2051Z" fill="#4285F4"/>
<path id="Vector_2" d="M17.7558 33.4854L16.1312 34.7321L10.3809 39.2225C14.0328 46.484 21.5176 51.5005 30.1934 51.5005C36.1856 51.5005 41.2095 49.5182 44.8817 46.1201L37.6788 40.5171C35.7015 41.852 33.1794 42.6612 30.1934 42.6612C24.423 42.6612 19.5203 38.7574 17.7648 33.4982L17.7558 33.4854Z" fill="#34A853"/>
<path id="Vector_3" d="M10.3806 19.2783C8.86749 22.2719 8 25.6499 8 29.2503C8 32.8507 8.86749 36.2287 10.3806 39.2223C10.3806 39.2423 17.7653 33.4777 17.7653 33.4777C17.3214 32.1427 17.0591 30.7268 17.0591 29.2501C17.0591 27.7733 17.3214 26.3574 17.7653 25.0224L10.3806 19.2783Z" fill="#FBBC05"/>
<path id="Vector_4" d="M30.1939 15.8596C33.4625 15.8596 36.3678 16.9923 38.6881 19.1769L45.0436 12.8053C41.1899 9.20492 36.1863 7 30.1939 7C21.5181 7 14.0328 11.9962 10.3809 19.278L17.7653 25.0226C19.5205 19.7634 24.4235 15.8596 30.1939 15.8596Z" fill="#EA4335"/>
</g>
</g>
</svg>
