<svg width="107" height="107" viewBox="0 0 107 107" fill="none" xmlns="http://www.w3.org/2000/svg">
<g clip-path="url(#clip0_3656_11011)">
<path d="M89.2573 21.6729C88.2399 20.6505 87.1785 19.6719 86.0774 18.7406C83.7902 16.8061 81.3338 15.0937 78.7458 13.5873C75.5483 11.7363 72.1622 10.2383 68.6389 9.13134C66.9259 8.59321 65.7748 7.02562 65.7748 5.23045V0H57.5918V5.23003C57.5916 10.6178 61.0457 15.3227 66.1863 16.9379C69.0422 17.8351 71.8004 19.0397 74.4012 20.5222C75.202 20.9786 75.9878 21.4618 76.7571 21.9699C80.1757 24.224 83.2421 26.9533 85.8939 30.1106L92.1605 24.848C92.2127 24.8041 89.5103 21.9274 89.2573 21.6729Z" fill="#5E896E"/>
<path d="M53.5 23.1853C34.6993 23.1853 19.4038 38.4808 19.4038 57.2815C19.4038 76.0821 34.6993 91.3778 53.5 91.3778C72.3006 91.3778 87.5961 76.0823 87.5961 57.2817C87.5961 38.4811 72.3006 23.1853 53.5 23.1853ZM42.2052 33.9628C42.116 34.194 42.0274 34.4263 41.9398 34.6669C40.0811 39.7786 38.9248 46.244 38.5971 53.1902H27.9111C29.2612 44.7146 34.7349 37.5958 42.2052 33.9628ZM27.9109 61.3732H38.5969C38.9248 68.3192 40.0807 74.7847 41.9396 79.8964C42.0272 80.137 42.1158 80.3694 42.205 80.6005C34.7349 76.9673 29.2612 69.8485 27.9109 61.3732ZM49.4927 37.8489C51.2893 32.7049 53.137 31.4145 53.4945 31.3685C53.4956 31.3685 53.4966 31.3685 53.4975 31.3685C53.8621 31.414 55.71 32.7039 57.5068 37.8489C58.9787 42.0628 59.9137 47.4032 60.2136 53.19H46.7859C47.086 47.4032 48.021 42.063 49.4927 37.8489ZM57.5079 76.7142C55.7106 81.8584 53.8632 83.1489 53.5056 83.1946C53.5046 83.1946 53.5035 83.1946 53.5027 83.1946C53.138 83.1491 51.2902 81.8592 49.4933 76.7142C48.0214 72.5003 47.0865 67.1599 46.7866 61.3732H60.2148C59.9143 67.1599 58.9793 72.5001 57.5079 76.7142ZM79.089 53.19H68.403C68.0751 46.244 66.9192 39.7784 65.0603 34.6667C64.9728 34.4261 64.8842 34.1937 64.7949 33.9626C72.265 37.5958 77.7388 44.7146 79.089 53.19ZM64.7947 80.6003C64.8839 80.3692 64.9726 80.1368 65.0601 79.8962C66.9188 74.7845 68.0751 68.3192 68.4028 61.3729H79.0888C77.7388 69.8485 72.265 76.9673 64.7947 80.6003Z" fill="#5E896E"/>
<path d="M13.742 71.7012L6.04932 74.4919C8.05849 80.0304 11.0041 85.1384 14.8045 89.6738L21.0767 84.4181C17.8922 80.6173 15.4243 76.3389 13.742 71.7012Z" fill="#5E896E"/>
<path d="M6.08521 39.9731C4.06914 45.4943 3.04387 51.299 3.0376 57.2267L11.2206 57.235C11.2258 52.2652 12.0839 47.4017 13.7719 42.7796L6.08521 39.9731Z" fill="#5E896E"/>
<path d="M41.2251 0V5.22878C41.2251 7.02249 40.0518 8.59781 38.3062 9.14827C34.8199 10.2477 31.4634 11.7338 28.2896 13.5589C27.6043 13.953 26.9258 14.3647 26.2629 14.7954C26.2474 14.8055 26.2313 14.8149 26.2165 14.8257C21.957 17.5659 18.1461 20.9172 14.8672 24.8154L21.1294 30.0835C23.8894 26.8018 27.0982 23.9826 30.6854 21.6806C33.519 19.862 36.571 18.381 39.7549 17.2863C40.0909 17.1707 40.4286 17.0596 40.7676 16.9528C45.9358 15.3225 49.4081 10.6112 49.4081 5.2292V0H41.2251Z" fill="#5E896E"/>
<path d="M32.311 93.8767L28.2036 100.955C33.3154 103.921 38.8543 105.946 44.6663 106.973L46.0899 98.9143C41.226 98.0551 36.5899 96.3603 32.311 93.8767Z" fill="#5E896E"/>
<path d="M74.5766 93.9419C70.2897 96.4123 65.6478 98.0929 60.7793 98.9374L62.1778 107C67.9949 105.992 73.5411 103.983 78.6625 101.032L74.5766 93.9419Z" fill="#5E896E"/>
<path d="M100.932 40.0198L93.2422 42.8189C94.9258 47.4437 95.7792 52.3097 95.7792 57.2814V57.3661L103.962 57.3985V57.2814C103.962 51.3524 102.943 45.5445 100.932 40.0198Z" fill="#5E896E"/>
<path d="M93.2121 71.8264C91.5158 76.4567 89.0358 80.7258 85.8408 84.5157L92.0974 89.79C95.9099 85.2681 98.8699 80.1711 100.896 74.6414L93.2121 71.8264Z" fill="#5E896E"/>
</g>
<defs>
<clipPath id="clip0_3656_11011">
<rect width="107" height="107" fill="white"/>
</clipPath>
</defs>
</svg>
