<svg width="149" height="202" viewBox="0 0 149 202" fill="none" xmlns="http://www.w3.org/2000/svg">
<g id="Group">
<path id="Vector" d="M62.1387 176.786V101.142C62.1387 93.367 63.5131 85.9026 66.0172 78.978C54.1502 67.7206 38.0508 60.796 20.3318 60.796H0V133.362C0 171.265 30.9877 202 69.2017 202H86.4307V176.435C84.1036 176.664 81.7492 176.786 79.3676 176.786H62.1387Z" fill="#5E896E"/>
<path id="Vector_2" d="M128.238 35.5814C99.5779 35.5814 75.1769 53.6824 66.0181 78.978C78.5928 90.9103 86.4316 107.729 86.4316 126.356V176.435C121.339 172.925 148.57 143.688 148.57 108.147V35.5814H128.238Z" fill="#3B5C53"/>
<path id="Vector_3" d="M66.0184 78.9783C63.5143 85.9028 62.1398 93.3673 62.1398 101.142V176.786H79.3688C81.7504 176.786 84.1047 176.664 86.4319 176.435V126.357C86.4319 107.729 78.6067 90.9106 66.0184 78.9783Z" fill="#3B5C53"/>
<path id="Vector_4" d="M62.1415 56.1253C77.7673 56.1253 90.4346 43.5612 90.4346 28.0626C90.4346 12.5641 77.7673 0 62.1415 0C46.5156 0 33.8484 12.5641 33.8484 28.0626C33.8484 43.5612 46.5156 56.1253 62.1415 56.1253Z" fill="#5E896E"/>
</g>
</svg>
