<svg width="84" height="84" viewBox="0 0 84 84" fill="none" xmlns="http://www.w3.org/2000/svg">
<g id="Group 1000001782">
<g id="carbon accounting">
<g id="Group">
<path id="Vector" d="M56.5473 46.8714C61.2398 46.8714 65.0438 43.0674 65.0438 38.3749C65.0438 33.6824 61.2398 29.8784 56.5473 29.8784C51.8548 29.8784 48.0508 33.6824 48.0508 38.3749C48.0508 43.0674 51.8548 46.8714 56.5473 46.8714Z" stroke="white" stroke-width="4" stroke-linecap="round" stroke-linejoin="round"/>
<path id="Vector_2" d="M70.8352 41.7311C72.1739 42.2302 73.3651 43.0588 74.2986 44.1402C75.2322 45.2216 75.878 46.521 76.1764 47.9181C76.4747 49.3153 76.4159 50.7651 76.0054 52.1335C75.595 53.5019 74.8461 54.7447 73.828 55.747C72.81 56.7493 71.5556 57.4787 70.181 57.8678C68.8063 58.2568 67.3558 58.293 65.9635 57.9729C64.5711 57.6528 63.282 56.9868 62.2153 56.0364C61.1486 55.0861 60.3387 53.8821 59.8606 52.5359M55.1309 35.5428H56.5469V41.2072" stroke="white" stroke-width="4" stroke-linecap="round" stroke-linejoin="round"/>
<path id="Vector_3" d="M68.883 46.7014L69.8742 47.7068L65.8809 51.7002" stroke="white" stroke-width="4" stroke-linecap="round" stroke-linejoin="round"/>
</g>
<path id="Vector_4" d="M21.8532 63.3402C21.6085 63.3402 21.368 63.2767 21.1551 63.1562L9.11835 56.3377C8.9004 56.2142 8.71911 56.0351 8.59299 55.8187C8.46686 55.6022 8.4004 55.3562 8.40039 55.1057V40.9449C8.4004 40.6944 8.46686 40.4483 8.59299 40.2319C8.71911 40.0155 8.9004 39.8364 9.11835 39.7129L21.1551 32.8944C21.368 32.7739 21.6085 32.7106 21.8532 32.7106C22.0979 32.7106 22.3384 32.7739 22.5513 32.8944L34.5881 39.7129C34.806 39.8364 34.9873 40.0155 35.1134 40.2319C35.2396 40.4483 35.306 40.6944 35.306 40.9449V55.1057C35.306 55.3562 35.2396 55.6022 35.1134 55.8187C34.9873 56.0351 34.806 56.2142 34.5881 56.3377L22.5513 63.1562C22.3384 63.2767 22.0979 63.3402 21.8532 63.3402ZM11.2326 54.2801L21.8532 60.2957L32.4738 54.2801V41.7704L21.8532 35.7549L11.2326 41.769V54.2801Z" fill="white"/>
<path id="Vector_5" d="M42.3869 43.777H39.5547V30.4417L28.9341 24.4262L17.5955 30.8481L16.1992 28.3841L28.2359 21.5657C28.4489 21.4452 28.6894 21.3818 28.9341 21.3818C29.1788 21.3818 29.4193 21.4452 29.6322 21.5657L41.6689 28.3841C41.8869 28.5076 42.0682 28.6867 42.1943 28.9032C42.3204 29.1196 42.3869 29.3656 42.3869 29.6161V43.777Z" fill="white"/>
</g>
<circle id="Ellipse 18" cx="42" cy="42" r="41" stroke="white" stroke-width="2"/>
</g>
</svg>
