<svg width="84" height="84" viewBox="0 0 84 84" fill="none" xmlns="http://www.w3.org/2000/svg">
<g id="Group 1000001781">
<path id="Vector" d="M44.1072 28.6888C44.2028 27.3309 44.6399 26.0216 45.3758 24.8888C46.1118 23.7559 47.1215 22.8382 48.3064 22.2252C49.4912 21.6123 50.8107 21.3249 52.1361 21.3913C53.4615 21.4577 54.7475 21.8756 55.8685 22.6041C55.9966 22.6901 56.0998 22.81 56.1673 22.9511C56.2347 23.0922 56.2638 23.2493 56.2516 23.4059C56.2394 23.5626 56.1863 23.7129 56.0978 23.8412C56.0094 23.9695 55.8889 24.071 55.7491 24.1351C53.8003 25.0346 52.1462 26.4922 50.9852 28.3328C49.8242 30.1734 49.2059 32.3187 49.2044 34.5111C49.2044 34.767 49.2044 35.0229 49.23 35.2744C49.2417 35.4334 49.2109 35.5927 49.1409 35.735C49.0708 35.8773 48.9642 35.9973 48.8325 36.0819C48.7008 36.1666 48.5491 36.2127 48.3937 36.2154C48.2383 36.218 48.0852 36.177 47.9509 36.0968C46.6946 35.3595 45.667 34.2728 44.9869 32.962C44.3068 31.6512 44.0019 30.1698 44.1072 28.6888ZM67.9644 51.2671C67.9674 52.267 67.6975 53.2477 67.185 54.0982C66.6726 54.9486 65.9382 55.6348 65.0651 56.0789L64.9713 56.1227L56.6935 59.7403C56.6117 59.7773 56.5268 59.8065 56.4398 59.8278L42.7962 63.3273C42.661 63.3629 42.5221 63.3813 42.3826 63.382H20.2117C19.3071 63.382 18.4395 63.0133 17.7998 62.357C17.1601 61.7007 16.8008 60.8106 16.8008 59.8825V51.1337C16.8008 50.2056 17.1601 49.3155 17.7998 48.6592C18.4395 48.0029 19.3071 47.6342 20.2117 47.6342H26.3279L31.15 42.6846C31.7824 42.033 32.5343 41.5164 33.3623 41.1646C34.1903 40.8128 35.0781 40.6329 35.9743 40.6352H46.6462C47.5471 40.6351 48.4363 40.8442 49.2471 41.2468C50.058 41.6495 50.7696 42.2352 51.3284 42.96C51.8873 43.6849 52.279 44.5302 52.4742 45.4325C52.6693 46.3348 52.6629 47.2707 52.4554 48.1701L61.3749 46.066C62.1514 45.855 62.9648 45.8298 63.7523 45.9923C64.5398 46.1548 65.2804 46.5006 65.917 47.0031C66.5537 47.5056 67.0694 48.1514 67.4243 48.8907C67.7793 49.63 67.9641 50.443 67.9644 51.2671ZM64.5535 51.2671C64.5532 50.9778 64.488 50.6925 64.3628 50.4332C64.2377 50.1739 64.056 49.9478 63.8319 49.7722C63.6078 49.5966 63.3473 49.4764 63.0705 49.4208C62.7938 49.3652 62.5083 49.3758 62.2362 49.4518L62.1701 49.4693L47.8869 52.8397C47.7617 52.8684 47.6337 52.8831 47.5053 52.8835H40.6771C40.2248 52.8835 39.791 52.6991 39.4712 52.371C39.1514 52.0428 38.9717 51.5978 38.9717 51.1337C38.9717 50.6697 39.1514 50.2246 39.4712 49.8965C39.791 49.5683 40.2248 49.384 40.6771 49.384H46.6462C47.3247 49.384 47.9754 49.1074 48.4551 48.6152C48.9349 48.123 49.2044 47.4554 49.2044 46.7593C49.2044 46.0632 48.9349 45.3957 48.4551 44.9035C47.9754 44.4112 47.3247 44.1347 46.6462 44.1347H35.9743C35.5263 44.1332 35.0823 44.2232 34.6684 44.3993C34.2545 44.5754 33.8788 44.8341 33.5633 45.1605L28.739 50.1079V59.8825H42.1694L55.4783 56.4683L63.5792 52.9294C63.8741 52.77 64.1208 52.5308 64.2925 52.2378C64.4643 51.9448 64.5545 51.6091 64.5535 51.2671ZM52.6153 34.5111C52.6153 36.0684 53.0654 37.5907 53.9087 38.8856C54.752 40.1804 55.9506 41.1897 57.3529 41.7856C58.7553 42.3816 60.2984 42.5375 61.7871 42.2337C63.2758 41.9299 64.6433 41.1799 65.7166 40.0788C66.7899 38.9776 67.5208 37.5746 67.8169 36.0472C68.1131 34.5198 67.9611 32.9367 67.3802 31.4979C66.7993 30.0591 65.8157 28.8294 64.5536 27.9642C63.2915 27.099 61.8077 26.6372 60.2898 26.6372C58.2544 26.6372 56.3024 27.4668 54.8631 28.9434C53.4239 30.4201 52.6153 32.4228 52.6153 34.5111Z" fill="white"/>
<circle id="Ellipse 17" cx="42" cy="42" r="41" stroke="white" stroke-width="2"/>
</g>
</svg>
