<svg width="44" height="44" viewBox="0 0 44 44" fill="none" xmlns="http://www.w3.org/2000/svg">
<mask id="mask0_1122_7249" style="mask-type:luminance" maskUnits="userSpaceOnUse" x="8" y="8" width="28" height="28">
<path d="M15.8737 31.1356C17.619 32.5104 19.7769 33.2564 21.9987 33.2531C24.3104 33.2531 26.4379 32.4621 28.1237 31.1356M19.082 13.8555C15.0284 15.1009 12.082 18.8745 12.082 23.3364C12.082 24.4593 12.2687 25.5385 12.6129 26.5447M24.9154 13.8555C28.9689 15.1009 31.9154 18.8745 31.9154 23.3364C31.9154 24.4593 31.7287 25.5385 31.3845 26.5447" stroke="white" stroke-width="4"/>
<path d="M33.0827 29.1692C33.0827 29.9521 32.7747 30.6626 32.273 31.1864C31.8045 31.6758 31.1803 31.9869 30.5074 32.0662C29.8346 32.1455 29.1551 31.9881 28.5857 31.621C28.0162 31.2539 27.5924 30.7 27.3868 30.0545C27.1813 29.4089 27.2069 28.7119 27.4593 28.0831C27.7116 27.4544 28.175 26.9331 28.7699 26.6088C29.3647 26.2845 30.0539 26.1774 30.7191 26.3059C31.3843 26.4343 31.9841 26.7904 32.4154 27.3129C32.8467 27.8354 33.0826 28.4917 33.0827 29.1692ZM16.7493 29.1692C16.7493 29.9521 16.4413 30.6626 15.9397 31.1864C15.4712 31.6758 14.8469 31.9869 14.1741 32.0662C13.5012 32.1455 12.8218 31.9881 12.2523 31.621C11.6829 31.2539 11.259 30.7 11.0535 30.0545C10.8479 29.4089 10.8736 28.7119 11.1259 28.0831C11.3783 27.4544 11.8417 26.9331 12.4365 26.6088C13.0314 26.2845 13.7206 26.1774 14.3858 26.3059C15.051 26.4343 15.6507 26.7904 16.082 27.3129C16.5133 27.8354 16.7493 28.4917 16.7493 29.1692ZM24.916 13.4192C24.916 14.2021 24.608 14.9126 24.1063 15.4364C23.6379 15.9258 23.0136 16.2369 22.3408 16.3162C21.6679 16.3955 20.9884 16.2381 20.419 15.871C19.8496 15.5039 19.4257 14.95 19.2201 14.3045C19.0146 13.6589 19.0402 12.9619 19.2926 12.3331C19.545 11.7044 20.0083 11.1831 20.6032 10.8588C21.198 10.5345 21.8872 10.4274 22.5524 10.5559C23.2177 10.6843 23.8174 11.0404 24.2487 11.5629C24.68 12.0854 24.9159 12.7417 24.916 13.4192Z" fill="white" stroke="white" stroke-width="4" stroke-linecap="round" stroke-linejoin="round"/>
</mask>
<g mask="url(#mask0_1122_7249)">
<path d="M8 8.16895H36V36.1689H8V8.16895Z" fill="black"/>
</g>
</svg>
