<svg width="107" height="107" viewBox="0 0 107 107" fill="none" xmlns="http://www.w3.org/2000/svg">
<path fill-rule="evenodd" clip-rule="evenodd" d="M49.0415 17.8334V89.1667C49.0415 94.0913 45.0494 98.0834 40.1248 98.0834H17.8332C12.9086 98.0834 8.9165 94.0913 8.9165 89.1667V17.8334C8.9165 12.9089 12.9086 8.91675 17.8332 8.91675H40.1248C45.0494 8.91675 49.0415 12.9089 49.0415 17.8334ZM40.1248 17.8334H17.8332V89.1667H40.1248V17.8334ZM98.0832 17.8334V71.3334C98.0832 76.2579 94.091 80.2501 89.1665 80.2501H66.8748C61.9503 80.2501 57.9582 76.2579 57.9582 71.3334V17.8334C57.9582 12.9089 61.9503 8.91675 66.8748 8.91675H89.1665C94.091 8.91675 98.0832 12.9089 98.0832 17.8334ZM89.1665 17.8334H66.8748V71.3334H89.1665V17.8334Z" fill="#5E896E"/>
</svg>
