<svg width="107" height="107" viewBox="0 0 107 107" fill="none" xmlns="http://www.w3.org/2000/svg">
<path d="M53.4997 103.947C78.4435 103.947 99.178 83.2579 99.178 58.2694C99.178 43.2225 91.5649 29.6983 80.0556 21.324C78.0852 19.8013 75.6221 20.2939 74.5026 22.1299C73.3832 24.0108 73.9654 26.1157 75.7565 27.5038C85.2951 34.3107 91.5199 45.5511 91.5649 58.2694C91.6098 79.4066 74.5923 96.3344 53.4997 96.3344C32.3624 96.3344 15.4793 79.4066 15.4793 58.2694C15.4793 40.1325 27.929 25.0409 44.8568 21.1895V27.6383C44.8568 30.8178 47.051 31.6686 49.4692 29.9222L63.7996 19.891C65.8148 18.5026 65.8597 16.3531 63.7996 14.8751L49.5141 4.84389C47.051 3.0526 44.8568 3.90363 44.8568 7.12796V13.4421C23.8985 17.5175 7.82178 36.2365 7.82178 58.2694C7.82178 83.2579 28.5112 103.947 53.4997 103.947ZM30.3921 41.8342C30.1682 43.939 29.9889 45.999 29.9889 48.0142C29.9889 63.285 40.1098 75.1075 53.1861 75.1075C58.9183 75.1075 64.2475 72.6444 66.576 68.5693C68.6362 71.2561 69.6662 74.4806 71.323 79.4963C71.5023 79.9439 71.9501 80.1232 72.3531 79.8992L73.9205 79.138C75.0848 78.6454 75.4878 78.0183 75.4878 76.8092C75.4878 73.4506 71.2336 68.4797 69.0392 66.4644C59.8587 57.9111 45.7076 62.882 42.2144 53.4777C42.125 53.2985 42.0803 53.2088 42.0803 53.0745C42.0803 52.7163 42.3937 52.4476 42.6623 52.4476C42.9759 52.4476 43.1998 52.6268 43.4237 52.8508C50.4546 59.9263 60.2619 53.9255 69.1735 62.3445C69.8006 62.9267 70.741 62.6579 70.7857 61.8967C70.8304 61.1802 70.9201 60.2846 70.9201 59.3441C70.9201 49.089 63.6653 44.7002 53.231 44.7002C50.0067 44.7002 46.6928 45.1034 43.5581 45.1034C39.1693 45.1034 35.2285 44.2973 32.5416 41.3416C31.8251 40.5804 30.4815 40.7594 30.3921 41.8342Z" fill="#5E896E"/>
</svg>
