<svg width="24" height="26" viewBox="0 0 24 26" fill="none" xmlns="http://www.w3.org/2000/svg">
<path d="M21.3333 0.956055C22.0406 0.956055 22.7189 1.23935 23.219 1.74363C23.719 2.2479 24 2.93184 24 3.64499V22.4676C24 23.1807 23.719 23.8646 23.219 24.3689C22.7189 24.8732 22.0406 25.1565 21.3333 25.1565H2.66667C1.95942 25.1565 1.28115 24.8732 0.781048 24.3689C0.280951 23.8646 0 23.1807 0 22.4676V3.64499C0 2.93184 0.280951 2.2479 0.781048 1.74363C1.28115 1.23935 1.95942 0.956055 2.66667 0.956055H21.3333ZM20.6667 21.7953V14.6696C20.6667 13.5072 20.2087 12.3924 19.3936 11.5704C18.5784 10.7484 17.4728 10.2867 16.32 10.2867C15.1867 10.2867 13.8667 10.9858 13.2267 12.0345V10.5421H9.50667V21.7953H13.2267V15.1671C13.2267 14.1318 14.0533 13.2848 15.08 13.2848C15.5751 13.2848 16.0499 13.4831 16.3999 13.8361C16.75 14.1891 16.9467 14.6679 16.9467 15.1671V21.7953H20.6667ZM5.17333 8.4313C5.76742 8.4313 6.33717 8.19333 6.75725 7.76974C7.17733 7.34615 7.41333 6.77164 7.41333 6.17259C7.41333 4.92224 6.41333 3.90044 5.17333 3.90044C4.57571 3.90044 4.00257 4.13983 3.57999 4.56594C3.1574 4.99205 2.92 5.56998 2.92 6.17259C2.92 7.42295 3.93333 8.4313 5.17333 8.4313ZM7.02667 21.7953V10.5421H3.33333V21.7953H7.02667Z" fill="white"/>
</svg>
