<svg width="19" height="19" viewBox="0 0 19 19" fill="none" xmlns="http://www.w3.org/2000/svg">
<path fill-rule="evenodd" clip-rule="evenodd" d="M9.50084 16.7741L10.0717 16.1308C10.7196 15.3889 11.3022 14.685 11.8206 14.0155L12.2486 13.4509C14.0355 11.0433 14.9294 9.13248 14.9294 7.72015C14.9294 4.70548 12.4992 2.26172 9.50084 2.26172C6.50246 2.26172 4.07227 4.70548 4.07227 7.72015C4.07227 9.13248 4.96617 11.0433 6.75308 13.4509L7.18103 14.0155C7.92061 14.9631 8.69439 15.8827 9.50084 16.7741Z" stroke="black" stroke-linecap="round" stroke-linejoin="round"/>
<path d="M9.50019 9.95252C10.7494 9.95252 11.7621 8.93983 11.7621 7.69062C11.7621 6.4414 10.7494 5.42871 9.50019 5.42871C8.25097 5.42871 7.23828 6.4414 7.23828 7.69062C7.23828 8.93983 8.25097 9.95252 9.50019 9.95252Z" stroke="black" stroke-linecap="round" stroke-linejoin="round"/>
</svg>
