<svg width="249" height="54" viewBox="0 0 249 54" fill="none" xmlns="http://www.w3.org/2000/svg">
<path d="M49.0723 45.2467C48.8138 45.2467 48.564 45.2728 48.3201 45.3193L43.5865 32.1649C48.4159 30.5862 51.9124 26.0418 51.9124 20.6965C51.9124 14.0424 46.4964 8.6303 39.8374 8.6303C38.0892 8.6303 36.4281 9.00757 34.9267 9.67791L34.2269 7.61463C35.3798 6.88045 36.1464 5.5949 36.1464 4.13233C36.1464 1.85432 34.2908 0 32.0111 0C29.7314 0 27.8758 1.85432 27.8758 4.13233C27.8758 6.41034 29.7314 8.26468 32.0111 8.26468C32.3392 8.26468 32.6587 8.22114 32.9636 8.14859L33.6577 10.3337C31.3954 11.6831 29.6124 13.7522 28.6221 16.2217L17.0554 12.1852C17.1744 11.6164 17.2383 11.0244 17.2383 10.4208C17.2383 5.67326 13.373 1.81079 8.62206 1.81079C3.87107 1.81079 0.00580708 5.67326 0.00580708 10.4208C0.00580708 15.1683 3.87107 19.0308 8.62206 19.0308C12.2143 19.0308 15.3013 16.8195 16.5907 13.6884L28.1284 17.7162C27.8845 18.671 27.7538 19.6692 27.7538 20.6994C27.7538 20.9286 27.7625 21.1579 27.7741 21.3871L18.0224 25.1829L18.0311 25.2206C17.3109 24.0047 15.9867 23.1863 14.4737 23.1863C12.194 23.1863 10.3383 25.0407 10.3383 27.3187C10.3383 29.5967 12.194 31.451 14.4737 31.451C16.7533 31.451 18.609 29.5967 18.609 27.3187C18.609 27.0111 18.5742 26.7151 18.5103 26.4278L27.9687 22.9658C28.2765 24.5851 28.9096 26.0883 29.7953 27.4086L15.9954 40.1219C14.4853 37.6263 11.7439 35.9548 8.61625 35.9548C3.86526 35.9548 0 39.8172 0 44.5648C0 49.3123 3.86526 53.1748 8.61625 53.1748C13.3672 53.1748 17.2325 49.3123 17.2325 44.5648C17.2325 43.523 17.0466 42.5247 16.7069 41.6019L30.7333 28.6303C31.6045 29.6257 32.6326 30.476 33.7826 31.1434L32.0605 34.7128C31.7236 34.6228 31.3693 34.5706 31.0063 34.5706C28.7266 34.5706 26.871 36.4249 26.871 38.7029C26.871 40.9809 28.7266 42.8352 31.0063 42.8352C33.286 42.8352 35.1416 40.9809 35.1416 38.7029C35.1416 37.339 34.4737 36.1289 33.4486 35.3744L35.2375 31.8602C36.6546 32.4464 38.2054 32.7685 39.8316 32.7685C40.6448 32.7685 41.4405 32.6872 42.21 32.5334L47.0104 45.8039C45.7704 46.5178 44.9311 47.8527 44.9311 49.382C44.9311 51.66 46.7868 53.5143 49.0664 53.5143C51.3461 53.5143 53.2018 51.66 53.2018 49.382C53.2047 47.0982 51.3519 45.2467 49.0723 45.2467ZM29.049 4.12944C29.049 2.49566 30.379 1.16948 32.0111 1.16948C33.6461 1.16948 34.9732 2.49856 34.9732 4.12944C34.9732 5.76032 33.6432 7.08939 32.0111 7.08939C30.379 7.08939 29.049 5.76032 29.049 4.12944ZM8.62786 17.6234C4.65225 17.6234 1.41717 14.3906 1.41717 10.4179C1.41717 6.44517 4.65225 3.21243 8.62786 3.21243C12.6035 3.21243 15.8386 6.44517 15.8386 10.4179C15.8386 14.3906 12.6035 17.6234 8.62786 17.6234ZM14.4824 30.2728C12.8474 30.2728 11.5203 28.9437 11.5203 27.3129C11.5203 25.682 12.8503 24.3529 14.4824 24.3529C16.1174 24.3529 17.4445 25.682 17.4445 27.3129C17.4445 28.9437 16.1174 30.2728 14.4824 30.2728ZM8.62786 51.7615C4.65225 51.7615 1.41717 48.5288 1.41717 44.5561C1.41717 40.5833 4.65225 37.3506 8.62786 37.3506C12.6035 37.3506 15.8386 40.5833 15.8386 44.5561C15.8386 48.5288 12.6035 51.7615 8.62786 51.7615ZM33.9771 38.6942C33.9771 40.328 32.6471 41.6542 31.015 41.6542C29.383 41.6542 28.0529 40.3251 28.0529 38.6942C28.0529 37.0633 29.383 35.7342 31.015 35.7342C32.6471 35.7342 33.9771 37.0604 33.9771 38.6942ZM29.1681 20.6965C29.1681 14.8172 33.9539 10.0348 39.8374 10.0348C45.721 10.0348 50.5068 14.8172 50.5068 20.6965C50.5068 26.5758 45.721 31.3581 39.8374 31.3581C33.9539 31.3581 29.1681 26.5758 29.1681 20.6965ZM49.0723 52.339C47.4373 52.339 46.1101 51.0099 46.1101 49.3791C46.1101 47.7453 47.4402 46.4191 49.0723 46.4191C50.7072 46.4191 52.0344 47.7482 52.0344 49.3791C52.0344 51.0099 50.7043 52.339 49.0723 52.339Z" fill="#62B846"/>
<path d="M9.64401 43.1599C10.7178 42.4969 11.0503 41.0895 10.3868 40.0165C9.72323 38.9435 8.31484 38.6112 7.24106 39.2743C6.16728 39.9373 5.83473 41.3447 6.49828 42.4177C7.16184 43.4907 8.57023 43.823 9.64401 43.1599Z" fill="#62B846"/>
<path d="M10.2774 43.7463H6.64736C5.3812 43.7463 4.35608 44.7707 4.35608 46.036V49.3761H12.5658V46.036C12.5687 44.7707 11.5435 43.7463 10.2774 43.7463Z" fill="#62B846"/>
<path d="M10.4016 7.83995C11.0651 6.76695 10.7326 5.35959 9.65877 4.69652C8.58499 4.03345 7.17661 4.36576 6.51306 5.43876C5.8495 6.51176 6.18205 7.91912 7.25583 8.58219C8.32961 9.24526 9.738 8.91295 10.4016 7.83995Z" fill="#62B846"/>
<path d="M10.2774 9.1875H6.64736C5.3812 9.1875 4.35608 10.2119 4.35608 11.4771V14.8172H12.5658V11.4771C12.5687 10.2148 11.5435 9.1875 10.2774 9.1875Z" fill="#62B846"/>
<path d="M40.032 19.3936C41.5814 19.3936 42.8373 18.1386 42.8373 16.5904C42.8373 15.0422 41.5814 13.7871 40.032 13.7871C38.4827 13.7871 37.2267 15.0422 37.2267 16.5904C37.2267 18.1386 38.4827 19.3936 40.032 19.3936Z" fill="#62B846"/>
<path d="M42.7996 19.71H37.3051C36.039 19.71 35.0139 20.7343 35.0139 21.9996V26.6194H45.0879V21.9996C45.0908 20.7343 44.0628 19.71 42.7996 19.71Z" fill="#62B846"/>
<path d="M68.8371 9.86084H60.9701V32.1273H64.1239V24.1412H68.8342C73.0566 24.1412 76.2424 21.0651 76.2424 16.988C76.2453 12.9253 73.0596 9.86084 68.8371 9.86084ZM64.1239 21.01V12.992H68.7993C71.2765 12.992 73.0741 14.6751 73.0741 16.9909C73.0741 19.3211 71.2765 21.01 68.7993 21.01H64.1239Z" fill="white"/>
<path d="M117.009 15.9433L116.945 14.4459H114.05V32.1302H117.183V22.3159C117.183 19.4372 118.905 17.5016 121.473 17.5016H123.973V14.4053H121.531C119.777 14.4024 118.226 14.9421 117.009 15.9433Z" fill="white"/>
<path d="M168.181 16.3871C166.592 14.9478 164.481 14.1439 162.126 14.1439C156.992 14.1439 153.121 18.0731 153.121 23.2879C153.121 23.3691 153.129 23.4475 153.132 23.5258H149.967L149.7 24.2513C148.526 27.4492 145.829 29.2833 142.297 29.2833C137.488 29.2833 134.131 25.8851 134.131 21.0157C134.131 16.1231 137.488 12.7046 142.297 12.7046C145.715 12.7046 148.355 14.4196 149.537 17.4115L149.813 18.1109H153.106L152.586 16.6367C151.053 12.2751 147.109 9.56763 142.297 9.56763C135.728 9.56763 130.963 14.3819 130.963 21.0157C130.963 27.6234 135.728 32.4202 142.297 32.4202C147.246 32.4202 151.248 29.5676 152.746 24.9739L153.144 23.758C153.373 28.7319 157.151 32.426 162.126 32.426C164.472 32.426 166.575 31.6251 168.163 30.1945L168.213 32.1242H171.204V14.4399H168.239L168.181 16.3871ZM168.056 23.285C168.056 26.7789 165.585 29.3181 162.175 29.3181C158.807 29.3181 156.269 26.7238 156.269 23.285C156.269 19.8462 158.807 17.2519 162.175 17.2519C165.582 17.2548 168.056 19.7911 168.056 23.285Z" fill="white"/>
<path d="M177.575 15.9433L177.512 14.4459H174.616V32.1302H177.75V22.3159C177.75 19.4372 179.472 17.5016 182.039 17.5016H184.536V14.4053H182.1C180.346 14.4024 178.795 14.9421 177.575 15.9433Z" fill="white"/>
<path d="M194.561 14.144C192.29 14.144 190.228 14.9101 188.646 16.2827V8.98145H185.512V32.1301H188.46L188.527 30.1625C190.138 31.6019 192.267 32.4319 194.564 32.4319C199.681 32.4319 203.54 28.5027 203.54 23.2908C203.538 18.0732 199.678 14.144 194.561 14.144ZM188.602 23.285C188.602 19.8462 191.143 17.2519 194.509 17.2519C197.915 17.2519 200.39 19.7882 200.39 23.285C200.39 26.7789 197.918 29.3181 194.509 29.3181C191.143 29.3181 188.602 26.7238 188.602 23.285Z" fill="white"/>
<path d="M213.394 14.144C208.169 14.144 204.232 18.0732 204.232 23.288C204.232 28.4998 208.172 32.429 213.394 32.429C218.618 32.429 222.556 28.4998 222.556 23.288C222.556 18.0732 218.618 14.144 213.394 14.144ZM213.394 29.3182C209.909 29.3182 207.377 26.7819 207.377 23.2851C207.377 19.7883 209.906 17.252 213.394 17.252C216.879 17.252 219.408 19.7883 219.408 23.2851C219.408 26.7819 216.879 29.3182 213.394 29.3182Z" fill="white"/>
<path d="M232.671 14.144C230.769 14.144 228.965 14.8434 227.574 16.0419L227.502 14.4459H224.609V32.1301H227.743V22.0141C227.743 19.4604 229.964 17.2201 232.496 17.2201C235.177 17.2201 236.713 18.9728 236.713 22.0286V32.1301H239.847V21.8719C239.849 17.2491 236.963 14.144 232.671 14.144Z" fill="white"/>
<path d="M89.7286 27.1996L89.6851 27.2489C87.7975 29.3557 84.9109 29.7417 82.4889 28.3343L91.988 17.7132L91.2474 16.9732C91.1458 16.8717 91.0296 16.7556 90.9222 16.6627C89.0869 15.0232 86.8333 14.1526 84.5246 14.2164C82.184 14.2803 79.9972 15.3191 78.371 17.1386C76.7476 18.9552 75.9461 21.2536 76.1204 23.6157C76.2917 25.9605 77.4098 28.1659 79.2654 29.8258C81.0514 31.419 83.2498 32.2867 85.4946 32.2867C85.602 32.2867 85.7095 32.2838 85.8198 32.2809C88.1895 32.1938 90.3908 31.1433 92.0141 29.3267C92.2087 29.1091 92.3974 28.8769 92.6065 28.5925L93.9017 26.8311H90.0626L89.7286 27.1996ZM80.2296 26.2362C78.7079 24.0133 78.8443 21.2536 80.6826 19.199C82.4918 17.1793 85.1896 16.7701 87.5477 18.0528L80.2296 26.2362Z" fill="white"/>
<path d="M107.612 27.2518C105.724 29.3557 102.84 29.7417 100.418 28.3343L109.915 17.7161L109.18 16.9761C109.078 16.8746 108.959 16.7585 108.852 16.6627C107.016 15.0232 104.734 14.1526 102.454 14.2164C100.113 14.2803 97.9267 15.3191 96.3005 17.1386C92.9318 20.9053 93.3151 26.361 97.1949 29.8258C99.0477 31.4799 101.258 32.3012 103.43 32.3012C105.826 32.3012 108.175 31.3029 109.944 29.3267C110.138 29.1091 110.327 28.8769 110.536 28.5925L111.831 26.8311H107.978L107.612 27.2518ZM98.1561 26.2362C96.6344 24.0133 96.7709 21.2536 98.6092 19.199C100.418 17.1793 103.116 16.7701 105.474 18.0528L98.1561 26.2362Z" fill="white"/>
<path d="M91.0413 37.1416H88.0763V45.6703H89.0027V42.4956H91.0413C92.6269 42.4956 93.8234 41.3436 93.8234 39.8143C93.8234 38.2879 92.6298 37.1416 91.0413 37.1416ZM89.0056 41.5757V38.0586H91.0297C92.11 38.0586 92.8941 38.7957 92.8941 39.8114C92.8941 40.8328 92.11 41.5728 91.0297 41.5728H89.0056V41.5757Z" fill="white"/>
<path d="M95.8329 41.6773H99.4543V40.7719H95.8329V38.0528H99.7534V37.1416H94.9066V45.6703H99.8782V44.7533H95.8329V41.6773Z" fill="white"/>
<path d="M104.711 37.0198C102.207 37.0198 100.317 38.9089 100.317 41.4133C100.317 43.9089 102.204 45.7894 104.711 45.7894C107.257 45.7894 109.104 43.9496 109.104 41.4133C109.104 38.8683 107.254 37.0198 104.711 37.0198ZM104.711 37.9426C106.714 37.9426 108.169 39.4023 108.169 41.4133C108.169 43.4156 106.714 44.8666 104.711 44.8666C102.707 44.8666 101.252 43.4127 101.252 41.4133C101.252 39.4023 102.707 37.9426 104.711 37.9426Z" fill="white"/>
<path d="M113.373 37.1416H110.408V45.6703H111.335V42.4956H113.373C114.959 42.4956 116.155 41.3436 116.155 39.8143C116.155 38.2879 114.959 37.1416 113.373 37.1416ZM111.337 41.5757V38.0586H113.362C114.442 38.0586 115.226 38.7957 115.226 39.8114C115.226 40.8328 114.442 41.5728 113.362 41.5728H111.337V41.5757Z" fill="white"/>
<path d="M118.165 37.1416H117.236V45.6703H122.062V44.7591H118.165V37.1416Z" fill="white"/>
<path d="M123.909 41.6773H127.53V40.7719H123.909V38.0528H127.829V37.1416H122.983V45.6703H127.954V44.7533H123.909V41.6773Z" fill="white"/>
<path d="M128.712 45.6704H129.093C129.061 45.9374 128.977 46.0157 128.86 46.0912L128.736 46.1724V47.0923L129.145 46.8689C129.703 46.5671 129.92 46.1376 129.92 45.3454V44.4167H128.712V45.6704Z" fill="white"/>
<path d="M134.349 37.1416H131.384V45.6703H132.31V42.4956H134.349C135.935 42.4956 137.131 41.3436 137.131 39.8143C137.131 38.2879 135.935 37.1416 134.349 37.1416ZM132.31 38.0586H134.335C135.415 38.0586 136.199 38.7957 136.199 39.8114C136.199 40.8328 135.415 41.5728 134.335 41.5728H132.31V38.0586Z" fill="white"/>
<path d="M146.497 37.1416L143.038 45.2844V44.7591H139.138V37.1387H138.211V45.6674H142.875H143.038H143.874L144.862 43.3575H148.89L149.891 45.6674H150.902L147.182 37.1387H146.497V37.1416ZM145.242 42.455L146.848 38.6593L148.497 42.455H145.242Z" fill="white"/>
<path d="M157.381 43.8654L152.464 37.1416H151.706V45.6703H152.63V38.9292L157.561 45.6703H158.301V37.1416H157.381V43.8654Z" fill="white"/>
<path d="M161.127 41.6773H164.751V40.7719H161.127V38.0528H165.048V37.1416H160.201V45.6703H165.172V44.7533H161.127V41.6773Z" fill="white"/>
<path d="M171.532 37.1416H165.402V38.0499H168.004V45.6703H168.93V38.0499H171.532V37.1416Z" fill="white"/>
<path d="M171.219 45.6704H171.599C171.567 45.9374 171.483 46.0157 171.367 46.0912L171.242 46.1724V47.0923L171.651 46.8689C172.209 46.5671 172.427 46.1376 172.427 45.3454V44.4167H171.219V45.6704Z" fill="white"/>
<path d="M176.855 37.1416H173.89V45.6703H174.817V42.4956H176.855C178.441 42.4956 179.637 41.3436 179.637 39.8143C179.637 38.2879 178.441 37.1416 176.855 37.1416ZM174.817 41.5757V38.0586H176.841C177.921 38.0586 178.705 38.7957 178.705 39.8114C178.705 40.8328 177.921 41.5728 176.841 41.5728H174.817V41.5757Z" fill="white"/>
<path d="M186.595 39.6807C186.595 38.2095 185.46 37.1387 183.892 37.1387H180.715V45.6674H181.641V42.2083H183.657L185.724 45.6674H186.796L184.667 42.1125C185.823 41.8195 186.595 40.8676 186.595 39.6807ZM181.647 38.0528H183.88C184.931 38.0528 185.663 38.7202 185.663 39.6779C185.663 40.6297 184.931 41.2942 183.88 41.2942H181.647V38.0528Z" fill="white"/>
<path d="M191.733 37.0198C189.229 37.0198 187.339 38.9089 187.339 41.4133C187.339 43.9089 189.226 45.7894 191.733 45.7894C194.279 45.7894 196.126 43.9496 196.126 41.4133C196.123 38.8683 194.277 37.0198 191.733 37.0198ZM191.733 44.8666C189.729 44.8666 188.274 43.4127 188.274 41.4133C188.274 39.4023 189.729 37.9426 191.733 37.9426C193.736 37.9426 195.191 39.4023 195.191 41.4133C195.191 43.4156 193.736 44.8666 191.733 44.8666Z" fill="white"/>
<path d="M197.43 45.6703H198.357V41.834H201.937V40.9257H198.357V38.0528H202.234V37.1416H197.43V45.6703Z" fill="white"/>
<path d="M204.182 37.1416H203.253V45.6703H204.182V37.1416Z" fill="white"/>
<path d="M205.103 37.1416V38.0499H207.705V45.6703H208.634V38.0499H211.236V37.1416H205.103Z" fill="white"/>
<path d="M244.153 17.7103V14.051H245.559C245.756 14.051 245.936 14.1003 246.099 14.199C246.259 14.2977 246.386 14.4312 246.482 14.5966C246.575 14.762 246.625 14.9477 246.625 15.1508C246.625 15.3163 246.595 15.4672 246.535 15.6064C246.474 15.7457 246.389 15.8647 246.285 15.9663C246.177 16.0679 246.055 16.1433 245.916 16.1955L246.793 17.7103H246.058L245.21 16.2536H244.801V17.7103H244.153ZM244.789 15.6151H245.483C245.573 15.6151 245.657 15.5919 245.733 15.5484C245.808 15.502 245.867 15.441 245.913 15.3656C245.96 15.2901 245.98 15.2031 245.98 15.1102C245.98 15.0145 245.957 14.9274 245.913 14.8519C245.867 14.7765 245.808 14.7156 245.733 14.6691C245.657 14.6227 245.576 14.6024 245.483 14.6024H244.789V15.6151Z" fill="white"/>
<path d="M245.469 19.4081C243.523 19.4081 241.937 17.8265 241.937 15.8793C241.937 13.935 243.52 12.3506 245.469 12.3506C247.417 12.3506 249 13.9321 249 15.8793C248.997 17.8265 247.414 19.4081 245.469 19.4081ZM245.469 13.2241C244.002 13.2241 242.811 14.4168 242.811 15.8793C242.811 17.3419 244.005 18.5346 245.469 18.5346C246.935 18.5346 248.126 17.3419 248.126 15.8793C248.126 14.4168 246.932 13.2241 245.469 13.2241Z" fill="white"/>
</svg>
