<svg width="38" height="37" viewBox="0 0 38 37" fill="none" xmlns="http://www.w3.org/2000/svg">
<path d="M24 22.2529L28 18.2529M28 18.2529L24 14.2529M28 18.2529H14M20 22.2529V23.2529C20 24.0486 19.6839 24.8116 19.1213 25.3743C18.5587 25.9369 17.7956 26.2529 17 26.2529H13C12.2044 26.2529 11.4413 25.9369 10.8787 25.3743C10.3161 24.8116 10 24.0486 10 23.2529V13.2529C10 12.4573 10.3161 11.6942 10.8787 11.1316C11.4413 10.569 12.2044 10.2529 13 10.2529H17C17.7956 10.2529 18.5587 10.569 19.1213 11.1316C19.6839 11.6942 20 12.4573 20 13.2529V14.2529" stroke="black" stroke-width="2" stroke-linecap="round" stroke-linejoin="round"/>
</svg>
