<svg width="243" height="57" viewBox="0 0 243 57" fill="none" xmlns="http://www.w3.org/2000/svg">
<g id="Logo">
<g id="Group">
<g id="Group_2">
<path id="Vector" d="M48.2843 47.8792C48.0336 47.8792 47.7912 47.9063 47.5546 47.9545L42.962 34.2855C47.6475 32.6451 51.0398 27.9229 51.0398 22.3685C51.0398 15.4541 45.7852 9.83024 39.3246 9.83024C37.6284 9.83024 36.0168 10.2223 34.5602 10.9188L33.8811 8.77483C34.9997 8.01192 35.7435 6.67608 35.7435 5.1563C35.7435 2.78917 33.9431 0.862305 31.7314 0.862305C29.5196 0.862305 27.7192 2.78917 27.7192 5.1563C27.7192 7.52342 29.5196 9.45031 31.7314 9.45031C32.0497 9.45031 32.3597 9.40507 32.6555 9.32968L33.3289 11.6003C31.1341 13.0025 29.4041 15.1525 28.4433 17.7187L17.2211 13.5242C17.3367 12.9331 17.3986 12.318 17.3986 11.6908C17.3986 6.75751 13.6485 2.74394 9.03905 2.74394C4.42958 2.74394 0.679462 6.75751 0.679462 11.6908C0.679462 16.6241 4.42958 20.6376 9.03905 20.6376C12.5243 20.6376 15.5194 18.3398 16.7703 15.0862L27.9643 19.2716C27.7277 20.2637 27.6009 21.301 27.6009 22.3715C27.6009 22.6097 27.6093 22.8479 27.6206 23.0861L18.1594 27.0304L18.1678 27.0696C17.4691 25.8061 16.1843 24.9557 14.7164 24.9557C12.5046 24.9557 10.7042 26.8826 10.7042 29.2497C10.7042 31.6168 12.5046 33.5437 14.7164 33.5437C16.9281 33.5437 18.7285 31.6168 18.7285 29.2497C18.7285 28.9301 18.6947 28.6225 18.6327 28.324L27.8094 24.7265C28.108 26.4092 28.7223 27.9712 29.5816 29.3432L16.1927 42.5539C14.7276 39.9606 12.0679 38.2237 9.03341 38.2237C4.42395 38.2237 0.673828 42.2372 0.673828 47.1705C0.673828 52.1038 4.42395 56.1173 9.03341 56.1173C13.6429 56.1173 17.393 52.1038 17.393 47.1705C17.393 46.088 17.2127 45.0507 16.883 44.0918L30.4917 30.6127C31.3369 31.647 32.3343 32.5305 33.4501 33.2241L31.7793 36.9331C31.4524 36.8396 31.1087 36.7853 30.7565 36.7853C28.5448 36.7853 26.7444 38.7122 26.7444 41.0793C26.7444 43.4464 28.5448 45.3733 30.7565 45.3733C32.9683 45.3733 34.7687 43.4464 34.7687 41.0793C34.7687 39.662 34.1206 38.4046 33.126 37.6206L34.8616 33.9689C36.2366 34.578 37.7411 34.9127 39.319 34.9127C40.1079 34.9127 40.8799 34.8283 41.6265 34.6685L46.2839 48.4581C45.0808 49.1999 44.2665 50.587 44.2665 52.1762C44.2665 54.5433 46.0669 56.4702 48.2787 56.4702C50.4904 56.4702 52.2908 54.5433 52.2908 52.1762C52.2936 49.803 50.4961 47.8792 48.2843 47.8792ZM28.8575 5.1533C28.8575 3.4556 30.1479 2.07754 31.7314 2.07754C33.3176 2.07754 34.6052 3.45862 34.6052 5.1533C34.6052 6.84798 33.3148 8.22904 31.7314 8.22904C30.1479 8.22904 28.8575 6.84798 28.8575 5.1533ZM9.04468 19.1751C5.1875 19.1751 2.04878 15.8159 2.04878 11.6878C2.04878 7.55962 5.1875 4.20041 9.04468 4.20041C12.9019 4.20041 16.0406 7.55962 16.0406 11.6878C16.0406 15.8159 12.9019 19.1751 9.04468 19.1751ZM14.7248 32.3194C13.1385 32.3194 11.8509 30.9384 11.8509 29.2437C11.8509 27.549 13.1414 26.1679 14.7248 26.1679C16.3111 26.1679 17.5987 27.549 17.5987 29.2437C17.5987 30.9384 16.3111 32.3194 14.7248 32.3194ZM9.04468 54.6488C5.1875 54.6488 2.04878 51.2896 2.04878 47.1615C2.04878 43.0333 5.1875 39.6741 9.04468 39.6741C12.9019 39.6741 16.0406 43.0333 16.0406 47.1615C16.0406 51.2896 12.9019 54.6488 9.04468 54.6488ZM33.6388 41.0703C33.6388 42.768 32.3484 44.146 30.765 44.146C29.1815 44.146 27.8911 42.7649 27.8911 41.0703C27.8911 39.3756 29.1815 37.9945 30.765 37.9945C32.3484 37.9945 33.6388 39.3726 33.6388 41.0703ZM28.973 22.3685C28.973 16.2592 33.6163 11.2897 39.3246 11.2897C45.0329 11.2897 49.6762 16.2592 49.6762 22.3685C49.6762 28.4778 45.0329 33.4472 39.3246 33.4472C33.6163 33.4472 28.973 28.4778 28.973 22.3685ZM48.2843 55.2489C46.698 55.2489 45.4104 53.8678 45.4104 52.1731C45.4104 50.4754 46.7009 49.0974 48.2843 49.0974C49.8706 49.0974 51.1582 50.4785 51.1582 52.1731C51.1582 53.8678 49.8678 55.2489 48.2843 55.2489Z" fill="#62B846"/>
<path id="Vector_2" d="M10.0283 45.7101C11.07 45.021 11.3927 43.5586 10.7489 42.4436C10.1051 41.3287 8.73867 40.9833 7.69688 41.6724C6.65509 42.3614 6.33244 43.8238 6.97623 44.9388C7.62002 46.0537 8.98646 46.3991 10.0283 45.7101Z" fill="#62B846"/>
<path id="Vector_3" d="M10.6434 46.3203H7.12146C5.89302 46.3203 4.89844 47.3848 4.89844 48.6995V52.1703H12.8636V48.6995C12.8664 47.3848 11.8718 46.3203 10.6434 46.3203Z" fill="#62B846"/>
<path id="Vector_4" d="M10.7645 9.00852C11.4083 7.89354 11.0857 6.43112 10.0439 5.74211C9.00207 5.0531 7.63564 5.39841 6.99185 6.51338C6.34806 7.62836 6.67071 9.09078 7.7125 9.77979C8.7543 10.4688 10.1207 10.1235 10.7645 9.00852Z" fill="#62B846"/>
<path id="Vector_5" d="M10.6434 10.4102H7.12146C5.89302 10.4102 4.89844 11.4746 4.89844 12.7893V16.2601H12.8636V12.7893C12.8664 11.4776 11.8718 10.4102 10.6434 10.4102Z" fill="#62B846"/>
<path id="Vector_6" d="M39.5127 21.0153C41.0159 21.0153 42.2345 19.7111 42.2345 18.1024C42.2345 16.4936 41.0159 15.1895 39.5127 15.1895C38.0096 15.1895 36.791 16.4936 36.791 18.1024C36.791 19.7111 38.0096 21.0153 39.5127 21.0153Z" fill="#62B846"/>
<path id="Vector_7" d="M42.2003 21.3438H36.8695C35.6411 21.3438 34.6465 22.4082 34.6465 23.7229V28.5235H44.4205V23.7229C44.4233 22.4082 43.4259 21.3438 42.2003 21.3438Z" fill="#62B846"/>
</g>
<g id="Group_3">
<g id="Group_4">
<path id="Vector_8" d="M67.4608 11.1074H59.8281V34.2449H62.8879V25.9464H67.458C71.5546 25.9464 74.6455 22.7501 74.6455 18.5134C74.6483 14.2917 71.5575 11.1074 67.4608 11.1074ZM62.8879 22.6928V14.3611H67.4242C69.8275 14.3611 71.5716 16.11 71.5716 18.5164C71.5716 20.9378 69.8275 22.6928 67.4242 22.6928H62.8879Z" fill="black"/>
<path id="Vector_9" d="M114.195 17.4263L114.133 15.8704H111.324V34.2465H114.364V24.0482C114.364 21.0569 116.035 19.0456 118.526 19.0456H120.952V15.8281H118.582C116.88 15.8251 115.376 16.386 114.195 17.4263Z" fill="black"/>
<path id="Vector_10" d="M163.846 17.89C162.305 16.3943 160.256 15.5591 157.971 15.5591C152.99 15.5591 149.234 19.642 149.234 25.0607C149.234 25.1452 149.242 25.2266 149.245 25.308H146.174L145.915 26.0619C144.777 29.3849 142.159 31.2906 138.733 31.2906C134.067 31.2906 130.81 27.7596 130.81 22.6996C130.81 17.6156 134.067 14.0634 138.733 14.0634C142.049 14.0634 144.61 15.8455 145.757 18.9545L146.025 19.6812H149.22L148.716 18.1493C147.228 13.6171 143.402 10.8037 138.733 10.8037C132.36 10.8037 127.736 15.8063 127.736 22.6996C127.736 29.5658 132.36 34.5503 138.733 34.5503C143.534 34.5503 147.417 31.5862 148.871 26.8127L149.257 25.5492C149.479 30.7177 153.145 34.5564 157.971 34.5564C160.248 34.5564 162.288 33.7241 163.829 32.2375L163.877 34.2428H166.779V15.8666H163.902L163.846 17.89ZM163.725 25.0577C163.725 28.6883 161.327 31.3268 158.019 31.3268C154.751 31.3268 152.288 28.631 152.288 25.0577C152.288 21.4844 154.751 18.7886 158.019 18.7886C161.324 18.7916 163.725 21.4271 163.725 25.0577Z" fill="black"/>
<path id="Vector_11" d="M172.959 17.4263L172.897 15.8704H170.088V34.2465H173.128V24.0482C173.128 21.0569 174.799 19.0456 177.289 19.0456H179.713V15.8281H177.349C175.647 15.8251 174.142 16.386 172.959 17.4263Z" fill="black"/>
<path id="Vector_12" d="M189.44 15.5588C187.236 15.5588 185.236 16.3549 183.7 17.7812V10.1943H180.66V34.2486H183.52L183.585 32.2041C185.148 33.6997 187.214 34.5622 189.442 34.5622C194.407 34.5622 198.151 30.4792 198.151 25.0635C198.149 19.6417 194.404 15.5588 189.44 15.5588ZM183.658 25.0575C183.658 21.4842 186.123 18.7884 189.389 18.7884C192.694 18.7884 195.094 21.4239 195.094 25.0575C195.094 28.6881 192.697 31.3266 189.389 31.3266C186.123 31.3266 183.658 28.6308 183.658 25.0575Z" fill="black"/>
<path id="Vector_13" d="M207.712 15.5566C202.643 15.5566 198.822 19.6396 198.822 25.0583C198.822 30.4741 202.646 34.557 207.712 34.557C212.78 34.557 216.601 30.4741 216.601 25.0583C216.601 19.6396 212.78 15.5566 207.712 15.5566ZM207.712 31.3244C204.331 31.3244 201.874 28.6889 201.874 25.0553C201.874 21.4217 204.328 18.7862 207.712 18.7862C211.093 18.7862 213.547 21.4217 213.547 25.0553C213.547 28.6889 211.093 31.3244 207.712 31.3244Z" fill="black"/>
<path id="Vector_14" d="M226.413 15.5566C224.568 15.5566 222.818 16.2834 221.468 17.5288L221.398 15.8703H218.592V34.2464H221.632V23.7345C221.632 21.081 223.787 18.753 226.244 18.753C228.845 18.753 230.335 20.5744 230.335 23.7496V34.2464H233.375V23.5868C233.378 18.7832 230.578 15.5566 226.413 15.5566Z" fill="black"/>
<path id="Vector_15" d="M87.7296 29.1273L87.6873 29.1786C85.8559 31.3678 83.0553 31.7689 80.7055 30.3064L89.9216 19.2698L89.2031 18.5009C89.1045 18.3954 88.9918 18.2748 88.8876 18.1783C87.1069 16.4745 84.9205 15.5699 82.6806 15.6362C80.4096 15.7026 78.288 16.7821 76.7102 18.6728C75.1352 20.5604 74.3576 22.9487 74.5267 25.4033C74.6929 27.8397 75.7776 30.1315 77.578 31.8563C79.3108 33.5118 81.4437 34.4134 83.6216 34.4134C83.7259 34.4134 83.8301 34.4104 83.9372 34.4074C86.2363 34.3169 88.372 33.2253 89.947 31.3376C90.1357 31.1115 90.3189 30.8703 90.5217 30.5747L91.7783 28.7444H88.0536L87.7296 29.1273ZM78.5134 28.1262C77.0371 25.8164 77.1695 22.9487 78.953 20.8138C80.7083 18.715 83.3258 18.2898 85.6136 19.6226L78.5134 28.1262Z" fill="black"/>
<path id="Vector_16" d="M105.081 29.1816C103.249 31.3678 100.452 31.7689 98.1018 30.3064L107.315 19.2729L106.602 18.5039C106.504 18.3984 106.388 18.2778 106.284 18.1783C104.503 16.4745 102.289 15.5699 100.077 15.6362C97.806 15.7026 95.6844 16.7821 94.1066 18.6728C90.8383 22.5868 91.2102 28.2559 94.9744 31.8563C96.772 33.5751 98.9161 34.4285 101.024 34.4285C103.348 34.4285 105.627 33.3912 107.343 31.3377C107.532 31.1115 107.715 30.8703 107.918 30.5748L109.175 28.7444H105.436L105.081 29.1816ZM95.907 28.1262C94.4306 25.8164 94.563 22.9487 96.3465 20.8138C98.1018 18.715 100.719 18.2898 103.007 19.6226L95.907 28.1262Z" fill="black"/>
</g>
<g id="Group_5">
<path id="Vector_17" d="M89.0036 39.4541H86.127V48.3165H87.0257V45.0176H89.0036C90.542 45.0176 91.7028 43.8205 91.7028 42.2313C91.7028 40.6452 90.5448 39.4541 89.0036 39.4541ZM87.0286 44.0617V40.407H88.9924C90.0405 40.407 90.8012 41.1729 90.8012 42.2283C90.8012 43.2898 90.0405 44.0587 88.9924 44.0587H87.0286V44.0617Z" fill="black"/>
<path id="Vector_18" d="M93.6527 44.1672H97.1661V43.2264H93.6527V40.401H97.4564V39.4541H92.7539V48.3165H97.5775V47.3636H93.6527V44.1672Z" fill="black"/>
<path id="Vector_19" d="M102.265 39.3281C99.8362 39.3281 98.002 41.2912 98.002 43.8935C98.002 46.4868 99.8333 48.4408 102.265 48.4408C104.736 48.4408 106.528 46.529 106.528 43.8935C106.528 41.249 104.733 39.3281 102.265 39.3281ZM102.265 40.287C104.209 40.287 105.621 41.8038 105.621 43.8935C105.621 45.9742 104.209 47.4819 102.265 47.4819C100.321 47.4819 98.9092 45.9712 98.9092 43.8935C98.9092 41.8038 100.321 40.287 102.265 40.287Z" fill="black"/>
<path id="Vector_20" d="M110.67 39.4541H107.793V48.3165H108.692V45.0176H110.67C112.208 45.0176 113.369 43.8205 113.369 42.2313C113.369 40.6452 112.208 39.4541 110.67 39.4541ZM108.695 44.0617V40.407H110.658C111.707 40.407 112.467 41.1729 112.467 42.2283C112.467 43.2898 111.707 44.0587 110.658 44.0587H108.695V44.0617Z" fill="black"/>
<path id="Vector_21" d="M115.318 39.4541H114.416V48.3165H119.099V47.3696H115.318V39.4541Z" fill="black"/>
<path id="Vector_22" d="M120.893 44.1672H124.406V43.2264H120.893V40.401H124.697V39.4541H119.994V48.3165H124.818V47.3636H120.893V44.1672Z" fill="black"/>
<path id="Vector_23" d="M125.553 48.3183H125.922C125.891 48.5957 125.809 48.6771 125.696 48.7555L125.575 48.84V49.7959L125.973 49.5637C126.514 49.2501 126.725 48.8038 126.725 47.9806V47.0156H125.553V48.3183Z" fill="black"/>
<path id="Vector_24" d="M131.021 39.4541H128.145V48.3165H129.043V45.0176H131.021C132.56 45.0176 133.72 43.8205 133.72 42.2313C133.72 40.6452 132.56 39.4541 131.021 39.4541ZM129.043 40.407H131.007C132.055 40.407 132.816 41.1729 132.816 42.2283C132.816 43.2898 132.055 44.0587 131.007 44.0587H129.043V40.407Z" fill="black"/>
<path id="Vector_25" d="M142.808 39.4551L139.452 47.9165V47.3707H135.668V39.4521H134.77V48.3145H139.294H139.452H140.264L141.222 45.9142H145.13L146.102 48.3145H147.082L143.473 39.4521H142.808V39.4551ZM141.591 44.9764L143.149 41.0322L144.749 44.9764H141.591Z" fill="black"/>
<path id="Vector_26" d="M153.367 46.4409L148.597 39.4541H147.861V48.3165H148.757V41.3116L153.541 48.3165H154.26V39.4541H153.367V46.4409Z" fill="black"/>
<path id="Vector_27" d="M157 44.1672H160.517V43.2264H157V40.401H160.804V39.4541H156.102V48.3165H160.925V47.3636H157V44.1672Z" fill="black"/>
<path id="Vector_28" d="M167.096 39.4541H161.148V40.3979H163.673V48.3165H164.572V40.3979H167.096V39.4541Z" fill="black"/>
<path id="Vector_29" d="M166.793 48.3183H167.162C167.131 48.5957 167.049 48.6771 166.937 48.7555L166.815 48.84V49.7959L167.213 49.5637C167.754 49.2501 167.965 48.8038 167.965 47.9806V47.0156H166.793V48.3183Z" fill="black"/>
<path id="Vector_30" d="M172.261 39.4541H169.385V48.3165H170.284V45.0176H172.261C173.8 45.0176 174.961 43.8205 174.961 42.2313C174.961 40.6452 173.8 39.4541 172.261 39.4541ZM170.284 44.0617V40.407H172.247C173.295 40.407 174.056 41.1729 174.056 42.2283C174.056 43.2898 173.295 44.0587 172.247 44.0587H170.284V44.0617Z" fill="black"/>
<path id="Vector_31" d="M181.709 42.0937C181.709 40.5648 180.608 39.4521 179.086 39.4521H176.004V48.3145H176.903V44.7201H178.858L180.864 48.3145H181.904L179.839 44.6206C180.96 44.316 181.709 43.327 181.709 42.0937ZM176.908 40.402H179.075C180.095 40.402 180.805 41.0956 180.805 42.0907C180.805 43.0797 180.095 43.7703 179.075 43.7703H176.908V40.402Z" fill="black"/>
<path id="Vector_32" d="M186.695 39.3281C184.266 39.3281 182.432 41.2912 182.432 43.8935C182.432 46.4868 184.263 48.4408 186.695 48.4408C189.166 48.4408 190.957 46.529 190.957 43.8935C190.955 41.249 189.163 39.3281 186.695 39.3281ZM186.695 47.4819C184.75 47.4819 183.339 45.9712 183.339 43.8935C183.339 41.8038 184.75 40.287 186.695 40.287C188.639 40.287 190.05 41.8038 190.05 43.8935C190.05 45.9742 188.639 47.4819 186.695 47.4819Z" fill="black"/>
<path id="Vector_33" d="M192.223 48.3165H193.121V44.3301H196.595V43.3863H193.121V40.401H196.883V39.4541H192.223V48.3165Z" fill="black"/>
<path id="Vector_34" d="M198.775 39.4541H197.873V48.3165H198.775V39.4541Z" fill="black"/>
<path id="Vector_35" d="M199.666 39.4541V40.3979H202.191V48.3165H203.092V40.3979H205.617V39.4541H199.666Z" fill="black"/>
</g>
</g>
<g id="Group_6">
<g id="Group_7">
<path id="Vector_36" d="M237.555 19.2654V15.4629H238.918C239.11 15.4629 239.285 15.5141 239.442 15.6167C239.597 15.7192 239.721 15.8579 239.814 16.0298C239.905 16.2017 239.952 16.3947 239.952 16.6057C239.952 16.7776 239.924 16.9344 239.865 17.0792C239.806 17.2239 239.724 17.3475 239.623 17.4531C239.519 17.5586 239.4 17.637 239.265 17.6913L240.116 19.2654H239.403L238.58 17.7516H238.183V19.2654H237.555ZM238.172 17.0882H238.845C238.932 17.0882 239.014 17.0641 239.087 17.0189C239.161 16.9706 239.217 16.9073 239.262 16.8289C239.307 16.7505 239.327 16.66 239.327 16.5635C239.327 16.464 239.304 16.3735 239.262 16.2951C239.217 16.2167 239.161 16.1534 239.087 16.1052C239.014 16.0569 238.935 16.0358 238.845 16.0358H238.172V17.0882Z" fill="black"/>
</g>
<g id="Group_8">
<path id="Vector_37" d="M238.83 21.0289C236.943 21.0289 235.404 19.3855 235.404 17.3621C235.404 15.3418 236.94 13.6953 238.83 13.6953C240.721 13.6953 242.257 15.3387 242.257 17.3621C242.254 19.3855 240.718 21.0289 238.83 21.0289ZM238.83 14.603C237.408 14.603 236.252 15.8423 236.252 17.3621C236.252 18.8819 237.41 20.1212 238.83 20.1212C240.253 20.1212 241.408 18.8819 241.408 17.3621C241.408 15.8423 240.25 14.603 238.83 14.603Z" fill="black"/>
</g>
</g>
</g>
</g>
</svg>
