<svg width="42" height="44" viewBox="0 0 42 44" fill="none" xmlns="http://www.w3.org/2000/svg">
<path d="M38.5137 37.2023C38.3109 37.2023 38.1149 37.2238 37.9234 37.262L34.2083 26.4463C37.9986 25.1483 40.7428 21.4119 40.7428 17.0169C40.7428 11.5458 36.4921 7.09592 31.2659 7.09592C29.8938 7.09592 28.5901 7.40611 27.4118 7.95728L26.8625 6.26083C27.7673 5.65717 28.3691 4.60018 28.3691 3.39764C28.3691 1.52464 26.9127 0 25.1235 0C23.3343 0 21.8779 1.52464 21.8779 3.39764C21.8779 5.27064 23.3343 6.7953 25.1235 6.7953C25.381 6.7953 25.6317 6.75951 25.8711 6.69986L26.4158 8.49651C24.6403 9.606 23.2409 11.3072 22.4637 13.3377L13.3857 10.0188C13.4791 9.55111 13.5293 9.06437 13.5293 8.56809C13.5293 4.66461 10.4957 1.48885 6.76691 1.48885C3.03816 1.48885 0.00455761 4.66461 0.00455761 8.56809C0.00455761 12.4716 3.03816 15.6473 6.76691 15.6473C9.58627 15.6473 12.009 13.8292 13.021 11.2547L22.0762 14.5665C21.8848 15.3515 21.7822 16.1722 21.7822 17.0193C21.7822 17.2077 21.789 17.3962 21.7982 17.5847L14.1446 20.7056L14.1515 20.7366C13.5862 19.7369 12.5469 19.064 11.3595 19.064C9.57031 19.064 8.11391 20.5887 8.11391 22.4617C8.11391 24.3347 9.57031 25.8593 11.3595 25.8593C13.1486 25.8593 14.605 24.3347 14.605 22.4617C14.605 22.2088 14.5777 21.9654 14.5275 21.7292L21.9509 18.8827C22.1925 20.2141 22.6893 21.45 23.3845 22.5357L12.5538 32.9887C11.3686 30.9367 9.21704 29.5624 6.76235 29.5624C3.0336 29.5624 0 32.7381 0 36.6416C0 40.5451 3.0336 43.7208 6.76235 43.7208C10.4911 43.7208 13.5247 40.5451 13.5247 36.6416C13.5247 35.785 13.3788 34.9643 13.1122 34.2055L24.1206 23.5402C24.8044 24.3586 25.6112 25.0576 26.5138 25.6064L25.1622 28.5412C24.8979 28.4672 24.6198 28.4243 24.3349 28.4243C22.5457 28.4243 21.0893 29.9489 21.0893 31.8219C21.0893 33.6949 22.5457 35.2196 24.3349 35.2196C26.1241 35.2196 27.5805 33.6949 27.5805 31.8219C27.5805 30.7005 27.0562 29.7055 26.2517 29.0852L27.6557 26.1958C28.7679 26.6777 29.985 26.9426 31.2613 26.9426C31.8995 26.9426 32.524 26.8758 33.128 26.7493L36.8955 37.6604C35.9223 38.2474 35.2636 39.3449 35.2636 40.6024C35.2636 42.4754 36.72 44 38.5092 44C40.2983 44 41.7547 42.4754 41.7547 40.6024C41.757 38.7246 40.3029 37.2023 38.5137 37.2023ZM22.7987 3.39527C22.7987 2.05196 23.8426 0.96156 25.1235 0.96156C26.4067 0.96156 27.4483 2.05435 27.4483 3.39527C27.4483 4.73619 26.4044 5.82897 25.1235 5.82897C23.8426 5.82897 22.7987 4.73619 22.7987 3.39527ZM6.77147 14.4901C3.65126 14.4901 1.11224 11.8321 1.11224 8.5657C1.11224 5.29928 3.65126 2.64129 6.77147 2.64129C9.89167 2.64129 12.4307 5.29928 12.4307 8.5657C12.4307 11.8321 9.89167 14.4901 6.77147 14.4901ZM11.3663 24.8906C10.0831 24.8906 9.04154 23.7978 9.04154 22.4569C9.04154 21.116 10.0854 20.0232 11.3663 20.0232C12.6495 20.0232 13.6911 21.116 13.6911 22.4569C13.6911 23.7978 12.6495 24.8906 11.3663 24.8906ZM6.77147 42.5589C3.65126 42.5589 1.11224 39.9009 1.11224 36.6345C1.11224 33.368 3.65126 30.71 6.77147 30.71C9.89167 30.71 12.4307 33.368 12.4307 36.6345C12.4307 39.9009 9.89167 42.5589 6.77147 42.5589ZM26.6665 31.8148C26.6665 33.1581 25.6226 34.2485 24.3417 34.2485C23.0608 34.2485 22.017 33.1557 22.017 31.8148C22.017 30.4738 23.0608 29.3811 24.3417 29.3811C25.6226 29.3811 26.6665 30.4715 26.6665 31.8148ZM22.8922 17.0169C22.8922 12.1829 26.6483 8.25075 31.2659 8.25075C35.8835 8.25075 39.6396 12.1829 39.6396 17.0169C39.6396 21.8509 35.8835 25.783 31.2659 25.783C26.6483 25.783 22.8922 21.8509 22.8922 17.0169ZM38.5137 43.0337C37.2305 43.0337 36.1889 41.9409 36.1889 40.6C36.1889 39.2567 37.2328 38.1663 38.5137 38.1663C39.7969 38.1663 40.8385 39.259 40.8385 40.6C40.8385 41.9409 39.7946 43.0337 38.5137 43.0337Z" fill="#62B846"/>
<path d="M7.56809 35.486C8.41083 34.9408 8.67183 33.7837 8.15104 32.9015C7.63026 32.0192 6.52491 31.746 5.68217 32.2912C4.83943 32.8364 4.57843 33.9935 5.09921 34.8757C5.61999 35.758 6.72535 36.0312 7.56809 35.486Z" fill="#62B846"/>
<path d="M8.06523 35.9688H5.21625C4.22252 35.9688 3.41797 36.811 3.41797 37.8513V40.5976H9.86123V37.8513C9.86351 36.811 9.05896 35.9688 8.06523 35.9688Z" fill="#62B846"/>
<path d="M8.16276 6.4462C8.68354 5.56397 8.42255 4.40683 7.5798 3.86164C6.73706 3.31646 5.63171 3.58968 5.11093 4.47192C4.59015 5.35415 4.85114 6.5113 5.69389 7.05648C6.53663 7.60167 7.64198 7.32844 8.16276 6.4462Z" fill="#62B846"/>
<path d="M8.06523 7.55469H5.21625C4.22252 7.55469 3.41797 8.39694 3.41797 9.43724V12.1835H9.86123V9.43724C9.86351 8.39933 9.05896 7.55469 8.06523 7.55469Z" fill="#62B846"/>
<path d="M31.4185 15.9457C32.6345 15.9457 33.6202 14.9138 33.6202 13.6408C33.6202 12.3679 32.6345 11.3359 31.4185 11.3359C30.2025 11.3359 29.2168 12.3679 29.2168 13.6408C29.2168 14.9138 30.2025 15.9457 31.4185 15.9457Z" fill="#62B846"/>
<path d="M33.591 16.2051H29.2787C28.285 16.2051 27.4805 17.0473 27.4805 18.0876V21.8861H35.387V18.0876C35.3893 17.0473 34.5824 16.2051 33.591 16.2051Z" fill="#62B846"/>
</svg>
