<svg width="22" height="20" viewBox="0 0 22 20" fill="none" xmlns="http://www.w3.org/2000/svg">
<g id="mdi-light:information">
<path id="Vector" d="M10.599 2.5C12.7998 2.5 14.9105 3.33407 16.4667 4.81874C18.0229 6.3034 18.8972 8.31704 18.8972 10.4167C18.8972 12.5163 18.0229 14.5299 16.4667 16.0146C14.9105 17.4993 12.7998 18.3333 10.599 18.3333C8.39816 18.3333 6.28748 17.4993 4.73127 16.0146C3.17505 14.5299 2.30078 12.5163 2.30078 10.4167C2.30078 8.31704 3.17505 6.3034 4.73127 4.81874C6.28748 3.33407 8.39816 2.5 10.599 2.5ZM10.599 3.33333C8.62982 3.33333 6.74132 4.07961 5.34892 5.40799C3.95652 6.73638 3.17428 8.53805 3.17428 10.4167C3.17428 12.2953 3.95652 14.097 5.34892 15.4253C6.74132 16.7537 8.62982 17.5 10.599 17.5C11.574 17.5 12.5395 17.3168 13.4403 16.9608C14.3411 16.6048 15.1596 16.0831 15.849 15.4253C16.5385 14.7676 17.0854 13.9867 17.4585 13.1273C17.8316 12.268 18.0237 11.3469 18.0237 10.4167C18.0237 8.53805 17.2414 6.73638 15.849 5.40799C14.4566 4.07961 12.5681 3.33333 10.599 3.33333ZM10.1622 6.66667V8.33333H11.0357V6.66667H10.1622ZM10.1622 10V14.1667H11.0357V10H10.1622Z" fill="white"/>
</g>
</svg>
