<svg width="40" height="41" viewBox="0 0 40 41" fill="none" xmlns="http://www.w3.org/2000/svg">
<path fill-rule="evenodd" clip-rule="evenodd" d="M11.464 11.9669C10 13.4329 10 15.7889 10 20.5029C10 25.2169 10 27.5739 11.464 29.0379C12.93 30.5029 15.286 30.5029 20 30.5029C24.714 30.5029 27.071 30.5029 28.535 29.0379C30 27.5749 30 25.2169 30 20.5029C30 15.7889 30 13.4319 28.535 11.9669C27.072 10.5029 24.714 10.5029 20 10.5029C15.286 10.5029 12.929 10.5029 11.464 11.9669ZM25.576 18.9829C25.6977 18.8295 25.7546 18.6347 25.7345 18.4399C25.7145 18.2451 25.619 18.0659 25.4686 17.9406C25.3182 17.8152 25.1247 17.7537 24.9295 17.7691C24.7344 17.7845 24.5529 17.8756 24.424 18.0229L22.627 20.1789C22.257 20.6239 22.028 20.8949 21.841 21.0639C21.7924 21.1117 21.7375 21.1527 21.678 21.1859L21.667 21.1909L21.659 21.1869L21.656 21.1859C21.5961 21.1528 21.541 21.1117 21.492 21.0639C21.305 20.8939 21.077 20.6239 20.706 20.1789L20.414 19.8289C20.085 19.4339 19.789 19.0789 19.513 18.8289C19.212 18.5569 18.833 18.3149 18.333 18.3149C17.833 18.3149 17.455 18.5569 17.153 18.8289C16.877 19.0789 16.581 19.4339 16.253 19.8289L14.423 22.0229C14.36 22.0986 14.3125 22.186 14.2832 22.2801C14.2539 22.3742 14.2435 22.4731 14.2524 22.5712C14.2705 22.7693 14.3666 22.9521 14.5195 23.0794C14.6724 23.2067 14.8696 23.2681 15.0677 23.25C15.2659 23.2319 15.4487 23.1358 15.576 22.9829L17.373 20.8269C17.743 20.3819 17.972 20.1109 18.159 19.9419C18.2076 19.8942 18.2625 19.8531 18.322 19.8199L18.329 19.8169L18.333 19.8149L18.344 19.8199C18.4039 19.8531 18.459 19.8941 18.508 19.9419C18.695 20.1119 18.923 20.3819 19.294 20.8269L19.586 21.1769C19.915 21.5719 20.211 21.9269 20.487 22.1769C20.788 22.4489 21.167 22.6909 21.667 22.6909C22.167 22.6909 22.545 22.4489 22.847 22.1769C23.123 21.9269 23.419 21.5719 23.747 21.1769L25.576 18.9829Z" fill="black"/>
</svg>
