<svg width="44" height="45" viewBox="0 0 44 45" fill="none" xmlns="http://www.w3.org/2000/svg">
<path d="M31 26.6459V28.0029C31 28.8169 30.619 29.5129 30.09 30.0599C29.567 30.6019 28.857 31.0439 28.058 31.3939C26.456 32.0939 24.314 32.5029 22 32.5029C19.686 32.5029 17.544 32.0949 15.942 31.3939C15.143 31.0439 14.433 30.6019 13.91 30.0599C13.425 29.5599 13.065 28.9319 13.008 28.2039L13 28.0029V26.6459C13.465 26.9099 13.962 27.1439 14.494 27.3409C16.524 28.0919 19.179 28.5109 22 28.5109C24.821 28.5109 27.476 28.0919 29.506 27.3409C29.905 27.1929 30.284 27.0249 30.645 26.8379L31 26.6459ZM13 21.1459C13.465 21.4099 13.962 21.6439 14.494 21.8409C16.524 22.5919 19.179 23.0109 22 23.0109C24.821 23.0109 27.476 22.5919 29.506 21.8409C30.0221 21.6504 30.5218 21.418 31 21.1459V24.2509C30.336 24.7635 29.5983 25.1728 28.812 25.4649C27.057 26.1149 24.648 26.5119 22 26.5119C19.353 26.5119 16.944 26.1149 15.188 25.4649C14.4017 25.1728 13.664 24.7635 13 24.2509V21.1459ZM22 13.5029C24.314 13.5029 26.456 13.9109 28.058 14.6119C28.857 14.9619 29.567 15.4039 30.09 15.9459C30.575 16.4459 30.935 17.0739 30.992 17.8019L31 18.0029V18.7509C30.336 19.2635 29.5983 19.6728 28.812 19.9649C27.057 20.6149 24.648 21.0119 22 21.0119C19.353 21.0119 16.944 20.6149 15.188 19.9649C14.5118 19.7141 13.8714 19.3759 13.283 18.9589L13 18.7509V18.0029C13 17.1889 13.381 16.4929 13.91 15.9459C14.433 15.4039 15.143 14.9619 15.942 14.6119C17.544 13.9119 19.686 13.5029 22 13.5029Z" fill="black"/>
</svg>
