<svg width="25" height="25" viewBox="0 0 25 25" fill="none" xmlns="http://www.w3.org/2000/svg">
<path d="M6.25 15C7.63071 15 8.75 13.8807 8.75 12.5C8.75 11.1193 7.63071 10 6.25 10C4.86929 10 3.75 11.1193 3.75 12.5C3.75 13.8807 4.86929 15 6.25 15Z" fill="#545454"/>
<path d="M12.5 15C13.8807 15 15 13.8807 15 12.5C15 11.1193 13.8807 10 12.5 10C11.1193 10 10 11.1193 10 12.5C10 13.8807 11.1193 15 12.5 15Z" fill="#545454"/>
<path d="M18.75 15C20.1307 15 21.25 13.8807 21.25 12.5C21.25 11.1193 20.1307 10 18.75 10C17.3693 10 16.25 11.1193 16.25 12.5C16.25 13.8807 17.3693 15 18.75 15Z" fill="#545454"/>
</svg>
