<svg width="196" height="44" viewBox="0 0 196 44" fill="none" xmlns="http://www.w3.org/2000/svg">
<g id="Group">
<g id="Group_2">
<path id="Vector" d="M38.5137 37.2023C38.3109 37.2023 38.1149 37.2238 37.9234 37.262L34.2083 26.4463C37.9986 25.1483 40.7428 21.4119 40.7428 17.0169C40.7428 11.5458 36.4921 7.09592 31.2659 7.09592C29.8938 7.09592 28.5901 7.40611 27.4118 7.95728L26.8625 6.26083C27.7673 5.65717 28.3691 4.60018 28.3691 3.39764C28.3691 1.52464 26.9127 0 25.1235 0C23.3343 0 21.8779 1.52464 21.8779 3.39764C21.8779 5.27064 23.3343 6.7953 25.1235 6.7953C25.381 6.7953 25.6317 6.75951 25.8711 6.69986L26.4158 8.49651C24.6403 9.606 23.2409 11.3072 22.4637 13.3377L13.3857 10.0188C13.4791 9.5511 13.5293 9.06437 13.5293 8.56809C13.5293 4.66461 10.4957 1.48885 6.76691 1.48885C3.03816 1.48885 0.00455761 4.66461 0.00455761 8.56809C0.00455761 12.4716 3.03816 15.6473 6.76691 15.6473C9.58627 15.6473 12.009 13.8292 13.021 11.2547L22.0762 14.5665C21.8848 15.3515 21.7822 16.1722 21.7822 17.0193C21.7822 17.2077 21.789 17.3962 21.7982 17.5847L14.1446 20.7056L14.1515 20.7366C13.5862 19.7369 12.5469 19.064 11.3595 19.064C9.57031 19.064 8.11391 20.5887 8.11391 22.4617C8.11391 24.3347 9.57031 25.8593 11.3595 25.8593C13.1486 25.8593 14.605 24.3347 14.605 22.4617C14.605 22.2088 14.5777 21.9654 14.5275 21.7292L21.9509 18.8827C22.1925 20.2141 22.6893 21.45 23.3845 22.5357L12.5538 32.9887C11.3686 30.9367 9.21704 29.5624 6.76235 29.5624C3.0336 29.5624 0 32.7381 0 36.6416C0 40.5451 3.0336 43.7208 6.76235 43.7208C10.4911 43.7208 13.5247 40.5451 13.5247 36.6416C13.5247 35.785 13.3788 34.9643 13.1122 34.2055L24.1206 23.5402C24.8044 24.3586 25.6112 25.0576 26.5138 25.6064L25.1622 28.5412C24.8978 28.4672 24.6198 28.4243 24.3349 28.4243C22.5457 28.4243 21.0893 29.9489 21.0893 31.8219C21.0893 33.6949 22.5457 35.2196 24.3349 35.2196C26.1241 35.2196 27.5805 33.6949 27.5805 31.8219C27.5805 30.7005 27.0562 29.7055 26.2517 29.0852L27.6557 26.1958C28.7679 26.6777 29.985 26.9426 31.2613 26.9426C31.8995 26.9426 32.524 26.8758 33.128 26.7493L36.8955 37.6604C35.9223 38.2474 35.2636 39.3449 35.2636 40.6024C35.2636 42.4754 36.72 44 38.5092 44C40.2983 44 41.7547 42.4754 41.7547 40.6024C41.757 38.7246 40.3029 37.2023 38.5137 37.2023ZM22.7987 3.39527C22.7987 2.05196 23.8426 0.96156 25.1235 0.96156C26.4067 0.96156 27.4483 2.05435 27.4483 3.39527C27.4483 4.73619 26.4044 5.82897 25.1235 5.82897C23.8426 5.82897 22.7987 4.73619 22.7987 3.39527ZM6.77147 14.4901C3.65126 14.4901 1.11224 11.8321 1.11224 8.5657C1.11224 5.29928 3.65126 2.64129 6.77147 2.64129C9.89167 2.64129 12.4307 5.29928 12.4307 8.5657C12.4307 11.8321 9.89167 14.4901 6.77147 14.4901ZM11.3663 24.8906C10.0831 24.8906 9.04154 23.7978 9.04154 22.4569C9.04154 21.116 10.0854 20.0232 11.3663 20.0232C12.6495 20.0232 13.6911 21.116 13.6911 22.4569C13.6911 23.7978 12.6495 24.8906 11.3663 24.8906ZM6.77147 42.5589C3.65126 42.5589 1.11224 39.9009 1.11224 36.6345C1.11224 33.368 3.65126 30.71 6.77147 30.71C9.89167 30.71 12.4307 33.368 12.4307 36.6345C12.4307 39.9009 9.89167 42.5589 6.77147 42.5589ZM26.6665 31.8148C26.6665 33.1581 25.6226 34.2485 24.3417 34.2485C23.0608 34.2485 22.017 33.1557 22.017 31.8148C22.017 30.4738 23.0608 29.3811 24.3417 29.3811C25.6226 29.3811 26.6665 30.4715 26.6665 31.8148ZM22.8922 17.0169C22.8922 12.1829 26.6483 8.25075 31.2659 8.25075C35.8835 8.25075 39.6396 12.1829 39.6396 17.0169C39.6396 21.8509 35.8835 25.783 31.2659 25.783C26.6483 25.783 22.8922 21.8509 22.8922 17.0169ZM38.5137 43.0337C37.2305 43.0337 36.1889 41.9409 36.1889 40.6C36.1889 39.2567 37.2328 38.1663 38.5137 38.1663C39.7969 38.1663 40.8385 39.259 40.8385 40.6C40.8385 41.9409 39.7946 43.0337 38.5137 43.0337Z" fill="#62B846"/>
<path id="Vector_2" d="M7.56809 35.486C8.41083 34.9408 8.67183 33.7837 8.15104 32.9015C7.63026 32.0192 6.52491 31.746 5.68217 32.2912C4.83943 32.8364 4.57843 33.9935 5.09921 34.8757C5.61999 35.758 6.72535 36.0312 7.56809 35.486Z" fill="#62B846"/>
<path id="Vector_3" d="M8.06523 35.9688H5.21625C4.22252 35.9688 3.41797 36.811 3.41797 37.8513V40.5976H9.86123V37.8513C9.86351 36.811 9.05896 35.9688 8.06523 35.9688Z" fill="#62B846"/>
<path id="Vector_4" d="M8.16276 6.4462C8.68354 5.56397 8.42255 4.40683 7.5798 3.86164C6.73706 3.31646 5.63171 3.58968 5.11093 4.47192C4.59015 5.35415 4.85114 6.5113 5.69389 7.05648C6.53663 7.60167 7.64198 7.32844 8.16276 6.4462Z" fill="#62B846"/>
<path id="Vector_5" d="M8.06523 7.55469H5.21625C4.22252 7.55469 3.41797 8.39694 3.41797 9.43724V12.1835H9.86123V9.43724C9.86351 8.39933 9.05896 7.55469 8.06523 7.55469Z" fill="#62B846"/>
<path id="Vector_6" d="M31.4185 15.9457C32.6345 15.9457 33.6202 14.9138 33.6202 13.6408C33.6202 12.3679 32.6345 11.3359 31.4185 11.3359C30.2025 11.3359 29.2168 12.3679 29.2168 13.6408C29.2168 14.9138 30.2025 15.9457 31.4185 15.9457Z" fill="#62B846"/>
<path id="Vector_7" d="M33.591 16.2051H29.2787C28.285 16.2051 27.4805 17.0473 27.4805 18.0876V21.8861H35.387V18.0876C35.3893 17.0473 34.5824 16.2051 33.591 16.2051Z" fill="#62B846"/>
</g>
<g id="Group_3">
<g id="Group_4">
<path id="Vector_8" d="M54.0259 8.10742H47.8516V26.4151H50.3268V19.8489H54.0236C57.3375 19.8489 59.8378 17.3197 59.8378 13.9674C59.8401 10.627 57.3398 8.10742 54.0259 8.10742ZM50.3268 17.2744V10.6819H53.9963C55.9404 10.6819 57.3512 12.0658 57.3512 13.9698C57.3512 15.8857 55.9404 17.2744 53.9963 17.2744H50.3268Z" fill="black"/>
<path id="Vector_9" d="M91.8323 13.1083L91.7821 11.8772H89.5098V26.4174H91.969V18.348C91.969 15.9811 93.3206 14.3896 95.3354 14.3896H97.2978V11.8438H95.381C94.0043 11.8414 92.7872 12.2852 91.8323 13.1083Z" fill="black"/>
<path id="Vector_10" d="M131.995 13.4723C130.749 12.2889 129.092 11.6279 127.243 11.6279C123.214 11.6279 120.175 14.8586 120.175 19.1462C120.175 19.213 120.182 19.2774 120.184 19.3418H117.7L117.49 19.9383C116.57 22.5677 114.452 24.0756 111.681 24.0756C107.906 24.0756 105.272 21.2816 105.272 17.278C105.272 13.2552 107.906 10.4445 111.681 10.4445C114.363 10.4445 116.435 11.8546 117.363 14.3146L117.579 14.8896H120.164L119.756 13.6775C118.553 10.0914 115.457 7.86523 111.681 7.86523C106.525 7.86523 102.785 11.8236 102.785 17.278C102.785 22.7109 106.525 26.6549 111.681 26.6549C115.565 26.6549 118.705 24.3095 119.881 20.5324L120.194 19.5327C120.374 23.6223 123.339 26.6596 127.243 26.6596C129.085 26.6596 130.735 26.0011 131.982 24.8248L132.02 26.4115H134.368V11.8713H132.041L131.995 13.4723ZM131.897 19.1438C131.897 22.0165 129.958 24.1043 127.282 24.1043C124.638 24.1043 122.646 21.9712 122.646 19.1438C122.646 16.3164 124.638 14.1833 127.282 14.1833C129.955 14.1857 131.897 16.2711 131.897 19.1438Z" fill="black"/>
<path id="Vector_11" d="M139.367 13.1083L139.317 11.8772H137.045V26.4174H139.504V18.348C139.504 15.9811 140.856 14.3896 142.871 14.3896H144.831V11.8438H142.918C141.542 11.8414 140.325 12.2852 139.367 13.1083Z" fill="black"/>
<path id="Vector_12" d="M152.7 11.6285C150.917 11.6285 149.299 12.2584 148.057 13.3869V7.38379H145.598V26.4168H147.911L147.963 24.7991C149.228 25.9826 150.899 26.665 152.702 26.665C156.718 26.665 159.747 23.4343 159.747 19.1491C159.745 14.8591 156.716 11.6285 152.7 11.6285ZM148.023 19.1443C148.023 16.3169 150.017 14.1839 152.659 14.1839C155.332 14.1839 157.274 16.2692 157.274 19.1443C157.274 22.017 155.334 24.1048 152.659 24.1048C150.017 24.1048 148.023 21.9717 148.023 19.1443Z" fill="black"/>
<path id="Vector_13" d="M167.48 11.6279C163.38 11.6279 160.289 14.8586 160.289 19.1462C160.289 23.4314 163.382 26.662 167.48 26.662C171.58 26.662 174.671 23.4314 174.671 19.1462C174.671 14.8586 171.58 11.6279 167.48 11.6279ZM167.48 24.1043C164.745 24.1043 162.757 22.0189 162.757 19.1438C162.757 16.2687 164.743 14.1833 167.48 14.1833C170.215 14.1833 172.2 16.2687 172.2 19.1438C172.2 22.0189 170.215 24.1043 167.48 24.1043Z" fill="black"/>
<path id="Vector_14" d="M182.608 11.6279C181.115 11.6279 179.7 12.203 178.608 13.1884L178.551 11.8761H176.281V26.4163H178.74V18.0987C178.74 15.9991 180.484 14.1571 182.472 14.1571C184.575 14.1571 185.781 15.5982 185.781 18.1107V26.4163H188.24V17.9818C188.242 14.1809 185.977 11.6279 182.608 11.6279Z" fill="black"/>
<path id="Vector_15" d="M70.4233 22.3632L70.3891 22.4037C68.9076 24.1359 66.6421 24.4533 64.7413 23.2961L72.1965 14.5634L71.6153 13.9549C71.5355 13.8714 71.4444 13.776 71.36 13.6996C69.9196 12.3516 68.1509 11.6358 66.339 11.6882C64.502 11.7407 62.7857 12.5949 61.5094 14.0909C60.2353 15.5846 59.6063 17.4743 59.743 19.4165C59.8775 21.3443 60.755 23.1577 62.2114 24.5225C63.6131 25.8324 65.3384 26.5458 67.1002 26.5458C67.1846 26.5458 67.2689 26.5434 67.3555 26.541C69.2153 26.4694 70.9429 25.6057 72.217 24.1121C72.3697 23.9331 72.5179 23.7423 72.682 23.5084L73.6985 22.0601H70.6854L70.4233 22.3632ZM62.9681 21.571C61.7738 19.7433 61.8809 17.4743 63.3236 15.785C64.7435 14.1243 66.8609 13.7879 68.7116 14.8425L62.9681 21.571Z" fill="black"/>
<path id="Vector_16" d="M84.4576 22.4061C82.9761 24.136 80.7129 24.4533 78.812 23.2961L86.265 14.5658L85.6883 13.9573C85.6086 13.8738 85.5151 13.7784 85.4308 13.6996C83.9903 12.3516 82.1989 11.6358 80.4097 11.6882C78.5727 11.7407 76.8565 12.5949 75.5801 14.0909C72.9363 17.1879 73.2371 21.6736 76.2821 24.5225C77.7362 25.8825 79.4707 26.5577 81.1755 26.5577C83.0559 26.5577 84.8997 25.7369 86.2878 24.1121C86.4405 23.9331 86.5886 23.7423 86.7527 23.5084L87.7692 22.0601H84.7448L84.4576 22.4061ZM77.0365 21.571C75.8422 19.7433 75.9494 17.4743 77.3921 15.785C78.812 14.1243 80.9294 13.7879 82.7801 14.8425L77.0365 21.571Z" fill="black"/>
</g>
<g id="Group_5">
<path id="Vector_17" d="M71.452 30.5381H69.125V37.5505H69.8521V34.9402H71.452C72.6965 34.9402 73.6355 33.993 73.6355 32.7356C73.6355 31.4806 72.6988 30.5381 71.452 30.5381ZM69.8543 34.1839V31.2921H71.4429C72.2908 31.2921 72.9062 31.8981 72.9062 32.7332C72.9062 33.5731 72.2908 34.1815 71.4429 34.1815H69.8543V34.1839Z" fill="black"/>
<path id="Vector_18" d="M75.2134 34.2674H78.0555V33.523H75.2134V31.2873H78.2903V30.5381H74.4863V37.5505H78.3883V36.7965H75.2134V34.2674Z" fill="black"/>
<path id="Vector_19" d="M82.1808 30.4385C80.2162 30.4385 78.7324 31.9918 78.7324 34.0509C78.7324 36.1028 80.2139 37.6489 82.1808 37.6489C84.1797 37.6489 85.6292 36.1362 85.6292 34.0509C85.6292 31.9584 84.1774 30.4385 82.1808 30.4385ZM82.1808 31.1972C83.7535 31.1972 84.8953 32.3974 84.8953 34.0509C84.8953 35.6972 83.7535 36.8902 82.1808 36.8902C80.6082 36.8902 79.4663 35.6948 79.4663 34.0509C79.4663 32.3974 80.6082 31.1972 82.1808 31.1972Z" fill="black"/>
<path id="Vector_20" d="M88.9794 30.5381H86.6523V37.5505H87.3794V34.9402H88.9794C90.2238 34.9402 91.1629 33.993 91.1629 32.7356C91.1629 31.4806 90.2238 30.5381 88.9794 30.5381ZM87.3817 34.1839V31.2921H88.9703C89.8181 31.2921 90.4335 31.8981 90.4335 32.7332C90.4335 33.5731 89.8181 34.1815 88.9703 34.1815H87.3817V34.1839Z" fill="black"/>
<path id="Vector_21" d="M92.7391 30.5381H92.0098V37.5505H95.7978V36.8013H92.7391V30.5381Z" fill="black"/>
<path id="Vector_22" d="M97.2485 34.2674H100.091V33.523H97.2485V31.2873H100.325V30.5381H96.5215V37.5505H100.423V36.7965H97.2485V34.2674Z" fill="black"/>
<path id="Vector_23" d="M101.018 37.5503H101.316C101.291 37.7698 101.225 37.8342 101.134 37.8963L101.036 37.9631V38.7194L101.357 38.5357C101.795 38.2876 101.966 37.9344 101.966 37.2831V36.5195H101.018V37.5503Z" fill="black"/>
<path id="Vector_24" d="M105.442 30.5381H103.115V37.5505H103.842V34.9402H105.442C106.687 34.9402 107.626 33.993 107.626 32.7356C107.626 31.4806 106.687 30.5381 105.442 30.5381ZM103.842 31.2921H105.431C106.279 31.2921 106.894 31.8981 106.894 32.7332C106.894 33.5731 106.279 34.1815 105.431 34.1815H103.842V31.2921Z" fill="black"/>
<path id="Vector_25" d="M114.975 30.5385L112.261 37.2336V36.8017H109.2V30.5361H108.473V37.5485H112.133H112.261H112.917L113.692 35.6493H116.853L117.64 37.5485H118.433L115.513 30.5361H114.975V30.5385ZM113.991 34.9073L115.251 31.7864L116.546 34.9073H113.991Z" fill="black"/>
<path id="Vector_26" d="M123.518 36.0664L119.659 30.5381H119.064V37.5505H119.789V32.0079L123.659 37.5505H124.24V30.5381H123.518V36.0664Z" fill="black"/>
<path id="Vector_27" d="M126.458 34.2674H129.302V33.523H126.458V31.2873H129.534V30.5381H125.73V37.5505H129.632V36.7965H126.458V34.2674Z" fill="black"/>
<path id="Vector_28" d="M134.624 30.5381H129.812V31.2849H131.855V37.5505H132.582V31.2849H134.624V30.5381Z" fill="black"/>
<path id="Vector_29" d="M134.379 37.5503H134.677C134.652 37.7698 134.586 37.8342 134.495 37.8963L134.397 37.9631V38.7194L134.719 38.5357C135.156 38.2876 135.327 37.9344 135.327 37.2831V36.5195H134.379V37.5503Z" fill="black"/>
<path id="Vector_30" d="M138.802 30.5381H136.475V37.5505H137.202V34.9402H138.802C140.046 34.9402 140.985 33.993 140.985 32.7356C140.985 31.4806 140.046 30.5381 138.802 30.5381ZM137.202 34.1839V31.2921H138.79C139.638 31.2921 140.254 31.8981 140.254 32.7332C140.254 33.5731 139.638 34.1815 138.79 34.1815H137.202V34.1839Z" fill="black"/>
<path id="Vector_31" d="M146.445 32.6262C146.445 31.4165 145.554 30.5361 144.324 30.5361H141.83V37.5485H142.557V34.7044H144.139L145.762 37.5485H146.603L144.932 34.6257C145.839 34.3847 146.445 33.6021 146.445 32.6262ZM142.562 31.2877H144.314C145.139 31.2877 145.714 31.8365 145.714 32.6239C145.714 33.4065 145.139 33.9529 144.314 33.9529H142.562V31.2877Z" fill="black"/>
<path id="Vector_32" d="M150.478 30.4385C148.513 30.4385 147.029 31.9918 147.029 34.0509C147.029 36.1028 148.511 37.6489 150.478 37.6489C152.477 37.6489 153.926 36.1362 153.926 34.0509C153.924 31.9584 152.474 30.4385 150.478 30.4385ZM150.478 36.8902C148.905 36.8902 147.763 35.6948 147.763 34.0509C147.763 32.3974 148.905 31.1972 150.478 31.1972C152.05 31.1972 153.192 32.3974 153.192 34.0509C153.192 35.6972 152.05 36.8902 150.478 36.8902Z" fill="black"/>
<path id="Vector_33" d="M154.949 37.5505H155.676V34.3962H158.487V33.6494H155.676V31.2873H158.719V30.5381H154.949V37.5505Z" fill="black"/>
<path id="Vector_34" d="M160.249 30.5381H159.52V37.5505H160.249V30.5381Z" fill="black"/>
<path id="Vector_35" d="M160.971 30.5381V31.2849H163.013V37.5505H163.742V31.2849H165.784V30.5381H160.971Z" fill="black"/>
</g>
</g>
<g id="Group_6">
<g id="Group_7">
<path id="Vector_36" d="M191.619 14.5605V11.5518H192.722C192.877 11.5518 193.019 11.5923 193.146 11.6734C193.272 11.7546 193.372 11.8643 193.447 12.0003C193.52 12.1363 193.559 12.289 193.559 12.456C193.559 12.592 193.536 12.7161 193.488 12.8306C193.44 12.9452 193.374 13.043 193.292 13.1265C193.208 13.21 193.112 13.272 193.003 13.315L193.691 14.5605H193.114L192.449 13.3627H192.127V14.5605H191.619ZM192.118 12.8378H192.663C192.734 12.8378 192.8 12.8187 192.859 12.7829C192.918 12.7447 192.964 12.6946 193 12.6326C193.037 12.5706 193.053 12.499 193.053 12.4226C193.053 12.3439 193.035 12.2723 193 12.2103C192.964 12.1482 192.918 12.0982 192.859 12.06C192.8 12.0218 192.736 12.0051 192.663 12.0051H192.118V12.8378Z" fill="black"/>
</g>
<g id="Group_8">
<path id="Vector_37" d="M192.652 15.957C191.125 15.957 189.881 14.6567 189.881 13.0557C189.881 11.4571 191.123 10.1543 192.652 10.1543C194.182 10.1543 195.424 11.4547 195.424 13.0557C195.422 14.6567 194.179 15.957 192.652 15.957ZM192.652 10.8725C191.501 10.8725 190.567 11.8531 190.567 13.0557C190.567 14.2582 191.504 15.2388 192.652 15.2388C193.803 15.2388 194.738 14.2582 194.738 13.0557C194.738 11.8531 193.801 10.8725 192.652 10.8725Z" fill="black"/>
</g>
</g>
</g>
</svg>
