<svg width="26" height="26" viewBox="0 0 26 26" fill="none" xmlns="http://www.w3.org/2000/svg">
<path d="M11.375 6.5V8.125H6.5V6.5H11.375ZM6.5 11.375V9.75H11.375V11.375H6.5ZM6.5 14.625V13H9.75V14.625H6.5ZM4.875 6.5V8.125H3.25V6.5H4.875ZM4.875 9.75V11.375H3.25V9.75H4.875ZM3.25 14.625V13H4.875V14.625H3.25ZM1.625 1.625V24.375H9.75V26H0V0H14.1553L21.125 6.96973V9.75H19.5V8.125H13V1.625H1.625ZM14.625 2.78027V6.5H18.3447L14.625 2.78027ZM22.75 13H26V26H11.375V13H14.625V11.375H16.25V13H21.125V11.375H22.75V13ZM24.375 24.375V17.875H13V24.375H24.375ZM24.375 16.25V14.625H13V16.25H24.375Z" fill="#34B206"/>
</svg>
