<svg width="24" height="24" viewBox="0 0 24 24" fill="none" xmlns="http://www.w3.org/2000/svg">
<path id="Vector" d="M20 16.9639C18.9867 16.9639 18.08 17.3253 17.3867 17.8916L7.88 12.8916C7.94667 12.6145 8 12.3373 8 12.0482C8 11.759 7.94667 11.4819 7.88 11.2048L17.28 6.25301C18 6.85542 18.9467 7.22892 20 7.22892C22.2133 7.22892 24 5.61446 24 3.61446C24 1.61446 22.2133 0 20 0C17.7867 0 16 1.61446 16 3.61446C16 3.90361 16.0533 4.18072 16.12 4.45783L6.72 9.40964C6 8.80723 5.05333 8.43373 4 8.43373C1.78667 8.43373 0 10.0482 0 12.0482C0 14.0482 1.78667 15.6627 4 15.6627C5.05333 15.6627 6 15.2892 6.72 14.6867L16.2133 19.6988C16.1467 19.9518 16.1067 20.2169 16.1067 20.4819C16.1067 22.4217 17.8533 24 20 24C22.1467 24 23.8933 22.4217 23.8933 20.4819C23.8933 18.5422 22.1467 16.9639 20 16.9639ZM20 2.40964C20.7333 2.40964 21.3333 2.95181 21.3333 3.61446C21.3333 4.27711 20.7333 4.81928 20 4.81928C19.2667 4.81928 18.6667 4.27711 18.6667 3.61446C18.6667 2.95181 19.2667 2.40964 20 2.40964ZM4 13.253C3.26667 13.253 2.66667 12.7108 2.66667 12.0482C2.66667 11.3855 3.26667 10.8434 4 10.8434C4.73333 10.8434 5.33333 11.3855 5.33333 12.0482C5.33333 12.7108 4.73333 13.253 4 13.253ZM20 21.7108C19.2667 21.7108 18.6667 21.1687 18.6667 20.506C18.6667 19.8434 19.2667 19.3012 20 19.3012C20.7333 19.3012 21.3333 19.8434 21.3333 20.506C21.3333 21.1687 20.7333 21.7108 20 21.7108Z" fill="black"/>
</svg>
