<svg width="38" height="39" viewBox="0 0 38 39" fill="none" xmlns="http://www.w3.org/2000/svg">
<path d="M10 19.5029C10 20.6848 10.2328 21.8552 10.6851 22.9471C11.1374 24.039 11.8003 25.0312 12.636 25.8669C13.4718 26.7026 14.4639 27.3656 15.5558 27.8178C16.6478 28.2701 17.8181 28.5029 19 28.5029C20.1819 28.5029 21.3522 28.2701 22.4442 27.8178C23.5361 27.3656 24.5282 26.7026 25.364 25.8669C26.1997 25.0312 26.8626 24.039 27.3149 22.9471C27.7672 21.8552 28 20.6848 28 19.5029C28 18.321 27.7672 17.1507 27.3149 16.0588C26.8626 14.9668 26.1997 13.9747 25.364 13.139C24.5282 12.3032 23.5361 11.6403 22.4442 11.188C21.3522 10.7357 20.1819 10.5029 19 10.5029C17.8181 10.5029 16.6478 10.7357 15.5558 11.188C14.4639 11.6403 13.4718 12.3032 12.636 13.139C11.8003 13.9747 11.1374 14.9668 10.6851 16.0588C10.2328 17.1507 10 18.321 10 19.5029Z" stroke="black" stroke-width="2" stroke-linecap="round" stroke-linejoin="round"/>
<path d="M21.8 16.5029C21.6188 16.1887 21.3557 15.9296 21.0386 15.7535C20.7215 15.5773 20.3625 15.4907 20 15.5029H18C17.4696 15.5029 16.9609 15.7136 16.5858 16.0887C16.2107 16.4638 16 16.9725 16 17.5029C16 18.0334 16.2107 18.5421 16.5858 18.9171C16.9609 19.2922 17.4696 19.5029 18 19.5029H20C20.5304 19.5029 21.0391 19.7136 21.4142 20.0887C21.7893 20.4638 22 20.9725 22 21.5029C22 22.0334 21.7893 22.5421 21.4142 22.9171C21.0391 23.2922 20.5304 23.5029 20 23.5029H18C17.6375 23.5151 17.2785 23.4285 16.9614 23.2524C16.6443 23.0762 16.3812 22.8172 16.2 22.5029M19 14.5029V24.5029" stroke="black" stroke-width="2" stroke-linecap="round" stroke-linejoin="round"/>
</svg>
