<svg width="107" height="107" viewBox="0 0 107 107" fill="none" xmlns="http://www.w3.org/2000/svg">
<path d="M37.896 55.7292L46.8127 64.6459L69.1043 42.3542" stroke="#5E896E" stroke-width="9" stroke-linecap="round" stroke-linejoin="round"/>
<path d="M13.5047 58.3043C12.0518 55.2646 12.0518 51.731 13.5047 48.6913C14.1328 47.377 15.204 46.1202 17.3464 43.6063C18.199 42.6057 18.6254 42.1055 18.9835 41.5712C19.8044 40.3464 20.3741 38.971 20.6597 37.5244C20.7843 36.8934 20.8365 36.2382 20.9411 34.9278C21.2039 31.6353 21.3352 29.9891 21.8204 28.6156C22.9424 25.4389 25.4411 22.9402 28.6178 21.8181C29.9912 21.333 31.6375 21.2016 34.93 20.9389C36.2404 20.8344 36.8956 20.7821 37.5267 20.6575C38.9732 20.3719 40.3486 19.8022 41.5734 18.9813C42.1077 18.6232 42.608 18.1968 43.6085 17.3442C46.1224 15.2018 47.3792 14.1306 48.6935 13.5025C51.7332 12.0496 55.2669 12.0496 58.3066 13.5025C59.6209 14.1306 60.8777 15.2018 63.3918 17.3442C64.3922 18.1968 64.8924 18.6232 65.427 18.9813C66.6517 19.8022 68.0271 20.3719 69.4734 20.6575C70.1047 20.7821 70.7596 20.8344 72.0704 20.9389C75.3628 21.2016 77.0089 21.333 78.3825 21.8181C81.559 22.9402 84.0579 25.4389 85.1801 28.6156M21.8204 78.3802C22.9424 81.5568 25.4411 84.0557 28.6178 85.1778C29.9912 85.6629 31.6375 85.794 34.93 86.057C36.2404 86.1613 36.8956 86.214 37.5267 86.3383C38.9732 86.6241 40.3486 87.1934 41.5734 88.0147C42.1076 88.3727 42.608 88.7989 43.6085 89.6518C46.1224 91.794 47.3792 92.8653 48.6935 93.4935C51.7332 94.946 55.2669 94.946 58.3066 93.4935C59.6209 92.8653 60.8777 91.794 63.3918 89.6518C64.3922 88.7989 64.8924 88.3727 65.427 88.0147C66.6517 87.1934 68.0271 86.6241 69.4734 86.3383C70.1047 86.214 70.7596 86.1613 72.0704 86.057C75.3628 85.794 77.0089 85.6629 78.3825 85.1778C81.559 84.0557 84.0579 81.5568 85.1801 78.3802C85.6652 77.0066 85.7962 75.3606 86.0593 72.0681C86.1636 70.7578 86.2158 70.1024 86.3406 69.4716C86.6259 68.0248 87.1957 66.6494 88.0169 65.4247C88.3749 64.8902 88.8011 64.39 89.654 63.3895C91.7963 60.8755 92.8676 59.6187 93.4958 58.3043C94.9483 55.2646 94.9483 51.731 93.4958 48.6913" stroke="#5E896E" stroke-width="9" stroke-linecap="round"/>
</svg>
