<svg width="62" height="19" viewBox="0 0 62 19" fill="none" xmlns="http://www.w3.org/2000/svg">
<path d="M26.4528 18.2404H21.5078L24.6008 0.325195H29.5455L26.4528 18.2404Z" fill="#15195A"/>
<path d="M44.3765 0.762721C43.4012 0.400232 41.8541 0 39.9413 0C35.058 0 31.6192 2.43939 31.5981 5.92698C31.5575 8.50012 34.0602 9.9293 35.9319 10.7873C37.8451 11.664 38.4954 12.2362 38.4954 13.0177C38.4759 14.2179 36.9495 14.7711 35.5258 14.7711C33.5515 14.7711 32.4937 14.4859 30.8861 13.8181L30.2349 13.5319L29.543 17.5535C30.7028 18.0484 32.8395 18.4877 35.058 18.5069C40.2466 18.5069 43.6245 16.1053 43.6645 12.3887C43.6843 10.3493 42.3628 8.78661 39.5138 7.50967C37.7842 6.68995 36.725 6.13723 36.725 5.29852C36.7453 4.53605 37.6209 3.75509 39.5732 3.75509C41.1808 3.71684 42.362 4.07882 43.2568 4.44106L43.704 4.63129L44.3765 0.762721Z" fill="#15195A"/>
<path fill-rule="evenodd" clip-rule="evenodd" d="M53.2266 0.325195H57.0515L61.0408 18.2401H56.4623C56.4623 18.2401 56.0142 16.1817 55.8722 15.5528H49.5233C49.3397 16.029 48.4855 18.2401 48.4855 18.2401H43.2969L50.642 1.81163C51.1509 0.648927 52.047 0.325195 53.2266 0.325195ZM52.9213 6.88131C52.9213 6.88131 51.3543 10.8646 50.9471 11.8938H55.0573C54.8539 10.9981 53.9175 6.70982 53.9175 6.70982L53.5719 5.16614C53.4264 5.56363 53.2159 6.11013 53.074 6.47874C52.9778 6.72863 52.913 6.89676 52.9213 6.88131Z" fill="#15195A"/>
<path fill-rule="evenodd" clip-rule="evenodd" d="M0.0813931 0.325195H8.03737C9.11576 0.362939 9.9908 0.686924 10.2755 1.83113L12.0047 10.063C12.0048 10.0633 12.0049 10.0637 12.005 10.064L12.5342 12.5417L17.377 0.325205H22.6059L14.8332 18.2214H9.60407L5.1966 2.65463C3.67592 1.82181 1.94041 1.152 0 0.687177L0.0813931 0.325195Z" fill="#15195A"/>
</svg>
