<svg width="16" height="16" viewBox="0 0 16 16" fill="none" xmlns="http://www.w3.org/2000/svg">
<path id="Vector" d="M12.9517 2.3033C10.0276 -0.620858 5.2693 -0.620858 2.34514 2.3033C-0.579022 5.22746 -0.579022 9.98574 2.34514 12.9099C5.2693 15.8341 10.0276 15.8341 12.9517 12.9099C15.8759 9.98574 15.8759 5.22746 12.9517 2.3033ZM12.1358 3.11919C14.619 5.60236 14.619 9.61084 12.1358 12.094C9.65268 14.5772 5.6442 14.5772 3.16103 12.094C0.677861 9.61084 0.677861 5.60236 3.16103 3.11919C5.6442 0.636025 9.65268 0.636025 12.1358 3.11919ZM10.5551 4.69998L9.96761 4.69998L5.32845 4.69998L5.31499 5.86059L8.57855 5.86059L4.38487 10.0543L5.20076 10.8702L9.39445 6.67648L9.39445 9.94005L10.5555 9.92618L10.5551 5.28661V4.69917V4.69998Z" fill="#34B206"/>
</svg>
