<svg width="48" height="48" viewBox="0 0 48 48" fill="none" xmlns="http://www.w3.org/2000/svg">
<g id="shield-check">
<path id="Vector" fill-rule="evenodd" clip-rule="evenodd" d="M5.1982 11.9975C12.1465 11.9111 18.8274 9.30583 23.9998 4.66553C29.1719 9.3067 35.8528 11.9129 42.8014 11.9999C43.0654 13.5599 43.1998 15.1679 43.1998 16.8023C43.1998 29.3423 35.1838 40.0103 23.9998 43.9631C12.8158 40.0079 4.7998 29.3399 4.7998 16.7999C4.7998 15.1631 4.9366 13.5599 5.1982 11.9975V11.9975ZM32.8966 20.8967C33.3338 20.4441 33.5757 19.8378 33.5702 19.2086C33.5648 18.5793 33.3123 17.9773 32.8674 17.5324C32.4224 17.0874 31.8204 16.835 31.1912 16.8295C30.5619 16.824 29.9557 17.0659 29.503 17.5031L21.5998 25.4063L18.4966 22.3031C18.044 21.8659 17.4377 21.624 16.8084 21.6295C16.1792 21.635 15.5772 21.8874 15.1322 22.3324C14.6873 22.7773 14.4349 23.3793 14.4294 24.0086C14.4239 24.6378 14.6658 25.2441 15.103 25.6967L19.903 30.4967C20.3531 30.9467 20.9634 31.1994 21.5998 31.1994C22.2362 31.1994 22.8465 30.9467 23.2966 30.4967L32.8966 20.8967V20.8967Z" fill="#5E896E"/>
</g>
</svg>
