<svg width="228" height="47" viewBox="0 0 228 47" fill="none" xmlns="http://www.w3.org/2000/svg">
<path d="M149.374 1.06189H148.435V46.245H149.374V1.06189Z" fill="#EB0045"/>
<path d="M118.511 20.5964C120.387 19.3428 122.595 17.051 122.595 11.8059C122.595 6.53772 120.572 0.277468 110.997 0.277468H84.8484V45.3836H110.712C121.487 45.3836 124.34 36.247 124.34 31.2788C124.34 26.1106 122.395 22.5575 118.511 20.5964ZM108.205 36.247H94.3311V8.72958H107.382C112.166 8.72958 113.127 10.2831 113.127 12.8057C113.127 16.4511 109.905 17.2586 108.79 17.2586H101.491L96.8306 26.3106H109.351C111.728 26.3106 114.573 27.1489 114.573 31.1019C114.573 35.4087 112.243 36.247 108.205 36.247ZM22.415 0.223633C33.0052 0.223633 40.4037 9.3756 40.4037 22.4652C40.4037 35.7702 32.8052 45.3913 21.4922 45.3913H0.704102V18.0738L10.1945 12.6672V36.1932H18.9158C26.0989 36.1932 30.2135 31.3557 30.2135 22.9036C30.2135 13.8439 26.4373 8.66806 19.8617 8.66806H0.704102V0.223633H22.415Z" fill="#EB0045"/>
<path d="M79.1649 0.346741H43.2876V9.26799H79.1649V0.346741Z" fill="#EB0045"/>
<path d="M65.9677 12.6674L56.4773 18.0739H56.5081V45.3684H65.9369V12.6674" fill="#EB0045"/>
<path d="M223.251 2.90779C224.812 2.90779 225.697 4.146 225.697 6.32247C225.697 8.22978 224.835 9.52182 223.036 9.52182H220.821V3.44614L218.752 4.6382V11.3676H223.628C226.22 11.3676 227.935 9.32186 227.935 6.20711C227.935 3.10775 226.181 1.04663 223.843 1.04663H218.752V2.89241H223.251" fill="#EB0045"/>
<path d="M161.179 2.90779C162.709 2.90779 163.617 4.146 163.617 6.32247C163.617 8.22978 162.733 9.52182 160.964 9.52182H158.749V3.44614L156.672 4.6382V11.3676H161.564C164.14 11.3676 165.87 9.32186 165.87 6.20711C165.87 3.10775 164.117 1.04663 161.779 1.04663H156.68V2.89241H161.179" fill="#EB0045"/>
<path d="M189.05 11.3753L191.588 4.46131H191.596V11.3753H193.657V1.0697H190.981L188.104 8.56817L185.259 1.0697H182.552V11.3753H184.628V4.46131H184.659L187.181 11.3753H189.05Z" fill="#EB0045"/>
<path d="M169.97 1.0697H167.924V11.3753H169.97V1.0697Z" fill="#EB0045"/>
<path d="M177.606 1.0697H174.945L171.2 11.3753H173.638L176.291 3.3077L177.614 7.36842H175.707L174.792 9.25264H178.245L178.937 11.3753H181.352L177.606 1.0697Z" fill="#EB0045"/>
<path d="M214.499 8.25266H214.483L210.007 1.07721H207.485V11.3751H209.561V4.19196H209.584L214.222 11.3751H216.568V1.07721H214.499V8.25266Z" fill="#EB0045"/>
<path d="M200.571 0.777283C196.487 0.777283 195.334 4.06892 195.334 6.23001C195.334 8.36804 196.403 11.6674 200.571 11.6674C204.647 11.6674 205.824 8.36804 205.824 6.23001C205.824 4.06892 204.686 0.777283 200.571 0.777283ZM200.571 9.75237C198.448 9.75237 197.572 7.82969 197.572 6.23001C197.572 4.60727 198.448 2.70766 200.571 2.70766C202.709 2.70766 203.578 4.61496 203.578 6.23001C203.578 7.82969 202.709 9.75237 200.571 9.75237Z" fill="#EB0045"/>
<path d="M193.072 22.919L190.111 22.1576C189.512 22.0192 188.789 21.7885 188.812 21.104C188.819 20.4041 190.035 20.1427 190.927 20.1427C191.888 20.1427 193.111 20.1427 193.257 21.4962H195.495C195.333 18.5737 192.942 18.2046 191.157 18.2046C188.42 18.2046 186.635 19.1813 186.581 21.3116C186.543 23.0574 188.058 23.9188 189.512 24.2726L191.68 24.8263C192.634 25.0493 193.526 25.3185 193.503 26.0722C193.488 26.949 192.342 27.1489 191.234 27.1489C189.15 27.1489 188.619 26.5183 188.573 25.1263L186.474 25.9107C186.574 28.5563 188.966 29.1101 191.18 29.1101C194.472 29.1101 195.749 27.7642 195.78 25.8492C195.833 24.4341 195.018 23.4035 193.072 22.919Z" fill="#EB0045"/>
<path d="M176.384 20.5273V25.134C176.384 26.2877 177.007 29.1025 180.913 29.1025C184.743 29.1025 185.412 26.2877 185.412 25.134V18.52H183.328V24.4496C183.328 25.4571 183.051 27.1413 180.913 27.1413C178.737 27.1413 178.46 25.4571 178.46 24.4496V18.52H176.384V20.5273Z" fill="#EB0045"/>
<path d="M175.045 28.8101L174.845 26.5875C174.738 25.4339 174.384 24.4879 173.346 23.9111C174.207 23.4958 174.692 22.5575 174.692 21.3116C174.692 20.2503 173.838 18.4968 171.885 18.4968H165.893V28.8101H167.97V20.3503H171.346C171.915 20.3503 172.6 20.7348 172.6 21.7423C172.6 22.7113 171.977 23.0728 171.462 23.0728H169.37L168.385 25.0416H171.369C172.1 25.0416 172.684 25.3493 172.815 26.849L172.992 28.8101H175.045Z" fill="#EB0045"/>
<path d="M164.432 18.4968H155.88V20.4734H164.432V18.4968Z" fill="#EB0045"/>
<path d="M191.634 40.4078V35.9088H189.558V46.2451H191.634V43.1765L193.149 41.6076L196.195 46.2451H198.979L194.741 40.1925L198.694 35.9088H195.88L191.634 40.4078Z" fill="#EB0045"/>
<path d="M173.153 35.924H170.492L166.755 46.245H169.154L171.823 38.162L173.153 42.2304H171.238L170.316 44.107H173.784L174.484 46.245H176.883L173.153 35.924Z" fill="#EB0045"/>
<path d="M185.105 43.1148H185.082L180.621 35.924H178.099V46.245H180.175V39.0541H180.198L184.836 46.245H187.181V35.924H185.105V43.1148Z" fill="#EB0045"/>
<path d="M164.255 40.669C164.709 40.3921 165.278 39.8692 165.278 38.5771C165.278 37.362 164.824 35.9469 162.656 35.9469H156.665V46.2371H162.586C165.017 46.2371 165.686 44.299 165.686 43.1454C165.686 41.9226 165.201 41.092 164.255 40.669ZM162.025 44.399H158.749V37.7773H161.84C162.979 37.7773 163.209 38.1926 163.209 38.8155C163.209 39.7538 162.386 39.9461 162.163 39.9461H160.179L159.172 41.9072H162.271C162.856 41.9072 163.555 42.1226 163.555 43.107C163.548 44.1914 162.948 44.399 162.025 44.399Z" fill="#EB0045"/>
<path d="M161.217 21.2732L159.033 22.5191H159.041V28.7947H161.21V21.2732" fill="#EB0045"/>
<path d="M205.193 18.4968H196.641V20.4734H205.193V18.4968Z" fill="#EB0045"/>
<path d="M201.978 21.2732L199.802 22.5191V28.7947H201.971V21.2732" fill="#EB0045"/>
</svg>
