<svg width="269" height="54" viewBox="0 0 269 54" fill="none" xmlns="http://www.w3.org/2000/svg">
<circle cx="26.9048" cy="27.332" r="21.148" fill="#FFFDFD"/>
<path d="M8.12374 8.54837C4.05387 12.5901 2.36877 17.1493 2.36877 17.1493C27.5113 13.2077 34.2573 19.9154 34.2573 19.9154C32.2876 16.8174 29.58 13.8039 26.8679 11.1885C21.7811 6.28057 16.7247 2.79455 16.7247 2.79455C13.1475 4.27266 10.3207 6.3672 8.12374 8.54837Z" fill="url(#paint0_linear_298_104)"/>
<path d="M26.7892 0.786642C21.095 0.786642 16.7247 2.79688 16.7247 2.79688C37.2889 17.7883 37.3193 27.3038 37.3193 27.3038C38.1157 23.7187 38.3328 19.6736 38.2642 15.9086C38.136 8.83863 37.0246 2.79908 37.0246 2.79908C33.4519 1.31647 29.9715 0.797892 26.8747 0.786642H26.7892Z" fill="url(#paint1_linear_298_104)"/>
<path d="M34.2573 34.6911C37.3553 32.7203 40.3711 30.0127 42.9843 27.3017C47.8944 22.2138 51.3782 17.1562 51.3782 17.1562C49.9001 13.5813 47.8067 10.7534 45.6233 8.55646C41.5838 4.4866 37.0234 2.80257 37.0234 2.80257C40.9662 27.944 34.2573 34.6911 34.2573 34.6911Z" fill="url(#paint2_linear_298_104)"/>
<path d="M26.8679 37.7395C30.4541 38.5359 34.5003 38.753 38.2642 38.6844C45.3331 38.5562 51.3737 37.4459 51.3737 37.4459C52.8563 33.8722 53.3761 30.3905 53.3873 27.2948C53.4053 21.5601 51.3737 17.1438 51.3737 17.1438C36.3879 37.7069 26.8735 37.7294 26.8735 37.7294" fill="url(#paint3_linear_298_104)"/>
<path d="M19.4874 34.6797C21.4594 37.7766 24.1659 40.7913 26.8757 43.4067C31.967 48.3135 37.0144 51.795 37.0144 51.795C40.5904 50.3169 43.4263 48.2257 45.6232 46.0457C49.692 42.0028 51.3759 37.4436 51.3759 37.4436C26.2345 41.3853 19.4874 34.6797 19.4874 34.6797Z" fill="url(#paint4_linear_298_104)"/>
<path d="M15.475 38.6843C15.6032 45.7532 16.7315 51.7871 16.7315 51.7871C19.3671 52.8816 21.942 53.4531 24.3538 53.6826H29.4124C33.8558 53.2461 37.0145 51.7927 37.0145 51.7927C16.448 36.7979 16.4199 27.2813 16.4199 27.2813C15.6246 30.8652 15.4064 34.9115 15.475 38.6776" fill="url(#paint5_linear_298_104)"/>
<path d="M10.7697 27.2891C5.86176 32.3782 2.37122 37.4424 2.37122 37.4424C3.85045 41.0173 5.94838 43.8386 8.12955 46.0355C12.1713 50.1043 16.7316 51.7894 16.7316 51.7894C12.79 26.6469 19.4955 19.8997 19.4955 19.8997C16.3975 21.8717 13.3828 24.577 10.7697 27.2891Z" fill="url(#paint6_linear_298_104)"/>
<path d="M15.4795 15.9051C8.41068 16.0334 2.36887 17.1538 2.36887 17.1538C0.886254 20.7276 0.368805 24.1979 0.357556 27.2947C0.338433 33.0294 2.37112 37.4458 2.37112 37.4458C17.3626 16.8805 26.8758 16.8512 26.8758 16.8512C23.6957 16.1448 20.1512 15.8939 16.7608 15.8939C16.3311 15.8939 15.9036 15.8984 15.4795 15.9051Z" fill="url(#paint7_linear_298_104)"/>
<path d="M92.4425 24.5917C92.9184 24.5917 93.23 24.234 93.23 23.8504C93.23 23.6603 93.185 23.468 93.0871 23.3015L90.0803 17.3339C91.3806 16.7715 92.2142 15.5813 92.393 13.9964C92.4065 13.894 92.42 13.7916 92.4414 13.5003L92.4425 12.5722C92.4425 12.777 92.6034 8.2234 88.2591 8.2234H84.1971C83.7696 8.2234 83.3849 8.58111 83.3849 9.05807V23.7559C83.3849 24.234 83.7426 24.5917 84.1971 24.5917C84.6515 24.5917 85.0329 24.234 85.0329 23.7559V17.7096H87.9002C88.0689 17.7096 88.2354 17.7096 88.4042 17.686L91.6776 24.1148C91.7968 24.3285 92.0837 24.5917 92.4425 24.5917ZM88.2591 9.87137C89.9082 9.87137 90.8407 10.8995 90.8407 12.5801L90.8418 13.3282C90.8418 14.993 89.8969 16.0403 88.2478 16.0403H85.0329V9.87137H88.2591Z" fill="#545456"/>
<path d="M123.195 23.7562V12.046L130.651 24.1859C130.842 24.4727 131.129 24.592 131.344 24.592C131.726 24.592 132.18 24.2568 132.205 23.8507V23.7067V9.05831C132.205 8.58136 131.798 8.22364 131.344 8.22364C130.89 8.22364 130.532 8.58136 130.532 9.05831V20.746L123.099 8.6286C122.981 8.4385 122.765 8.22364 122.43 8.22364C121.952 8.22364 121.548 8.60498 121.548 9.08306V23.7562C121.548 24.2331 121.927 24.592 122.382 24.592C122.836 24.592 123.195 24.2331 123.195 23.7562Z" fill="#545456"/>
<path d="M145.635 8.2234C145.181 8.2234 144.822 8.58111 144.822 9.05807V15.5588H137.724V9.05807C137.724 8.58111 137.368 8.2234 136.912 8.2234C136.459 8.2234 136.076 8.58111 136.076 9.05807V23.7559C136.076 24.234 136.459 24.5917 136.912 24.5917C137.368 24.5917 137.724 24.234 137.724 23.7559V17.2079H144.822V23.7559C144.822 24.234 145.181 24.5917 145.635 24.5917C146.089 24.5917 146.495 24.234 146.495 23.7559V9.05807C146.495 8.58111 146.089 8.2234 145.635 8.2234Z" fill="#545456"/>
<path d="M156.223 7.98418C152.232 7.98418 150.368 11.8077 150.368 16.395C150.368 20.9846 152.232 24.8317 156.223 24.8317C160.213 24.8317 162.078 20.9846 162.078 16.395C162.078 11.8077 160.213 7.98418 156.223 7.98418ZM156.223 23.1106C153.523 23.1106 152.185 20.0768 152.185 16.395C152.185 12.7155 153.523 9.70415 156.223 9.70415C158.922 9.70415 160.261 12.7155 160.261 16.395C160.261 20.0768 158.922 23.1106 156.223 23.1106Z" fill="#545456"/>
<path d="M177.276 9.05858C177.276 8.58162 176.919 8.22391 176.464 8.22391C176.011 8.22391 175.628 8.58162 175.628 9.05858V17.4469C175.628 20.357 174.485 23.122 171.63 23.1344H171.61C168.744 23.1321 167.598 20.3615 167.598 17.4469V9.05858C167.598 8.58162 167.216 8.22391 166.762 8.22391C166.307 8.22391 165.95 8.58162 165.95 9.05858V17.6854C165.95 21.0657 167.349 24.8015 171.564 24.8296V24.8318H171.628C175.87 24.8217 177.276 21.0747 177.276 17.6854V9.05858Z" fill="#545456"/>
<path d="M74.2214 24.8211C74.2495 24.82 74.2765 24.8166 74.3046 24.8155C74.3181 24.8132 74.3327 24.8132 74.3473 24.811C78.2125 24.5286 79.5117 20.9425 79.5117 17.6859V16.7207C79.5117 16.6971 79.5117 16.6735 79.5095 16.6499L79.5117 16.6341C79.5117 15.9648 79.2046 15.5587 78.5589 15.5587H74.2821C73.8243 15.5587 73.444 15.9176 73.444 16.3957C73.444 16.8737 73.8243 17.2078 74.2821 17.2078H77.8638V17.4463C77.8638 20.2574 76.7985 22.9324 74.1539 23.1225C74.0639 23.1281 74.0076 23.1326 73.9435 23.1326C71.2426 23.1326 69.6689 20.0763 69.6689 16.3957C69.6689 12.715 71.2224 9.70366 73.921 9.70366C76.0729 9.70366 76.5038 10.9467 77.2912 10.9467C77.7456 10.9467 78.127 10.5878 78.127 10.1109C78.127 9.89489 78.055 9.65641 77.8885 9.48993C76.8142 8.41453 75.3305 7.98369 73.921 7.98369C69.9299 7.98369 67.8511 11.8072 67.8511 16.3957C67.8511 20.947 69.922 24.766 73.8501 24.829V24.8312C73.8681 24.8312 73.8839 24.8301 73.9008 24.8301C73.9154 24.8301 73.93 24.8312 73.9469 24.8312C74.0402 24.8312 74.1314 24.8279 74.2214 24.8211Z" fill="#545456"/>
<path d="M185.133 23.1346C182.67 23.1346 182.337 21.5316 181.502 21.5316C181.216 21.5316 180.688 21.7476 180.688 22.3449C180.688 22.5845 180.784 22.8477 180.88 22.9681C181.931 24.282 183.507 24.832 185.133 24.832C187.594 24.832 189.889 22.7521 189.889 20.2188C189.889 14.078 182.48 16.0365 182.48 12.0937C182.48 10.6122 183.652 9.70445 185.204 9.70445C187.284 9.70445 187.809 10.9475 188.597 10.9475C189.027 10.9475 189.411 10.5886 189.411 10.1105C189.411 9.89568 189.339 9.65608 189.171 9.4896C188.145 8.43895 186.614 7.98449 185.204 7.98449C182.981 7.98449 180.688 9.46597 180.688 12.0937C180.688 17.6383 188.096 15.4639 188.096 20.2188C188.096 21.8196 186.711 23.1346 185.133 23.1346Z" fill="#545456"/>
<path d="M104.562 9.87198C104.993 9.87198 105.375 9.53676 105.375 9.05868C105.375 8.5806 104.993 8.22288 104.562 8.22288H97.7116C97.283 8.22288 96.8994 8.5806 96.8994 9.05868V15.9892V16.8249V20.3852V23.7565C96.8994 24.2335 97.283 24.5923 97.7116 24.5923H104.562C104.993 24.5923 105.375 24.2335 105.375 23.7565C105.375 23.2773 104.993 22.9433 104.562 22.9433H98.5485V20.077V17.6619V16.8013H103.679C104.109 16.8013 104.467 16.4661 104.467 15.9892C104.467 15.5111 104.109 15.1522 103.679 15.1522H98.5485V9.87198H104.562Z" fill="#545456"/>
<path d="M117.593 23.7562C117.593 23.277 117.212 22.944 116.779 22.944H110.766V20.0767V17.6626V16.8021H115.896C116.328 16.8021 116.683 16.4669 116.683 15.9888C116.683 15.5118 116.328 15.153 115.896 15.153H110.766V9.87161H116.779C117.212 9.87161 117.593 9.53752 117.593 9.05831C117.593 8.58136 117.212 8.22364 116.779 8.22364H109.928C109.499 8.22364 109.118 8.58136 109.118 9.05831V15.9888V16.8246V20.386V23.7562C109.118 24.2331 109.499 24.592 109.928 24.592H116.779C117.212 24.592 117.593 24.2331 117.593 23.7562Z" fill="#545456"/>
<path d="M201.423 9.87198C201.854 9.87198 202.235 9.53676 202.235 9.05868C202.235 8.5806 201.854 8.22288 201.423 8.22288H194.574C194.143 8.22288 193.76 8.5806 193.76 9.05868V15.9892V16.8249V20.3852V23.7565C193.76 24.2335 194.143 24.5923 194.574 24.5923H201.423C201.854 24.5923 202.235 24.2335 202.235 23.7565C202.235 23.2773 201.854 22.9433 201.423 22.9433H195.409V20.077V17.6619V16.8013H200.54C200.97 16.8013 201.327 16.4661 201.327 15.9892C201.327 15.5111 200.97 15.1522 200.54 15.1522H195.409V9.87198H201.423Z" fill="#545456"/>
<path d="M137.248 47.5706C137.725 47.5706 138.035 47.2107 138.035 46.8293C138.035 46.6381 137.99 46.4468 137.894 46.2792L134.887 40.3117C136.186 39.7504 137.018 38.5591 137.197 36.9752C137.213 36.8729 137.227 36.7705 137.247 36.478L137.248 35.5489C137.248 35.7559 137.409 31.2012 133.064 31.2012H129.004C128.574 31.2012 128.191 31.5589 128.191 32.0381V46.7348C128.191 47.2107 128.549 47.5706 129.004 47.5706C129.457 47.5706 129.839 47.2107 129.839 46.7348V40.6885H132.706C132.874 40.6885 133.042 40.6885 133.208 40.6649L136.483 47.0925C136.602 47.3074 136.888 47.5706 137.248 47.5706ZM133.064 32.8491C134.714 32.8491 135.647 33.8784 135.647 35.5567V36.307C135.647 37.9708 134.702 39.0192 133.053 39.0192H129.839V32.8491H133.064Z" fill="#545456"/>
<path d="M74.2214 47.7984C74.2483 47.7973 74.2765 47.795 74.3023 47.7928C74.3181 47.7916 74.3327 47.7916 74.3473 47.7894C78.2114 47.5059 79.5129 43.9209 79.5129 40.6643V39.6991C79.5129 39.6744 79.5117 39.6519 79.5095 39.6283L79.5129 39.6125C79.5129 38.9432 79.2024 38.5371 78.5578 38.5371H74.281C73.8265 38.5371 73.444 38.896 73.444 39.374C73.444 39.8521 73.8265 40.1862 74.281 40.1862H77.8638V40.4247C77.8638 43.2358 76.7985 45.9108 74.1539 46.102C74.0639 46.1065 74.0076 46.111 73.9435 46.111C71.2426 46.111 69.6667 43.0536 69.6667 39.374C69.6667 35.6945 71.2224 32.6832 73.921 32.6832C76.0718 32.6832 76.5026 33.9251 77.2923 33.9251C77.7468 33.9251 78.127 33.5662 78.127 33.0893C78.127 32.8744 78.055 32.6348 77.8885 32.4683C76.8142 31.3929 75.3305 30.9632 73.921 30.9632C69.9299 30.9632 67.8511 34.7856 67.8511 39.374C67.8511 43.9254 69.922 47.7444 73.8501 47.8074V47.8096C73.867 47.8096 73.8839 47.8074 73.8985 47.8074C73.9154 47.8074 73.9311 47.8096 73.9469 47.8096C74.0402 47.8096 74.1314 47.8051 74.2214 47.7984Z" fill="#545456"/>
<path d="M88.1336 31.7759C88.0144 31.4406 87.6803 31.2022 87.3214 31.2022C86.9626 31.2022 86.6521 31.4406 86.5329 31.7759L81.3955 46.4479C81.3483 46.5671 81.3224 46.7111 81.3224 46.8539C81.3224 47.2364 81.6104 47.5705 82.1368 47.5705C82.4923 47.5705 82.8297 47.3309 82.949 46.9968L84.7162 42.027H90.0212L91.8379 46.9968C91.9571 47.3309 92.2924 47.5705 92.6501 47.5705C93.1045 47.5705 93.4881 47.2364 93.4881 46.7572C93.4881 46.638 93.4881 46.4951 93.4397 46.3511L88.1336 31.7759ZM85.2921 40.3779L87.3214 34.4992L89.4239 40.3779H85.2921Z" fill="#545456"/>
<path d="M97.503 34.9966C97.503 33.5139 98.6729 32.6062 100.228 32.6062C102.305 32.6062 102.833 33.8492 103.619 33.8492C104.05 33.8492 104.434 33.4903 104.434 33.0122C104.434 32.7963 104.36 32.5589 104.194 32.3902C103.167 31.3406 101.637 30.8851 100.228 30.8851C98.0036 30.8851 95.71 32.3665 95.71 34.9966C95.71 40.5389 103.119 38.3656 103.119 43.1205C103.119 44.7213 101.733 46.0363 100.156 46.0363C97.6954 46.0363 97.3591 44.4344 96.5221 44.4344C96.2353 44.4344 95.71 44.6493 95.71 45.2477C95.71 45.4862 95.8056 45.7494 95.9023 45.8687C96.9541 47.1837 98.5301 47.7326 100.156 47.7326C102.617 47.7326 104.91 45.6527 104.91 43.1205C104.91 36.9786 97.503 38.9382 97.503 34.9966Z" fill="#545456"/>
<path d="M146.637 30.9632C142.645 30.9632 140.782 34.7856 140.782 39.3741C140.782 43.9625 142.645 47.8096 146.637 47.8096C150.627 47.8096 152.489 43.9625 152.489 39.3741C152.489 34.7856 150.627 30.9632 146.637 30.9632ZM146.637 46.0885C143.937 46.0885 142.598 43.0536 142.598 39.3741C142.598 35.6945 143.937 32.6843 146.637 32.6843C149.337 32.6843 150.676 35.6945 150.676 39.3741C150.676 43.0536 149.337 46.0885 146.637 46.0885Z" fill="#545456"/>
<path d="M165.413 31.2017H159.846H154.303C153.848 31.2017 153.443 31.5594 153.443 32.0375C153.443 32.5156 153.848 32.8497 154.303 32.8497H159.01V46.7579C159.01 47.2359 159.393 47.5712 159.846 47.5712C160.3 47.5712 160.659 47.2359 160.659 46.7579V32.8497H165.413C165.868 32.8497 166.25 32.5156 166.25 32.0375C166.25 31.5594 165.868 31.2017 165.413 31.2017Z" fill="#545456"/>
<path d="M172.825 30.9632C168.835 30.9632 166.973 34.7856 166.973 39.3741C166.973 43.9625 168.835 47.8096 172.825 47.8096C176.818 47.8096 178.68 43.9625 178.68 39.3741C178.68 34.7856 176.818 30.9632 172.825 30.9632ZM172.825 46.0885C170.126 46.0885 168.787 43.0536 168.787 39.3741C168.787 35.6945 170.126 32.6843 172.825 32.6843C175.526 32.6843 176.864 35.6945 176.864 39.3741C176.864 43.0536 175.526 46.0885 172.825 46.0885Z" fill="#545456"/>
<path d="M188.3 32.684C190.452 32.684 190.881 33.9259 191.67 33.9259C192.124 33.9259 192.506 33.567 192.506 33.089C192.506 32.8741 192.434 32.6356 192.267 32.468C191.192 31.3926 189.71 30.9629 188.3 30.9629C184.31 30.9629 182.232 34.7853 182.232 39.3737C182.232 43.9622 184.31 47.8093 188.3 47.8093C189.736 47.8093 191.217 47.3076 192.267 46.257C192.434 46.0894 192.506 45.8745 192.506 45.6585C192.506 45.1804 192.124 44.7991 191.67 44.7991C190.881 44.7991 190.356 46.0894 188.252 46.0894C185.553 46.0894 184.047 43.0544 184.047 39.3737C184.047 35.6942 185.6 32.684 188.3 32.684Z" fill="#545456"/>
<path d="M200.795 30.8852C196.804 30.8852 194.943 34.7087 194.943 39.2971C194.943 43.8856 196.804 47.7327 200.795 47.7327C204.788 47.7327 206.652 43.8856 206.652 39.2971C206.652 34.7087 204.788 30.8852 200.795 30.8852ZM200.795 46.0116C198.096 46.0116 196.757 42.9767 196.757 39.2971C196.757 35.6176 198.096 32.6063 200.795 32.6063C203.497 32.6063 204.835 35.6176 204.835 39.2971C204.835 42.9767 203.497 46.0116 200.795 46.0116Z" fill="#545456"/>
<path d="M218.187 45.8781H212.172V43.3201C212.173 43.3167 212.174 31.935 212.174 31.935C212.174 31.4569 211.792 31.1228 211.336 31.1228C210.882 31.1228 210.524 31.4569 210.524 31.935V31.9991L210.523 31.9935V38.924V39.7609V43.3212V46.6902C210.523 47.1683 210.905 47.5272 211.336 47.5272H218.187C218.618 47.5272 219 47.1683 219 46.6902C219 46.2122 218.618 45.8781 218.187 45.8781Z" fill="#545456"/>
<path d="M120.148 31.2017H116.086C115.654 31.2017 115.272 31.5594 115.272 32.0375V46.7354C115.272 47.2112 115.632 47.5712 116.086 47.5712C116.54 47.5712 116.92 47.2112 116.92 46.7354V40.6891H119.789C119.958 40.6891 120.124 40.6891 120.292 40.6643C122.759 40.5979 124.329 38.9455 124.319 36.3188V35.4111C124.319 35.3031 124.312 35.1985 124.301 35.0983C124.124 32.7451 122.555 31.2017 120.148 31.2017ZM120.148 32.8497C121.796 32.8497 122.753 33.8632 122.753 35.5348L122.75 36.3278C122.75 38.0006 121.784 39.0186 120.136 39.0186H116.92V32.8497H120.148Z" fill="#545456"/>
<path d="M244.776 17.4598C245.948 13.8528 251.052 13.8528 252.224 17.4598C252.748 19.073 254.251 20.1652 255.947 20.1652C259.74 20.1652 261.317 25.0184 258.248 27.2477C256.876 28.2447 256.302 30.0119 256.826 31.625C257.998 35.2321 253.87 38.2316 250.801 36.0023C249.429 35.0053 247.571 35.0053 246.199 36.0023C243.13 38.2316 239.002 35.2321 240.174 31.625C240.698 30.0119 240.124 28.2447 238.752 27.2477C235.683 25.0184 237.26 20.1652 241.053 20.1652C242.749 20.1652 244.252 19.073 244.776 17.4598Z" fill="#123726"/>
<defs>
<linearGradient id="paint0_linear_298_104" x1="16.5243" y1="34.7948" x2="0.066396" y2="15.181" gradientUnits="userSpaceOnUse">
<stop stop-color="white"/>
<stop offset="1" stop-color="#00ACA1"/>
</linearGradient>
<linearGradient id="paint1_linear_298_104" x1="14.257" y1="25.2843" x2="16.4885" y2="-0.22275" gradientUnits="userSpaceOnUse">
<stop stop-color="white"/>
<stop offset="1" stop-color="#00ACA1"/>
</linearGradient>
<linearGradient id="paint2_linear_298_104" x1="19.3772" y1="16.9591" x2="38.9919" y2="0.500343" gradientUnits="userSpaceOnUse">
<stop stop-color="white"/>
<stop offset="1" stop-color="#00ACA1"/>
</linearGradient>
<linearGradient id="paint3_linear_298_104" x1="28.8863" y1="14.6823" x2="54.3941" y2="16.9139" gradientUnits="userSpaceOnUse">
<stop stop-color="white"/>
<stop offset="1" stop-color="#00ACA1"/>
</linearGradient>
<linearGradient id="paint4_linear_298_104" x1="37.222" y1="19.7973" x2="53.6792" y2="39.4102" gradientUnits="userSpaceOnUse">
<stop stop-color="white"/>
<stop offset="1" stop-color="#00ACA1"/>
</linearGradient>
<linearGradient id="paint5_linear_298_104" x1="39.4817" y1="29.3068" x2="37.2503" y2="54.8128" gradientUnits="userSpaceOnUse">
<stop stop-color="white"/>
<stop offset="1" stop-color="#00ACA1"/>
</linearGradient>
<linearGradient id="paint6_linear_298_104" x1="34.3767" y1="37.6321" x2="14.7611" y2="54.0916" gradientUnits="userSpaceOnUse">
<stop stop-color="white"/>
<stop offset="1" stop-color="#00ACA1"/>
</linearGradient>
<linearGradient id="paint7_linear_298_104" x1="24.8583" y1="39.909" x2="-0.649763" y2="37.6774" gradientUnits="userSpaceOnUse">
<stop stop-color="white"/>
<stop offset="1" stop-color="#00ACA1"/>
</linearGradient>
</defs>
</svg>
