<svg width="134" height="83" viewBox="0 0 134 83" fill="none" xmlns="http://www.w3.org/2000/svg">
<path d="M89.4365 41.2344V0H93.4014H97.3662V41.2344V82.4687H93.4014H89.4365V41.2344ZM111.676 74.5895C103.212 62.7037 99.7815 41.9568 103.723 26.493C105.411 19.8672 109.566 10.3971 112.174 7.22828L113.73 5.33742L116.984 7.49055L120.237 9.64367L117.511 14.1392C116.012 16.6118 113.833 21.4894 112.67 24.9785C110.831 30.4973 110.556 32.6112 110.556 41.2344C110.556 49.8575 110.831 51.9714 112.67 57.4902C113.833 60.9793 116.012 65.8569 117.511 68.3295L120.237 72.825L117.145 74.8715C115.444 75.997 113.891 76.9179 113.693 76.9179C113.495 76.9179 112.587 75.8701 111.676 74.5895ZM126.31 59.9573C120.516 57.4261 115.728 51.033 114.478 44.1566C113.22 37.2439 117.013 28.6455 123.162 24.4668C128.602 20.7699 129.429 20.8401 131.301 25.158L132.943 28.9433L130.91 29.4972C126.408 30.724 122.741 35.9984 122.741 41.2471C122.741 46.4584 126.482 51.8123 130.782 52.7569C132.029 53.0308 133.05 53.3596 133.05 53.4876C133.05 54.393 129.69 61.0523 129.246 61.0275C128.939 61.0105 127.618 60.5288 126.31 59.9573Z" fill="#007DFF"/>
<path d="M64.918 24.4092C51.901 24.4092 48.5328 33.8761 48.5328 41.1876H56.0896C56.0896 30.2458 70.4511 29.7766 72.2077 36.7277H80.891C79.3126 29.9114 75.4174 24.4092 64.918 24.4092ZM64.918 57.9659C51.901 57.9659 48.5328 48.5956 48.5328 41.1876H56.0896C56.0896 52.6726 70.4511 52.5985 72.2077 45.6474H80.891C79.3126 52.4637 75.4174 57.9659 64.918 57.9659ZM0 24.5142H7.82879V57.8609H0V24.5142ZM28.838 24.4092C15.8211 24.4092 12.4528 33.8761 12.4528 41.1876H20.0096C20.0096 30.2458 34.3711 29.7766 36.1277 36.7277H44.811C43.2326 29.9114 39.3374 24.4092 28.838 24.4092ZM28.838 57.9659C15.8211 57.9659 12.4528 48.5956 12.4528 41.1876H20.0096C20.0096 52.6726 34.3711 52.5985 36.1277 45.6474H44.811C43.2326 52.4637 39.3374 57.9659 28.838 57.9659Z" fill="black"/>
</svg>
