<svg width="86" height="62" viewBox="0 0 86 62" fill="none" xmlns="http://www.w3.org/2000/svg">
<path d="M47.004 6.02338C44.3866 8.09825 41.877 10.8509 40.4188 13.8614C37.4236 20.0508 39.086 25.7371 40.3657 29.4302C42.1117 34.4564 45.6519 36.9975 49.8673 38.848C55.8786 41.4901 63.4413 41.6696 70.3031 39.9007C72.7195 39.2806 76.4783 37.9812 77.2967 36.7732C78.1857 35.4658 78.3224 32.9343 76.4156 31.8255C74.5587 30.7392 74.3786 31.5676 68.8336 32.7949C64.9783 33.6472 60.7709 33.7979 55.713 31.622C52.5233 30.2489 50.3689 28.1452 49.6294 25.266C47.5136 17.0114 52.086 13.9528 52.9751 13.3904L47.004 6.02338Z" fill="url(#paint0_linear_298_78)"/>
<path d="M53.3062 15.7426C50.9235 15.4269 43.9444 14.6899 36.6357 13.3953C25.3286 11.399 12.0376 8.6207 7.79158 8.3259C-0.374039 7.75871 -1.73578 18.3302 4.78514 20.1439C8.47646 21.1661 18.6405 20.0894 21.1067 24.9521C21.8607 26.4294 23.8495 32.0147 26.1019 38.9267C26.9862 41.636 34.1743 41.2099 32.8367 35.4355C32.073 32.1397 30.3366 23.2361 30.3366 23.2361C30.3366 23.2361 50.9524 25.4168 52.6293 25.5578L53.3062 15.7426Z" fill="url(#paint1_linear_298_78)"/>
<path d="M64.16 10.2982C66.7774 10.3671 71.3337 11.04 73.3868 12.4067L84.8241 14.6562C84.9318 8.32588 81.4495 4.92276 77.5491 2.96004C74.5877 1.47158 70.435 0.255497 64.1954 0.521465C58.2324 0.773014 51.9639 2.07722 46.9639 6.04752L52.9414 13.4354C55.7613 11.6601 59.3031 10.1732 64.16 10.2982Z" fill="url(#paint2_linear_298_78)"/>
<path d="M73.2019 12.2914C73.2019 12.2914 73.8048 12.6744 74.0669 12.9163C75.3112 14.0507 75.726 15.4078 71.9463 16.0278L74.9383 25.2422C81.7405 23.4253 84.7421 19.4261 84.8241 14.5394L73.2019 12.2914Z" fill="url(#paint3_linear_298_78)"/>
<path d="M72.0586 16.0134C68.7081 16.5662 62.2097 16.9251 53.2531 15.7426L52.5811 25.5578C67.1277 26.8123 72.2435 25.9552 75.049 25.2085L72.0586 16.0134Z" fill="url(#paint4_linear_298_78)"/>
<path d="M0.589111 51.4704C0.589111 51.645 0.725767 51.7764 0.891363 51.7764H3.63413V59.0809L5.44282 59.0857V51.7764H8.18559C8.35119 51.7764 8.48624 51.6402 8.48624 51.4704V50.3408C8.48624 50.1662 8.35119 50.0364 8.18559 50.0364H0.891363C0.725767 50.0364 0.589111 50.171 0.589111 50.3408V51.4704Z" fill="#FC0103"/>
<path d="M7.02319 55.7514C7.02319 57.6757 8.64217 59.1722 10.6454 59.1722C12.6647 59.1722 14.2837 57.6757 14.2837 55.7514C14.2837 53.8111 12.6647 52.289 10.6454 52.289C8.64217 52.289 7.02319 53.8111 7.02319 55.7514ZM9.02641 55.7354C9.02641 54.8302 9.72738 54.0787 10.6454 54.0787C11.5795 54.0787 12.2804 54.8254 12.2804 55.7354C12.2804 56.6471 11.5795 57.3793 10.6454 57.3793C9.72738 57.3793 9.02641 56.6471 9.02641 55.7354ZM15.4653 57.147C15.4653 58.6306 16.6036 59.2315 17.7563 59.2315C18.5393 59.2315 19.3367 59.1241 19.848 58.7364C20.6792 58.1019 19.983 56.8169 18.8448 57.4514C18.5104 57.6405 17.9557 57.5443 17.8528 57.5059C17.6245 57.4129 17.2258 57.336 17.2499 56.6951V53.8945H18.9284C20.2113 53.8945 20.1969 52.2794 18.9284 52.2794H17.2499V50.0652L15.4653 50.0604V52.2794H14.5859V53.8945H15.4653V57.147ZM20.5232 55.721C20.5232 57.8199 22.1277 59.1674 23.8544 59.1674C24.7451 59.1674 25.6776 58.7941 25.9895 58.2861V59.177L27.6486 59.1722V53.1382C27.6486 51.9558 26.0232 52.0135 26.0232 53.0757C25.7081 52.5662 24.7596 52.2938 23.8641 52.2938C22.1422 52.289 20.5232 53.6125 20.5232 55.721ZM22.5264 55.7354C22.5264 54.8302 23.2274 54.0787 24.1615 54.0787C25.094 54.0787 25.7949 54.8254 25.7949 55.7354C25.7949 56.6471 25.094 57.3937 24.1615 57.3937C23.2274 57.3937 22.5264 56.6471 22.5264 55.7354ZM31.086 59.0905V50.8358C31.086 49.788 29.2146 49.8232 29.2146 50.8358V59.0857L31.086 59.0905ZM32.7049 49.9338C32.5249 49.9338 32.4043 50.07 32.4043 50.2302V58.7796C32.4043 58.9543 32.5249 59.0857 32.7049 59.0857H38.7741L38.7789 57.2431H34.4606V55.4935H37.8464C38.0265 55.4935 38.1471 55.3477 38.1471 55.1891V54.0098C38.1471 53.8368 38.0265 53.7054 37.8464 53.7054H34.4606V51.7811H38.3609C38.541 51.7811 38.6776 51.6449 38.6776 51.4751V50.2446C38.6776 50.07 38.541 49.9386 38.3609 49.9386H32.7049V49.9338ZM44.8931 58.8197C44.8931 58.9783 45.0442 59.0857 45.1937 59.0857H46.3754C46.5265 59.0857 46.6776 58.9783 46.6776 58.8197V55.2083C46.6776 53.6173 45.758 52.1833 43.9879 52.1833C42.9477 52.1833 41.9413 52.4877 41.5426 52.954C41.5426 51.9942 39.9718 51.9558 39.9718 52.8706V59.0905L41.7419 59.0953V55.4262C41.7419 53.1622 44.8882 53.5211 44.8882 55.4262L44.8931 58.8197ZM59.3754 52.1256C58.3979 52.1256 57.6005 52.7024 57.2307 53.2792V52.8466C57.2307 52.0423 55.742 51.9558 55.742 52.8771V59.0664L57.4879 59.0905V55.9341C57.4879 54.9856 58.131 53.9377 58.8159 53.8256L59.5265 53.7102C60.6584 53.7054 60.4799 52.1256 59.3754 52.1256ZM64.0539 60.3514C63.1487 60.3514 62.2838 60.3017 61.8208 60.0454C60.7082 59.4301 60.0507 60.7824 60.7468 61.1798C61.6809 61.7181 62.1471 61.9841 63.9076 61.9841C66.16 61.9841 67.3803 60.744 67.3803 58.9254V52.8771C67.3803 52.0759 65.824 51.9846 65.824 52.7745V53.1863C65.4928 52.6768 64.5491 52.3916 63.6455 52.3916C61.9188 52.3916 60.3529 53.7006 60.3529 55.7707C60.3529 57.8391 61.9044 59.1241 63.7275 59.1241C64.6085 59.1241 65.3175 58.7508 65.6198 58.2958V58.8533C65.615 59.7249 65.1134 60.3514 64.0539 60.3514ZM62.3513 55.7707C62.3513 54.8638 63.0523 54.1508 63.9703 54.1508C64.9044 54.1508 65.6053 54.859 65.6053 55.7707C65.6053 56.6903 64.9044 57.3841 63.9703 57.3841C63.0523 57.3889 62.3513 56.6903 62.3513 55.7707Z" fill="#FC0103"/>
<path d="M69.7485 51.4752C70.3321 51.4752 70.8176 50.9769 70.8176 50.3953C70.8176 49.7977 70.3321 49.2994 69.7485 49.2994C69.1504 49.2994 68.6681 49.7977 68.6681 50.3953C68.6681 50.9817 69.1504 51.4752 69.7485 51.4752ZM70.3707 59.0857C70.5218 59.0857 70.6343 58.9592 70.6343 58.815V53.2104C70.6343 52.028 68.8433 52.028 68.8433 53.2104V58.815C68.8433 58.964 68.9703 59.0857 69.1166 59.0857H70.3707Z" fill="#FC0103"/>
<path d="M75.287 52.1738C73.1922 52.1738 71.6793 53.7776 71.6793 55.7708C71.6793 57.7624 73.1616 59.2989 75.3176 59.2989C76.8144 59.2989 77.7002 58.8583 78.2597 58.1405C78.599 57.5493 77.7967 56.8315 77.0829 57.2433C76.4494 57.671 76.017 57.6118 75.361 57.6118C74.5636 57.6118 73.8626 57.0734 73.7661 56.2306H78.234C78.517 56.2306 78.5845 56.08 78.5845 55.9102V55.5369C78.5797 53.8065 77.4414 52.1738 75.287 52.1738ZM76.7951 54.9809H73.7999C73.9944 54.2343 74.6118 53.7776 75.2967 53.7776C75.9591 53.7776 76.615 54.1654 76.7951 54.9809Z" fill="#FC0103"/>
<path d="M82.2275 52.1257C80.3883 52.1257 79.2516 53.0951 79.2516 54.3304C79.2516 55.4263 80.0057 56.1088 81.1327 56.3284L82.2709 56.5655C82.9269 56.6905 83.2677 56.8266 83.2677 57.1615C83.2677 57.4515 82.9574 57.7287 82.3144 57.7287C81.6295 57.7287 80.9237 57.6021 80.4816 57.2288C79.5041 56.7257 78.6327 57.7912 79.6118 58.5234C80.1793 58.9111 81.0796 59.2748 82.2468 59.2748C84.1391 59.2748 85.3787 58.2911 85.3787 56.9869C85.3787 55.7211 84.4108 55.1683 83.2291 54.9456L82.1343 54.7373C81.5507 54.6268 81.3369 54.4473 81.3369 54.1798C81.3369 53.9042 81.6922 53.6815 82.2372 53.6815C82.8208 53.6815 83.3111 53.7392 83.7404 54.0196C84.5957 54.5146 85.4767 53.4636 84.6777 52.7987C84.2404 52.4157 83.6086 52.1257 82.2275 52.1257Z" fill="#FC0103"/>
<path d="M51.3562 52.1738C49.2597 52.1738 47.7468 53.7776 47.7468 55.7708C47.7468 57.7624 49.2308 59.2989 51.3851 59.2989C52.8835 59.2989 53.7677 58.8583 54.3272 58.1405C54.6681 57.5493 53.8658 56.8315 53.1504 57.2433C52.5185 57.671 52.0861 57.6118 51.4285 57.6118C50.6311 57.6118 49.9317 57.0734 49.8336 56.2306H54.3031C54.5845 56.2306 54.6536 56.08 54.6536 55.9102V55.5369C54.6536 53.8065 53.5105 52.1738 51.3562 52.1738ZM52.869 54.9809H49.8722C50.0668 54.2343 50.6841 53.7776 51.3706 53.7776C52.0266 53.7776 52.6841 54.1654 52.869 54.9809Z" fill="#FC0103"/>
<defs>
<linearGradient id="paint0_linear_298_78" x1="44.3583" y1="16.2486" x2="66.1643" y2="40.0099" gradientUnits="userSpaceOnUse">
<stop stop-color="#0186F5"/>
<stop offset="0.132" stop-color="#0186F5"/>
<stop offset="0.315" stop-color="#35C2B0"/>
<stop offset="0.667" stop-color="#AAD825"/>
<stop offset="1" stop-color="#FED700"/>
</linearGradient>
<linearGradient id="paint1_linear_298_78" x1="26.7047" y1="38.0558" x2="26.8832" y2="23.1886" gradientUnits="userSpaceOnUse">
<stop stop-color="#FF7F00"/>
<stop offset="1" stop-color="#FE0201"/>
</linearGradient>
<linearGradient id="paint2_linear_298_78" x1="48.7447" y1="7.0544" x2="72.9043" y2="7.51965" gradientUnits="userSpaceOnUse">
<stop stop-color="#0186F5"/>
<stop offset="0.198" stop-color="#0186F5"/>
<stop offset="1" stop-color="#3156FD"/>
</linearGradient>
<linearGradient id="paint3_linear_298_78" x1="76.5989" y1="19.3641" x2="78.8142" y2="14.9788" gradientUnits="userSpaceOnUse">
<stop stop-color="#8434D5"/>
<stop offset="0.854" stop-color="#3156FD"/>
<stop offset="1" stop-color="#3156FD"/>
</linearGradient>
<linearGradient id="paint4_linear_298_78" x1="71.7" y1="20.4159" x2="53.1506" y2="21.2976" gradientUnits="userSpaceOnUse">
<stop stop-color="#8434D5"/>
<stop offset="1" stop-color="#FE0201"/>
</linearGradient>
</defs>
</svg>
