<svg width="22" height="22" viewBox="0 0 23 23" fill="none" xmlns="http://www.w3.org/2000/svg">
<g id="simple-icons:quickbooks" clip-path="url(#clip0_1218_4782)">
<path id="Vector" d="M11.7559 0.451172C8.83848 0.451172 6.04058 1.6101 3.97768 3.673C1.91478 5.7359 0.755859 8.53379 0.755859 11.4512C0.755859 14.3686 1.91478 17.1664 3.97768 19.2293C6.04058 21.2922 8.83848 22.4512 11.7559 22.4512C14.6732 22.4512 17.4711 21.2922 19.534 19.2293C21.5969 17.1664 22.7559 14.3686 22.7559 11.4512C22.7559 8.53379 21.5969 5.7359 19.534 3.673C17.4711 1.6101 14.6732 0.451172 11.7559 0.451172ZM12.3444 4.23976C13.2198 4.23976 13.9302 4.95109 13.9302 5.82926V14.1398H15.3969C16.0978 14.1215 16.7638 13.8302 17.2531 13.3279C17.7423 12.8257 18.0161 12.1523 18.0161 11.4512C18.0161 10.75 17.7423 10.0766 17.2531 9.5744C16.7638 9.07219 16.0978 8.78089 15.3969 8.76259H14.7864V7.17309H15.3959C15.9573 7.17357 16.513 7.28461 17.0314 7.49986C17.5498 7.71512 18.0208 8.03037 18.4173 8.42763C18.8139 8.82489 19.1284 9.29636 19.3427 9.81514C19.5571 10.3339 19.6672 10.8898 19.6667 11.4512C19.6673 12.0125 19.5573 12.5684 19.3431 13.0871C19.1288 13.6059 18.8144 14.0774 18.4179 14.4747C18.0214 14.8719 17.5506 15.1872 17.0322 15.4025C16.5138 15.6177 15.9581 15.7288 15.3969 15.7293H12.3453L12.3444 4.23976ZM8.07453 7.17309H11.1261V18.6617C10.2498 18.6617 9.54028 17.9503 9.54028 17.0731V8.76167H8.07361C7.36903 8.77468 6.6977 9.06371 6.20402 9.56659C5.71034 10.0695 5.43376 10.746 5.43376 11.4507C5.43376 12.1554 5.71034 12.832 6.20402 13.3348C6.6977 13.8377 7.36903 14.1267 8.07361 14.1398H8.68411V15.7283H8.07453C7.51332 15.7279 6.95771 15.6168 6.43941 15.4016C5.92111 15.1864 5.45027 14.8712 5.05378 14.4741C4.65729 14.0769 4.34291 13.6055 4.12859 13.0868C3.91427 12.5682 3.80421 12.0124 3.80469 11.4512C3.80409 10.8899 3.91406 10.334 4.12833 9.81521C4.34259 9.29644 4.65695 8.82495 5.05345 8.42768C5.44996 8.03042 5.92083 7.71515 6.4392 7.49988C6.95756 7.28461 7.51325 7.17357 8.07453 7.17309Z" fill="black"/>
</g>
<defs>
<clipPath id="clip0_1218_4782">
<rect width="22" height="22" fill="white" transform="translate(0.755859 0.451172)"/>
</clipPath>
</defs>
</svg>
