<svg width="33" height="33" viewBox="0 0 33 33" fill="none" xmlns="http://www.w3.org/2000/svg">
<path id="Vector" d="M16.25 0.248047C13.0361 0.248047 9.89429 1.20109 7.22199 2.98667C4.54969 4.77224 2.46689 7.31014 1.23696 10.2794C0.00704087 13.2487 -0.314763 16.5161 0.312247 19.6683C0.939256 22.8205 2.48692 25.7159 4.75952 27.9885C7.03213 30.2611 9.9276 31.8088 13.0798 32.4358C16.232 33.0628 19.4993 32.741 22.4686 31.5111C25.4379 30.2812 27.9758 28.1984 29.7614 25.5261C31.547 22.8538 32.5 19.712 32.5 16.498C32.4955 12.1897 30.7819 8.05907 27.7355 5.01259C24.689 1.96611 20.5584 0.252597 16.25 0.248047ZM16.25 30.248C13.5305 30.248 10.8721 29.4416 8.61092 27.9308C6.34974 26.4199 4.58737 24.2724 3.54666 21.7599C2.50596 19.2475 2.23366 16.4828 2.76421 13.8156C3.29476 11.1483 4.60432 8.6983 6.52729 6.77533C8.45026 4.85236 10.9003 3.5428 13.5675 3.01225C16.2348 2.4817 18.9994 2.754 21.5119 3.7947C24.0244 4.83541 26.1718 6.59778 27.6827 8.85896C29.1936 11.1201 30 13.7786 30 16.498C29.9959 20.1435 28.5459 23.6385 25.9682 26.2162C23.3904 28.7939 19.8955 30.2439 16.25 30.248ZM23.75 16.498C23.75 16.8296 23.6183 17.1475 23.3839 17.3819C23.1495 17.6164 22.8315 17.748 22.5 17.748H17.5V22.748C17.5 23.0796 17.3683 23.3975 17.1339 23.6319C16.8995 23.8664 16.5815 23.998 16.25 23.998C15.9185 23.998 15.6005 23.8664 15.3661 23.6319C15.1317 23.3975 15 23.0796 15 22.748V17.748H10C9.66849 17.748 9.35054 17.6164 9.11612 17.3819C8.8817 17.1475 8.75001 16.8296 8.75001 16.498C8.75001 16.1665 8.8817 15.8486 9.11612 15.6142C9.35054 15.3797 9.66849 15.248 10 15.248H15V10.248C15 9.91653 15.1317 9.59858 15.3661 9.36416C15.6005 9.12974 15.9185 8.99805 16.25 8.99805C16.5815 8.99805 16.8995 9.12974 17.1339 9.36416C17.3683 9.59858 17.5 9.91653 17.5 10.248V15.248H22.5C22.8315 15.248 23.1495 15.3797 23.3839 15.6142C23.6183 15.8486 23.75 16.1665 23.75 16.498Z" fill="#34B206"/>
</svg>
