<svg width="20" height="20" viewBox="0 0 20 20" fill="none" xmlns="http://www.w3.org/2000/svg">
<path fill-rule="evenodd" clip-rule="evenodd" d="M10.2936 15.707C10.1061 15.5194 10.0008 15.2651 10.0008 15C10.0008 14.7348 10.1061 14.4805 10.2936 14.293L14.5866 9.99996L10.2936 5.70696C10.1981 5.61471 10.1219 5.50437 10.0695 5.38236C10.0171 5.26036 9.98947 5.12914 9.98832 4.99636C9.98717 4.86358 10.0125 4.7319 10.0627 4.60901C10.113 4.48611 10.1873 4.37446 10.2812 4.28056C10.3751 4.18667 10.4867 4.11242 10.6096 4.06214C10.7325 4.01186 10.8642 3.98655 10.997 3.98771C11.1298 3.98886 11.261 4.01645 11.383 4.06886C11.505 4.12127 11.6153 4.19745 11.7076 4.29296L16.7076 9.29296C16.895 9.48049 17.0004 9.73479 17.0004 9.99996C17.0004 10.2651 16.895 10.5194 16.7076 10.707L11.7076 15.707C11.52 15.8944 11.2657 15.9997 11.0006 15.9997C10.7354 15.9997 10.4811 15.8944 10.2936 15.707Z" fill="#5E896E"/>
<path fill-rule="evenodd" clip-rule="evenodd" d="M4.29279 15.707C4.10532 15.5195 4 15.2652 4 15C4 14.7349 4.10532 14.4806 4.29279 14.293L8.58579 10L4.29279 5.70704C4.11063 5.51844 4.00983 5.26584 4.01211 5.00364C4.01439 4.74144 4.11956 4.49063 4.30497 4.30522C4.49038 4.11981 4.74119 4.01465 5.00339 4.01237C5.26558 4.01009 5.51818 4.11088 5.70679 4.29304L10.7068 9.29304C10.8943 9.48057 10.9996 9.73488 10.9996 10C10.9996 10.2652 10.8943 10.5195 10.7068 10.707L5.70679 15.707C5.51926 15.8945 5.26495 15.9998 4.99979 15.9998C4.73462 15.9998 4.48031 15.8945 4.29279 15.707Z" fill="#5E896E"/>
</svg>
