<svg width="254" height="53" viewBox="0 0 254 53" fill="none" xmlns="http://www.w3.org/2000/svg">
<g clip-path="url(#clip0_124_10966)">
<path d="M37.1562 15.7331L25.1562 10.7331C24.7907 10.5815 24.3989 10.5034 24.0031 10.5034C23.6074 10.5034 23.2155 10.5815 22.85 10.7331L10.85 15.7331C9.73125 16.1956 9 17.2894 9 18.5019C9 30.9081 16.1562 39.4831 22.8438 42.2706C23.5813 42.5769 24.4125 42.5769 25.15 42.2706C30.5062 40.0394 39 32.3331 39 18.5019C39 17.2894 38.2687 16.1956 37.1562 15.7331ZM24.0063 38.3956L24 14.5831L34.9937 19.1644C34.7875 28.6269 29.8625 35.4831 24.0063 38.3956Z" fill="#965524"/>
</g>
<path d="M55.968 30.02C56.992 29.1347 57.7973 28.4093 58.384 27.844C58.9813 27.268 59.4773 26.6707 59.872 26.052C60.2667 25.4333 60.464 24.8147 60.464 24.196C60.464 23.556 60.3093 23.0547 60 22.692C59.7013 22.3293 59.2267 22.148 58.576 22.148C57.9467 22.148 57.456 22.3507 57.104 22.756C56.7627 23.1507 56.5813 23.684 56.56 24.356H54.8C54.832 23.14 55.1947 22.212 55.888 21.572C56.592 20.9213 57.4827 20.596 58.56 20.596C59.7227 20.596 60.6293 20.916 61.28 21.556C61.9413 22.196 62.272 23.0493 62.272 24.116C62.272 24.884 62.0747 25.6253 61.68 26.34C61.296 27.044 60.832 27.6787 60.288 28.244C59.7547 28.7987 59.072 29.444 58.24 30.18L57.52 30.82H62.592V32.34H54.816V31.012L55.968 30.02ZM64.1944 26.516C64.1944 24.6707 64.5037 23.2307 65.1224 22.196C65.7517 21.1507 66.829 20.628 68.3544 20.628C69.8797 20.628 70.9517 21.1507 71.5704 22.196C72.1997 23.2307 72.5144 24.6707 72.5144 26.516C72.5144 28.3827 72.1997 29.844 71.5704 30.9C70.9517 31.9453 69.8797 32.468 68.3544 32.468C66.829 32.468 65.7517 31.9453 65.1224 30.9C64.5037 29.844 64.1944 28.3827 64.1944 26.516ZM70.7224 26.516C70.7224 25.652 70.6637 24.9213 70.5464 24.324C70.4397 23.7267 70.2157 23.2413 69.8744 22.868C69.533 22.484 69.0264 22.292 68.3544 22.292C67.6824 22.292 67.1757 22.484 66.8344 22.868C66.493 23.2413 66.2637 23.7267 66.1464 24.324C66.0397 24.9213 65.9864 25.652 65.9864 26.516C65.9864 27.412 66.0397 28.164 66.1464 28.772C66.253 29.38 66.477 29.8707 66.8184 30.244C67.1704 30.6173 67.6824 30.804 68.3544 30.804C69.0264 30.804 69.533 30.6173 69.8744 30.244C70.2264 29.8707 70.4557 29.38 70.5624 28.772C70.669 28.164 70.7224 27.412 70.7224 26.516ZM74.1564 23.652C74.1564 22.8733 74.3804 22.2653 74.8284 21.828C75.287 21.38 75.8737 21.156 76.5884 21.156C77.303 21.156 77.8844 21.38 78.3324 21.828C78.791 22.2653 79.0204 22.8733 79.0204 23.652C79.0204 24.4307 78.791 25.044 78.3324 25.492C77.8844 25.94 77.303 26.164 76.5884 26.164C75.8737 26.164 75.287 25.94 74.8284 25.492C74.3804 25.044 74.1564 24.4307 74.1564 23.652ZM83.9164 21.364L77.5324 32.5H75.7404L82.1244 21.364H83.9164ZM76.5884 22.26C75.9164 22.26 75.5804 22.724 75.5804 23.652C75.5804 24.5907 75.9164 25.06 76.5884 25.06C76.9084 25.06 77.1537 24.948 77.3244 24.724C77.5057 24.4893 77.5964 24.132 77.5964 23.652C77.5964 22.724 77.2604 22.26 76.5884 22.26ZM80.6684 30.196C80.6684 29.4173 80.8924 28.8093 81.3404 28.372C81.799 27.924 82.3857 27.7 83.1004 27.7C83.8044 27.7 84.3804 27.924 84.8284 28.372C85.287 28.8093 85.5164 29.4173 85.5164 30.196C85.5164 30.9747 85.287 31.588 84.8284 32.036C84.3804 32.484 83.8044 32.708 83.1004 32.708C82.3857 32.708 81.799 32.484 81.3404 32.036C80.8924 31.588 80.6684 30.9747 80.6684 30.196ZM83.0844 28.804C82.4124 28.804 82.0764 29.268 82.0764 30.196C82.0764 31.124 82.4124 31.588 83.0844 31.588C83.7564 31.588 84.0924 31.124 84.0924 30.196C84.0924 29.268 83.7564 28.804 83.0844 28.804ZM93.3678 21.38V32.5H91.5438V21.38H93.3678ZM100.211 23.54C100.904 23.54 101.523 23.684 102.067 23.972C102.621 24.26 103.053 24.6867 103.363 25.252C103.672 25.8173 103.827 26.5 103.827 27.3V32.5H102.019V27.572C102.019 26.7827 101.821 26.18 101.427 25.764C101.032 25.3373 100.493 25.124 99.8105 25.124C99.1278 25.124 98.5838 25.3373 98.1785 25.764C97.7838 26.18 97.5865 26.7827 97.5865 27.572V32.5H95.7625V23.684H97.5865V24.692C97.8852 24.3293 98.2638 24.0467 98.7225 23.844C99.1918 23.6413 99.6878 23.54 100.211 23.54ZM105.545 28.084C105.545 27.1773 105.726 26.3827 106.089 25.7C106.462 25.0067 106.974 24.4733 107.625 24.1C108.276 23.7267 109.022 23.54 109.865 23.54C110.932 23.54 111.812 23.796 112.505 24.308C113.209 24.8093 113.684 25.5293 113.929 26.468H111.961C111.801 26.0307 111.545 25.6893 111.193 25.444C110.841 25.1987 110.398 25.076 109.865 25.076C109.118 25.076 108.521 25.3427 108.073 25.876C107.636 26.3987 107.417 27.1347 107.417 28.084C107.417 29.0333 107.636 29.7747 108.073 30.308C108.521 30.8413 109.118 31.108 109.865 31.108C110.921 31.108 111.62 30.644 111.961 29.716H113.929C113.673 30.612 113.193 31.3267 112.489 31.86C111.785 32.3827 110.91 32.644 109.865 32.644C109.022 32.644 108.276 32.4573 107.625 32.084C106.974 31.7 106.462 31.1667 106.089 30.484C105.726 29.7907 105.545 28.9907 105.545 28.084ZM117.571 24.964C117.838 24.516 118.19 24.1693 118.627 23.924C119.075 23.668 119.603 23.54 120.211 23.54V25.428H119.747C119.032 25.428 118.488 25.6093 118.115 25.972C117.752 26.3347 117.571 26.964 117.571 27.86V32.5H115.747V23.684H117.571V24.964ZM129.968 27.876C129.968 28.2067 129.946 28.5053 129.904 28.772H123.168C123.221 29.476 123.482 30.0413 123.952 30.468C124.421 30.8947 124.997 31.108 125.68 31.108C126.661 31.108 127.354 30.6973 127.76 29.876H129.727C129.461 30.6867 128.976 31.3533 128.272 31.876C127.578 32.388 126.714 32.644 125.68 32.644C124.837 32.644 124.08 32.4573 123.408 32.084C122.746 31.7 122.224 31.1667 121.84 30.484C121.466 29.7907 121.28 28.9907 121.28 28.084C121.28 27.1773 121.461 26.3827 121.824 25.7C122.197 25.0067 122.714 24.4733 123.376 24.1C124.048 23.7267 124.816 23.54 125.68 23.54C126.512 23.54 127.253 23.7213 127.904 24.084C128.554 24.4467 129.061 24.9587 129.424 25.62C129.786 26.2707 129.968 27.0227 129.968 27.876ZM128.064 27.3C128.053 26.628 127.813 26.0893 127.344 25.684C126.874 25.2787 126.293 25.076 125.6 25.076C124.97 25.076 124.432 25.2787 123.984 25.684C123.536 26.0787 123.269 26.6173 123.184 27.3H128.064ZM131.155 28.052C131.155 27.1667 131.336 26.3827 131.699 25.7C132.072 25.0173 132.573 24.4893 133.203 24.116C133.843 23.732 134.547 23.54 135.315 23.54C136.008 23.54 136.611 23.6787 137.123 23.956C137.645 24.2227 138.061 24.5587 138.371 24.964V23.684H140.211V32.5H138.371V31.188C138.061 31.604 137.64 31.9507 137.107 32.228C136.573 32.5053 135.965 32.644 135.283 32.644C134.525 32.644 133.832 32.452 133.203 32.068C132.573 31.6733 132.072 31.1293 131.699 30.436C131.336 29.732 131.155 28.9373 131.155 28.052ZM138.371 28.084C138.371 27.476 138.243 26.948 137.987 26.5C137.741 26.052 137.416 25.7107 137.011 25.476C136.605 25.2413 136.168 25.124 135.699 25.124C135.229 25.124 134.792 25.2413 134.387 25.476C133.981 25.7 133.651 26.036 133.395 26.484C133.149 26.9213 133.027 27.444 133.027 28.052C133.027 28.66 133.149 29.1933 133.395 29.652C133.651 30.1107 133.981 30.4627 134.387 30.708C134.803 30.9427 135.24 31.06 135.699 31.06C136.168 31.06 136.605 30.9427 137.011 30.708C137.416 30.4733 137.741 30.132 137.987 29.684C138.243 29.2253 138.371 28.692 138.371 28.084ZM145.806 32.644C145.113 32.644 144.489 32.5213 143.934 32.276C143.39 32.02 142.958 31.6787 142.638 31.252C142.318 30.8147 142.148 30.3293 142.126 29.796H144.014C144.046 30.1693 144.222 30.484 144.542 30.74C144.873 30.9853 145.284 31.108 145.774 31.108C146.286 31.108 146.681 31.012 146.958 30.82C147.246 30.6173 147.39 30.3613 147.39 30.052C147.39 29.7213 147.23 29.476 146.91 29.316C146.601 29.156 146.105 28.98 145.422 28.788C144.761 28.6067 144.222 28.4307 143.806 28.26C143.39 28.0893 143.028 27.828 142.718 27.476C142.42 27.124 142.27 26.66 142.27 26.084C142.27 25.6147 142.409 25.188 142.686 24.804C142.964 24.4093 143.358 24.1 143.87 23.876C144.393 23.652 144.99 23.54 145.662 23.54C146.665 23.54 147.47 23.796 148.078 24.308C148.697 24.8093 149.028 25.4973 149.07 26.372H147.246C147.214 25.9773 147.054 25.6627 146.766 25.428C146.478 25.1933 146.089 25.076 145.598 25.076C145.118 25.076 144.75 25.1667 144.494 25.348C144.238 25.5293 144.11 25.7693 144.11 26.068C144.11 26.3027 144.196 26.5 144.366 26.66C144.537 26.82 144.745 26.948 144.99 27.044C145.236 27.1293 145.598 27.2413 146.078 27.38C146.718 27.5507 147.241 27.7267 147.646 27.908C148.062 28.0787 148.42 28.3347 148.718 28.676C149.017 29.0173 149.172 29.4707 149.182 30.036C149.182 30.5373 149.044 30.9853 148.766 31.38C148.489 31.7747 148.094 32.084 147.582 32.308C147.081 32.532 146.489 32.644 145.806 32.644ZM159.233 27.876C159.233 28.2067 159.212 28.5053 159.169 28.772H152.433C152.486 29.476 152.748 30.0413 153.217 30.468C153.686 30.8947 154.262 31.108 154.945 31.108C155.926 31.108 156.62 30.6973 157.025 29.876H158.993C158.726 30.6867 158.241 31.3533 157.537 31.876C156.844 32.388 155.98 32.644 154.945 32.644C154.102 32.644 153.345 32.4573 152.673 32.084C152.012 31.7 151.489 31.1667 151.105 30.484C150.732 29.7907 150.545 28.9907 150.545 28.084C150.545 27.1773 150.726 26.3827 151.089 25.7C151.462 25.0067 151.98 24.4733 152.641 24.1C153.313 23.7267 154.081 23.54 154.945 23.54C155.777 23.54 156.518 23.7213 157.169 24.084C157.82 24.4467 158.326 24.9587 158.689 25.62C159.052 26.2707 159.233 27.0227 159.233 27.876ZM157.329 27.3C157.318 26.628 157.078 26.0893 156.609 25.684C156.14 25.2787 155.558 25.076 154.865 25.076C154.236 25.076 153.697 25.2787 153.249 25.684C152.801 26.0787 152.534 26.6173 152.449 27.3H157.329ZM166.112 22.516C165.782 22.516 165.504 22.404 165.28 22.18C165.056 21.956 164.944 21.6787 164.944 21.348C164.944 21.0173 165.056 20.74 165.28 20.516C165.504 20.292 165.782 20.18 166.112 20.18C166.432 20.18 166.704 20.292 166.928 20.516C167.152 20.74 167.264 21.0173 167.264 21.348C167.264 21.6787 167.152 21.956 166.928 22.18C166.704 22.404 166.432 22.516 166.112 22.516ZM167.008 23.684V32.5H165.184V23.684H167.008ZM173.851 23.54C174.544 23.54 175.163 23.684 175.707 23.972C176.262 24.26 176.694 24.6867 177.003 25.252C177.312 25.8173 177.467 26.5 177.467 27.3V32.5H175.659V27.572C175.659 26.7827 175.462 26.18 175.067 25.764C174.672 25.3373 174.134 25.124 173.451 25.124C172.768 25.124 172.224 25.3373 171.819 25.764C171.424 26.18 171.227 26.7827 171.227 27.572V32.5H169.403V23.684H171.227V24.692C171.526 24.3293 171.904 24.0467 172.363 23.844C172.832 23.6413 173.328 23.54 173.851 23.54ZM185.774 24.996C186.083 24.5693 186.505 24.2227 187.038 23.956C187.582 23.6787 188.185 23.54 188.846 23.54C189.625 23.54 190.329 23.7267 190.958 24.1C191.587 24.4733 192.083 25.0067 192.446 25.7C192.809 26.3827 192.99 27.1667 192.99 28.052C192.99 28.9373 192.809 29.732 192.446 30.436C192.083 31.1293 191.582 31.6733 190.942 32.068C190.313 32.452 189.614 32.644 188.846 32.644C188.163 32.644 187.555 32.5107 187.022 32.244C186.499 31.9773 186.083 31.636 185.774 31.22V32.5H183.95V20.66H185.774V24.996ZM191.134 28.052C191.134 27.444 191.006 26.9213 190.75 26.484C190.505 26.036 190.174 25.7 189.758 25.476C189.353 25.2413 188.915 25.124 188.446 25.124C187.987 25.124 187.55 25.2413 187.134 25.476C186.729 25.7107 186.398 26.052 186.142 26.5C185.897 26.948 185.774 27.476 185.774 28.084C185.774 28.692 185.897 29.2253 186.142 29.684C186.398 30.132 186.729 30.4733 187.134 30.708C187.55 30.9427 187.987 31.06 188.446 31.06C188.915 31.06 189.353 30.9427 189.758 30.708C190.174 30.4627 190.505 30.1107 190.75 29.652C191.006 29.1933 191.134 28.66 191.134 28.052ZM202.778 23.684V32.5H200.954V31.46C200.666 31.8227 200.287 32.1107 199.818 32.324C199.359 32.5267 198.868 32.628 198.346 32.628C197.652 32.628 197.028 32.484 196.474 32.196C195.93 31.908 195.498 31.4813 195.178 30.916C194.868 30.3507 194.714 29.668 194.714 28.868V23.684H196.522V28.596C196.522 29.3853 196.719 29.9933 197.114 30.42C197.508 30.836 198.047 31.044 198.73 31.044C199.412 31.044 199.951 30.836 200.346 30.42C200.751 29.9933 200.954 29.3853 200.954 28.596V23.684H202.778ZM208.384 32.644C207.691 32.644 207.067 32.5213 206.512 32.276C205.968 32.02 205.536 31.6787 205.216 31.252C204.896 30.8147 204.726 30.3293 204.704 29.796H206.592C206.624 30.1693 206.8 30.484 207.12 30.74C207.451 30.9853 207.862 31.108 208.352 31.108C208.864 31.108 209.259 31.012 209.536 30.82C209.824 30.6173 209.968 30.3613 209.968 30.052C209.968 29.7213 209.808 29.476 209.488 29.316C209.179 29.156 208.683 28.98 208 28.788C207.339 28.6067 206.8 28.4307 206.384 28.26C205.968 28.0893 205.606 27.828 205.296 27.476C204.998 27.124 204.848 26.66 204.848 26.084C204.848 25.6147 204.987 25.188 205.264 24.804C205.542 24.4093 205.936 24.1 206.448 23.876C206.971 23.652 207.568 23.54 208.24 23.54C209.243 23.54 210.048 23.796 210.656 24.308C211.275 24.8093 211.606 25.4973 211.648 26.372H209.824C209.792 25.9773 209.632 25.6627 209.344 25.428C209.056 25.1933 208.667 25.076 208.176 25.076C207.696 25.076 207.328 25.1667 207.072 25.348C206.816 25.5293 206.688 25.7693 206.688 26.068C206.688 26.3027 206.774 26.5 206.944 26.66C207.115 26.82 207.323 26.948 207.568 27.044C207.814 27.1293 208.176 27.2413 208.656 27.38C209.296 27.5507 209.819 27.7267 210.224 27.908C210.64 28.0787 210.998 28.3347 211.296 28.676C211.595 29.0173 211.75 29.4707 211.76 30.036C211.76 30.5373 211.622 30.9853 211.344 31.38C211.067 31.7747 210.672 32.084 210.16 32.308C209.659 32.532 209.067 32.644 208.384 32.644ZM214.659 22.516C214.329 22.516 214.051 22.404 213.827 22.18C213.603 21.956 213.491 21.6787 213.491 21.348C213.491 21.0173 213.603 20.74 213.827 20.516C214.051 20.292 214.329 20.18 214.659 20.18C214.979 20.18 215.251 20.292 215.475 20.516C215.699 20.74 215.811 21.0173 215.811 21.348C215.811 21.6787 215.699 21.956 215.475 22.18C215.251 22.404 214.979 22.516 214.659 22.516ZM215.555 23.684V32.5H213.731V23.684H215.555ZM222.398 23.54C223.091 23.54 223.71 23.684 224.254 23.972C224.809 24.26 225.241 24.6867 225.55 25.252C225.859 25.8173 226.014 26.5 226.014 27.3V32.5H224.206V27.572C224.206 26.7827 224.009 26.18 223.614 25.764C223.219 25.3373 222.681 25.124 221.998 25.124C221.315 25.124 220.771 25.3373 220.366 25.764C219.971 26.18 219.774 26.7827 219.774 27.572V32.5H217.95V23.684H219.774V24.692C220.073 24.3293 220.451 24.0467 220.91 23.844C221.379 23.6413 221.875 23.54 222.398 23.54ZM236.421 27.876C236.421 28.2067 236.399 28.5053 236.357 28.772H229.621C229.674 29.476 229.935 30.0413 230.405 30.468C230.874 30.8947 231.45 31.108 232.133 31.108C233.114 31.108 233.807 30.6973 234.213 29.876H236.181C235.914 30.6867 235.429 31.3533 234.725 31.876C234.031 32.388 233.167 32.644 232.133 32.644C231.29 32.644 230.533 32.4573 229.861 32.084C229.199 31.7 228.677 31.1667 228.293 30.484C227.919 29.7907 227.733 28.9907 227.733 28.084C227.733 27.1773 227.914 26.3827 228.277 25.7C228.65 25.0067 229.167 24.4733 229.829 24.1C230.501 23.7267 231.269 23.54 232.133 23.54C232.965 23.54 233.706 23.7213 234.357 24.084C235.007 24.4467 235.514 24.9587 235.877 25.62C236.239 26.2707 236.421 27.0227 236.421 27.876ZM234.517 27.3C234.506 26.628 234.266 26.0893 233.797 25.684C233.327 25.2787 232.746 25.076 232.053 25.076C231.423 25.076 230.885 25.2787 230.437 25.684C229.989 26.0787 229.722 26.6173 229.637 27.3H234.517ZM241.416 32.644C240.722 32.644 240.098 32.5213 239.544 32.276C239 32.02 238.568 31.6787 238.248 31.252C237.928 30.8147 237.757 30.3293 237.736 29.796H239.624C239.656 30.1693 239.832 30.484 240.152 30.74C240.482 30.9853 240.893 31.108 241.384 31.108C241.896 31.108 242.29 31.012 242.568 30.82C242.856 30.6173 243 30.3613 243 30.052C243 29.7213 242.84 29.476 242.52 29.316C242.21 29.156 241.714 28.98 241.032 28.788C240.37 28.6067 239.832 28.4307 239.416 28.26C239 28.0893 238.637 27.828 238.328 27.476C238.029 27.124 237.88 26.66 237.88 26.084C237.88 25.6147 238.018 25.188 238.296 24.804C238.573 24.4093 238.968 24.1 239.48 23.876C240.002 23.652 240.6 23.54 241.272 23.54C242.274 23.54 243.08 23.796 243.688 24.308C244.306 24.8093 244.637 25.4973 244.68 26.372H242.856C242.824 25.9773 242.664 25.6627 242.376 25.428C242.088 25.1933 241.698 25.076 241.208 25.076C240.728 25.076 240.36 25.1667 240.104 25.348C239.848 25.5293 239.72 25.7693 239.72 26.068C239.72 26.3027 239.805 26.5 239.976 26.66C240.146 26.82 240.354 26.948 240.6 27.044C240.845 27.1293 241.208 27.2413 241.688 27.38C242.328 27.5507 242.85 27.7267 243.256 27.908C243.672 28.0787 244.029 28.3347 244.328 28.676C244.626 29.0173 244.781 29.4707 244.792 30.036C244.792 30.5373 244.653 30.9853 244.376 31.38C244.098 31.7747 243.704 32.084 243.192 32.308C242.69 32.532 242.098 32.644 241.416 32.644ZM249.963 32.644C249.269 32.644 248.645 32.5213 248.091 32.276C247.547 32.02 247.115 31.6787 246.795 31.252C246.475 30.8147 246.304 30.3293 246.283 29.796H248.171C248.203 30.1693 248.379 30.484 248.699 30.74C249.029 30.9853 249.44 31.108 249.931 31.108C250.443 31.108 250.837 31.012 251.115 30.82C251.403 30.6173 251.547 30.3613 251.547 30.052C251.547 29.7213 251.387 29.476 251.067 29.316C250.757 29.156 250.261 28.98 249.579 28.788C248.917 28.6067 248.379 28.4307 247.963 28.26C247.547 28.0893 247.184 27.828 246.875 27.476C246.576 27.124 246.427 26.66 246.427 26.084C246.427 25.6147 246.565 25.188 246.843 24.804C247.12 24.4093 247.515 24.1 248.027 23.876C248.549 23.652 249.147 23.54 249.819 23.54C250.821 23.54 251.627 23.796 252.235 24.308C252.853 24.8093 253.184 25.4973 253.227 26.372H251.403C251.371 25.9773 251.211 25.6627 250.923 25.428C250.635 25.1933 250.245 25.076 249.755 25.076C249.275 25.076 248.907 25.1667 248.651 25.348C248.395 25.5293 248.267 25.7693 248.267 26.068C248.267 26.3027 248.352 26.5 248.523 26.66C248.693 26.82 248.901 26.948 249.147 27.044C249.392 27.1293 249.755 27.2413 250.235 27.38C250.875 27.5507 251.397 27.7267 251.803 27.908C252.219 28.0787 252.576 28.3347 252.875 28.676C253.173 29.0173 253.328 29.4707 253.339 30.036C253.339 30.5373 253.2 30.9853 252.923 31.38C252.645 31.7747 252.251 32.084 251.739 32.308C251.237 32.532 250.645 32.644 249.963 32.644Z" fill="#123726"/>
<defs>
<clipPath id="clip0_124_10966">
<rect width="32" height="32" fill="white" transform="translate(8 10.5)"/>
</clipPath>
</defs>
</svg>
