<svg width="24" height="24" viewBox="0 0 24 24" fill="none" xmlns="http://www.w3.org/2000/svg">
<g clip-path="url(#clip0_4244_16889)">
<path d="M20.0205 4.86121C19.7923 4.6319 19.5542 4.41238 19.3073 4.20351C18.7943 3.76959 18.2433 3.38549 17.6628 3.04762C16.9456 2.63245 16.1861 2.29645 15.3958 2.04815C15.0116 1.92745 14.7534 1.57584 14.7534 1.17319V0H12.918V1.17309C12.9179 2.38157 13.6927 3.43687 14.8457 3.79916C15.4863 4.0004 16.1049 4.27058 16.6883 4.60312C16.8679 4.70549 17.0442 4.81387 17.2167 4.92782C17.9835 5.43341 18.6713 6.0456 19.2661 6.75378L20.6717 5.57338C20.6834 5.56354 20.0773 4.9183 20.0205 4.86121Z" fill="#A7B3A7"/>
<path d="M11.9993 5.20044C7.78234 5.20044 4.35156 8.63121 4.35156 12.8482C4.35156 17.0651 7.78234 20.496 11.9993 20.496C16.2163 20.496 19.647 17.0652 19.647 12.8482C19.647 8.63126 16.2163 5.20044 11.9993 5.20044ZM9.4659 7.61783C9.44588 7.66967 9.42601 7.72179 9.40637 7.77575C8.98946 8.92231 8.7301 10.3725 8.6566 11.9305H6.25975C6.56256 10.0294 7.79031 8.4327 9.4659 7.61783ZM6.2597 13.7659H8.65655C8.7301 15.3239 8.98937 16.7741 9.40632 17.9207C9.42596 17.9746 9.44583 18.0268 9.46585 18.0786C7.79031 17.2637 6.56256 15.667 6.2597 13.7659ZM11.1005 8.48946C11.5035 7.33569 11.9179 7.04623 11.9981 7.03592C11.9983 7.03592 11.9985 7.03592 11.9987 7.03592C12.0805 7.04614 12.495 7.33545 12.898 8.48946C13.2282 9.43465 13.4379 10.6325 13.5052 11.9305H10.4933C10.5607 10.6325 10.7704 9.4347 11.1005 8.48946ZM12.8983 17.2069C12.4951 18.3608 12.0808 18.6502 12.0006 18.6605C12.0003 18.6605 12.0001 18.6605 11.9999 18.6605C11.9181 18.6503 11.5036 18.3609 11.1006 17.2069C10.7705 16.2617 10.5608 15.0639 10.4935 13.7659H13.5054C13.438 15.0639 13.2283 16.2617 12.8983 17.2069ZM17.7389 11.9305H15.342C15.2685 10.3725 15.0092 8.92226 14.5923 7.7757C14.5726 7.72175 14.5528 7.66962 14.5327 7.61778C16.2083 8.4327 17.436 10.0294 17.7389 11.9305ZM14.5327 18.0786C14.5527 18.0267 14.5726 17.9746 14.5922 17.9207C15.0091 16.7741 15.2685 15.3239 15.342 13.7659H17.7388C17.436 15.667 16.2083 17.2637 14.5327 18.0786Z" fill="#A7B3A7"/>
<path d="M3.08289 16.0825L1.35742 16.7085C1.80808 17.9508 2.46878 19.0965 3.3212 20.1138L4.72806 18.9349C4.01378 18.0824 3.46023 17.1228 3.08289 16.0825Z" fill="#A7B3A7"/>
<path d="M1.36522 8.96606C0.913015 10.2045 0.683047 11.5065 0.681641 12.836L2.51707 12.8379C2.51825 11.7232 2.71071 10.6323 3.08932 9.59555L1.36522 8.96606Z" fill="#A7B3A7"/>
<path d="M9.24603 0V1.17281C9.24603 1.57514 8.98288 1.92848 8.59133 2.05195C7.80937 2.29856 7.05651 2.63189 6.34462 3.04124C6.19092 3.12965 6.03871 3.22199 5.89003 3.3186C5.88656 3.32085 5.88295 3.32296 5.87962 3.3254C4.92422 3.94002 4.06945 4.69171 3.33398 5.56607L4.73859 6.74769C5.35767 6.01161 6.07738 5.37927 6.88199 4.86294C7.51757 4.45504 8.20213 4.12284 8.91627 3.87731C8.99164 3.85138 9.06739 3.82645 9.14343 3.80249C10.3026 3.43682 11.0815 2.38007 11.0815 1.1729V0H9.24603Z" fill="#A7B3A7"/>
<path d="M7.24745 21.0564L6.32617 22.644C7.47273 23.3094 8.7151 23.7635 10.0187 23.9938L10.3381 22.1863C9.24709 21.9936 8.20721 21.6135 7.24745 21.0564Z" fill="#A7B3A7"/>
<path d="M16.7275 21.071C15.766 21.6252 14.7248 22.0021 13.6328 22.1915L13.9465 24C15.2513 23.7738 16.4953 23.3233 17.644 22.6614L16.7275 21.071Z" fill="#A7B3A7"/>
<path d="M22.6388 8.97632L20.9141 9.60416C21.2917 10.6415 21.4831 11.7329 21.4831 12.8481V12.8671L23.3186 12.8743V12.8481C23.3186 11.5182 23.0899 10.2155 22.6388 8.97632Z" fill="#A7B3A7"/>
<path d="M20.9073 16.1106C20.5268 17.1492 19.9705 18.1067 19.2539 18.9568L20.6572 20.1398C21.5124 19.1255 22.1763 17.9823 22.6307 16.742L20.9073 16.1106Z" fill="#A7B3A7"/>
</g>
<defs>
<clipPath id="clip0_4244_16889">
<rect width="24" height="24" fill="white"/>
</clipPath>
</defs>
</svg>
