<svg width="115" height="111" viewBox="0 0 115 111" fill="none" xmlns="http://www.w3.org/2000/svg">
<circle cx="55.2537" cy="55.4881" r="54.7537" fill="#123726"/>
<circle cx="100.118" cy="90.213" r="14.8818" fill="white"/>
<path d="M50.8333 64.8455H47.3889V52.7899H50.8333V64.8455ZM57.7222 64.8455H54.2778V47.6233H57.7222V64.8455ZM64.6111 64.8455H61.1667V57.9566H64.6111V64.8455ZM68.0556 68.2899H43.9444V44.1788H68.0556V68.4622M68.0556 40.7344H43.9444C42.05 40.7344 40.5 42.2844 40.5 44.1788V68.2899C40.5 70.1844 42.05 71.7344 43.9444 71.7344H68.0556C69.95 71.7344 71.5 70.1844 71.5 68.2899V44.1788C71.5 42.2844 69.95 40.7344 68.0556 40.7344Z" fill="white"/>
</svg>
