<svg width="128" height="68" viewBox="0 0 128 68" fill="none" xmlns="http://www.w3.org/2000/svg">
<g id="Group 1000001780">
<rect id="Rectangle 3849" width="128" height="68" rx="12" fill="#34B206"/>
<path id="Vector" d="M49 44.7787V22.223C49 20.3631 49 19.4321 49.3869 18.8818C49.7245 18.4015 50.245 18.0861 50.8228 18.0107C51.4845 17.9244 52.2962 18.3623 53.9172 19.2369L74.8187 30.5148L74.8263 30.5182C76.6176 31.4848 77.5137 31.9683 77.8077 32.6128C78.0641 33.1749 78.0641 33.8239 77.8077 34.3861C77.5133 35.0314 76.6151 35.5169 74.8187 36.4862L53.9172 47.7641C52.295 48.6394 51.4848 49.0756 50.8228 48.9892C50.245 48.9138 49.7245 48.5986 49.3869 48.1183C49 47.568 49 46.6387 49 44.7787Z" stroke="white" stroke-width="5" stroke-linecap="round" stroke-linejoin="round"/>
</g>
</svg>
