<svg width="115" height="111" viewBox="0 0 115 111" fill="none" xmlns="http://www.w3.org/2000/svg">
<circle cx="55.2537" cy="55.4881" r="54.7537" fill="#123726"/>
<circle cx="100.118" cy="90.213" r="14.8818" fill="white"/>
<path d="M50.3636 54.8253C52.2322 54.8253 54.0242 54.083 55.3455 52.7617C56.6668 51.4404 57.4091 49.6484 57.4091 47.7798C57.4091 45.9113 56.6668 44.1192 55.3455 42.7979C54.0242 41.4767 52.2322 40.7344 50.3636 40.7344C48.4951 40.7344 46.703 41.4767 45.3817 42.7979C44.0605 44.1192 43.3182 45.9113 43.3182 47.7798C43.3182 49.6484 44.0605 51.4404 45.3817 52.7617C46.703 54.083 48.4951 54.8253 50.3636 54.8253ZM50.3636 54.8253C53.2001 54.8253 55.6787 55.8962 57.4415 57.6759C58.4868 58.7353 59.2687 60.0255 59.7242 61.4424M50.3636 54.8253C44.7273 54.8253 40.5 59.0526 40.5 64.6889V71.7344H54.5909M56 65.85L61.9041 70.3253L71.5 57.6435" stroke="white" stroke-width="5"/>
</svg>
