<svg width="36" height="35" viewBox="0 0 36 35" fill="none" xmlns="http://www.w3.org/2000/svg">
<path d="M19.5214 16.1915C18.5348 16.1915 17.7423 16.984 17.7423 17.9706C17.7423 18.9572 18.5348 19.7497 19.5214 19.7497C20.508 19.7497 21.3005 18.9572 21.3005 17.9706C21.3005 16.984 20.508 16.1915 19.5214 16.1915ZM19.5214 1.79688C10.5935 1.79688 3.34766 9.04269 3.34766 17.9706C3.34766 26.8985 10.5935 34.1443 19.5214 34.1443C28.4492 34.1443 35.6951 26.8985 35.6951 17.9706C35.6951 9.04269 28.4492 1.79688 19.5214 1.79688ZM23.0634 21.5126L9.81714 27.6748L15.9793 14.4285L29.2256 8.26636L23.0634 21.5126Z" fill="black"/>
</svg>
