<svg width="11" height="12" viewBox="0 0 11 12" fill="none" xmlns="http://www.w3.org/2000/svg">
<path fill-rule="evenodd" clip-rule="evenodd" d="M9.90156 5.99998C9.90156 7.16693 9.43799 8.28609 8.61283 9.11125C7.78767 9.93641 6.66851 10.4 5.50156 10.4C4.33461 10.4 3.21545 9.93641 2.39029 9.11125C1.56513 8.28609 1.10156 7.16693 1.10156 5.99998C1.10156 4.83302 1.56513 3.71387 2.39029 2.88871C3.21545 2.06355 4.33461 1.59998 5.50156 1.59998C6.66851 1.59998 7.78767 2.06355 8.61283 2.88871C9.43799 3.71387 9.90156 4.83302 9.90156 5.99998ZM6.05156 3.79998C6.05156 3.94584 5.99362 4.08574 5.89047 4.18888C5.78733 4.29203 5.64743 4.34998 5.50156 4.34998C5.35569 4.34998 5.2158 4.29203 5.11265 4.18888C5.00951 4.08574 4.95156 3.94584 4.95156 3.79998C4.95156 3.65411 5.00951 3.51421 5.11265 3.41107C5.2158 3.30792 5.35569 3.24998 5.50156 3.24998C5.64743 3.24998 5.78733 3.30792 5.89047 3.41107C5.99362 3.51421 6.05156 3.65411 6.05156 3.79998ZM4.95156 5.44998C4.80569 5.44998 4.6658 5.50792 4.56265 5.61107C4.45951 5.71421 4.40156 5.85411 4.40156 5.99998C4.40156 6.14584 4.45951 6.28574 4.56265 6.38888C4.6658 6.49203 4.80569 6.54998 4.95156 6.54998V8.19998C4.95156 8.34584 5.00951 8.48574 5.11265 8.58888C5.2158 8.69203 5.35569 8.74998 5.50156 8.74998H6.05156C6.19743 8.74998 6.33733 8.69203 6.44047 8.58888C6.54362 8.48574 6.60156 8.34584 6.60156 8.19998C6.60156 8.05411 6.54362 7.91421 6.44047 7.81107C6.33733 7.70792 6.19743 7.64997 6.05156 7.64997V5.99998C6.05156 5.85411 5.99362 5.71421 5.89047 5.61107C5.78733 5.50792 5.64743 5.44998 5.50156 5.44998H4.95156Z" fill="black"/>
</svg>
