<svg width="29" height="15" viewBox="0 0 29 15" fill="none" xmlns="http://www.w3.org/2000/svg">
<path d="M14.6006 14.0475C16.1517 10.3596 18.7432 7.62781 21.4623 4.96878C20.2751 5.45943 19.2857 6.23815 18.4112 7.13715C17.5368 8.03933 16.7006 8.99531 15.9666 10.0114C15.2229 11.0371 14.6197 12.1672 13.8761 13.3795C13.4804 11.8823 13.4676 10.4958 13.7197 9.12193C14.3038 5.92476 16.391 3.90516 19.1932 2.51234C21.8357 1.19865 24.6698 0.549718 27.5996 0.274318C27.7624 0.258491 27.9251 0.271152 28.2347 0.271152C28.0432 1.67981 27.9124 3.04098 27.6602 4.37999C27.2613 6.48506 26.6198 8.50782 25.4709 10.3596C24.4592 11.9899 22.9783 12.9585 21.2198 13.56C19.34 14.1994 17.3868 14.345 15.4112 14.2152C15.1782 14.2026 14.9516 14.1234 14.6006 14.0475Z" fill="#123726"/>
<path d="M4.65382 9.47334C6.91022 10.6382 9.0964 11.895 10.6985 14.0032C6.88469 15.4213 3.35487 14.9528 1.43678 11.0118C0.910179 9.92601 0.520806 8.77692 0.0708033 7.65317C-0.0887721 7.25431 0.0101771 7.03589 0.48252 6.98841C2.91126 6.74466 5.30169 6.79215 7.61234 7.70065C9.67725 8.51102 11.1102 10.5591 11.1485 12.7813C11.1517 12.8921 11.1198 13.0029 11.0783 13.2815C9.16981 11.4866 7.24214 9.91968 4.65382 9.47334Z" fill="#123726"/>
</svg>
