<svg width="118" height="50" viewBox="0 0 118 50" fill="none" xmlns="http://www.w3.org/2000/svg">
<path d="M3.792 13.108C3.416 13.108 3.052 13.076 2.7 13.012C2.348 12.956 2.016 12.868 1.704 12.748C1.392 12.628 1.112 12.48 0.864 12.304C0.76 12.232 0.684 12.144 0.636 12.04C0.596 11.936 0.584 11.836 0.6 11.74C0.624 11.636 0.668 11.548 0.732 11.476C0.804 11.404 0.888 11.36 0.984 11.344C1.08 11.328 1.184 11.36 1.296 11.44C1.664 11.688 2.048 11.868 2.448 11.98C2.856 12.092 3.304 12.148 3.792 12.148C4.496 12.148 5.012 12.02 5.34 11.764C5.676 11.508 5.844 11.172 5.844 10.756C5.844 10.412 5.724 10.144 5.484 9.952C5.244 9.752 4.84 9.596 4.272 9.484L3 9.22C2.248 9.06 1.684 8.796 1.308 8.428C0.94 8.06 0.756 7.568 0.756 6.952C0.756 6.576 0.832 6.236 0.984 5.932C1.136 5.62 1.352 5.352 1.632 5.128C1.912 4.904 2.24 4.732 2.616 4.612C3 4.492 3.424 4.432 3.888 4.432C4.384 4.432 4.848 4.5 5.28 4.636C5.72 4.772 6.116 4.972 6.468 5.236C6.564 5.308 6.628 5.396 6.66 5.5C6.692 5.596 6.696 5.692 6.672 5.788C6.656 5.884 6.612 5.964 6.54 6.028C6.476 6.092 6.392 6.128 6.288 6.136C6.192 6.144 6.084 6.108 5.964 6.028C5.644 5.804 5.316 5.644 4.98 5.548C4.644 5.444 4.276 5.392 3.876 5.392C3.468 5.392 3.112 5.456 2.808 5.584C2.512 5.712 2.28 5.892 2.112 6.124C1.952 6.348 1.872 6.612 1.872 6.916C1.872 7.284 1.984 7.572 2.208 7.78C2.432 7.988 2.808 8.148 3.336 8.26L4.596 8.512C5.396 8.68 5.988 8.94 6.372 9.292C6.764 9.636 6.96 10.1 6.96 10.684C6.96 11.052 6.884 11.384 6.732 11.68C6.588 11.976 6.38 12.232 6.108 12.448C5.836 12.656 5.504 12.82 5.112 12.94C4.72 13.052 4.28 13.108 3.792 13.108ZM10.154 13.108C9.75397 13.108 9.38997 13.028 9.06197 12.868C8.74197 12.708 8.48997 12.492 8.30597 12.22C8.12997 11.948 8.04197 11.644 8.04197 11.308C8.04197 10.876 8.14997 10.536 8.36597 10.288C8.58197 10.04 8.94597 9.864 9.45797 9.76C9.96997 9.648 10.658 9.592 11.522 9.592H12.086V10.288H11.546C10.93 10.288 10.442 10.316 10.082 10.372C9.72997 10.428 9.48197 10.528 9.33797 10.672C9.19397 10.808 9.12197 11 9.12197 11.248C9.12197 11.56 9.22997 11.816 9.44597 12.016C9.66997 12.216 9.97397 12.316 10.358 12.316C10.662 12.316 10.93 12.244 11.162 12.1C11.394 11.948 11.578 11.748 11.714 11.5C11.85 11.244 11.918 10.952 11.918 10.624V9.244C11.918 8.772 11.822 8.432 11.63 8.224C11.438 8.008 11.114 7.9 10.658 7.9C10.394 7.9 10.122 7.936 9.84197 8.008C9.56197 8.08 9.26997 8.192 8.96597 8.344C8.84597 8.4 8.74197 8.42 8.65397 8.404C8.56597 8.38 8.49397 8.332 8.43797 8.26C8.38997 8.18 8.36197 8.096 8.35397 8.008C8.35397 7.912 8.37397 7.82 8.41397 7.732C8.46197 7.644 8.54197 7.58 8.65397 7.54C9.00597 7.364 9.35397 7.24 9.69797 7.168C10.05 7.088 10.378 7.048 10.682 7.048C11.202 7.048 11.63 7.132 11.966 7.3C12.302 7.46 12.554 7.712 12.722 8.056C12.89 8.392 12.974 8.824 12.974 9.352V12.52C12.974 12.704 12.93 12.844 12.842 12.94C12.754 13.036 12.626 13.084 12.458 13.084C12.298 13.084 12.17 13.036 12.074 12.94C11.986 12.844 11.942 12.704 11.942 12.52V11.668H12.05C11.986 11.964 11.866 12.22 11.69 12.436C11.514 12.652 11.294 12.82 11.03 12.94C10.774 13.052 10.482 13.108 10.154 13.108ZM17.1164 13.108C16.6444 13.108 16.2484 13.024 15.9284 12.856C15.6164 12.688 15.3804 12.444 15.2204 12.124C15.0684 11.804 14.9924 11.412 14.9924 10.948V7.996H14.2244C14.0804 7.996 13.9684 7.96 13.8884 7.888C13.8084 7.808 13.7684 7.704 13.7684 7.576C13.7684 7.44 13.8084 7.336 13.8884 7.264C13.9684 7.192 14.0804 7.156 14.2244 7.156H14.9924V5.848C14.9924 5.664 15.0404 5.528 15.1364 5.44C15.2324 5.344 15.3684 5.296 15.5444 5.296C15.7204 5.296 15.8524 5.344 15.9404 5.44C16.0364 5.528 16.0844 5.664 16.0844 5.848V7.156H17.5364C17.6884 7.156 17.8044 7.192 17.8844 7.264C17.9644 7.336 18.0044 7.44 18.0044 7.576C18.0044 7.704 17.9644 7.808 17.8844 7.888C17.8044 7.96 17.6884 7.996 17.5364 7.996H16.0844V10.852C16.0844 11.292 16.1764 11.624 16.3604 11.848C16.5444 12.072 16.8484 12.184 17.2724 12.184C17.4244 12.184 17.5524 12.172 17.6564 12.148C17.7604 12.116 17.8524 12.1 17.9324 12.1C18.0044 12.092 18.0644 12.116 18.1124 12.172C18.1684 12.228 18.1964 12.332 18.1964 12.484C18.1964 12.596 18.1764 12.7 18.1364 12.796C18.1044 12.884 18.0364 12.944 17.9324 12.976C17.8364 13.008 17.7084 13.036 17.5484 13.06C17.3884 13.092 17.2444 13.108 17.1164 13.108ZM21.6346 13.108C21.0026 13.108 20.4586 12.988 20.0026 12.748C19.5546 12.5 19.2066 12.152 18.9586 11.704C18.7106 11.248 18.5866 10.712 18.5866 10.096C18.5866 9.488 18.7066 8.956 18.9466 8.5C19.1946 8.044 19.5306 7.688 19.9546 7.432C20.3866 7.176 20.8786 7.048 21.4306 7.048C21.8226 7.048 22.1746 7.116 22.4866 7.252C22.8066 7.38 23.0786 7.568 23.3026 7.816C23.5266 8.064 23.6946 8.368 23.8066 8.728C23.9266 9.08 23.9866 9.48 23.9866 9.928C23.9866 10.056 23.9466 10.156 23.8666 10.228C23.7946 10.292 23.6866 10.324 23.5426 10.324H19.4386V9.628H23.2666L23.0626 9.796C23.0626 9.38 22.9986 9.028 22.8706 8.74C22.7506 8.444 22.5706 8.22 22.3306 8.068C22.0986 7.916 21.8066 7.84 21.4546 7.84C21.0706 7.84 20.7426 7.932 20.4706 8.116C20.1986 8.292 19.9906 8.544 19.8466 8.872C19.7026 9.192 19.6306 9.564 19.6306 9.988V10.06C19.6306 10.78 19.8026 11.324 20.1466 11.692C20.4906 12.06 20.9866 12.244 21.6346 12.244C21.8906 12.244 22.1506 12.212 22.4146 12.148C22.6866 12.084 22.9466 11.968 23.1946 11.8C23.3146 11.728 23.4226 11.696 23.5186 11.704C23.6226 11.704 23.7066 11.736 23.7706 11.8C23.8346 11.856 23.8746 11.928 23.8906 12.016C23.9066 12.096 23.8946 12.184 23.8546 12.28C23.8146 12.376 23.7386 12.46 23.6266 12.532C23.3626 12.716 23.0466 12.86 22.6786 12.964C22.3186 13.06 21.9706 13.108 21.6346 13.108ZM27.1808 13.108C26.5808 13.108 26.1248 12.932 25.8128 12.58C25.5008 12.22 25.3448 11.704 25.3448 11.032V5.008C25.3448 4.824 25.3928 4.688 25.4888 4.6C25.5848 4.504 25.7168 4.456 25.8848 4.456C26.0608 4.456 26.1968 4.504 26.2928 4.6C26.3888 4.688 26.4368 4.824 26.4368 5.008V10.948C26.4368 11.364 26.5208 11.676 26.6888 11.884C26.8648 12.084 27.1128 12.184 27.4328 12.184C27.5048 12.184 27.5688 12.184 27.6248 12.184C27.6808 12.176 27.7368 12.168 27.7928 12.16C27.8808 12.152 27.9448 12.176 27.9848 12.232C28.0248 12.288 28.0448 12.4 28.0448 12.568C28.0448 12.72 28.0088 12.84 27.9368 12.928C27.8728 13.008 27.7648 13.06 27.6128 13.084C27.5408 13.092 27.4688 13.096 27.3968 13.096C27.3248 13.104 27.2528 13.108 27.1808 13.108ZM29.4941 13.06C29.3261 13.06 29.1941 13.008 29.0981 12.904C29.0021 12.8 28.9541 12.656 28.9541 12.472V7.684C28.9541 7.492 29.0021 7.348 29.0981 7.252C29.1941 7.148 29.3261 7.096 29.4941 7.096C29.6701 7.096 29.8061 7.148 29.9021 7.252C29.9981 7.348 30.0461 7.492 30.0461 7.684V12.472C30.0461 12.656 29.9981 12.8 29.9021 12.904C29.8141 13.008 29.6781 13.06 29.4941 13.06ZM29.4941 5.8C29.2781 5.8 29.1061 5.744 28.9781 5.632C28.8581 5.512 28.7981 5.356 28.7981 5.164C28.7981 4.956 28.8581 4.8 28.9781 4.696C29.1061 4.584 29.2781 4.528 29.4941 4.528C29.7261 4.528 29.8981 4.584 30.0101 4.696C30.1301 4.8 30.1901 4.956 30.1901 5.164C30.1901 5.356 30.1301 5.512 30.0101 5.632C29.8981 5.744 29.7261 5.8 29.4941 5.8ZM34.2258 13.108C33.7538 13.108 33.3578 13.024 33.0378 12.856C32.7258 12.688 32.4898 12.444 32.3298 12.124C32.1778 11.804 32.1018 11.412 32.1018 10.948V7.996H31.3338C31.1898 7.996 31.0778 7.96 30.9978 7.888C30.9178 7.808 30.8778 7.704 30.8778 7.576C30.8778 7.44 30.9178 7.336 30.9978 7.264C31.0778 7.192 31.1898 7.156 31.3338 7.156H32.1018V5.848C32.1018 5.664 32.1498 5.528 32.2458 5.44C32.3418 5.344 32.4778 5.296 32.6538 5.296C32.8298 5.296 32.9618 5.344 33.0498 5.44C33.1458 5.528 33.1938 5.664 33.1938 5.848V7.156H34.6458C34.7978 7.156 34.9138 7.192 34.9938 7.264C35.0738 7.336 35.1138 7.44 35.1138 7.576C35.1138 7.704 35.0738 7.808 34.9938 7.888C34.9138 7.96 34.7978 7.996 34.6458 7.996H33.1938V10.852C33.1938 11.292 33.2858 11.624 33.4698 11.848C33.6538 12.072 33.9578 12.184 34.3818 12.184C34.5338 12.184 34.6618 12.172 34.7658 12.148C34.8698 12.116 34.9618 12.1 35.0418 12.1C35.1138 12.092 35.1738 12.116 35.2218 12.172C35.2778 12.228 35.3058 12.332 35.3058 12.484C35.3058 12.596 35.2858 12.7 35.2458 12.796C35.2138 12.884 35.1458 12.944 35.0418 12.976C34.9458 13.008 34.8178 13.036 34.6578 13.06C34.4978 13.092 34.3538 13.108 34.2258 13.108ZM38.744 13.108C38.112 13.108 37.568 12.988 37.112 12.748C36.664 12.5 36.316 12.152 36.068 11.704C35.82 11.248 35.696 10.712 35.696 10.096C35.696 9.488 35.816 8.956 36.056 8.5C36.304 8.044 36.64 7.688 37.064 7.432C37.496 7.176 37.988 7.048 38.54 7.048C38.932 7.048 39.284 7.116 39.596 7.252C39.916 7.38 40.188 7.568 40.412 7.816C40.636 8.064 40.804 8.368 40.916 8.728C41.036 9.08 41.096 9.48 41.096 9.928C41.096 10.056 41.056 10.156 40.976 10.228C40.904 10.292 40.796 10.324 40.652 10.324H36.548V9.628H40.376L40.172 9.796C40.172 9.38 40.108 9.028 39.98 8.74C39.86 8.444 39.68 8.22 39.44 8.068C39.208 7.916 38.916 7.84 38.564 7.84C38.18 7.84 37.852 7.932 37.58 8.116C37.308 8.292 37.1 8.544 36.956 8.872C36.812 9.192 36.74 9.564 36.74 9.988V10.06C36.74 10.78 36.912 11.324 37.256 11.692C37.6 12.06 38.096 12.244 38.744 12.244C39 12.244 39.26 12.212 39.524 12.148C39.796 12.084 40.056 11.968 40.304 11.8C40.424 11.728 40.532 11.696 40.628 11.704C40.732 11.704 40.816 11.736 40.88 11.8C40.944 11.856 40.984 11.928 41 12.016C41.016 12.096 41.004 12.184 40.964 12.28C40.924 12.376 40.848 12.46 40.736 12.532C40.472 12.716 40.156 12.86 39.788 12.964C39.428 13.06 39.08 13.108 38.744 13.108ZM46.291 13C46.115 13 45.975 12.948 45.871 12.844C45.775 12.74 45.727 12.6 45.727 12.424V5.056C45.727 4.872 45.775 4.732 45.871 4.636C45.967 4.54 46.103 4.492 46.279 4.492C46.463 4.492 46.603 4.54 46.699 4.636C46.795 4.732 46.843 4.872 46.843 5.056V12.04H50.659C50.827 12.04 50.951 12.08 51.031 12.16C51.119 12.24 51.163 12.356 51.163 12.508C51.163 12.668 51.119 12.792 51.031 12.88C50.951 12.96 50.827 13 50.659 13H46.291ZM54.5827 13.108C54.0067 13.108 53.5067 12.984 53.0827 12.736C52.6587 12.488 52.3307 12.136 52.0987 11.68C51.8667 11.224 51.7507 10.688 51.7507 10.072C51.7507 9.608 51.8147 9.192 51.9427 8.824C52.0787 8.448 52.2707 8.128 52.5187 7.864C52.7667 7.6 53.0627 7.4 53.4067 7.264C53.7587 7.12 54.1507 7.048 54.5827 7.048C55.1587 7.048 55.6587 7.172 56.0827 7.42C56.5067 7.668 56.8347 8.02 57.0667 8.476C57.2987 8.924 57.4147 9.456 57.4147 10.072C57.4147 10.536 57.3467 10.956 57.2107 11.332C57.0827 11.708 56.8947 12.028 56.6467 12.292C56.3987 12.556 56.0987 12.76 55.7467 12.904C55.4027 13.04 55.0147 13.108 54.5827 13.108ZM54.5827 12.244C54.9347 12.244 55.2387 12.16 55.4947 11.992C55.7587 11.824 55.9587 11.58 56.0947 11.26C56.2387 10.94 56.3107 10.544 56.3107 10.072C56.3107 9.368 56.1547 8.832 55.8427 8.464C55.5307 8.096 55.1107 7.912 54.5827 7.912C54.2387 7.912 53.9347 7.996 53.6707 8.164C53.4147 8.324 53.2147 8.564 53.0707 8.884C52.9267 9.204 52.8547 9.6 52.8547 10.072C52.8547 10.776 53.0107 11.316 53.3227 11.692C53.6427 12.06 54.0627 12.244 54.5827 12.244ZM61.3455 13.108C60.7535 13.108 60.2415 12.984 59.8095 12.736C59.3775 12.48 59.0455 12.124 58.8135 11.668C58.5815 11.204 58.4655 10.66 58.4655 10.036C58.4655 9.572 58.5295 9.156 58.6575 8.788C58.7935 8.42 58.9855 8.108 59.2335 7.852C59.4815 7.588 59.7815 7.388 60.1335 7.252C60.4935 7.116 60.8975 7.048 61.3455 7.048C61.6255 7.048 61.9215 7.092 62.2335 7.18C62.5455 7.268 62.8335 7.412 63.0975 7.612C63.1855 7.676 63.2415 7.752 63.2655 7.84C63.2895 7.92 63.2895 8.004 63.2655 8.092C63.2495 8.18 63.2095 8.256 63.1455 8.32C63.0895 8.376 63.0135 8.408 62.9175 8.416C62.8295 8.424 62.7335 8.396 62.6295 8.332C62.4375 8.188 62.2335 8.084 62.0175 8.02C61.8095 7.956 61.6095 7.924 61.4175 7.924C61.1215 7.924 60.8575 7.972 60.6255 8.068C60.4015 8.164 60.2095 8.304 60.0495 8.488C59.8975 8.664 59.7815 8.884 59.7015 9.148C59.6215 9.404 59.5815 9.704 59.5815 10.048C59.5815 10.728 59.7415 11.264 60.0615 11.656C60.3815 12.04 60.8335 12.232 61.4175 12.232C61.6095 12.232 61.8095 12.204 62.0175 12.148C62.2255 12.084 62.4295 11.98 62.6295 11.836C62.7335 11.772 62.8295 11.748 62.9175 11.764C63.0055 11.772 63.0775 11.808 63.1335 11.872C63.1975 11.928 63.2375 12 63.2535 12.088C63.2695 12.168 63.2615 12.252 63.2295 12.34C63.2055 12.428 63.1495 12.5 63.0615 12.556C62.8055 12.748 62.5255 12.888 62.2215 12.976C61.9175 13.064 61.6255 13.108 61.3455 13.108ZM66.2048 13.108C65.8048 13.108 65.4408 13.028 65.1128 12.868C64.7928 12.708 64.5408 12.492 64.3568 12.22C64.1808 11.948 64.0928 11.644 64.0928 11.308C64.0928 10.876 64.2008 10.536 64.4168 10.288C64.6328 10.04 64.9968 9.864 65.5088 9.76C66.0208 9.648 66.7088 9.592 67.5728 9.592H68.1368V10.288H67.5968C66.9808 10.288 66.4928 10.316 66.1328 10.372C65.7808 10.428 65.5328 10.528 65.3888 10.672C65.2448 10.808 65.1728 11 65.1728 11.248C65.1728 11.56 65.2808 11.816 65.4968 12.016C65.7208 12.216 66.0248 12.316 66.4088 12.316C66.7128 12.316 66.9808 12.244 67.2128 12.1C67.4448 11.948 67.6288 11.748 67.7648 11.5C67.9008 11.244 67.9688 10.952 67.9688 10.624V9.244C67.9688 8.772 67.8728 8.432 67.6808 8.224C67.4888 8.008 67.1648 7.9 66.7088 7.9C66.4448 7.9 66.1728 7.936 65.8928 8.008C65.6128 8.08 65.3208 8.192 65.0168 8.344C64.8968 8.4 64.7928 8.42 64.7048 8.404C64.6168 8.38 64.5448 8.332 64.4888 8.26C64.4408 8.18 64.4128 8.096 64.4048 8.008C64.4048 7.912 64.4248 7.82 64.4648 7.732C64.5128 7.644 64.5928 7.58 64.7048 7.54C65.0568 7.364 65.4048 7.24 65.7488 7.168C66.1008 7.088 66.4288 7.048 66.7328 7.048C67.2528 7.048 67.6808 7.132 68.0168 7.3C68.3528 7.46 68.6048 7.712 68.7728 8.056C68.9408 8.392 69.0248 8.824 69.0248 9.352V12.52C69.0248 12.704 68.9808 12.844 68.8928 12.94C68.8048 13.036 68.6768 13.084 68.5088 13.084C68.3488 13.084 68.2208 13.036 68.1248 12.94C68.0368 12.844 67.9928 12.704 67.9928 12.52V11.668H68.1008C68.0368 11.964 67.9168 12.22 67.7408 12.436C67.5648 12.652 67.3448 12.82 67.0808 12.94C66.8248 13.052 66.5328 13.108 66.2048 13.108ZM73.1672 13.108C72.6952 13.108 72.2992 13.024 71.9792 12.856C71.6672 12.688 71.4312 12.444 71.2712 12.124C71.1192 11.804 71.0432 11.412 71.0432 10.948V7.996H70.2752C70.1312 7.996 70.0192 7.96 69.9392 7.888C69.8592 7.808 69.8192 7.704 69.8192 7.576C69.8192 7.44 69.8592 7.336 69.9392 7.264C70.0192 7.192 70.1312 7.156 70.2752 7.156H71.0432V5.848C71.0432 5.664 71.0912 5.528 71.1872 5.44C71.2832 5.344 71.4192 5.296 71.5952 5.296C71.7712 5.296 71.9032 5.344 71.9912 5.44C72.0872 5.528 72.1352 5.664 72.1352 5.848V7.156H73.5872C73.7392 7.156 73.8552 7.192 73.9352 7.264C74.0152 7.336 74.0552 7.44 74.0552 7.576C74.0552 7.704 74.0152 7.808 73.9352 7.888C73.8552 7.96 73.7392 7.996 73.5872 7.996H72.1352V10.852C72.1352 11.292 72.2272 11.624 72.4112 11.848C72.5952 12.072 72.8992 12.184 73.3232 12.184C73.4752 12.184 73.6032 12.172 73.7072 12.148C73.8112 12.116 73.9032 12.1 73.9832 12.1C74.0552 12.092 74.1152 12.116 74.1632 12.172C74.2192 12.228 74.2472 12.332 74.2472 12.484C74.2472 12.596 74.2272 12.7 74.1872 12.796C74.1552 12.884 74.0872 12.944 73.9832 12.976C73.8872 13.008 73.7592 13.036 73.5992 13.06C73.4392 13.092 73.2952 13.108 73.1672 13.108ZM75.6777 13.06C75.5097 13.06 75.3777 13.008 75.2817 12.904C75.1857 12.8 75.1377 12.656 75.1377 12.472V7.684C75.1377 7.492 75.1857 7.348 75.2817 7.252C75.3777 7.148 75.5097 7.096 75.6777 7.096C75.8537 7.096 75.9897 7.148 76.0857 7.252C76.1817 7.348 76.2297 7.492 76.2297 7.684V12.472C76.2297 12.656 76.1817 12.8 76.0857 12.904C75.9977 13.008 75.8617 13.06 75.6777 13.06ZM75.6777 5.8C75.4617 5.8 75.2897 5.744 75.1617 5.632C75.0417 5.512 74.9817 5.356 74.9817 5.164C74.9817 4.956 75.0417 4.8 75.1617 4.696C75.2897 4.584 75.4617 4.528 75.6777 4.528C75.9097 4.528 76.0817 4.584 76.1937 4.696C76.3137 4.8 76.3737 4.956 76.3737 5.164C76.3737 5.356 76.3137 5.512 76.1937 5.632C76.0817 5.744 75.9097 5.8 75.6777 5.8ZM80.4694 13.108C79.8934 13.108 79.3934 12.984 78.9694 12.736C78.5454 12.488 78.2174 12.136 77.9854 11.68C77.7534 11.224 77.6374 10.688 77.6374 10.072C77.6374 9.608 77.7014 9.192 77.8294 8.824C77.9654 8.448 78.1574 8.128 78.4054 7.864C78.6534 7.6 78.9494 7.4 79.2934 7.264C79.6454 7.12 80.0374 7.048 80.4694 7.048C81.0454 7.048 81.5454 7.172 81.9694 7.42C82.3934 7.668 82.7214 8.02 82.9534 8.476C83.1854 8.924 83.3014 9.456 83.3014 10.072C83.3014 10.536 83.2334 10.956 83.0974 11.332C82.9694 11.708 82.7814 12.028 82.5334 12.292C82.2854 12.556 81.9854 12.76 81.6334 12.904C81.2894 13.04 80.9014 13.108 80.4694 13.108ZM80.4694 12.244C80.8214 12.244 81.1254 12.16 81.3814 11.992C81.6454 11.824 81.8454 11.58 81.9814 11.26C82.1254 10.94 82.1974 10.544 82.1974 10.072C82.1974 9.368 82.0414 8.832 81.7294 8.464C81.4174 8.096 80.9974 7.912 80.4694 7.912C80.1254 7.912 79.8214 7.996 79.5574 8.164C79.3014 8.324 79.1014 8.564 78.9574 8.884C78.8134 9.204 78.7414 9.6 78.7414 10.072C78.7414 10.776 78.8974 11.316 79.2094 11.692C79.5294 12.06 79.9494 12.244 80.4694 12.244ZM85.2402 13.084C85.0722 13.084 84.9402 13.036 84.8442 12.94C84.7482 12.844 84.7002 12.704 84.7002 12.52V7.624C84.7002 7.44 84.7482 7.304 84.8442 7.216C84.9402 7.12 85.0722 7.072 85.2402 7.072C85.4082 7.072 85.5362 7.12 85.6242 7.216C85.7202 7.304 85.7682 7.44 85.7682 7.624V8.608L85.6362 8.428C85.8042 7.972 86.0762 7.628 86.4522 7.396C86.8362 7.164 87.2722 7.048 87.7602 7.048C88.2322 7.048 88.6202 7.132 88.9242 7.3C89.2282 7.468 89.4562 7.724 89.6082 8.068C89.7602 8.412 89.8362 8.848 89.8362 9.376V12.52C89.8362 12.704 89.7882 12.844 89.6922 12.94C89.6042 13.036 89.4722 13.084 89.2962 13.084C89.1202 13.084 88.9842 13.036 88.8882 12.94C88.7922 12.844 88.7442 12.704 88.7442 12.52V9.436C88.7442 8.916 88.6442 8.536 88.4442 8.296C88.2442 8.056 87.9242 7.936 87.4842 7.936C86.9722 7.936 86.5602 8.096 86.2482 8.416C85.9442 8.728 85.7922 9.152 85.7922 9.688V12.52C85.7922 12.896 85.6082 13.084 85.2402 13.084Z" fill="#9CA3AF"/>
<path d="M9.664 31.976C9.71733 31.8587 9.792 31.768 9.888 31.704C9.99467 31.64 10.1067 31.608 10.224 31.608C10.3947 31.608 10.544 31.6667 10.672 31.784C10.8107 31.8907 10.88 32.024 10.88 32.184C10.88 32.2693 10.8587 32.3547 10.816 32.44L6.224 42.648C6.16 42.7867 6.064 42.8933 5.936 42.968C5.808 43.0427 5.66933 43.08 5.52 43.08C5.37067 43.08 5.232 43.0427 5.104 42.968C4.976 42.8933 4.88 42.7867 4.816 42.648L0.24 32.44C0.208 32.3547 0.192 32.2747 0.192 32.2C0.192 32.0293 0.261333 31.8907 0.4 31.784C0.538667 31.6667 0.693333 31.608 0.864 31.608C1.12 31.608 1.30667 31.7307 1.424 31.976L5.552 41.304L9.664 31.976ZM12.9185 43.08C12.7265 43.08 12.5665 43.0267 12.4385 42.92C12.3212 42.8027 12.2625 42.6427 12.2625 42.44V35.688C12.2625 35.4853 12.3212 35.3307 12.4385 35.224C12.5665 35.1067 12.7265 35.048 12.9185 35.048C13.1105 35.048 13.2652 35.1067 13.3825 35.224C13.4998 35.3307 13.5585 35.4853 13.5585 35.688V42.44C13.5585 42.6533 13.4998 42.8133 13.3825 42.92C13.2652 43.0267 13.1105 43.08 12.9185 43.08ZM12.9185 33.368C12.6625 33.368 12.4545 33.2933 12.2945 33.144C12.1345 32.9947 12.0545 32.7973 12.0545 32.552C12.0545 32.3173 12.1345 32.1253 12.2945 31.976C12.4545 31.8267 12.6625 31.752 12.9185 31.752C13.1745 31.752 13.3825 31.8267 13.5425 31.976C13.7025 32.1253 13.7825 32.3173 13.7825 32.552C13.7825 32.7973 13.7025 32.9947 13.5425 33.144C13.3825 33.2933 13.1745 33.368 12.9185 33.368ZM22.0133 41.192C22.1306 41.192 22.2319 41.24 22.3173 41.336C22.4026 41.432 22.4453 41.5547 22.4453 41.704C22.4453 41.9707 22.2586 42.216 21.8853 42.44C21.5013 42.664 21.0959 42.8347 20.6693 42.952C20.2426 43.0587 19.8266 43.112 19.4213 43.112C18.2159 43.112 17.2613 42.7547 16.5573 42.04C15.8639 41.3253 15.5173 40.3387 15.5173 39.08C15.5173 38.28 15.6719 37.576 15.9813 36.968C16.2906 36.3493 16.7226 35.8693 17.2773 35.528C17.8426 35.1867 18.4826 35.016 19.1973 35.016C20.2106 35.016 21.0159 35.3467 21.6133 36.008C22.2106 36.6693 22.5093 37.5653 22.5093 38.696C22.5093 38.9093 22.4666 39.064 22.3813 39.16C22.2959 39.256 22.1573 39.304 21.9653 39.304H16.8133C16.9093 41.1387 17.7786 42.056 19.4213 42.056C19.8373 42.056 20.1946 42.0027 20.4933 41.896C20.7919 41.7787 21.1119 41.624 21.4533 41.432C21.7306 41.272 21.9173 41.192 22.0133 41.192ZM19.2133 36.024C18.5306 36.024 17.9813 36.2373 17.5653 36.664C17.1599 37.0907 16.9199 37.6933 16.8453 38.472H21.3733C21.3519 37.6827 21.1546 37.08 20.7813 36.664C20.4079 36.2373 19.8853 36.024 19.2133 36.024ZM34.981 35.464C35.0877 35.208 35.2637 35.08 35.509 35.08C35.669 35.08 35.813 35.1333 35.941 35.24C36.069 35.3467 36.133 35.48 36.133 35.64C36.133 35.7147 36.117 35.7947 36.085 35.88L33.429 42.6C33.365 42.7387 33.269 42.8507 33.141 42.936C33.0237 43.0107 32.8903 43.048 32.741 43.048C32.6023 43.048 32.469 43.0107 32.341 42.936C32.2237 42.8507 32.133 42.7387 32.069 42.6L29.861 36.984L27.669 42.6C27.6157 42.7387 27.525 42.8507 27.397 42.936C27.269 43.0107 27.1303 43.048 26.981 43.048C26.8423 43.048 26.709 43.0107 26.581 42.936C26.453 42.8507 26.357 42.7387 26.293 42.6L23.637 35.896C23.605 35.8107 23.589 35.736 23.589 35.672C23.589 35.5013 23.6583 35.3573 23.797 35.24C23.9463 35.1227 24.1063 35.064 24.277 35.064C24.533 35.064 24.7143 35.192 24.821 35.448L27.013 41.352L29.269 35.496C29.333 35.3573 29.4183 35.2507 29.525 35.176C29.6423 35.1013 29.765 35.064 29.893 35.064C30.0317 35.064 30.1543 35.1013 30.261 35.176C30.3783 35.2507 30.4637 35.3573 30.517 35.496L32.773 41.336L34.981 35.464ZM45.1508 43.112C44.4148 43.112 43.7641 42.9467 43.1988 42.616C42.6441 42.2853 42.2121 41.816 41.9028 41.208C41.6041 40.5893 41.4548 39.8747 41.4548 39.064C41.4548 38.2533 41.6041 37.544 41.9028 36.936C42.2121 36.3173 42.6441 35.8427 43.1988 35.512C43.7641 35.1813 44.4148 35.016 45.1508 35.016C45.8868 35.016 46.5374 35.1813 47.1028 35.512C47.6681 35.8427 48.1001 36.3173 48.3988 36.936C48.7081 37.544 48.8628 38.2533 48.8628 39.064C48.8628 39.8747 48.7081 40.5893 48.3988 41.208C48.1001 41.816 47.6681 42.2853 47.1028 42.616C46.5374 42.9467 45.8868 43.112 45.1508 43.112ZM45.1508 42.04C45.9188 42.04 46.5054 41.7893 46.9108 41.288C47.3268 40.776 47.5348 40.0347 47.5348 39.064C47.5348 38.1147 47.3268 37.384 46.9108 36.872C46.4948 36.3493 45.9081 36.088 45.1508 36.088C44.3934 36.088 43.8068 36.3493 43.3908 36.872C42.9748 37.384 42.7668 38.1147 42.7668 39.064C42.7668 40.024 42.9694 40.76 43.3748 41.272C43.7908 41.784 44.3828 42.04 45.1508 42.04ZM54.7138 35.016C56.5804 35.016 57.5138 36.0453 57.5138 38.104V42.44C57.5138 42.6427 57.4551 42.8027 57.3378 42.92C57.2311 43.0267 57.0764 43.08 56.8738 43.08C56.6711 43.08 56.5111 43.0267 56.3938 42.92C56.2764 42.8027 56.2178 42.6427 56.2178 42.44V38.184C56.2178 37.4587 56.0738 36.9307 55.7858 36.6C55.5084 36.2693 55.0604 36.104 54.4418 36.104C53.7271 36.104 53.1564 36.3227 52.7298 36.76C52.3031 37.1973 52.0898 37.7893 52.0898 38.536V42.44C52.0898 42.6427 52.0311 42.8027 51.9138 42.92C51.8071 43.0267 51.6524 43.08 51.4498 43.08C51.2471 43.08 51.0871 43.0267 50.9698 42.92C50.8524 42.8027 50.7938 42.6427 50.7938 42.44V35.688C50.7938 35.496 50.8524 35.3413 50.9698 35.224C51.0871 35.1067 51.2471 35.048 51.4498 35.048C51.6418 35.048 51.7911 35.1067 51.8978 35.224C52.0151 35.3413 52.0738 35.4907 52.0738 35.672V36.488C52.3298 36.008 52.6871 35.6453 53.1458 35.4C53.6044 35.144 54.1271 35.016 54.7138 35.016ZM74.2205 31.64C74.4232 31.64 74.5778 31.704 74.6845 31.832C74.8018 31.9493 74.8605 32.1093 74.8605 32.312V42.44C74.8605 42.632 74.8072 42.7867 74.7005 42.904C74.5938 43.0213 74.4445 43.08 74.2525 43.08C74.0605 43.08 73.9165 43.0213 73.8205 42.904C73.7245 42.7867 73.6765 42.632 73.6765 42.44V34.264L70.2045 40.92C70.0552 41.2293 69.8365 41.384 69.5485 41.384C69.2712 41.384 69.0525 41.2293 68.8925 40.92L65.4045 34.344V42.44C65.4045 42.632 65.3512 42.7867 65.2445 42.904C65.1485 43.0213 65.0045 43.08 64.8125 43.08C64.6205 43.08 64.4712 43.0213 64.3645 42.904C64.2578 42.7867 64.2045 42.632 64.2045 42.44V32.312C64.2045 32.1093 64.2632 31.9493 64.3805 31.832C64.4978 31.704 64.6578 31.64 64.8605 31.64C65.1272 31.64 65.3405 31.7947 65.5005 32.104L69.5645 39.896L73.5805 32.104C73.6658 31.9333 73.7565 31.816 73.8525 31.752C73.9592 31.6773 74.0818 31.64 74.2205 31.64ZM80.6496 35.016C82.6016 35.016 83.5776 36.04 83.5776 38.088V42.44C83.5776 42.632 83.519 42.7867 83.4016 42.904C83.295 43.0213 83.1456 43.08 82.9536 43.08C82.7616 43.08 82.607 43.0213 82.4896 42.904C82.3723 42.7867 82.3136 42.632 82.3136 42.44V41.672C82.111 42.1307 81.8016 42.488 81.3856 42.744C80.9696 42.9893 80.4896 43.112 79.9456 43.112C79.4443 43.112 78.9803 43.0107 78.5536 42.808C78.1376 42.6053 77.807 42.3227 77.5616 41.96C77.3163 41.5973 77.1936 41.1973 77.1936 40.76C77.1936 40.1733 77.343 39.72 77.6416 39.4C77.9403 39.0693 78.431 38.8347 79.1136 38.696C79.7963 38.5467 80.7456 38.472 81.9616 38.472H82.3136V37.944C82.3136 37.304 82.1803 36.8347 81.9136 36.536C81.6576 36.2373 81.2363 36.088 80.6496 36.088C79.9243 36.088 79.1883 36.2853 78.4416 36.68C78.1536 36.8613 77.951 36.952 77.8336 36.952C77.7056 36.952 77.599 36.904 77.5136 36.808C77.4283 36.712 77.3856 36.5893 77.3856 36.44C77.3856 36.2907 77.4283 36.1627 77.5136 36.056C77.6096 35.9387 77.759 35.8213 77.9616 35.704C78.335 35.4907 78.7563 35.3253 79.2256 35.208C79.7056 35.08 80.1803 35.016 80.6496 35.016ZM80.1216 42.088C80.7616 42.088 81.2843 41.8747 81.6896 41.448C82.1056 41.0107 82.3136 40.4507 82.3136 39.768V39.304H82.0256C81.087 39.304 80.3723 39.3467 79.8816 39.432C79.391 39.5067 79.039 39.64 78.8256 39.832C78.623 40.0133 78.5216 40.2853 78.5216 40.648C78.5216 41.064 78.671 41.4107 78.9696 41.688C79.279 41.9547 79.663 42.088 80.1216 42.088ZM89.87 35.016C90.5527 35.016 91.1553 35.1867 91.678 35.528C92.2007 35.8693 92.606 36.3493 92.894 36.968C93.182 37.576 93.326 38.2853 93.326 39.096C93.326 39.9067 93.182 40.616 92.894 41.224C92.606 41.8213 92.2007 42.2853 91.678 42.616C91.166 42.9467 90.5633 43.112 89.87 43.112C89.262 43.112 88.7287 42.9787 88.27 42.712C87.822 42.4453 87.4807 42.0667 87.246 41.576V45.336C87.246 45.528 87.1873 45.6773 87.07 45.784C86.9633 45.9013 86.8087 45.96 86.606 45.96C86.4033 45.96 86.2433 45.9013 86.126 45.784C86.0087 45.6667 85.95 45.5173 85.95 45.336V35.688C85.95 35.496 86.0087 35.3413 86.126 35.224C86.2433 35.1067 86.4033 35.048 86.606 35.048C86.8087 35.048 86.9633 35.1067 87.07 35.224C87.1873 35.3413 87.246 35.496 87.246 35.688V36.552C87.4807 36.0613 87.822 35.6827 88.27 35.416C88.7287 35.1493 89.262 35.016 89.87 35.016ZM89.614 42.04C90.3713 42.04 90.958 41.784 91.374 41.272C91.79 40.76 91.998 40.0347 91.998 39.096C91.998 38.1573 91.79 37.4267 91.374 36.904C90.958 36.3707 90.3713 36.104 89.614 36.104C88.8567 36.104 88.27 36.36 87.854 36.872C87.4487 37.384 87.246 38.1147 87.246 39.064C87.246 40.0133 87.4487 40.7493 87.854 41.272C88.27 41.784 88.8567 42.04 89.614 42.04Z" fill="#111827"/>
<path d="M109.25 34.25H106.75C106.418 34.25 106.101 34.3817 105.866 34.6161C105.632 34.8505 105.5 35.1685 105.5 35.5V41.75C105.5 42.0815 105.632 42.3995 105.866 42.6339C106.101 42.8683 106.418 43 106.75 43H113C113.332 43 113.649 42.8683 113.884 42.6339C114.118 42.3995 114.25 42.0815 114.25 41.75V39.25M111.75 33H115.5M115.5 33V36.75M115.5 33L109.25 39.25" stroke="black" stroke-width="2" stroke-linecap="round" stroke-linejoin="round"/>
</svg>
