<svg width="33" height="34" viewBox="0 0 33 34" fill="none" xmlns="http://www.w3.org/2000/svg">
<g clip-path="url(#clip0_771_5761)">
<path d="M16.4784 33.1453C12.1889 33.1453 8.07501 31.4412 5.04186 28.4081C2.0087 25.3749 0.304688 21.2611 0.304688 16.9716C0.304688 12.682 2.0087 8.56818 5.04186 5.53502C8.07501 2.50186 12.1889 0.797852 16.4784 0.797852C20.7679 0.797852 24.8818 2.50186 27.9149 5.53502C30.9481 8.56818 32.6521 12.682 32.6521 16.9716C32.6521 21.2611 30.9481 25.3749 27.9149 28.4081C24.8818 31.4412 20.7679 33.1453 16.4784 33.1453ZM24.5652 15.3542H8.39154V18.5889H24.5652V15.3542Z" fill="black"/>
</g>
<defs>
<clipPath id="clip0_771_5761">
<rect width="32.3474" height="32.3474" fill="white" transform="translate(0.304688 0.797852)"/>
</clipPath>
</defs>
</svg>
