<svg width="24" height="24" viewBox="0 0 24 24" fill="none" xmlns="http://www.w3.org/2000/svg">
<path d="M11.9994 23.3154C17.5943 23.3154 22.245 18.6748 22.245 13.0699C22.245 9.69487 20.5374 6.66139 17.9559 4.78305C17.5139 4.44152 16.9615 4.55201 16.7104 4.96382C16.4593 5.38571 16.5898 5.85782 16.9916 6.16918C19.1311 7.69597 20.5273 10.2172 20.5374 13.0699C20.5475 17.8109 16.7305 21.6078 11.9994 21.6078C7.25835 21.6078 3.47149 17.8109 3.47149 13.0699C3.47149 9.00178 6.26393 5.61675 10.0608 4.75288V6.19935C10.0608 6.91249 10.553 7.10334 11.0954 6.71162L14.3097 4.46162C14.7617 4.15022 14.7718 3.66808 14.3097 3.33658L11.1055 1.08658C10.553 0.684795 10.0608 0.875681 10.0608 1.5989V3.01515C5.35991 3.92925 1.75391 8.12792 1.75391 13.0699C1.75391 18.6748 6.39452 23.3154 11.9994 23.3154ZM6.81641 9.38347C6.76618 9.85558 6.72598 10.3176 6.72598 10.7696C6.72598 14.1949 8.99608 16.8467 11.9291 16.8467C13.2148 16.8467 14.4101 16.2942 14.9324 15.3801C15.3945 15.9828 15.6256 16.706 15.9972 17.831C16.0374 17.9315 16.1378 17.9717 16.2282 17.9214L16.5798 17.7507C16.8409 17.6402 16.9313 17.4995 16.9313 17.2283C16.9313 16.475 15.9771 15.36 15.4849 14.908C13.4257 12.9895 10.2517 14.1045 9.46815 11.9951C9.44809 11.9549 9.43806 11.9348 9.43806 11.9047C9.43806 11.8243 9.50835 11.7641 9.56861 11.7641C9.63893 11.7641 9.68916 11.8043 9.73939 11.8545C11.3164 13.4415 13.5162 12.0956 15.515 13.9839C15.6557 14.1145 15.8666 14.0542 15.8767 13.8835C15.8867 13.7228 15.9068 13.5219 15.9068 13.3109C15.9068 11.0107 14.2795 10.0263 11.9392 10.0263C11.2159 10.0263 10.4726 10.1168 9.76952 10.1168C8.78513 10.1168 7.90121 9.93594 7.29855 9.27298C7.13784 9.10224 6.83646 9.1424 6.81641 9.38347Z" fill="#A7B3A7"/>
</svg>
