<svg width="151" height="34" viewBox="0 0 151 34" fill="none" xmlns="http://www.w3.org/2000/svg">
<path d="M29.8513 28.1981C29.6949 28.1981 29.5437 28.2139 29.3961 28.242L26.5314 20.2752C29.4541 19.3191 31.5702 16.5669 31.5702 13.3295C31.5702 9.29954 28.2924 6.02177 24.2624 6.02177C23.2044 6.02177 22.1991 6.25025 21.2905 6.65624L20.8669 5.40664C21.5646 4.96199 22.0286 4.18341 22.0286 3.29762C22.0286 1.91797 20.9056 0.794922 19.5259 0.794922C18.1463 0.794922 17.0232 1.91797 17.0232 3.29762C17.0232 4.67727 18.1463 5.80033 19.5259 5.80033C19.7245 5.80033 19.9178 5.77396 20.1024 5.73003L20.5224 7.05344C19.1533 7.87068 18.0742 9.12379 17.4749 10.6194L10.4747 8.17472C10.5468 7.83025 10.5854 7.47173 10.5854 7.10616C10.5854 4.23087 8.24619 1.89161 5.37089 1.89161C2.4956 1.89161 0.156346 4.23087 0.156346 7.10616C0.156346 9.98146 2.4956 12.3207 5.37089 12.3207C7.54494 12.3207 9.41318 10.9815 10.1935 9.08512L17.1761 11.5246C17.0285 12.1028 16.9494 12.7074 16.9494 13.3313C16.9494 13.4701 16.9547 13.609 16.9617 13.7478L11.06 16.0466L11.0652 16.0695C10.6294 15.3331 9.82795 14.8375 8.91228 14.8375C7.53263 14.8375 6.40958 15.9605 6.40958 17.3402C6.40958 18.7198 7.53263 19.8429 8.91228 19.8429C10.2919 19.8429 11.415 18.7198 11.415 17.3402C11.415 17.1539 11.3939 16.9746 11.3552 16.8006L17.0795 14.7039C17.2658 15.6846 17.6489 16.595 18.1849 17.3946L9.83322 25.0943C8.91931 23.5829 7.26022 22.5705 5.36738 22.5705C2.49208 22.5705 0.152832 24.9098 0.152832 27.7851C0.152832 30.6604 2.49208 32.9996 5.36738 32.9996C8.24267 32.9996 10.5819 30.6604 10.5819 27.7851C10.5819 27.1541 10.4694 26.5495 10.2638 25.9907L18.7526 18.1346C19.2799 18.7374 19.902 19.2523 20.598 19.6566L19.5558 21.8183C19.3519 21.7638 19.1375 21.7322 18.9178 21.7322C17.5382 21.7322 16.4151 22.8552 16.4151 24.2349C16.4151 25.6145 17.5382 26.7376 18.9178 26.7376C20.2975 26.7376 21.4205 25.6145 21.4205 24.2349C21.4205 23.4089 21.0163 22.676 20.3959 22.219L21.4785 20.0907C22.3362 20.4457 23.2747 20.6408 24.2589 20.6408C24.751 20.6408 25.2326 20.5916 25.6983 20.4984L28.6035 28.5355C27.853 28.9679 27.3451 29.7763 27.3451 30.7026C27.3451 32.0822 28.4681 33.2053 29.8478 33.2053C31.2274 33.2053 32.3505 32.0822 32.3505 30.7026C32.3523 29.3194 31.231 28.1981 29.8513 28.1981ZM17.7332 3.29587C17.7332 2.30639 18.5382 1.50321 19.5259 1.50321C20.5154 1.50321 21.3186 2.30815 21.3186 3.29587C21.3186 4.2836 20.5136 5.08853 19.5259 5.08853C18.5382 5.08853 17.7332 4.2836 17.7332 3.29587ZM5.37441 11.4683C2.96837 11.4683 1.0105 9.51044 1.0105 7.1044C1.0105 4.69837 2.96837 2.74049 5.37441 2.74049C7.78044 2.74049 9.73831 4.69837 9.73831 7.1044C9.73831 9.51044 7.78044 11.4683 5.37441 11.4683ZM8.91756 19.1293C7.92808 19.1293 7.12489 18.3244 7.12489 17.3366C7.12489 16.3489 7.92983 15.544 8.91756 15.544C9.90704 15.544 10.7102 16.3489 10.7102 17.3366C10.7102 18.3244 9.90704 19.1293 8.91756 19.1293ZM5.37441 32.1437C2.96837 32.1437 1.0105 30.1858 1.0105 27.7798C1.0105 25.3738 2.96837 23.4159 5.37441 23.4159C7.78044 23.4159 9.73831 25.3738 9.73831 27.7798C9.73831 30.1858 7.78044 32.1437 5.37441 32.1437ZM20.7158 24.2296C20.7158 25.2191 19.9108 26.0223 18.9231 26.0223C17.9354 26.0223 17.1304 25.2173 17.1304 24.2296C17.1304 23.2419 17.9354 22.437 18.9231 22.437C19.9108 22.437 20.7158 23.2401 20.7158 24.2296ZM17.8053 13.3295C17.8053 9.76879 20.7017 6.87241 24.2624 6.87241C27.8231 6.87241 30.7195 9.76879 30.7195 13.3295C30.7195 16.8902 27.8231 19.7866 24.2624 19.7866C20.7017 19.7866 17.8053 16.8902 17.8053 13.3295ZM29.8513 32.4935C28.8618 32.4935 28.0586 31.6885 28.0586 30.7008C28.0586 29.7113 28.8636 28.9081 29.8513 28.9081C30.8408 28.9081 31.644 29.7131 31.644 30.7008C31.644 31.6885 30.839 32.4935 29.8513 32.4935Z" fill="#123726"/>
<path d="M5.98932 26.9343C6.63917 26.5327 6.84042 25.6804 6.43884 25.0305C6.03726 24.3807 5.18491 24.1794 4.53506 24.581C3.88521 24.9826 3.68394 25.8349 4.08553 26.4848C4.48711 27.1346 5.33947 27.3359 5.98932 26.9343Z" fill="#123726"/>
<path d="M6.37263 27.2896H4.17574C3.40947 27.2896 2.78906 27.91 2.78906 28.6762V30.6991H7.75756V28.6762C7.75931 27.91 7.13891 27.2896 6.37263 27.2896Z" fill="#123726"/>
<path d="M6.44787 5.54323C6.84946 4.89338 6.6482 4.04102 5.99835 3.63944C5.3485 3.23786 4.49614 3.43912 4.09456 4.08897C3.69298 4.73882 3.89424 5.59117 4.54409 5.99275C5.19394 6.39434 6.04629 6.19308 6.44787 5.54323Z" fill="#123726"/>
<path d="M6.37263 6.35938H4.17574C3.40947 6.35938 2.78906 6.97978 2.78906 7.74606V9.76895H7.75756V7.74606C7.75931 6.98154 7.13891 6.35938 6.37263 6.35938Z" fill="#123726"/>
<path d="M24.3801 12.5405C25.3178 12.5405 26.0779 11.7804 26.0779 10.8428C26.0779 9.90514 25.3178 9.14502 24.3801 9.14502C23.4425 9.14502 22.6824 9.90514 22.6824 10.8428C22.6824 11.7804 23.4425 12.5405 24.3801 12.5405Z" fill="#123726"/>
<path d="M26.0552 12.7322H22.7299C21.9637 12.7322 21.3433 13.3526 21.3433 14.1188V16.9168H27.4401V14.1188C27.4418 13.3526 26.8197 12.7322 26.0552 12.7322Z" fill="#123726"/>
<path d="M41.8131 6.76685H37.052V20.2523H38.9607V15.4156H41.8113C44.3668 15.4156 46.2948 13.5526 46.2948 11.0833C46.2965 8.62278 44.3685 6.76685 41.8131 6.76685ZM38.9607 13.5192V8.6632H41.7903C43.2894 8.6632 44.3773 9.68256 44.3773 11.0851C44.3773 12.4963 43.2894 13.5192 41.7903 13.5192H38.9607Z" fill="#123726"/>
<path d="M70.9667 10.4505L70.928 9.54366H69.1758V20.254H71.0721V14.31C71.0721 12.5666 72.1143 11.3943 73.668 11.3943H75.1812V9.51905H73.7031C72.6416 9.51729 71.7031 9.84419 70.9667 10.4505Z" fill="#123726"/>
<path d="M101.936 10.7195C100.974 9.84779 99.6966 9.36095 98.2713 9.36095C95.164 9.36095 92.8212 11.7406 92.8212 14.8989C92.8212 14.9481 92.8265 14.9955 92.8282 15.043H90.9126L90.7509 15.4824C90.0408 17.4192 88.4081 18.5299 86.271 18.5299C83.3605 18.5299 81.3288 16.4719 81.3288 13.5228C81.3288 10.5596 83.3605 8.48923 86.271 8.48923C88.3396 8.48923 89.9371 9.52791 90.6524 11.3399L90.8194 11.7635H92.8124L92.4978 10.8707C91.5699 8.22911 89.1832 6.58936 86.271 6.58936C82.2955 6.58936 79.4114 9.50507 79.4114 13.5228C79.4114 17.5246 82.2955 20.4298 86.271 20.4298C89.2658 20.4298 91.6876 18.7021 92.5945 15.92L92.8353 15.1836C92.9741 18.196 95.2606 20.4333 98.2713 20.4333C99.6913 20.4333 100.964 19.9482 101.925 19.0818L101.955 20.2505H103.765V9.54022H101.971L101.936 10.7195ZM101.86 14.8971C101.86 17.0132 100.364 18.551 98.3011 18.551C96.2624 18.551 94.7264 16.9798 94.7264 14.8971C94.7264 12.8145 96.2624 11.2433 98.3011 11.2433C100.363 11.245 101.86 12.7811 101.86 14.8971Z" fill="#123726"/>
<path d="M107.621 10.4505L107.583 9.54366H105.831V20.254H107.727V14.31C107.727 12.5666 108.769 11.3943 110.323 11.3943H111.834V9.51905H110.36C109.298 9.51729 108.36 9.84419 107.621 10.4505Z" fill="#123726"/>
<path d="M117.901 9.36075C116.527 9.36075 115.279 9.82474 114.321 10.656V6.23413H112.425V20.2538H114.209L114.249 19.0622C115.225 19.934 116.513 20.4366 117.903 20.4366C121 20.4366 123.335 18.0569 123.335 14.9004C123.334 11.7404 120.998 9.36075 117.901 9.36075ZM114.295 14.8969C114.295 12.8143 115.833 11.243 117.87 11.243C119.931 11.243 121.429 12.7791 121.429 14.8969C121.429 17.013 119.933 18.5508 117.87 18.5508C115.833 18.5508 114.295 16.9796 114.295 14.8969Z" fill="#123726"/>
<path d="M129.299 9.36108C126.137 9.36108 123.754 11.7408 123.754 14.899C123.754 18.0555 126.139 20.4352 129.299 20.4352C132.46 20.4352 134.844 18.0555 134.844 14.899C134.844 11.7408 132.46 9.36108 129.299 9.36108ZM129.299 18.5511C127.19 18.5511 125.657 17.0151 125.657 14.8973C125.657 12.7794 127.188 11.2434 129.299 11.2434C131.408 11.2434 132.938 12.7794 132.938 14.8973C132.938 17.0151 131.408 18.5511 129.299 18.5511Z" fill="#123726"/>
<path d="M140.965 9.36108C139.814 9.36108 138.722 9.78465 137.881 10.5105L137.837 9.54387H136.086V20.2542H137.983V14.1275C137.983 12.5809 139.327 11.2241 140.86 11.2241C142.482 11.2241 143.411 12.2856 143.411 14.1363V20.2542H145.308V14.0413C145.31 11.2416 143.563 9.36108 140.965 9.36108Z" fill="#123726"/>
<path d="M54.4567 17.2682L54.4303 17.2981C53.2879 18.574 51.541 18.8078 50.0752 17.9554L55.824 11.5229L55.3759 11.0747C55.3144 11.0132 55.2441 10.9429 55.179 10.8867C54.0683 9.89366 52.7044 9.3664 51.3072 9.40506C49.8907 9.44373 48.5673 10.0729 47.5831 11.1749C46.6006 12.2751 46.1155 13.667 46.221 15.0977C46.3247 16.5177 47.0013 17.8534 48.1244 18.8587C49.2052 19.8236 50.5357 20.3491 51.8942 20.3491C51.9593 20.3491 52.0243 20.3473 52.0911 20.3456C53.5252 20.2929 54.8574 19.6566 55.8399 18.5564C55.9576 18.4246 56.0718 18.284 56.1984 18.1118L56.9822 17.045H54.6588L54.4567 17.2682ZM48.7079 16.6847C47.7869 15.3384 47.8695 13.667 48.982 12.4227C50.077 11.1995 51.7097 10.9517 53.1368 11.7285L48.7079 16.6847Z" fill="#123726"/>
<path d="M65.2793 17.2998C64.1369 18.574 62.3917 18.8078 60.9259 17.9554L66.673 11.5246L66.2284 11.0765C66.1668 11.0149 66.0948 10.9447 66.0298 10.8867C64.919 9.89366 63.5376 9.3664 62.1579 9.40506C60.7414 9.44373 59.418 10.0729 58.4338 11.1749C56.3951 13.4561 56.6271 16.7603 58.9751 18.8587C60.0964 19.8605 61.4339 20.3579 62.7485 20.3579C64.1984 20.3579 65.6203 19.7533 66.6906 18.5564C66.8083 18.4246 66.9226 18.284 67.0491 18.1118L67.833 17.045H65.5007L65.2793 17.2998ZM59.5568 16.6847C58.6359 15.3384 58.7185 13.667 59.831 12.4227C60.9259 11.1995 62.5587 10.9517 63.9858 11.7285L59.5568 16.6847Z" fill="#123726"/>
<path d="M55.251 23.2893H53.4565V28.4546H54.0172V26.5319H55.251C56.2106 26.5319 56.9347 25.8342 56.9347 24.908C56.9347 23.9835 56.2123 23.2893 55.251 23.2893ZM54.0189 25.9748V23.8447H55.2439C55.8977 23.8447 56.3723 24.2911 56.3723 24.9062C56.3723 25.5249 55.8977 25.973 55.2439 25.973H54.0189V25.9748Z" fill="#123726"/>
<path d="M58.1507 26.0363H60.3424V25.488H58.1507V23.8412H60.5234V23.2893H57.5901V28.4546H60.599V27.8993H58.1507V26.0363Z" fill="#123726"/>
<path d="M63.5236 23.2153C62.0086 23.2153 60.8645 24.3595 60.8645 25.8762C60.8645 27.3877 62.0069 28.5265 63.5236 28.5265C65.065 28.5265 66.1827 27.4123 66.1827 25.8762C66.1827 24.3349 65.0632 23.2153 63.5236 23.2153ZM63.5236 23.7742C64.7363 23.7742 65.6168 24.6583 65.6168 25.8762C65.6168 27.0889 64.7363 27.9677 63.5236 27.9677C62.3109 27.9677 61.4304 27.0871 61.4304 25.8762C61.4304 24.6583 62.3109 23.7742 63.5236 23.7742Z" fill="#123726"/>
<path d="M68.7661 23.2893H66.9717V28.4546H67.5323V26.5319H68.7661C69.7257 26.5319 70.4498 25.8342 70.4498 24.908C70.4498 23.9835 69.7257 23.2893 68.7661 23.2893ZM67.5341 25.9748V23.8447H68.7591C69.4129 23.8447 69.8874 24.2911 69.8874 24.9062C69.8874 25.5249 69.4129 25.973 68.7591 25.973H67.5341V25.9748Z" fill="#123726"/>
<path d="M71.6662 23.2893H71.1038V28.4546H74.0247V27.9028H71.6662V23.2893Z" fill="#123726"/>
<path d="M75.1424 26.0363H77.3341V25.488H75.1424V23.8412H77.5151V23.2893H74.5818V28.4546H77.5907V27.8993H75.1424V26.0363Z" fill="#123726"/>
<path d="M78.0493 28.4546H78.2796C78.2602 28.6163 78.2093 28.6637 78.139 28.7094L78.0634 28.7586V29.3157L78.3112 29.1804C78.6486 28.9976 78.7804 28.7375 78.7804 28.2577V27.6953H78.0493V28.4546Z" fill="#123726"/>
<path d="M81.4607 23.2893H79.6663V28.4546H80.2269V26.5319H81.4607C82.4203 26.5319 83.1444 25.8342 83.1444 24.908C83.1444 23.9835 82.4203 23.2893 81.4607 23.2893ZM80.2269 23.8447H81.4519C82.1057 23.8447 82.5802 24.2911 82.5802 24.9062C82.5802 25.5249 82.1057 25.973 81.4519 25.973H80.2269V23.8447Z" fill="#123726"/>
<path d="M88.8125 23.2891L86.7193 28.2207V27.9026H84.359V23.2874H83.7983V28.4527H86.6209H86.7193H87.2255L87.8231 27.0537H90.2607L90.8671 28.4527H91.4787L89.2273 23.2874H88.8125V23.2891ZM88.0533 26.5071L89.0252 24.2083L90.0235 26.5071H88.0533Z" fill="#123726"/>
<path d="M95.3995 27.3615L92.424 23.2893H91.9653V28.4546H92.5242V24.3719L95.5085 28.4546H95.9566V23.2893H95.3995V27.3615Z" fill="#123726"/>
<path d="M97.6668 26.0363H99.8602V25.488H97.6668V23.8412H100.039V23.2893H97.1062V28.4546H100.115V27.8993H97.6668V26.0363Z" fill="#123726"/>
<path d="M103.964 23.2893H100.254V23.8394H101.829V28.4546H102.389V23.8394H103.964V23.2893Z" fill="#123726"/>
<path d="M103.774 28.4546H104.004C103.985 28.6163 103.934 28.6637 103.864 28.7094L103.788 28.7586V29.3157L104.036 29.1804C104.373 28.9976 104.505 28.7375 104.505 28.2577V27.6953H103.774V28.4546Z" fill="#123726"/>
<path d="M107.186 23.2893H105.391V28.4546H105.952V26.5319H107.186C108.145 26.5319 108.869 25.8342 108.869 24.908C108.869 23.9835 108.145 23.2893 107.186 23.2893ZM105.952 25.9748V23.8447H107.177C107.831 23.8447 108.305 24.2911 108.305 24.9062C108.305 25.5249 107.831 25.973 107.177 25.973H105.952V25.9748Z" fill="#123726"/>
<path d="M113.08 24.8269C113.08 23.9359 112.393 23.2874 111.444 23.2874H109.521V28.4527H110.082V26.3577H111.302L112.553 28.4527H113.201L111.913 26.2997C112.613 26.1222 113.08 25.5458 113.08 24.8269ZM110.085 23.841H111.437C112.073 23.841 112.516 24.2452 112.516 24.8252C112.516 25.4016 112.073 25.8041 111.437 25.8041H110.085V23.841Z" fill="#123726"/>
<path d="M116.189 23.2153C114.674 23.2153 113.53 24.3595 113.53 25.8762C113.53 27.3877 114.672 28.5265 116.189 28.5265C117.73 28.5265 118.848 27.4123 118.848 25.8762C118.847 24.3349 117.729 23.2153 116.189 23.2153ZM116.189 27.9677C114.976 27.9677 114.096 27.0871 114.096 25.8762C114.096 24.6583 114.976 23.7742 116.189 23.7742C117.402 23.7742 118.282 24.6583 118.282 25.8762C118.282 27.0889 117.402 27.9677 116.189 27.9677Z" fill="#123726"/>
<path d="M119.637 28.4546H120.198V26.1312H122.365V25.5811H120.198V23.8412H122.544V23.2893H119.637V28.4546Z" fill="#123726"/>
<path d="M123.724 23.2893H123.161V28.4546H123.724V23.2893Z" fill="#123726"/>
<path d="M124.281 23.2893V23.8394H125.855V28.4546H126.418V23.8394H127.993V23.2893H124.281Z" fill="#123726"/>
<path d="M147.914 11.5209V9.30469H148.765C148.884 9.30469 148.993 9.33456 149.092 9.39431C149.189 9.45407 149.266 9.53492 149.324 9.6351C149.38 9.73528 149.41 9.84776 149.41 9.97078C149.41 10.071 149.392 10.1624 149.355 10.2467C149.319 10.3311 149.268 10.4031 149.204 10.4646C149.139 10.5262 149.065 10.5718 148.981 10.6035L149.512 11.5209H149.067L148.554 10.6386H148.306V11.5209H147.914ZM148.299 10.252H148.719C148.774 10.252 148.825 10.2379 148.87 10.2116C148.916 10.1834 148.951 10.1465 148.979 10.1008C149.007 10.0551 149.02 10.0024 149.02 9.94617C149.02 9.88818 149.006 9.83545 148.979 9.78975C148.951 9.74406 148.916 9.70716 148.87 9.67904C148.825 9.65092 148.775 9.63861 148.719 9.63861H148.299V10.252Z" fill="black"/>
<path d="M148.71 12.5492C147.533 12.5492 146.573 11.5913 146.573 10.412C146.573 9.23451 147.531 8.2749 148.71 8.2749C149.89 8.2749 150.848 9.23275 150.848 10.412C150.846 11.5913 149.888 12.5492 148.71 12.5492ZM148.71 8.80392C147.823 8.80392 147.102 9.52626 147.102 10.412C147.102 11.2978 147.825 12.0202 148.71 12.0202C149.598 12.0202 150.319 11.2978 150.319 10.412C150.319 9.52626 149.596 8.80392 148.71 8.80392Z" fill="black"/>
</svg>
