<svg width="32" height="33" viewBox="0 0 32 33" fill="none" xmlns="http://www.w3.org/2000/svg">
<g clip-path="url(#clip0_331_37)">
<path d="M29.1562 5.73311L17.1562 0.733109C16.7907 0.581471 16.3989 0.503418 16.0031 0.503418C15.6074 0.503418 15.2155 0.581471 14.85 0.733109L2.85 5.73311C1.73125 6.19561 1 7.28936 1 8.50186C1 20.9081 8.15625 29.4831 14.8438 32.2706C15.5813 32.5769 16.4125 32.5769 17.15 32.2706C22.5062 30.0394 31 22.3331 31 8.50186C31 7.28936 30.2687 6.19561 29.1562 5.73311ZM16.0063 28.3956L16 4.58311L26.9937 9.16436C26.7875 18.6269 21.8625 25.4831 16.0063 28.3956V28.3956Z" fill="#965524"/>
</g>
<defs>
<clipPath id="clip0_331_37">
<rect width="32" height="32" fill="white" transform="translate(0 0.5)"/>
</clipPath>
</defs>
</svg>
