<svg width="49" height="49" viewBox="0 0 49 49" fill="none" xmlns="http://www.w3.org/2000/svg">
<path d="M14.293 28.5827L18.9745 23.9011C19.3574 23.5184 19.8766 23.3034 20.418 23.3034C20.9593 23.3034 21.4786 23.5184 21.8614 23.9011L25.0995 27.1392C25.4824 27.522 26.0016 27.737 26.543 27.737C27.0843 27.737 27.6036 27.522 27.9864 27.1392L34.7096 20.416M34.7096 20.416V25.5202M34.7096 20.416H29.6055" stroke="black" stroke-width="2.5" stroke-linecap="round" stroke-linejoin="round"/>
<path d="M44.9173 24.4997C44.9173 34.1241 44.9173 38.9363 41.9263 41.9253C38.9393 44.9163 34.1251 44.9163 24.5006 44.9163C14.8762 44.9163 10.064 44.9163 7.07298 41.9253C4.08398 38.9383 4.08398 34.1241 4.08398 24.4997C4.08398 14.8753 4.08398 10.063 7.07298 7.07201C10.0661 4.08301 14.8762 4.08301 24.5006 4.08301C34.1251 4.08301 38.9373 4.08301 41.9263 7.07201C43.9149 9.06059 44.5804 11.8556 44.805 16.333" stroke="black" stroke-width="2.5" stroke-linecap="round"/>
</svg>
