<svg width="184" height="48" viewBox="0 0 184 48" fill="none" xmlns="http://www.w3.org/2000/svg">
<path d="M3.91602 24.5003C3.91602 15.2687 3.91602 10.653 6.78302 7.78399C9.65393 4.91699 14.2678 4.91699 23.4993 4.91699C32.7309 4.91699 37.3467 4.91699 40.2137 7.78399C43.0827 10.6549 43.0827 15.2687 43.0827 24.5003C43.0827 33.7319 43.0827 38.3477 40.2137 41.2147C37.3487 44.0837 32.7309 44.0837 23.4993 44.0837C14.2678 44.0837 9.65197 44.0837 6.78302 41.2147C3.91602 38.3497 3.91602 33.7319 3.91602 24.5003Z" stroke="black" stroke-width="2.5"/>
<path d="M13.707 20.584L18.1975 25.0744C18.5647 25.4416 19.0628 25.6478 19.582 25.6478C20.1013 25.6478 20.5993 25.4416 20.9666 25.0744L24.0725 21.9685C24.4397 21.6014 24.9378 21.3952 25.457 21.3952C25.9763 21.3952 26.4743 21.6014 26.8416 21.9685L33.2904 28.4173M33.2904 28.4173V23.5215M33.2904 28.4173H28.3945" stroke="black" stroke-width="2.5" stroke-linecap="round" stroke-linejoin="round"/>
<path d="M54.59 6.545V7.655H51.74V17H50.375V7.655H47.51V6.545H54.59ZM60.6052 17.135C59.8352 17.135 59.1352 16.96 58.5052 16.61C57.8852 16.26 57.3952 15.765 57.0352 15.125C56.6852 14.475 56.5102 13.725 56.5102 12.875C56.5102 12.035 56.6902 11.295 57.0502 10.655C57.4202 10.005 57.9202 9.51 58.5502 9.17C59.1802 8.82 59.8852 8.645 60.6652 8.645C61.4452 8.645 62.1502 8.82 62.7802 9.17C63.4102 9.51 63.9052 10 64.2652 10.64C64.6352 11.28 64.8202 12.025 64.8202 12.875C64.8202 13.725 64.6302 14.475 64.2502 15.125C63.8802 15.765 63.3752 16.26 62.7352 16.61C62.0952 16.96 61.3852 17.135 60.6052 17.135ZM60.6052 15.935C61.0952 15.935 61.5552 15.82 61.9852 15.59C62.4152 15.36 62.7602 15.015 63.0202 14.555C63.2902 14.095 63.4252 13.535 63.4252 12.875C63.4252 12.215 63.2952 11.655 63.0352 11.195C62.7752 10.735 62.4352 10.395 62.0152 10.175C61.5952 9.945 61.1402 9.83 60.6502 9.83C60.1502 9.83 59.6902 9.945 59.2702 10.175C58.8602 10.395 58.5302 10.735 58.2802 11.195C58.0302 11.655 57.9052 12.215 57.9052 12.875C57.9052 13.545 58.0252 14.11 58.2652 14.57C58.5152 15.03 58.8452 15.375 59.2552 15.605C59.6652 15.825 60.1152 15.935 60.6052 15.935ZM69.03 9.905V14.75C69.03 15.15 69.115 15.435 69.285 15.605C69.455 15.765 69.75 15.845 70.17 15.845H71.175V17H69.945C69.185 17 68.615 16.825 68.235 16.475C67.855 16.125 67.665 15.55 67.665 14.75V9.905H66.6V8.78H67.665V6.71H69.03V8.78H71.175V9.905H69.03ZM73.0688 12.86C73.0688 12.02 73.2388 11.285 73.5788 10.655C73.9188 10.015 74.3838 9.52 74.9738 9.17C75.5738 8.82 76.2388 8.645 76.9688 8.645C77.6888 8.645 78.3138 8.8 78.8438 9.11C79.3738 9.42 79.7688 9.81 80.0288 10.28V8.78H81.4088V17H80.0288V15.47C79.7588 15.95 79.3538 16.35 78.8138 16.67C78.2838 16.98 77.6638 17.135 76.9538 17.135C76.2238 17.135 75.5638 16.955 74.9738 16.595C74.3838 16.235 73.9188 15.73 73.5788 15.08C73.2388 14.43 73.0688 13.69 73.0688 12.86ZM80.0288 12.875C80.0288 12.255 79.9038 11.715 79.6538 11.255C79.4038 10.795 79.0638 10.445 78.6338 10.205C78.2138 9.955 77.7488 9.83 77.2388 9.83C76.7288 9.83 76.2638 9.95 75.8438 10.19C75.4238 10.43 75.0888 10.78 74.8388 11.24C74.5888 11.7 74.4638 12.24 74.4638 12.86C74.4638 13.49 74.5888 14.04 74.8388 14.51C75.0888 14.97 75.4238 15.325 75.8438 15.575C76.2638 15.815 76.7288 15.935 77.2388 15.935C77.7488 15.935 78.2138 15.815 78.6338 15.575C79.0638 15.325 79.4038 14.97 79.6538 14.51C79.9038 14.04 80.0288 13.495 80.0288 12.875ZM85.8305 5.9V17H84.4655V5.9H85.8305ZM96.971 17.105C96.281 17.105 95.661 16.985 95.111 16.745C94.571 16.495 94.146 16.155 93.836 15.725C93.526 15.285 93.366 14.78 93.356 14.21H94.811C94.861 14.7 95.061 15.115 95.411 15.455C95.771 15.785 96.291 15.95 96.971 15.95C97.621 15.95 98.131 15.79 98.501 15.47C98.881 15.14 99.071 14.72 99.071 14.21C99.071 13.81 98.961 13.485 98.741 13.235C98.521 12.985 98.246 12.795 97.916 12.665C97.586 12.535 97.141 12.395 96.581 12.245C95.891 12.065 95.336 11.885 94.916 11.705C94.506 11.525 94.151 11.245 93.851 10.865C93.561 10.475 93.416 9.955 93.416 9.305C93.416 8.735 93.561 8.23 93.851 7.79C94.141 7.35 94.546 7.01 95.066 6.77C95.596 6.53 96.201 6.41 96.881 6.41C97.861 6.41 98.661 6.655 99.281 7.145C99.911 7.635 100.266 8.285 100.346 9.095H98.846C98.796 8.695 98.586 8.345 98.216 8.045C97.846 7.735 97.356 7.58 96.746 7.58C96.176 7.58 95.711 7.73 95.351 8.03C94.991 8.32 94.811 8.73 94.811 9.26C94.811 9.64 94.916 9.95 95.126 10.19C95.346 10.43 95.611 10.615 95.921 10.745C96.241 10.865 96.686 11.005 97.256 11.165C97.946 11.355 98.501 11.545 98.921 11.735C99.341 11.915 99.701 12.2 100.001 12.59C100.301 12.97 100.451 13.49 100.451 14.15C100.451 14.66 100.316 15.14 100.046 15.59C99.776 16.04 99.376 16.405 98.846 16.685C98.316 16.965 97.691 17.105 96.971 17.105ZM102.7 12.875C102.7 12.025 102.87 11.285 103.21 10.655C103.55 10.015 104.02 9.52 104.62 9.17C105.23 8.82 105.925 8.645 106.705 8.645C107.715 8.645 108.545 8.89 109.195 9.38C109.855 9.87 110.29 10.55 110.5 11.42H109.03C108.89 10.92 108.615 10.525 108.205 10.235C107.805 9.945 107.305 9.8 106.705 9.8C105.925 9.8 105.295 10.07 104.815 10.61C104.335 11.14 104.095 11.895 104.095 12.875C104.095 13.865 104.335 14.63 104.815 15.17C105.295 15.71 105.925 15.98 106.705 15.98C107.305 15.98 107.805 15.84 108.205 15.56C108.605 15.28 108.88 14.88 109.03 14.36H110.5C110.28 15.2 109.84 15.875 109.18 16.385C108.52 16.885 107.695 17.135 106.705 17.135C105.925 17.135 105.23 16.96 104.62 16.61C104.02 16.26 103.55 15.765 103.21 15.125C102.87 14.485 102.7 13.735 102.7 12.875ZM116.656 17.135C115.886 17.135 115.186 16.96 114.556 16.61C113.936 16.26 113.446 15.765 113.086 15.125C112.736 14.475 112.561 13.725 112.561 12.875C112.561 12.035 112.741 11.295 113.101 10.655C113.471 10.005 113.971 9.51 114.601 9.17C115.231 8.82 115.936 8.645 116.716 8.645C117.496 8.645 118.201 8.82 118.831 9.17C119.461 9.51 119.956 10 120.316 10.64C120.686 11.28 120.871 12.025 120.871 12.875C120.871 13.725 120.681 14.475 120.301 15.125C119.931 15.765 119.426 16.26 118.786 16.61C118.146 16.96 117.436 17.135 116.656 17.135ZM116.656 15.935C117.146 15.935 117.606 15.82 118.036 15.59C118.466 15.36 118.811 15.015 119.071 14.555C119.341 14.095 119.476 13.535 119.476 12.875C119.476 12.215 119.346 11.655 119.086 11.195C118.826 10.735 118.486 10.395 118.066 10.175C117.646 9.945 117.191 9.83 116.701 9.83C116.201 9.83 115.741 9.945 115.321 10.175C114.911 10.395 114.581 10.735 114.331 11.195C114.081 11.655 113.956 12.215 113.956 12.875C113.956 13.545 114.076 14.11 114.316 14.57C114.566 15.03 114.896 15.375 115.306 15.605C115.716 15.825 116.166 15.935 116.656 15.935ZM124.781 10.295C125.051 9.825 125.451 9.435 125.981 9.125C126.521 8.805 127.146 8.645 127.856 8.645C128.586 8.645 129.246 8.82 129.836 9.17C130.436 9.52 130.906 10.015 131.246 10.655C131.586 11.285 131.756 12.02 131.756 12.86C131.756 13.69 131.586 14.43 131.246 15.08C130.906 15.73 130.436 16.235 129.836 16.595C129.246 16.955 128.586 17.135 127.856 17.135C127.156 17.135 126.536 16.98 125.996 16.67C125.466 16.35 125.061 15.955 124.781 15.485V20.9H123.416V8.78H124.781V10.295ZM130.361 12.86C130.361 12.24 130.236 11.7 129.986 11.24C129.736 10.78 129.396 10.43 128.966 10.19C128.546 9.95 128.081 9.83 127.571 9.83C127.071 9.83 126.606 9.955 126.176 10.205C125.756 10.445 125.416 10.8 125.156 11.27C124.906 11.73 124.781 12.265 124.781 12.875C124.781 13.495 124.906 14.04 125.156 14.51C125.416 14.97 125.756 15.325 126.176 15.575C126.606 15.815 127.071 15.935 127.571 15.935C128.081 15.935 128.546 15.815 128.966 15.575C129.396 15.325 129.736 14.97 129.986 14.51C130.236 14.04 130.361 13.49 130.361 12.86ZM141.802 12.575C141.802 12.835 141.787 13.11 141.757 13.4H135.187C135.237 14.21 135.512 14.845 136.012 15.305C136.522 15.755 137.137 15.98 137.857 15.98C138.447 15.98 138.937 15.845 139.327 15.575C139.727 15.295 140.007 14.925 140.167 14.465H141.637C141.417 15.255 140.977 15.9 140.317 16.4C139.657 16.89 138.837 17.135 137.857 17.135C137.077 17.135 136.377 16.96 135.757 16.61C135.147 16.26 134.667 15.765 134.317 15.125C133.967 14.475 133.792 13.725 133.792 12.875C133.792 12.025 133.962 11.28 134.302 10.64C134.642 10 135.117 9.51 135.727 9.17C136.347 8.82 137.057 8.645 137.857 8.645C138.637 8.645 139.327 8.815 139.927 9.155C140.527 9.495 140.987 9.965 141.307 10.565C141.637 11.155 141.802 11.825 141.802 12.575ZM140.392 12.29C140.392 11.77 140.277 11.325 140.047 10.955C139.817 10.575 139.502 10.29 139.102 10.1C138.712 9.9 138.277 9.8 137.797 9.8C137.107 9.8 136.517 10.02 136.027 10.46C135.547 10.9 135.272 11.51 135.202 12.29H140.392ZM148.713 15.905C149.983 14.885 150.978 14.05 151.698 13.4C152.418 12.74 153.023 12.055 153.513 11.345C154.013 10.625 154.263 9.92 154.263 9.23C154.263 8.58 154.103 8.07 153.783 7.7C153.473 7.32 152.968 7.13 152.268 7.13C151.588 7.13 151.058 7.345 150.678 7.775C150.308 8.195 150.108 8.76 150.078 9.47H148.758C148.798 8.35 149.138 7.485 149.778 6.875C150.418 6.265 151.243 5.96 152.253 5.96C153.283 5.96 154.098 6.245 154.698 6.815C155.308 7.385 155.613 8.17 155.613 9.17C155.613 10 155.363 10.81 154.863 11.6C154.373 12.38 153.813 13.07 153.183 13.67C152.553 14.26 151.748 14.95 150.768 15.74H155.928V16.88H148.713V15.905Z" fill="#808080"/>
<path d="M55.368 30.696H49.752V34.344C49.9973 34.0027 50.36 33.7253 50.84 33.512C51.32 33.288 51.8373 33.176 52.392 33.176C53.2773 33.176 53.9973 33.3627 54.552 33.736C55.1067 34.0987 55.5013 34.5733 55.736 35.16C55.9813 35.736 56.104 36.3493 56.104 37C56.104 37.768 55.96 38.456 55.672 39.064C55.384 39.672 54.9413 40.152 54.344 40.504C53.7573 40.856 53.0267 41.032 52.152 41.032C51.032 41.032 50.1253 40.744 49.432 40.168C48.7387 39.592 48.3173 38.824 48.168 37.864H49.592C49.7307 38.472 50.024 38.9467 50.472 39.288C50.92 39.6293 51.4853 39.8 52.168 39.8C53.0107 39.8 53.6453 39.5493 54.072 39.048C54.4987 38.536 54.712 37.864 54.712 37.032C54.712 36.2 54.4987 35.56 54.072 35.112C53.6453 34.6533 53.016 34.424 52.184 34.424C51.6187 34.424 51.1227 34.5627 50.696 34.84C50.28 35.1067 49.976 35.4747 49.784 35.944H48.408V29.416H55.368V30.696ZM65.9205 33.432V38.6C65.9205 39.0267 66.0112 39.3307 66.1925 39.512C66.3738 39.6827 66.6885 39.768 67.1365 39.768H68.2085V41H66.8965C66.0858 41 65.4778 40.8133 65.0725 40.44C64.6672 40.0667 64.4645 39.4533 64.4645 38.6V33.432H63.3285V32.232H64.4645V30.024H65.9205V32.232H68.2085V33.432H65.9205ZM70.2286 35.416C70.2286 34.328 70.474 33.352 70.9646 32.488C71.4553 31.6133 72.122 30.9307 72.9646 30.44C73.818 29.9493 74.762 29.704 75.7966 29.704C77.0126 29.704 78.074 29.9973 78.9806 30.584C79.8873 31.1707 80.5486 32.0027 80.9646 33.08H79.2206C78.9113 32.408 78.4633 31.8907 77.8766 31.528C77.3006 31.1653 76.6073 30.984 75.7966 30.984C75.018 30.984 74.3193 31.1653 73.7006 31.528C73.082 31.8907 72.5966 32.408 72.2446 33.08C71.8926 33.7413 71.7166 34.52 71.7166 35.416C71.7166 36.3013 71.8926 37.08 72.2446 37.752C72.5966 38.4133 73.082 38.9253 73.7006 39.288C74.3193 39.6507 75.018 39.832 75.7966 39.832C76.6073 39.832 77.3006 39.656 77.8766 39.304C78.4633 38.9413 78.9113 38.424 79.2206 37.752H80.9646C80.5486 38.8187 79.8873 39.6453 78.9806 40.232C78.074 40.808 77.0126 41.096 75.7966 41.096C74.762 41.096 73.818 40.856 72.9646 40.376C72.122 39.8853 71.4553 39.208 70.9646 38.344C70.474 37.48 70.2286 36.504 70.2286 35.416ZM88.988 41.112C87.9533 41.112 87.0093 40.872 86.156 40.392C85.3027 39.9013 84.6253 39.224 84.124 38.36C83.6333 37.4853 83.388 36.504 83.388 35.416C83.388 34.328 83.6333 33.352 84.124 32.488C84.6253 31.6133 85.3027 30.936 86.156 30.456C87.0093 29.9653 87.9533 29.72 88.988 29.72C90.0333 29.72 90.9827 29.9653 91.836 30.456C92.6893 30.936 93.3613 31.608 93.852 32.472C94.3427 33.336 94.588 34.3173 94.588 35.416C94.588 36.5147 94.3427 37.496 93.852 38.36C93.3613 39.224 92.6893 39.9013 91.836 40.392C90.9827 40.872 90.0333 41.112 88.988 41.112ZM88.988 39.848C89.7667 39.848 90.4653 39.6667 91.084 39.304C91.7133 38.9413 92.204 38.424 92.556 37.752C92.9187 37.08 93.1 36.3013 93.1 35.416C93.1 34.52 92.9187 33.7413 92.556 33.08C92.204 32.408 91.7187 31.8907 91.1 31.528C90.4813 31.1653 89.7773 30.984 88.988 30.984C88.1987 30.984 87.4947 31.1653 86.876 31.528C86.2573 31.8907 85.7667 32.408 85.404 33.08C85.052 33.7413 84.876 34.52 84.876 35.416C84.876 36.3013 85.052 37.08 85.404 37.752C85.7667 38.424 86.2573 38.9413 86.876 39.304C87.5053 39.6667 88.2093 39.848 88.988 39.848ZM96.8941 39.832C98.2488 38.744 99.3101 37.8533 100.078 37.16C100.846 36.456 101.491 35.7253 102.014 34.968C102.547 34.2 102.814 33.448 102.814 32.712C102.814 32.0187 102.643 31.4747 102.302 31.08C101.971 30.6747 101.433 30.472 100.686 30.472C99.9608 30.472 99.3955 30.7013 98.9901 31.16C98.5955 31.608 98.3821 32.2107 98.3501 32.968H96.9421C96.9848 31.7733 97.3475 30.8507 98.0301 30.2C98.7128 29.5493 99.5928 29.224 100.67 29.224C101.769 29.224 102.638 29.528 103.278 30.136C103.929 30.744 104.254 31.5813 104.254 32.648C104.254 33.5333 103.987 34.3973 103.454 35.24C102.931 36.072 102.334 36.808 101.662 37.448C100.99 38.0773 100.131 38.8133 99.0861 39.656H104.59V40.872H96.8941V39.832ZM115.313 36.28C115.313 36.5573 115.297 36.8507 115.265 37.16H108.257C108.311 38.024 108.604 38.7013 109.137 39.192C109.681 39.672 110.337 39.912 111.105 39.912C111.735 39.912 112.257 39.768 112.673 39.48C113.1 39.1813 113.399 38.7867 113.569 38.296H115.137C114.903 39.1387 114.433 39.8267 113.729 40.36C113.025 40.8827 112.151 41.144 111.105 41.144C110.273 41.144 109.527 40.9573 108.865 40.584C108.215 40.2107 107.703 39.6827 107.329 39C106.956 38.3067 106.769 37.5067 106.769 36.6C106.769 35.6933 106.951 34.8987 107.313 34.216C107.676 33.5333 108.183 33.0107 108.833 32.648C109.495 32.2747 110.252 32.088 111.105 32.088C111.937 32.088 112.673 32.2693 113.313 32.632C113.953 32.9947 114.444 33.496 114.785 34.136C115.137 34.7653 115.313 35.48 115.313 36.28ZM113.809 35.976C113.809 35.4213 113.687 34.9467 113.441 34.552C113.196 34.1467 112.86 33.8427 112.433 33.64C112.017 33.4267 111.553 33.32 111.041 33.32C110.305 33.32 109.676 33.5547 109.153 34.024C108.641 34.4933 108.348 35.144 108.273 35.976H113.809Z" fill="black"/>
<path d="M55.368 30.696V31.196H55.868V30.696H55.368ZM49.752 30.696V30.196H49.252V30.696H49.752ZM49.752 34.344H49.252V35.8964L50.158 34.6358L49.752 34.344ZM50.84 33.512L51.0431 33.969L51.0514 33.9651L50.84 33.512ZM54.552 33.736L54.2728 34.1508L54.2784 34.1545L54.552 33.736ZM55.736 35.16L55.2716 35.3457L55.276 35.3559L55.736 35.16ZM55.672 39.064L56.1239 39.278V39.278L55.672 39.064ZM54.344 40.504L54.0901 40.0732L54.0868 40.0753L54.344 40.504ZM49.432 40.168L49.7515 39.7834L49.432 40.168ZM48.168 37.864V37.364H47.5842L47.6739 37.9409L48.168 37.864ZM49.592 37.864L50.0795 37.7528L49.9908 37.364H49.592V37.864ZM54.072 39.048L54.4528 39.3721L54.4561 39.3681L54.072 39.048ZM54.072 35.112L53.7059 35.4526L53.7099 35.4568L54.072 35.112ZM50.696 34.84L50.9658 35.2609L50.9685 35.2592L50.696 34.84ZM49.784 35.944V36.444H50.1197L50.2468 36.1333L49.784 35.944ZM48.408 35.944H47.908V36.444H48.408V35.944ZM48.408 29.416V28.916H47.908V29.416H48.408ZM55.368 29.416H55.868V28.916H55.368V29.416ZM55.368 30.196H49.752V31.196H55.368V30.196ZM49.252 30.696V34.344H50.252V30.696H49.252ZM50.158 34.6358C50.3401 34.3825 50.6241 34.1551 51.0431 33.9689L50.6369 33.0551C50.0959 33.2956 49.6546 33.6229 49.346 34.0522L50.158 34.6358ZM51.0514 33.9651C51.4621 33.7734 51.9069 33.676 52.392 33.676V32.676C51.7678 32.676 51.1779 32.8026 50.6286 33.0589L51.0514 33.9651ZM52.392 33.676C53.2096 33.676 53.8235 33.8484 54.2728 34.1508L54.8312 33.3212C54.1711 32.8769 53.3451 32.676 52.392 32.676V33.676ZM54.2784 34.1545C54.7516 34.4639 55.0772 34.8592 55.2718 35.3457L56.2002 34.9743C55.9255 34.2875 55.4618 33.7335 54.8256 33.3175L54.2784 34.1545ZM55.276 35.3559C55.4939 35.8675 55.604 36.414 55.604 37H56.604C56.604 36.2847 56.4688 35.6045 56.196 34.9641L55.276 35.3559ZM55.604 37C55.604 37.7045 55.4722 38.3177 55.2201 38.85L56.1239 39.278C56.4478 38.5943 56.604 37.8315 56.604 37H55.604ZM55.2201 38.85C54.9763 39.3646 54.6041 39.7704 54.0902 40.0732L54.5978 40.9348C55.2786 40.5336 55.7917 39.9794 56.1239 39.278L55.2201 38.85ZM54.0868 40.0753C53.5966 40.3693 52.9609 40.532 52.152 40.532V41.532C53.0925 41.532 53.918 41.3427 54.6012 40.9327L54.0868 40.0753ZM52.152 40.532C51.1195 40.532 50.3349 40.2681 49.7515 39.7834L49.1125 40.5526C49.9157 41.2199 50.9445 41.532 52.152 41.532V40.532ZM49.7515 39.7834C49.1595 39.2916 48.7942 38.6369 48.6621 37.7871L47.6739 37.9409C47.8404 39.0111 48.3178 39.8924 49.1125 40.5526L49.7515 39.7834ZM48.168 38.364H49.592V37.364H48.168V38.364ZM49.1045 37.9752C49.2662 38.6843 49.6177 39.2657 50.169 39.6857L50.775 38.8903C50.4303 38.6276 50.1951 38.2597 50.0795 37.7528L49.1045 37.9752ZM50.169 39.6857C50.7213 40.1065 51.3997 40.3 52.168 40.3V39.3C51.571 39.3 51.1187 39.1521 50.775 38.8903L50.169 39.6857ZM52.168 40.3C53.1131 40.3 53.9058 40.0148 54.4528 39.3721L53.6912 38.7239C53.3849 39.0839 52.9083 39.3 52.168 39.3V40.3ZM54.4561 39.3681C54.9748 38.7457 55.212 37.9511 55.212 37.032H54.212C54.212 37.7769 54.0225 38.3263 53.6879 38.7279L54.4561 39.3681ZM55.212 37.032C55.212 36.1169 54.9762 35.3364 54.4341 34.7672L53.7099 35.4568C54.0211 35.7836 54.212 36.2831 54.212 37.032H55.212ZM54.4381 34.7714C53.8886 34.1808 53.1072 33.924 52.184 33.924V34.924C52.9248 34.924 53.402 35.1259 53.7059 35.4526L54.4381 34.7714ZM52.184 33.924C51.5331 33.924 50.9401 34.085 50.4235 34.4208L50.9685 35.2592C51.3052 35.0404 51.7043 34.924 52.184 34.924V33.924ZM50.4262 34.4191C49.9212 34.7428 49.5511 35.1928 49.3212 35.7547L50.2468 36.1333C50.4009 35.7565 50.6388 35.4706 50.9658 35.2609L50.4262 34.4191ZM49.784 35.444H48.408V36.444H49.784V35.444ZM48.908 35.944V29.416H47.908V35.944H48.908ZM48.408 29.916H55.368V28.916H48.408V29.916ZM54.868 29.416V30.696H55.868V29.416H54.868ZM65.9205 33.432V32.932H65.4205V33.432H65.9205ZM66.1925 39.512L65.8389 39.8656L65.8443 39.8709L65.8498 39.8761L66.1925 39.512ZM68.2085 39.768H68.7085V39.268H68.2085V39.768ZM68.2085 41V41.5H68.7085V41H68.2085ZM65.0725 40.44L64.7338 40.8078L65.0725 40.44ZM64.4645 33.432H64.9645V32.932H64.4645V33.432ZM63.3285 33.432H62.8285V33.932H63.3285V33.432ZM63.3285 32.232V31.732H62.8285V32.232H63.3285ZM64.4645 32.232V32.732H64.9645V32.232H64.4645ZM64.4645 30.024V29.524H63.9645V30.024H64.4645ZM65.9205 30.024H66.4205V29.524H65.9205V30.024ZM65.9205 32.232H65.4205V32.732H65.9205V32.232ZM68.2085 32.232H68.7085V31.732H68.2085V32.232ZM68.2085 33.432V33.932H68.7085V33.432H68.2085ZM65.4205 33.432V38.6H66.4205V33.432H65.4205ZM65.4205 38.6C65.4205 39.076 65.518 39.5446 65.8389 39.8656L66.5461 39.1584C66.5044 39.1168 66.4205 38.9774 66.4205 38.6H65.4205ZM65.8498 39.8761C66.1743 40.1815 66.6533 40.268 67.1365 40.268V39.268C66.7237 39.268 66.5734 39.1838 66.5352 39.1479L65.8498 39.8761ZM67.1365 40.268H68.2085V39.268H67.1365V40.268ZM67.7085 39.768V41H68.7085V39.768H67.7085ZM68.2085 40.5H66.8965V41.5H68.2085V40.5ZM66.8965 40.5C66.1532 40.5 65.6889 40.328 65.4112 40.0722L64.7338 40.8078C65.2668 41.2987 66.0185 41.5 66.8965 41.5V40.5ZM65.4112 40.0722C65.1536 39.8349 64.9645 39.3893 64.9645 38.6H63.9645C63.9645 39.5173 64.1807 40.2984 64.7338 40.8078L65.4112 40.0722ZM64.9645 38.6V33.432H63.9645V38.6H64.9645ZM64.4645 32.932H63.3285V33.932H64.4645V32.932ZM63.8285 33.432V32.232H62.8285V33.432H63.8285ZM63.3285 32.732H64.4645V31.732H63.3285V32.732ZM64.9645 32.232V30.024H63.9645V32.232H64.9645ZM64.4645 30.524H65.9205V29.524H64.4645V30.524ZM65.4205 30.024V32.232H66.4205V30.024H65.4205ZM65.9205 32.732H68.2085V31.732H65.9205V32.732ZM67.7085 32.232V33.432H68.7085V32.232H67.7085ZM68.2085 32.932H65.9205V33.932H68.2085V32.932ZM70.9646 32.488L71.3994 32.7349L71.4007 32.7326L70.9646 32.488ZM72.9646 30.44L72.7154 30.0065L72.713 30.0079L72.9646 30.44ZM78.9806 30.584L79.2523 30.1642L78.9806 30.584ZM80.9646 33.08V33.58H81.6937L81.4311 32.8999L80.9646 33.08ZM79.2206 33.08L78.7664 33.2891L78.9004 33.58H79.2206V33.08ZM77.8766 31.528L77.6102 31.9511L77.6137 31.9533L77.8766 31.528ZM73.7006 31.528L73.9535 31.9593L73.7006 31.528ZM72.2446 33.08L72.686 33.3149L72.6875 33.312L72.2446 33.08ZM72.2446 37.752L71.8017 37.984L71.8033 37.9869L72.2446 37.752ZM73.7006 39.288L73.9535 38.8567L73.7006 39.288ZM77.8766 39.304L78.1374 39.7306L78.1395 39.7293L77.8766 39.304ZM79.2206 37.752V37.252H78.9004L78.7664 37.5429L79.2206 37.752ZM80.9646 37.752L81.4305 37.9337L81.6963 37.252H80.9646V37.752ZM78.9806 40.232L79.2488 40.654L79.2523 40.6518L78.9806 40.232ZM72.9646 40.376L72.713 40.8081L72.7195 40.8118L72.9646 40.376ZM70.9646 38.344L71.3994 38.0971L70.9646 38.344ZM70.7286 35.416C70.7286 34.4061 70.9555 33.5166 71.3994 32.7349L70.5298 32.2411C69.9924 33.1874 69.7286 34.2499 69.7286 35.416H70.7286ZM71.4007 32.7326C71.849 31.9335 72.4529 31.3165 73.2162 30.8721L72.713 30.0079C71.791 30.5448 71.0616 31.2932 70.5286 32.2434L71.4007 32.7326ZM73.2139 30.8735C73.9874 30.4286 74.8448 30.204 75.7966 30.204V29.204C74.6791 29.204 73.6485 29.47 72.7154 30.0065L73.2139 30.8735ZM75.7966 30.204C76.9288 30.204 77.8932 30.4759 78.709 31.0038L79.2523 30.1642C78.2548 29.5188 77.0965 29.204 75.7966 29.204V30.204ZM78.709 31.0038C79.5208 31.529 80.1174 32.274 80.4982 33.2601L81.4311 32.8999C80.9798 31.7313 80.2538 30.8123 79.2523 30.1642L78.709 31.0038ZM80.9646 32.58H79.2206V33.58H80.9646V32.58ZM79.6748 32.8709C79.3275 32.1164 78.816 31.5209 78.1395 31.1027L77.6137 31.9533C78.1106 32.2605 78.4951 32.6996 78.7664 33.2891L79.6748 32.8709ZM78.143 31.1049C77.4731 30.6831 76.6834 30.484 75.7966 30.484V31.484C76.5312 31.484 77.1281 31.6476 77.6102 31.9511L78.143 31.1049ZM75.7966 30.484C74.9369 30.484 74.1496 30.6852 73.4478 31.0967L73.9535 31.9593C74.4889 31.6455 75.099 31.484 75.7966 31.484V30.484ZM73.4478 31.0967C72.7436 31.5094 72.1945 32.0981 71.8017 32.848L72.6875 33.312C72.9987 32.7179 73.4203 32.2719 73.9535 31.9593L73.4478 31.0967ZM71.8033 32.8451C71.4059 33.5916 71.2166 34.4541 71.2166 35.416H72.2166C72.2166 34.5859 72.3794 33.891 72.686 33.3149L71.8033 32.8451ZM71.2166 35.416C71.2166 36.3686 71.4064 37.2293 71.8017 37.984L72.6875 37.52C72.3788 36.9307 72.2166 36.234 72.2166 35.416H71.2166ZM71.8033 37.9869C72.1967 38.7261 72.7456 39.3078 73.4478 39.7193L73.9535 38.8567C73.4183 38.5429 72.9966 38.1006 72.686 37.5171L71.8033 37.9869ZM73.4478 39.7193C74.1496 40.1308 74.9369 40.332 75.7966 40.332V39.332C75.099 39.332 74.4889 39.1705 73.9535 38.8567L73.4478 39.7193ZM75.7966 40.332C76.6807 40.332 77.4684 40.1395 78.1374 39.7306L77.6159 38.8774C77.1329 39.1725 76.5339 39.332 75.7966 39.332V40.332ZM78.1395 39.7293C78.816 39.3111 79.3275 38.7156 79.6748 37.9611L78.7664 37.5429C78.4951 38.1324 78.1106 38.5715 77.6137 38.8787L78.1395 39.7293ZM79.2206 38.252H80.9646V37.252H79.2206V38.252ZM80.4988 37.5703C80.1185 38.5455 79.5221 39.2861 78.709 39.8122L79.2523 40.6518C80.2525 40.0046 80.9788 39.0919 81.4305 37.9337L80.4988 37.5703ZM78.7125 39.81C77.8962 40.3285 76.9306 40.596 75.7966 40.596V41.596C77.0947 41.596 78.2517 41.2875 79.2487 40.654L78.7125 39.81ZM75.7966 40.596C74.8428 40.596 73.984 40.3757 73.2098 39.9402L72.7195 40.8118C73.652 41.3363 74.6811 41.596 75.7966 41.596V40.596ZM73.2162 39.9439C72.4514 39.4986 71.8473 38.8858 71.3994 38.0971L70.5298 38.5909C71.0633 39.5302 71.7925 40.2721 72.713 40.8081L73.2162 39.9439ZM71.3994 38.0971C70.9555 37.3154 70.7286 36.4259 70.7286 35.416H69.7286C69.7286 36.5821 69.9924 37.6446 70.5298 38.5909L71.3994 38.0971ZM86.156 40.392L85.9068 40.8255L85.9109 40.8278L86.156 40.392ZM84.124 38.36L83.6879 38.6047L83.6915 38.6109L84.124 38.36ZM84.124 32.488L83.6902 32.2394L83.6892 32.2411L84.124 32.488ZM86.156 30.456L86.4011 30.8918L86.4052 30.8895L86.156 30.456ZM91.836 30.456L91.5868 30.8895L91.5909 30.8918L91.836 30.456ZM93.852 32.472L94.2868 32.2251V32.2251L93.852 32.472ZM91.836 40.392L92.0811 40.8278L92.0852 40.8255L91.836 40.392ZM91.084 39.304L90.8343 38.8708L90.8311 38.8727L91.084 39.304ZM92.556 37.752L92.116 37.5145L92.1131 37.52L92.556 37.752ZM92.556 33.08L92.113 33.312L92.1176 33.3204L92.556 33.08ZM91.1 31.528L90.8471 31.9593L91.1 31.528ZM86.876 31.528L87.1289 31.9593L86.876 31.528ZM85.404 33.08L84.964 32.8425L84.9626 32.8451L85.404 33.08ZM85.404 37.752L84.9611 37.984L84.964 37.9895L85.404 37.752ZM86.876 39.304L86.6231 39.7354L86.6264 39.7372L86.876 39.304ZM88.988 40.612C88.0341 40.612 87.1753 40.3917 86.4011 39.9562L85.9109 40.8278C86.8433 41.3523 87.8725 41.612 88.988 41.612V40.612ZM86.4052 39.9585C85.6291 39.5123 85.0145 38.8984 84.5565 38.1091L83.6915 38.6109C84.2362 39.5496 84.9762 40.2904 85.9068 40.8255L86.4052 39.9585ZM84.5601 38.1154C84.1148 37.3217 83.888 36.4258 83.888 35.416H82.888C82.888 36.5822 83.1518 37.649 83.6879 38.6046L84.5601 38.1154ZM83.888 35.416C83.888 34.4061 84.1148 33.5166 84.5588 32.7349L83.6892 32.2411C83.1518 33.1874 82.888 34.2499 82.888 35.416H83.888ZM84.5578 32.7366C85.0157 31.9378 85.6288 31.3262 86.4011 30.8918L85.9109 30.0202C84.9765 30.5458 84.235 31.2889 83.6902 32.2394L84.5578 32.7366ZM86.4052 30.8895C87.1788 30.4446 88.0362 30.22 88.988 30.22V29.22C87.8705 29.22 86.8399 29.486 85.9068 30.0225L86.4052 30.8895ZM88.988 30.22C89.9515 30.22 90.814 30.4451 91.5868 30.8895L92.0852 30.0225C91.1513 29.4856 90.1152 29.22 88.988 29.22V30.22ZM91.5909 30.8918C92.3638 31.3265 92.9707 31.9327 93.4172 32.7189L94.2868 32.2251C93.7519 31.2833 93.0149 30.5455 92.0811 30.0202L91.5909 30.8918ZM93.4172 32.7189C93.8607 33.4999 94.088 34.3945 94.088 35.416H95.088C95.088 34.2401 94.8246 33.1721 94.2868 32.2251L93.4172 32.7189ZM94.088 35.416C94.088 36.4375 93.8607 37.3321 93.4172 38.1131L94.2868 38.6069C94.8246 37.6599 95.088 36.5919 95.088 35.416H94.088ZM93.4172 38.1131C92.9702 38.9002 92.3619 39.5128 91.5868 39.9585L92.0852 40.8255C93.0167 40.2898 93.7525 39.5478 94.2868 38.6069L93.4172 38.1131ZM91.5909 39.9562C90.8174 40.3913 89.9535 40.612 88.988 40.612V41.612C90.1132 41.612 91.1479 41.3527 92.0811 40.8278L91.5909 39.9562ZM88.988 40.348C89.8477 40.348 90.635 40.1468 91.3369 39.7353L90.8311 38.8727C90.2957 39.1865 89.6856 39.348 88.988 39.348V40.348ZM91.3337 39.7372C92.0489 39.325 92.6049 38.7361 92.9989 37.984L92.1131 37.52C91.8031 38.1119 91.3777 38.5577 90.8344 38.8708L91.3337 39.7372ZM92.996 37.9895C93.4039 37.2336 93.6 36.3709 93.6 35.416H92.6C92.6 36.2317 92.4334 36.9264 92.116 37.5145L92.996 37.9895ZM93.6 35.416C93.6 34.4517 93.4045 33.5873 92.9944 32.8396L92.1176 33.3204C92.4329 33.8954 92.6 34.5883 92.6 35.416H93.6ZM92.9989 32.848C92.6061 32.0981 92.057 31.5094 91.3529 31.0967L90.8471 31.9593C91.3803 32.2719 91.8019 32.7179 92.1131 33.312L92.9989 32.848ZM91.3529 31.0967C90.6499 30.6846 89.857 30.484 88.988 30.484V31.484C89.6976 31.484 90.3127 31.6461 90.8471 31.9593L91.3529 31.0967ZM88.988 30.484C88.119 30.484 87.3261 30.6846 86.6231 31.0967L87.1289 31.9593C87.6633 31.6461 88.2784 31.484 88.988 31.484V30.484ZM86.6231 31.0967C85.9204 31.5086 85.3672 32.0954 84.964 32.8425L85.844 33.3175C86.1661 32.7206 86.5943 32.2727 87.1289 31.9593L86.6231 31.0967ZM84.9626 32.8451C84.5653 33.5916 84.376 34.4541 84.376 35.416H85.376C85.376 34.5859 85.5387 33.891 85.8454 33.3149L84.9626 32.8451ZM84.376 35.416C84.376 36.3686 84.5658 37.2293 84.9611 37.984L85.8469 37.52C85.5382 36.9307 85.376 36.234 85.376 35.416H84.376ZM84.964 37.9895C85.3672 38.7366 85.9204 39.3234 86.6231 39.7353L87.1289 38.8727C86.5943 38.5593 86.1661 38.1114 85.844 37.5145L84.964 37.9895ZM86.6264 39.7372C87.3371 40.1468 88.1282 40.348 88.988 40.348V39.348C88.2904 39.348 87.6736 39.1866 87.1256 38.8708L86.6264 39.7372ZM96.8941 39.832L96.581 39.4422L96.3941 39.5923V39.832H96.8941ZM100.078 37.16L100.413 37.5311L100.416 37.5286L100.078 37.16ZM102.014 34.968L101.603 34.6828L101.603 34.684L102.014 34.968ZM102.302 31.08L101.915 31.3961L101.919 31.4016L101.924 31.4071L102.302 31.08ZM98.9901 31.16L98.6155 30.8289L98.6149 30.8295L98.9901 31.16ZM98.3501 32.968V33.468H98.8294L98.8497 32.9891L98.3501 32.968ZM96.9421 32.968L96.4424 32.9502L96.424 33.468H96.9421V32.968ZM98.0301 30.2L98.3751 30.5619V30.5619L98.0301 30.2ZM103.278 30.136L102.934 30.4985L102.937 30.5013L103.278 30.136ZM103.454 35.24L103.032 34.9726L103.031 34.974L103.454 35.24ZM101.662 37.448L102.004 37.813L102.007 37.8101L101.662 37.448ZM99.0861 39.656L98.7723 39.2667L97.6692 40.156H99.0861V39.656ZM104.59 39.656H105.09V39.156H104.59V39.656ZM104.59 40.872V41.372H105.09V40.872H104.59ZM96.8941 40.872H96.3941V41.372H96.8941V40.872ZM97.2072 40.2218C98.5651 39.1313 99.6349 38.2338 100.413 37.5311L99.7431 36.7889C98.9854 37.4729 97.9325 38.3567 96.581 39.4422L97.2072 40.2218ZM100.416 37.5286C101.208 36.8025 101.879 36.0439 102.426 35.252L101.603 34.684C101.104 35.4067 100.484 36.1095 99.7403 36.7914L100.416 37.5286ZM102.425 35.2532C103.001 34.4241 103.314 33.5744 103.314 32.712H102.314C102.314 33.3216 102.094 33.9759 101.603 34.6828L102.425 35.2532ZM103.314 32.712C103.314 31.9385 103.123 31.2647 102.68 30.7529L101.924 31.4071C102.164 31.6846 102.314 32.0988 102.314 32.712H103.314ZM102.69 30.7639C102.228 30.1988 101.516 29.972 100.686 29.972V30.972C101.349 30.972 101.714 31.1506 101.915 31.3961L102.69 30.7639ZM100.686 29.972C99.8465 29.972 99.1334 30.2428 98.6155 30.8289L99.3648 31.4911C99.6575 31.1598 100.075 30.972 100.686 30.972V29.972ZM98.6149 30.8295C98.1262 31.3843 97.8861 32.1066 97.8506 32.9469L98.8497 32.9891C98.8782 32.3147 99.0647 31.8317 99.3653 31.4905L98.6149 30.8295ZM98.3501 32.468H96.9421V33.468H98.3501V32.468ZM97.4418 32.9858C97.4811 31.8851 97.8105 31.1001 98.3751 30.5619L97.6852 29.8381C96.8844 30.6013 96.4885 31.6616 96.4424 32.9502L97.4418 32.9858ZM98.3751 30.5619C98.9514 30.0126 99.7015 29.724 100.67 29.724V28.724C99.4841 28.724 98.4742 29.086 97.6852 29.8381L98.3751 30.5619ZM100.67 29.724C101.674 29.724 102.408 29.9991 102.934 30.4985L103.623 29.7735C102.868 29.0569 101.864 28.724 100.67 28.724V29.724ZM102.937 30.5013C103.466 30.9963 103.754 31.6902 103.754 32.648H104.754C104.754 31.4725 104.391 30.4917 103.619 29.7707L102.937 30.5013ZM103.754 32.648C103.754 33.4271 103.521 34.1995 103.032 34.9726L103.877 35.5074C104.454 34.5951 104.754 33.6396 104.754 32.648H103.754ZM103.031 34.974C102.529 35.7729 101.958 36.4762 101.317 37.0859L102.007 37.8101C102.711 37.1398 103.334 36.3711 103.878 35.506L103.031 34.974ZM101.32 37.0831C100.66 37.7011 99.812 38.4287 98.7723 39.2667L99.3999 40.0453C100.451 39.198 101.32 38.4536 102.004 37.8129L101.32 37.0831ZM99.0861 40.156H104.59V39.156H99.0861V40.156ZM104.09 39.656V40.872H105.09V39.656H104.09ZM104.59 40.372H96.8941V41.372H104.59V40.372ZM97.3941 40.872V39.832H96.3941V40.872H97.3941ZM115.265 37.16V37.66H115.716L115.763 37.2114L115.265 37.16ZM108.257 37.16V36.66H107.725L107.758 37.1908L108.257 37.16ZM109.137 39.192L108.799 39.56L108.806 39.5669L109.137 39.192ZM112.673 39.48L112.958 39.8911L112.96 39.8896L112.673 39.48ZM113.569 38.296V37.796H113.214L113.097 38.1317L113.569 38.296ZM115.137 38.296L115.619 38.4301L115.796 37.796H115.137V38.296ZM113.729 40.36L114.027 40.7615L114.031 40.7585L113.729 40.36ZM108.865 40.584L108.616 41.0177L108.619 41.0194L108.865 40.584ZM107.329 39L106.889 39.2371L106.891 39.2399L107.329 39ZM107.313 34.216L107.755 34.4506L107.313 34.216ZM108.833 32.648L109.077 33.0847L109.079 33.0834L108.833 32.648ZM113.313 32.632L113.067 33.067L113.313 32.632ZM114.785 34.136L114.344 34.3713L114.349 34.3801L114.785 34.136ZM113.809 35.976V36.476H114.309V35.976H113.809ZM113.441 34.552L113.013 34.8109L113.017 34.816L113.441 34.552ZM112.433 33.64L112.205 34.0849L112.212 34.0884L112.219 34.0916L112.433 33.64ZM109.153 34.024L108.819 33.652L108.815 33.6554L109.153 34.024ZM108.273 35.976L107.775 35.9313L107.726 36.476H108.273V35.976ZM114.813 36.28C114.813 36.5382 114.798 36.8143 114.768 37.1086L115.763 37.2114C115.796 36.887 115.813 36.5764 115.813 36.28H114.813ZM115.265 36.66H108.257V37.66H115.265V36.66ZM107.758 37.1908C107.818 38.157 108.152 38.9653 108.799 39.56L109.476 38.824C109.056 38.4374 108.803 37.891 108.756 37.1292L107.758 37.1908ZM108.806 39.5669C109.447 40.1325 110.223 40.412 111.105 40.412V39.412C110.451 39.412 109.915 39.2115 109.468 38.8171L108.806 39.5669ZM111.105 40.412C111.811 40.412 112.44 40.2497 112.958 39.8911L112.389 39.0689C112.075 39.2863 111.658 39.412 111.105 39.412V40.412ZM112.96 39.8896C113.472 39.5309 113.836 39.0504 114.041 38.4603L113.097 38.1317C112.961 38.5229 112.727 38.8318 112.387 39.0704L112.96 39.8896ZM113.569 38.796H115.137V37.796H113.569V38.796ZM114.656 38.1619C114.451 38.898 114.045 39.4935 113.427 39.9615L114.031 40.7585C114.822 40.1598 115.355 39.3793 115.619 38.4301L114.656 38.1619ZM113.431 39.9585C112.829 40.4056 112.064 40.644 111.105 40.644V41.644C112.237 41.644 113.221 41.3597 114.027 40.7615L113.431 39.9585ZM111.105 40.644C110.351 40.644 109.69 40.4756 109.111 40.1486L108.619 41.0194C109.363 41.4391 110.196 41.644 111.105 41.644V40.644ZM109.114 40.1503C108.546 39.8246 108.099 39.3651 107.768 38.7601L106.891 39.2399C107.306 40.0003 107.883 40.5967 108.616 41.0177L109.114 40.1503ZM107.769 38.7629C107.441 38.1528 107.269 37.4365 107.269 36.6H106.269C106.269 37.5768 106.471 38.4605 106.889 39.237L107.769 38.7629ZM107.269 36.6C107.269 35.761 107.437 35.0495 107.755 34.4506L106.872 33.9814C106.465 34.7479 106.269 35.6257 106.269 36.6H107.269ZM107.755 34.4506C108.074 33.8496 108.513 33.3987 109.077 33.0847L108.59 32.2113C107.852 32.6227 107.278 33.2171 106.872 33.9814L107.755 34.4506ZM109.079 33.0834C109.656 32.7575 110.327 32.588 111.105 32.588V31.588C110.177 31.588 109.333 31.7919 108.587 32.2126L109.079 33.0834ZM111.105 32.588C111.862 32.588 112.511 32.7523 113.067 33.067L113.56 32.197C112.835 31.7864 112.012 31.588 111.105 31.588V32.588ZM113.067 33.067C113.625 33.3836 114.048 33.8162 114.344 34.3713L115.226 33.9007C114.84 33.1758 114.281 32.6057 113.56 32.197L113.067 33.067ZM114.349 34.3801C114.655 34.9269 114.813 35.5559 114.813 36.28H115.813C115.813 35.4041 115.62 34.6038 115.222 33.8919L114.349 34.3801ZM114.309 35.976C114.309 35.3463 114.169 34.7761 113.866 34.288L113.017 34.816C113.204 35.1172 113.309 35.4964 113.309 35.976H114.309ZM113.869 34.2931C113.573 33.8043 113.163 33.4332 112.648 33.1884L112.219 34.0916C112.557 34.2522 112.819 34.489 113.013 34.8109L113.869 34.2931ZM112.661 33.1951C112.168 32.9422 111.625 32.82 111.041 32.82V33.82C111.482 33.82 111.866 33.9111 112.205 34.0849L112.661 33.1951ZM111.041 32.82C110.188 32.82 109.438 33.096 108.819 33.652L109.487 34.396C109.914 34.0133 110.422 33.82 111.041 33.82V32.82ZM108.815 33.6554C108.194 34.2254 107.859 35.0017 107.775 35.9313L108.771 36.0207C108.837 35.2863 109.089 34.7613 109.491 34.3926L108.815 33.6554ZM108.273 36.476H113.809V35.476H108.273V36.476Z" fill="black"/>
<path d="M163.373 37.057H161.456V39.001H160.691V37.057H158.783V36.364H160.691V34.411H161.456V36.364H163.373V37.057ZM164.936 34.24V33.493H166.628V40H165.8V34.24H164.936ZM168.88 40.054C168.724 40.054 168.592 40 168.484 39.892C168.376 39.784 168.322 39.652 168.322 39.496C168.322 39.34 168.376 39.208 168.484 39.1C168.592 38.992 168.724 38.938 168.88 38.938C169.03 38.938 169.156 38.992 169.258 39.1C169.366 39.208 169.42 39.34 169.42 39.496C169.42 39.652 169.366 39.784 169.258 39.892C169.156 40 169.03 40.054 168.88 40.054ZM174.973 34.204H171.814V36.256C171.952 36.064 172.156 35.908 172.426 35.788C172.696 35.662 172.987 35.599 173.299 35.599C173.797 35.599 174.202 35.704 174.514 35.914C174.826 36.118 175.048 36.385 175.18 36.715C175.318 37.039 175.387 37.384 175.387 37.75C175.387 38.182 175.306 38.569 175.144 38.911C174.982 39.253 174.733 39.523 174.397 39.721C174.067 39.919 173.656 40.018 173.164 40.018C172.534 40.018 172.024 39.856 171.634 39.532C171.244 39.208 171.007 38.776 170.923 38.236H171.724C171.802 38.578 171.967 38.845 172.219 39.037C172.471 39.229 172.789 39.325 173.173 39.325C173.647 39.325 174.004 39.184 174.244 38.902C174.484 38.614 174.604 38.236 174.604 37.768C174.604 37.3 174.484 36.94 174.244 36.688C174.004 36.43 173.65 36.301 173.182 36.301C172.864 36.301 172.585 36.379 172.345 36.535C172.111 36.685 171.94 36.892 171.832 37.156H171.058V33.484H174.973V34.204ZM176.745 34.96C176.745 34.552 176.868 34.228 177.114 33.988C177.36 33.742 177.675 33.619 178.059 33.619C178.443 33.619 178.758 33.742 179.004 33.988C179.25 34.228 179.373 34.552 179.373 34.96C179.373 35.374 179.25 35.704 179.004 35.95C178.758 36.19 178.443 36.31 178.059 36.31C177.675 36.31 177.36 36.19 177.114 35.95C176.868 35.704 176.745 35.374 176.745 34.96ZM182.001 33.718L178.356 40H177.546L181.191 33.718H182.001ZM178.059 34.123C177.855 34.123 177.693 34.195 177.573 34.339C177.459 34.477 177.402 34.684 177.402 34.96C177.402 35.236 177.459 35.446 177.573 35.59C177.693 35.734 177.855 35.806 178.059 35.806C178.263 35.806 178.425 35.734 178.545 35.59C178.665 35.44 178.725 35.23 178.725 34.96C178.725 34.684 178.665 34.477 178.545 34.339C178.425 34.195 178.263 34.123 178.059 34.123ZM180.192 38.758C180.192 38.344 180.315 38.017 180.561 37.777C180.807 37.531 181.122 37.408 181.506 37.408C181.89 37.408 182.202 37.531 182.442 37.777C182.688 38.017 182.811 38.344 182.811 38.758C182.811 39.166 182.688 39.493 182.442 39.739C182.202 39.985 181.89 40.108 181.506 40.108C181.122 40.108 180.807 39.988 180.561 39.748C180.315 39.502 180.192 39.172 180.192 38.758ZM181.497 37.921C181.293 37.921 181.131 37.993 181.011 38.137C180.891 38.275 180.831 38.482 180.831 38.758C180.831 39.028 180.891 39.235 181.011 39.379C181.131 39.517 181.293 39.586 181.497 39.586C181.701 39.586 181.863 39.517 181.983 39.379C182.103 39.235 182.163 39.028 182.163 38.758C182.163 38.482 182.103 38.275 181.983 38.137C181.863 37.993 181.701 37.921 181.497 37.921Z" fill="black"/>
</svg>
