<svg width="219" height="49" viewBox="0 0 219 49" fill="none" xmlns="http://www.w3.org/2000/svg">
<path d="M65.59 10.545V11.655H62.74V21H61.375V11.655H58.51V10.545H65.59ZM71.6052 21.135C70.8352 21.135 70.1352 20.96 69.5052 20.61C68.8852 20.26 68.3952 19.765 68.0352 19.125C67.6852 18.475 67.5102 17.725 67.5102 16.875C67.5102 16.035 67.6902 15.295 68.0502 14.655C68.4202 14.005 68.9202 13.51 69.5502 13.17C70.1802 12.82 70.8852 12.645 71.6652 12.645C72.4452 12.645 73.1502 12.82 73.7802 13.17C74.4102 13.51 74.9052 14 75.2652 14.64C75.6352 15.28 75.8202 16.025 75.8202 16.875C75.8202 17.725 75.6302 18.475 75.2502 19.125C74.8802 19.765 74.3752 20.26 73.7352 20.61C73.0952 20.96 72.3852 21.135 71.6052 21.135ZM71.6052 19.935C72.0952 19.935 72.5552 19.82 72.9852 19.59C73.4152 19.36 73.7602 19.015 74.0202 18.555C74.2902 18.095 74.4252 17.535 74.4252 16.875C74.4252 16.215 74.2952 15.655 74.0352 15.195C73.7752 14.735 73.4352 14.395 73.0152 14.175C72.5952 13.945 72.1402 13.83 71.6502 13.83C71.1502 13.83 70.6902 13.945 70.2702 14.175C69.8602 14.395 69.5302 14.735 69.2802 15.195C69.0302 15.655 68.9052 16.215 68.9052 16.875C68.9052 17.545 69.0252 18.11 69.2652 18.57C69.5152 19.03 69.8452 19.375 70.2552 19.605C70.6652 19.825 71.1152 19.935 71.6052 19.935ZM80.03 13.905V18.75C80.03 19.15 80.115 19.435 80.285 19.605C80.455 19.765 80.75 19.845 81.17 19.845H82.175V21H80.945C80.185 21 79.615 20.825 79.235 20.475C78.855 20.125 78.665 19.55 78.665 18.75V13.905H77.6V12.78H78.665V10.71H80.03V12.78H82.175V13.905H80.03ZM84.0688 16.86C84.0688 16.02 84.2388 15.285 84.5788 14.655C84.9188 14.015 85.3838 13.52 85.9738 13.17C86.5738 12.82 87.2388 12.645 87.9688 12.645C88.6888 12.645 89.3138 12.8 89.8438 13.11C90.3738 13.42 90.7688 13.81 91.0288 14.28V12.78H92.4088V21H91.0288V19.47C90.7588 19.95 90.3538 20.35 89.8138 20.67C89.2838 20.98 88.6638 21.135 87.9538 21.135C87.2238 21.135 86.5638 20.955 85.9738 20.595C85.3838 20.235 84.9188 19.73 84.5788 19.08C84.2388 18.43 84.0688 17.69 84.0688 16.86ZM91.0288 16.875C91.0288 16.255 90.9038 15.715 90.6538 15.255C90.4038 14.795 90.0638 14.445 89.6338 14.205C89.2138 13.955 88.7488 13.83 88.2388 13.83C87.7288 13.83 87.2638 13.95 86.8438 14.19C86.4238 14.43 86.0888 14.78 85.8388 15.24C85.5888 15.7 85.4638 16.24 85.4638 16.86C85.4638 17.49 85.5888 18.04 85.8388 18.51C86.0888 18.97 86.4238 19.325 86.8438 19.575C87.2638 19.815 87.7288 19.935 88.2388 19.935C88.7488 19.935 89.2138 19.815 89.6338 19.575C90.0638 19.325 90.4038 18.97 90.6538 18.51C90.9038 18.04 91.0288 17.495 91.0288 16.875ZM96.8305 9.9V21H95.4655V9.9H96.8305ZM107.971 21.105C107.281 21.105 106.661 20.985 106.111 20.745C105.571 20.495 105.146 20.155 104.836 19.725C104.526 19.285 104.366 18.78 104.356 18.21H105.811C105.861 18.7 106.061 19.115 106.411 19.455C106.771 19.785 107.291 19.95 107.971 19.95C108.621 19.95 109.131 19.79 109.501 19.47C109.881 19.14 110.071 18.72 110.071 18.21C110.071 17.81 109.961 17.485 109.741 17.235C109.521 16.985 109.246 16.795 108.916 16.665C108.586 16.535 108.141 16.395 107.581 16.245C106.891 16.065 106.336 15.885 105.916 15.705C105.506 15.525 105.151 15.245 104.851 14.865C104.561 14.475 104.416 13.955 104.416 13.305C104.416 12.735 104.561 12.23 104.851 11.79C105.141 11.35 105.546 11.01 106.066 10.77C106.596 10.53 107.201 10.41 107.881 10.41C108.861 10.41 109.661 10.655 110.281 11.145C110.911 11.635 111.266 12.285 111.346 13.095H109.846C109.796 12.695 109.586 12.345 109.216 12.045C108.846 11.735 108.356 11.58 107.746 11.58C107.176 11.58 106.711 11.73 106.351 12.03C105.991 12.32 105.811 12.73 105.811 13.26C105.811 13.64 105.916 13.95 106.126 14.19C106.346 14.43 106.611 14.615 106.921 14.745C107.241 14.865 107.686 15.005 108.256 15.165C108.946 15.355 109.501 15.545 109.921 15.735C110.341 15.915 110.701 16.2 111.001 16.59C111.301 16.97 111.451 17.49 111.451 18.15C111.451 18.66 111.316 19.14 111.046 19.59C110.776 20.04 110.376 20.405 109.846 20.685C109.316 20.965 108.691 21.105 107.971 21.105ZM113.7 16.875C113.7 16.025 113.87 15.285 114.21 14.655C114.55 14.015 115.02 13.52 115.62 13.17C116.23 12.82 116.925 12.645 117.705 12.645C118.715 12.645 119.545 12.89 120.195 13.38C120.855 13.87 121.29 14.55 121.5 15.42H120.03C119.89 14.92 119.615 14.525 119.205 14.235C118.805 13.945 118.305 13.8 117.705 13.8C116.925 13.8 116.295 14.07 115.815 14.61C115.335 15.14 115.095 15.895 115.095 16.875C115.095 17.865 115.335 18.63 115.815 19.17C116.295 19.71 116.925 19.98 117.705 19.98C118.305 19.98 118.805 19.84 119.205 19.56C119.605 19.28 119.88 18.88 120.03 18.36H121.5C121.28 19.2 120.84 19.875 120.18 20.385C119.52 20.885 118.695 21.135 117.705 21.135C116.925 21.135 116.23 20.96 115.62 20.61C115.02 20.26 114.55 19.765 114.21 19.125C113.87 18.485 113.7 17.735 113.7 16.875ZM127.656 21.135C126.886 21.135 126.186 20.96 125.556 20.61C124.936 20.26 124.446 19.765 124.086 19.125C123.736 18.475 123.561 17.725 123.561 16.875C123.561 16.035 123.741 15.295 124.101 14.655C124.471 14.005 124.971 13.51 125.601 13.17C126.231 12.82 126.936 12.645 127.716 12.645C128.496 12.645 129.201 12.82 129.831 13.17C130.461 13.51 130.956 14 131.316 14.64C131.686 15.28 131.871 16.025 131.871 16.875C131.871 17.725 131.681 18.475 131.301 19.125C130.931 19.765 130.426 20.26 129.786 20.61C129.146 20.96 128.436 21.135 127.656 21.135ZM127.656 19.935C128.146 19.935 128.606 19.82 129.036 19.59C129.466 19.36 129.811 19.015 130.071 18.555C130.341 18.095 130.476 17.535 130.476 16.875C130.476 16.215 130.346 15.655 130.086 15.195C129.826 14.735 129.486 14.395 129.066 14.175C128.646 13.945 128.191 13.83 127.701 13.83C127.201 13.83 126.741 13.945 126.321 14.175C125.911 14.395 125.581 14.735 125.331 15.195C125.081 15.655 124.956 16.215 124.956 16.875C124.956 17.545 125.076 18.11 125.316 18.57C125.566 19.03 125.896 19.375 126.306 19.605C126.716 19.825 127.166 19.935 127.656 19.935ZM135.781 14.295C136.051 13.825 136.451 13.435 136.981 13.125C137.521 12.805 138.146 12.645 138.856 12.645C139.586 12.645 140.246 12.82 140.836 13.17C141.436 13.52 141.906 14.015 142.246 14.655C142.586 15.285 142.756 16.02 142.756 16.86C142.756 17.69 142.586 18.43 142.246 19.08C141.906 19.73 141.436 20.235 140.836 20.595C140.246 20.955 139.586 21.135 138.856 21.135C138.156 21.135 137.536 20.98 136.996 20.67C136.466 20.35 136.061 19.955 135.781 19.485V24.9H134.416V12.78H135.781V14.295ZM141.361 16.86C141.361 16.24 141.236 15.7 140.986 15.24C140.736 14.78 140.396 14.43 139.966 14.19C139.546 13.95 139.081 13.83 138.571 13.83C138.071 13.83 137.606 13.955 137.176 14.205C136.756 14.445 136.416 14.8 136.156 15.27C135.906 15.73 135.781 16.265 135.781 16.875C135.781 17.495 135.906 18.04 136.156 18.51C136.416 18.97 136.756 19.325 137.176 19.575C137.606 19.815 138.071 19.935 138.571 19.935C139.081 19.935 139.546 19.815 139.966 19.575C140.396 19.325 140.736 18.97 140.986 18.51C141.236 18.04 141.361 17.49 141.361 16.86ZM152.802 16.575C152.802 16.835 152.787 17.11 152.757 17.4H146.187C146.237 18.21 146.512 18.845 147.012 19.305C147.522 19.755 148.137 19.98 148.857 19.98C149.447 19.98 149.937 19.845 150.327 19.575C150.727 19.295 151.007 18.925 151.167 18.465H152.637C152.417 19.255 151.977 19.9 151.317 20.4C150.657 20.89 149.837 21.135 148.857 21.135C148.077 21.135 147.377 20.96 146.757 20.61C146.147 20.26 145.667 19.765 145.317 19.125C144.967 18.475 144.792 17.725 144.792 16.875C144.792 16.025 144.962 15.28 145.302 14.64C145.642 14 146.117 13.51 146.727 13.17C147.347 12.82 148.057 12.645 148.857 12.645C149.637 12.645 150.327 12.815 150.927 13.155C151.527 13.495 151.987 13.965 152.307 14.565C152.637 15.155 152.802 15.825 152.802 16.575ZM151.392 16.29C151.392 15.77 151.277 15.325 151.047 14.955C150.817 14.575 150.502 14.29 150.102 14.1C149.712 13.9 149.277 13.8 148.797 13.8C148.107 13.8 147.517 14.02 147.027 14.46C146.547 14.9 146.272 15.51 146.202 16.29H151.392ZM159.518 11.4V10.155H162.338V21H160.958V11.4H159.518Z" fill="#808080"/>
<path d="M58.57 34.4V33.155H61.39V44H60.01V34.4H58.57ZM64.4847 38.465C64.4847 36.745 64.7647 35.405 65.3247 34.445C65.8847 33.475 66.8647 32.99 68.2647 32.99C69.6547 32.99 70.6297 33.475 71.1897 34.445C71.7497 35.405 72.0297 36.745 72.0297 38.465C72.0297 40.215 71.7497 41.575 71.1897 42.545C70.6297 43.515 69.6547 44 68.2647 44C66.8647 44 65.8847 43.515 65.3247 42.545C64.7647 41.575 64.4847 40.215 64.4847 38.465ZM70.6797 38.465C70.6797 37.595 70.6197 36.86 70.4997 36.26C70.3897 35.65 70.1547 35.16 69.7947 34.79C69.4447 34.42 68.9347 34.235 68.2647 34.235C67.5847 34.235 67.0647 34.42 66.7047 34.79C66.3547 35.16 66.1197 35.65 65.9997 36.26C65.8897 36.86 65.8347 37.595 65.8347 38.465C65.8347 39.365 65.8897 40.12 65.9997 40.73C66.1197 41.34 66.3547 41.83 66.7047 42.2C67.0647 42.57 67.5847 42.755 68.2647 42.755C68.9347 42.755 69.4447 42.57 69.7947 42.2C70.1547 41.83 70.3897 41.34 70.4997 40.73C70.6197 40.12 70.6797 39.365 70.6797 38.465ZM81.2927 36.905V41.75C81.2927 42.15 81.3777 42.435 81.5477 42.605C81.7177 42.765 82.0127 42.845 82.4327 42.845H83.4377V44H82.2077C81.4477 44 80.8777 43.825 80.4977 43.475C80.1177 43.125 79.9277 42.55 79.9277 41.75V36.905H78.8627V35.78H79.9277V33.71H81.2927V35.78H83.4377V36.905H81.2927ZM85.3315 38.765C85.3315 37.745 85.5615 36.83 86.0215 36.02C86.4815 35.2 87.1065 34.56 87.8965 34.1C88.6965 33.64 89.5815 33.41 90.5515 33.41C91.6915 33.41 92.6865 33.685 93.5365 34.235C94.3865 34.785 95.0065 35.565 95.3965 36.575H93.7615C93.4715 35.945 93.0515 35.46 92.5015 35.12C91.9615 34.78 91.3115 34.61 90.5515 34.61C89.8215 34.61 89.1665 34.78 88.5865 35.12C88.0065 35.46 87.5515 35.945 87.2215 36.575C86.8915 37.195 86.7265 37.925 86.7265 38.765C86.7265 39.595 86.8915 40.325 87.2215 40.955C87.5515 41.575 88.0065 42.055 88.5865 42.395C89.1665 42.735 89.8215 42.905 90.5515 42.905C91.3115 42.905 91.9615 42.74 92.5015 42.41C93.0515 42.07 93.4715 41.585 93.7615 40.955H95.3965C95.0065 41.955 94.3865 42.73 93.5365 43.28C92.6865 43.82 91.6915 44.09 90.5515 44.09C89.5815 44.09 88.6965 43.865 87.8965 43.415C87.1065 42.955 86.4815 42.32 86.0215 41.51C85.5615 40.7 85.3315 39.785 85.3315 38.765ZM102.918 44.105C101.948 44.105 101.063 43.88 100.263 43.43C99.4634 42.97 98.8284 42.335 98.3584 41.525C97.8984 40.705 97.6684 39.785 97.6684 38.765C97.6684 37.745 97.8984 36.83 98.3584 36.02C98.8284 35.2 99.4634 34.565 100.263 34.115C101.063 33.655 101.948 33.425 102.918 33.425C103.898 33.425 104.788 33.655 105.588 34.115C106.388 34.565 107.018 35.195 107.478 36.005C107.938 36.815 108.168 37.735 108.168 38.765C108.168 39.795 107.938 40.715 107.478 41.525C107.018 42.335 106.388 42.97 105.588 43.43C104.788 43.88 103.898 44.105 102.918 44.105ZM102.918 42.92C103.648 42.92 104.303 42.75 104.883 42.41C105.473 42.07 105.933 41.585 106.263 40.955C106.603 40.325 106.773 39.595 106.773 38.765C106.773 37.925 106.603 37.195 106.263 36.575C105.933 35.945 105.478 35.46 104.898 35.12C104.318 34.78 103.658 34.61 102.918 34.61C102.178 34.61 101.518 34.78 100.938 35.12C100.358 35.46 99.8984 35.945 99.5584 36.575C99.2284 37.195 99.0634 37.925 99.0634 38.765C99.0634 39.595 99.2284 40.325 99.5584 40.955C99.8984 41.585 100.358 42.07 100.938 42.41C101.528 42.75 102.188 42.92 102.918 42.92ZM110.33 42.905C111.6 41.885 112.595 41.05 113.315 40.4C114.035 39.74 114.64 39.055 115.13 38.345C115.63 37.625 115.88 36.92 115.88 36.23C115.88 35.58 115.72 35.07 115.4 34.7C115.09 34.32 114.585 34.13 113.885 34.13C113.205 34.13 112.675 34.345 112.295 34.775C111.925 35.195 111.725 35.76 111.695 36.47H110.375C110.415 35.35 110.755 34.485 111.395 33.875C112.035 33.265 112.86 32.96 113.87 32.96C114.9 32.96 115.715 33.245 116.315 33.815C116.925 34.385 117.23 35.17 117.23 36.17C117.23 37 116.98 37.81 116.48 38.6C115.99 39.38 115.43 40.07 114.8 40.67C114.17 41.26 113.365 41.95 112.385 42.74H117.545V43.88H110.33V42.905ZM127.598 39.575C127.598 39.835 127.583 40.11 127.553 40.4H120.983C121.033 41.21 121.308 41.845 121.808 42.305C122.318 42.755 122.933 42.98 123.653 42.98C124.243 42.98 124.733 42.845 125.123 42.575C125.523 42.295 125.803 41.925 125.963 41.465H127.433C127.213 42.255 126.773 42.9 126.113 43.4C125.453 43.89 124.633 44.135 123.653 44.135C122.873 44.135 122.173 43.96 121.553 43.61C120.943 43.26 120.463 42.765 120.113 42.125C119.763 41.475 119.588 40.725 119.588 39.875C119.588 39.025 119.758 38.28 120.098 37.64C120.438 37 120.913 36.51 121.523 36.17C122.143 35.82 122.853 35.645 123.653 35.645C124.433 35.645 125.123 35.815 125.723 36.155C126.323 36.495 126.783 36.965 127.103 37.565C127.433 38.155 127.598 38.825 127.598 39.575ZM126.188 39.29C126.188 38.77 126.073 38.325 125.843 37.955C125.613 37.575 125.298 37.29 124.898 37.1C124.508 36.9 124.073 36.8 123.593 36.8C122.903 36.8 122.313 37.02 121.823 37.46C121.343 37.9 121.068 38.51 120.998 39.29H126.188Z" fill="black"/>
<path d="M58.57 34.4H58.07V34.9H58.57V34.4ZM58.57 33.155V32.655H58.07V33.155H58.57ZM61.39 33.155H61.89V32.655H61.39V33.155ZM61.39 44V44.5H61.89V44H61.39ZM60.01 44H59.51V44.5H60.01V44ZM60.01 34.4H60.51V33.9H60.01V34.4ZM59.07 34.4V33.155H58.07V34.4H59.07ZM58.57 33.655H61.39V32.655H58.57V33.655ZM60.89 33.155V44H61.89V33.155H60.89ZM61.39 43.5H60.01V44.5H61.39V43.5ZM60.51 44V34.4H59.51V44H60.51ZM60.01 33.9H58.57V34.9H60.01V33.9ZM65.3247 34.445L65.7566 34.6969L65.7577 34.695L65.3247 34.445ZM71.1897 34.445L70.7567 34.695L70.7578 34.6969L71.1897 34.445ZM65.3247 42.545L65.7577 42.295L65.3247 42.545ZM70.4997 36.26L70.0075 36.3487L70.0094 36.3581L70.4997 36.26ZM69.7947 34.79L69.4314 35.1336L69.4363 35.1387L69.7947 34.79ZM66.7047 34.79L66.3463 34.4413L66.3415 34.4464L66.7047 34.79ZM65.9997 36.26L65.509 36.1635L65.5079 36.1698L65.9997 36.26ZM65.9997 40.73L65.5076 40.8187L65.5091 40.8265L65.9997 40.73ZM66.7047 42.2L66.3414 42.5436L66.3463 42.5487L66.7047 42.2ZM69.7947 42.2L69.4363 41.8513L69.4315 41.8564L69.7947 42.2ZM70.4997 40.73L70.009 40.6335L70.0076 40.6413L70.4997 40.73ZM64.9847 38.465C64.9847 36.7892 65.2592 35.5496 65.7566 34.6969L64.8928 34.1931C64.2702 35.2604 63.9847 36.7008 63.9847 38.465H64.9847ZM65.7577 34.695C66.2051 33.92 66.9913 33.49 68.2647 33.49V32.49C66.7381 32.49 65.5643 33.03 64.8917 34.195L65.7577 34.695ZM68.2647 33.49C69.5263 33.49 70.3086 33.9188 70.7567 34.695L71.6227 34.195C70.9508 33.0312 69.7831 32.49 68.2647 32.49V33.49ZM70.7578 34.6969C71.2552 35.5496 71.5297 36.7892 71.5297 38.465H72.5297C72.5297 36.7008 72.2442 35.2604 71.6216 34.1931L70.7578 34.6969ZM71.5297 38.465C71.5297 40.1722 71.2548 41.4323 70.7567 42.295L71.6227 42.795C72.2446 41.7177 72.5297 40.2578 72.5297 38.465H71.5297ZM70.7567 42.295C70.3086 43.0712 69.5263 43.5 68.2647 43.5V44.5C69.7831 44.5 70.9508 43.9588 71.6227 42.795L70.7567 42.295ZM68.2647 43.5C66.9913 43.5 66.2051 43.07 65.7577 42.295L64.8917 42.795C65.5643 43.96 66.7381 44.5 68.2647 44.5V43.5ZM65.7577 42.295C65.2596 41.4323 64.9847 40.1722 64.9847 38.465H63.9847C63.9847 40.2578 64.2698 41.7177 64.8917 42.795L65.7577 42.295ZM71.1797 38.465C71.1797 37.5746 71.1185 36.8046 70.99 36.1619L70.0094 36.3581C70.1209 36.9154 70.1797 37.6154 70.1797 38.465H71.1797ZM70.9918 36.1713C70.8677 35.4832 70.5954 34.896 70.1531 34.4413L69.4363 35.1387C69.7139 35.424 69.9117 35.8168 70.0076 36.3487L70.9918 36.1713ZM70.1579 34.4464C69.6863 33.9478 69.0267 33.735 68.2647 33.735V34.735C68.8427 34.735 69.2031 34.8922 69.4315 35.1336L70.1579 34.4464ZM68.2647 33.735C67.4943 33.735 66.8276 33.9467 66.3463 34.4413L67.0631 35.1387C67.3018 34.8933 67.6751 34.735 68.2647 34.735V33.735ZM66.3415 34.4464C65.9135 34.8988 65.6433 35.4813 65.5091 36.1635L66.4903 36.3565C66.5961 35.8187 66.7959 35.4212 67.0679 35.1336L66.3415 34.4464ZM65.5079 36.1698C65.3907 36.8092 65.3347 37.5764 65.3347 38.465H66.3347C66.3347 37.6136 66.3887 36.9108 66.4915 36.3502L65.5079 36.1698ZM65.3347 38.465C65.3347 39.3827 65.3906 40.1696 65.5076 40.8187L66.4918 40.6413C66.3888 40.0704 66.3347 39.3473 66.3347 38.465H65.3347ZM65.5091 40.8265C65.6433 41.5087 65.9135 42.0912 66.3415 42.5436L67.0679 41.8564C66.7959 41.5688 66.5961 41.1713 66.4903 40.6335L65.5091 40.8265ZM66.3463 42.5487C66.8276 43.0433 67.4943 43.255 68.2647 43.255V42.255C67.6751 42.255 67.3018 42.0967 67.0631 41.8513L66.3463 42.5487ZM68.2647 43.255C69.0267 43.255 69.6863 43.0422 70.1579 42.5436L69.4315 41.8564C69.2031 42.0978 68.8427 42.255 68.2647 42.255V43.255ZM70.1531 42.5487C70.5954 42.094 70.8677 41.5068 70.9918 40.8187L70.0076 40.6413C69.9117 41.1732 69.7139 41.566 69.4363 41.8513L70.1531 42.5487ZM70.9903 40.8265C71.1186 40.1741 71.1797 39.3844 71.1797 38.465H70.1797C70.1797 39.3456 70.1207 40.0659 70.0091 40.6335L70.9903 40.8265ZM81.2927 36.905V36.405H80.7927V36.905H81.2927ZM81.5477 42.605L81.1941 42.9586L81.1995 42.9639L81.205 42.9691L81.5477 42.605ZM83.4377 42.845H83.9377V42.345H83.4377V42.845ZM83.4377 44V44.5H83.9377V44H83.4377ZM79.9277 36.905H80.4277V36.405H79.9277V36.905ZM78.8627 36.905H78.3627V37.405H78.8627V36.905ZM78.8627 35.78V35.28H78.3627V35.78H78.8627ZM79.9277 35.78V36.28H80.4277V35.78H79.9277ZM79.9277 33.71V33.21H79.4277V33.71H79.9277ZM81.2927 33.71H81.7927V33.21H81.2927V33.71ZM81.2927 35.78H80.7927V36.28H81.2927V35.78ZM83.4377 35.78H83.9377V35.28H83.4377V35.78ZM83.4377 36.905V37.405H83.9377V36.905H83.4377ZM80.7927 36.905V41.75H81.7927V36.905H80.7927ZM80.7927 41.75C80.7927 42.1993 80.8845 42.6489 81.1941 42.9586L81.9012 42.2514C81.8709 42.2211 81.7927 42.1007 81.7927 41.75H80.7927ZM81.205 42.9691C81.5181 43.2638 81.9774 43.345 82.4327 43.345V42.345C82.0479 42.345 81.9172 42.2662 81.8903 42.2409L81.205 42.9691ZM82.4327 43.345H83.4377V42.345H82.4327V43.345ZM82.9377 42.845V44H83.9377V42.845H82.9377ZM83.4377 43.5H82.2077V44.5H83.4377V43.5ZM82.2077 43.5C81.515 43.5 81.0887 43.3396 80.8364 43.1072L80.1589 43.8428C80.6666 44.3104 81.3803 44.5 82.2077 44.5V43.5ZM80.8364 43.1072C80.6041 42.8933 80.4277 42.486 80.4277 41.75H79.4277C79.4277 42.614 79.6312 43.3567 80.1589 43.8428L80.8364 43.1072ZM80.4277 41.75V36.905H79.4277V41.75H80.4277ZM79.9277 36.405H78.8627V37.405H79.9277V36.405ZM79.3627 36.905V35.78H78.3627V36.905H79.3627ZM78.8627 36.28H79.9277V35.28H78.8627V36.28ZM80.4277 35.78V33.71H79.4277V35.78H80.4277ZM79.9277 34.21H81.2927V33.21H79.9277V34.21ZM80.7927 33.71V35.78H81.7927V33.71H80.7927ZM81.2927 36.28H83.4377V35.28H81.2927V36.28ZM82.9377 35.78V36.905H83.9377V35.78H82.9377ZM83.4377 36.405H81.2927V37.405H83.4377V36.405ZM86.0215 36.02L86.4563 36.2669L86.4576 36.2646L86.0215 36.02ZM87.8965 34.1L87.6473 33.6665L87.6449 33.6679L87.8965 34.1ZM93.5365 34.235L93.8082 33.8152L93.5365 34.235ZM95.3965 36.575V37.075H96.1256L95.863 36.3949L95.3965 36.575ZM93.7615 36.575L93.3073 36.7841L93.4413 37.075H93.7615V36.575ZM92.5015 35.12L92.2351 35.5431L92.2386 35.5453L92.5015 35.12ZM88.5865 35.12L88.8394 35.5513L88.5865 35.12ZM87.2215 36.575L87.6629 36.8099L87.6644 36.807L87.2215 36.575ZM87.2215 40.955L86.7786 41.187L86.7801 41.1899L87.2215 40.955ZM88.5865 42.395L88.8394 41.9637L88.5865 42.395ZM92.5015 42.41L92.7623 42.8366L92.7644 42.8353L92.5015 42.41ZM93.7615 40.955V40.455H93.4413L93.3073 40.7459L93.7615 40.955ZM95.3965 40.955L95.8624 41.1367L96.1282 40.455H95.3965V40.955ZM93.5365 43.28L93.8046 43.702L93.8082 43.6998L93.5365 43.28ZM87.8965 43.415L87.6449 43.8471L87.6514 43.8508L87.8965 43.415ZM86.0215 41.51L86.4563 41.2631L86.0215 41.51ZM85.8315 38.765C85.8315 37.8231 86.043 36.9946 86.4563 36.2669L85.5867 35.7731C85.08 36.6654 84.8315 37.6669 84.8315 38.765H85.8315ZM86.4576 36.2646C86.8752 35.5201 87.4375 34.9459 88.1481 34.5321L87.6449 33.6679C86.7755 34.1741 86.0878 34.8799 85.5855 35.7754L86.4576 36.2646ZM88.1458 34.5335C88.866 34.1193 89.6643 33.91 90.5515 33.91V32.91C89.4987 32.91 88.527 33.1607 87.6473 33.6665L88.1458 34.5335ZM90.5515 33.91C91.6077 33.91 92.5057 34.1636 93.2649 34.6548L93.8082 33.8152C92.8673 33.2064 91.7754 32.91 90.5515 32.91V33.91ZM93.2649 34.6548C94.02 35.1434 94.5753 35.8363 94.9301 36.7551L95.863 36.3949C95.4377 35.2937 94.7531 34.4266 93.8082 33.8152L93.2649 34.6548ZM95.3965 36.075H93.7615V37.075H95.3965V36.075ZM94.2157 36.3659C93.8877 35.6534 93.4042 35.0902 92.7644 34.6947L92.2386 35.5453C92.6988 35.8298 93.0553 36.2366 93.3073 36.7841L94.2157 36.3659ZM92.7679 34.6969C92.134 34.2978 91.3876 34.11 90.5515 34.11V35.11C91.2355 35.11 91.789 35.2622 92.2351 35.5431L92.7679 34.6969ZM90.5515 34.11C89.7405 34.11 88.9969 34.2999 88.3337 34.6887L88.8394 35.5513C89.3362 35.2601 89.9025 35.11 90.5515 35.11V34.11ZM88.3337 34.6887C87.6681 35.0788 87.1494 35.6351 86.7786 36.343L87.6644 36.807C87.9536 36.2549 88.3449 35.8412 88.8394 35.5513L88.3337 34.6887ZM86.7801 36.3401C86.4048 37.0453 86.2265 37.8591 86.2265 38.765H87.2265C87.2265 37.9909 87.3783 37.3447 87.6629 36.8099L86.7801 36.3401ZM86.2265 38.765C86.2265 39.6623 86.4053 40.4743 86.7786 41.187L87.6644 40.723C87.3777 40.1757 87.2265 39.5277 87.2265 38.765H86.2265ZM86.7801 41.1899C87.1516 41.8878 87.6702 42.4374 88.3337 42.8263L88.8394 41.9637C88.3428 41.6726 87.9515 41.2622 87.6629 40.7201L86.7801 41.1899ZM88.3337 42.8263C88.9969 43.2151 89.7405 43.405 90.5515 43.405V42.405C89.9025 42.405 89.3362 42.2549 88.8394 41.9637L88.3337 42.8263ZM90.5515 43.405C91.3849 43.405 92.1293 43.2235 92.7622 42.8366L92.2408 41.9834C91.7938 42.2565 91.2381 42.405 90.5515 42.405V43.405ZM92.7644 42.8353C93.4042 42.4398 93.8877 41.8766 94.2157 41.1641L93.3073 40.7459C93.0553 41.2934 92.6988 41.7002 92.2386 41.9847L92.7644 42.8353ZM93.7615 41.455H95.3965V40.455H93.7615V41.455ZM94.9307 40.7733C94.5764 41.6818 94.0213 42.3708 93.2649 42.8602L93.8082 43.6998C94.7517 43.0892 95.4366 42.2282 95.8624 41.1367L94.9307 40.7733ZM93.2684 42.858C92.5088 43.3405 91.6095 43.59 90.5515 43.59V44.59C91.7736 44.59 92.8643 44.2995 93.8046 43.702L93.2684 42.858ZM90.5515 43.59C89.6623 43.59 88.8625 43.3847 88.1417 42.9792L87.6514 43.8508C88.5305 44.3453 89.5007 44.59 90.5515 44.59V43.59ZM88.1481 42.9829C87.436 42.5682 86.8735 41.9978 86.4563 41.2631L85.5867 41.7569C86.0895 42.6422 86.7771 43.3418 87.6449 43.8471L88.1481 42.9829ZM86.4563 41.2631C86.043 40.5354 85.8315 39.7069 85.8315 38.765H84.8315C84.8315 39.8631 85.08 40.8646 85.5867 41.7569L86.4563 41.2631ZM100.263 43.43L100.014 43.8635L100.018 43.8658L100.263 43.43ZM98.3584 41.525L97.9223 41.7697L97.926 41.7759L98.3584 41.525ZM98.3584 36.02L97.9246 35.7714L97.9237 35.7731L98.3584 36.02ZM100.263 34.115L100.509 34.5508L100.513 34.5485L100.263 34.115ZM105.588 34.115L105.339 34.5485L105.343 34.5508L105.588 34.115ZM107.478 36.005L107.913 35.7581V35.7581L107.478 36.005ZM105.588 43.43L105.834 43.8658L105.838 43.8635L105.588 43.43ZM104.883 42.41L104.634 41.9768L104.631 41.9787L104.883 42.41ZM106.263 40.955L105.823 40.7175L105.821 40.723L106.263 40.955ZM106.263 36.575L105.82 36.807L105.825 36.8154L106.263 36.575ZM104.898 35.12L104.646 35.5513L104.898 35.12ZM100.938 35.12L101.191 35.5513H101.191L100.938 35.12ZM99.5584 36.575L99.1184 36.3375L99.1171 36.3401L99.5584 36.575ZM99.5584 40.955L99.1155 41.187L99.1184 41.1925L99.5584 40.955ZM100.938 42.41L100.686 42.8414L100.689 42.8432L100.938 42.41ZM102.918 43.605C102.029 43.605 101.229 43.3997 100.509 42.9942L100.018 43.8658C100.897 44.3603 101.868 44.605 102.918 44.605V43.605ZM100.513 42.9965C99.7899 42.5809 99.2176 42.0094 98.7909 41.2741L97.926 41.7759C98.4393 42.6606 99.137 43.3591 100.014 43.8635L100.513 42.9965ZM98.7945 41.2804C98.3799 40.5414 98.1684 39.7068 98.1684 38.765H97.1684C97.1684 39.8632 97.4169 40.8686 97.9224 41.7696L98.7945 41.2804ZM98.1684 38.765C98.1684 37.8231 98.38 36.9946 98.7932 36.2669L97.9237 35.7731C97.4169 36.6654 97.1684 37.6669 97.1684 38.765H98.1684ZM98.7922 36.2686C99.2188 35.5245 99.7896 34.9552 100.509 34.5508L100.018 33.6792C99.1373 34.1748 98.4381 34.8755 97.9246 35.7714L98.7922 36.2686ZM100.513 34.5485C101.233 34.1343 102.031 33.925 102.918 33.925V32.925C101.866 32.925 100.894 33.1757 100.014 33.6815L100.513 34.5485ZM102.918 33.925C103.817 33.925 104.62 34.1348 105.339 34.5485L105.838 33.6815C104.957 33.1752 103.98 32.925 102.918 32.925V33.925ZM105.343 34.5508C106.063 34.9555 106.628 35.5197 107.044 36.2519L107.913 35.7581C107.409 34.8703 106.714 34.1745 105.834 33.6792L105.343 34.5508ZM107.044 36.2519C107.457 36.9789 107.668 37.8122 107.668 38.765H108.668C108.668 37.6578 108.42 36.6511 107.913 35.7581L107.044 36.2519ZM107.668 38.765C107.668 39.7178 107.457 40.5511 107.044 41.2781L107.913 41.7719C108.42 40.8789 108.668 39.8722 108.668 38.765H107.668ZM107.044 41.2781C106.627 42.0112 106.061 42.5815 105.339 42.9965L105.838 43.8635C106.716 43.3585 107.41 42.6588 107.913 41.7719L107.044 41.2781ZM105.343 42.9942C104.623 43.3993 103.819 43.605 102.918 43.605V44.605C103.978 44.605 104.954 44.3607 105.834 43.8658L105.343 42.9942ZM102.918 43.42C103.729 43.42 104.473 43.2301 105.136 42.8413L104.631 41.9787C104.134 42.2699 103.567 42.42 102.918 42.42V43.42ZM105.133 42.8432C105.809 42.4537 106.334 41.8971 106.706 41.187L105.821 40.723C105.532 41.2729 105.138 41.6863 104.634 41.9768L105.133 42.8432ZM106.703 41.1925C107.089 40.4786 107.273 39.6646 107.273 38.765H106.273C106.273 39.5254 106.118 40.1714 105.823 40.7175L106.703 41.1925ZM107.273 38.765C107.273 37.8567 107.089 37.041 106.702 36.3346L105.825 36.8154C106.118 37.349 106.273 37.9932 106.273 38.765H107.273ZM106.706 36.343C106.336 35.6351 105.817 35.0788 105.151 34.6887L104.646 35.5513C105.14 35.8412 105.531 36.2549 105.821 36.807L106.706 36.343ZM105.151 34.6887C104.487 34.2993 103.738 34.11 102.918 34.11V35.11C103.579 35.11 104.15 35.2607 104.646 35.5513L105.151 34.6887ZM102.918 34.11C102.099 34.11 101.35 34.2993 100.686 34.6887L101.191 35.5513C101.687 35.2607 102.258 35.11 102.918 35.11V34.11ZM100.686 34.6887C100.021 35.078 99.499 35.6324 99.1184 36.3375L99.9984 36.8125C100.298 36.2576 100.695 35.842 101.191 35.5513L100.686 34.6887ZM99.1171 36.3401C98.7417 37.0453 98.5634 37.8591 98.5634 38.765H99.5634C99.5634 37.9909 99.7152 37.3447 99.9998 36.8099L99.1171 36.3401ZM98.5634 38.765C98.5634 39.6623 98.7422 40.4743 99.1155 41.187L100.001 40.723C99.7147 40.1757 99.5634 39.5277 99.5634 38.765H98.5634ZM99.1184 41.1925C99.499 41.8976 100.021 42.452 100.686 42.8413L101.191 41.9787C100.695 41.688 100.298 41.2724 99.9984 40.7175L99.1184 41.1925ZM100.689 42.8432C101.36 43.2301 102.107 43.42 102.918 43.42V42.42C102.27 42.42 101.697 42.2699 101.188 41.9768L100.689 42.8432ZM110.33 42.905L110.017 42.5152L109.83 42.6653V42.905H110.33ZM113.315 40.4L113.65 40.7711L113.653 40.7686L113.315 40.4ZM115.13 38.345L114.72 38.0598L114.719 38.061L115.13 38.345ZM115.4 34.7L115.013 35.0161L115.018 35.0216L115.022 35.0271L115.4 34.7ZM112.295 34.775L111.921 34.4439L111.92 34.4445L112.295 34.775ZM111.695 36.47V36.97H112.175L112.195 36.4911L111.695 36.47ZM110.375 36.47L109.876 36.4522L109.857 36.97H110.375V36.47ZM111.395 33.875L111.74 34.2369L111.395 33.875ZM116.315 33.815L115.971 34.1775L115.974 34.1803L116.315 33.815ZM116.48 38.6L116.058 38.3326L116.057 38.334L116.48 38.6ZM114.8 40.67L115.142 41.035L115.145 41.0321L114.8 40.67ZM112.385 42.74L112.072 42.3507L110.968 43.24H112.385V42.74ZM117.545 42.74H118.045V42.24H117.545V42.74ZM117.545 43.88V44.38H118.045V43.88H117.545ZM110.33 43.88H109.83V44.38H110.33V43.88ZM110.644 43.2948C111.917 42.2723 112.92 41.4304 113.65 40.7711L112.98 40.0289C112.271 40.6696 111.284 41.4977 110.017 42.5152L110.644 43.2948ZM113.653 40.7686C114.397 40.0865 115.028 39.3736 115.542 38.629L114.719 38.061C114.253 38.7364 113.673 39.3935 112.978 40.0314L113.653 40.7686ZM115.541 38.6302C116.084 37.8491 116.38 37.0464 116.38 36.23H115.38C115.38 36.7936 115.177 37.4009 114.72 38.0598L115.541 38.6302ZM116.38 36.23C116.38 35.4999 116.2 34.86 115.779 34.3729L115.022 35.0271C115.241 35.28 115.38 35.6601 115.38 36.23H116.38ZM115.788 34.3839C115.347 33.8441 114.669 33.63 113.885 33.63V34.63C114.502 34.63 114.833 34.7959 115.013 35.0161L115.788 34.3839ZM113.885 33.63C113.091 33.63 112.413 33.8865 111.921 34.4439L112.67 35.1061C112.938 34.8035 113.32 34.63 113.885 34.63V33.63ZM111.92 34.4445C111.456 34.9713 111.229 35.656 111.196 36.4489L112.195 36.4911C112.221 35.864 112.395 35.4187 112.671 35.1055L111.92 34.4445ZM111.695 35.97H110.375V36.97H111.695V35.97ZM110.875 36.4878C110.912 35.4618 111.218 34.7344 111.74 34.2369L111.05 33.5131C110.292 34.2356 109.919 35.2382 109.876 36.4522L110.875 36.4878ZM111.74 34.2369C112.274 33.7283 112.969 33.46 113.87 33.46V32.46C112.752 32.46 111.797 32.8017 111.05 33.5131L111.74 34.2369ZM113.87 33.46C114.805 33.46 115.485 33.7161 115.971 34.1775L116.66 33.4525C115.945 32.7739 114.996 32.46 113.87 32.46V33.46ZM115.974 34.1803C116.463 34.6373 116.73 35.2788 116.73 36.17H117.73C117.73 35.0612 117.388 34.1327 116.657 33.4497L115.974 34.1803ZM116.73 36.17C116.73 36.8937 116.514 37.6122 116.058 38.3326L116.903 38.8674C117.447 38.0078 117.73 37.1063 117.73 36.17H116.73ZM116.057 38.334C115.588 39.0809 115.054 39.7382 114.456 40.3079L115.145 41.0321C115.807 40.4018 116.393 39.6791 116.904 38.866L116.057 38.334ZM114.459 40.3051C113.841 40.8837 113.046 41.5653 112.072 42.3507L112.699 43.1293C113.685 42.3347 114.5 41.6363 115.142 41.0349L114.459 40.3051ZM112.385 43.24H117.545V42.24H112.385V43.24ZM117.045 42.74V43.88H118.045V42.74H117.045ZM117.545 43.38H110.33V44.38H117.545V43.38ZM110.83 43.88V42.905H109.83V43.88H110.83ZM127.553 40.4V40.9H128.004L128.051 40.4514L127.553 40.4ZM120.983 40.4V39.9H120.452L120.484 40.4308L120.983 40.4ZM121.808 42.305L121.47 42.673L121.478 42.6799L121.808 42.305ZM125.123 42.575L125.408 42.9861L125.41 42.9846L125.123 42.575ZM125.963 41.465V40.965H125.608L125.491 41.3007L125.963 41.465ZM127.433 41.465L127.915 41.5991L128.092 40.965H127.433V41.465ZM126.113 43.4L126.411 43.8015L126.415 43.7985L126.113 43.4ZM121.553 43.61L121.305 44.0437L121.308 44.0454L121.553 43.61ZM120.113 42.125L119.673 42.3621L119.675 42.3649L120.113 42.125ZM120.098 37.64L120.54 37.8746L120.098 37.64ZM121.523 36.17L121.767 36.6067L121.769 36.6054L121.523 36.17ZM125.723 36.155L125.477 36.59V36.59L125.723 36.155ZM127.103 37.565L126.662 37.8003L126.667 37.8091L127.103 37.565ZM126.188 39.29V39.79H126.688V39.29H126.188ZM125.843 37.955L125.416 38.2139L125.419 38.219L125.843 37.955ZM124.898 37.1L124.67 37.5449L124.677 37.5484L124.684 37.5516L124.898 37.1ZM121.823 37.46L121.489 37.088L121.485 37.0914L121.823 37.46ZM120.998 39.29L120.5 39.2453L120.451 39.79H120.998V39.29ZM127.098 39.575C127.098 39.8159 127.084 40.0736 127.056 40.3485L128.051 40.4514C128.082 40.1464 128.098 39.8541 128.098 39.575H127.098ZM127.553 39.9H120.983V40.9H127.553V39.9ZM120.484 40.4308C120.541 41.343 120.857 42.1089 121.47 42.673L122.147 41.937C121.76 41.5811 121.526 41.077 121.482 40.3692L120.484 40.4308ZM121.478 42.6799C122.085 43.2155 122.819 43.48 123.653 43.48V42.48C123.047 42.48 122.552 42.2945 122.139 41.9301L121.478 42.6799ZM123.653 43.48C124.32 43.48 124.916 43.3267 125.408 42.9861L124.839 42.1639C124.551 42.3633 124.167 42.48 123.653 42.48V43.48ZM125.41 42.9846C125.896 42.6445 126.241 42.1888 126.436 41.6293L125.491 41.3007C125.366 41.6612 125.151 41.9455 124.837 42.1654L125.41 42.9846ZM125.963 41.965H127.433V40.965H125.963V41.965ZM126.952 41.3309C126.761 42.0143 126.385 42.5668 125.811 43.0015L126.415 43.7985C127.162 43.2332 127.665 42.4957 127.915 41.5991L126.952 41.3309ZM125.815 42.9985C125.257 43.413 124.547 43.635 123.653 43.635V44.635C124.719 44.635 125.65 44.367 126.411 43.8015L125.815 42.9985ZM123.653 43.635C122.951 43.635 122.337 43.4783 121.799 43.1746L121.308 44.0454C122.01 44.4417 122.796 44.635 123.653 44.635V43.635ZM121.802 43.1763C121.275 42.8739 120.86 42.4474 120.552 41.8851L119.675 42.3649C120.067 43.0826 120.612 43.6461 121.305 44.0437L121.802 43.1763ZM120.554 41.8879C120.248 41.3212 120.088 40.6549 120.088 39.875H119.088C119.088 40.7951 119.278 41.6288 119.673 42.3621L120.554 41.8879ZM120.088 39.875C120.088 39.0926 120.244 38.4308 120.54 37.8746L119.657 37.4054C119.272 38.1292 119.088 38.9574 119.088 39.875H120.088ZM120.54 37.8746C120.837 37.3163 121.244 36.898 121.767 36.6067L121.28 35.7333C120.583 36.122 120.04 36.6837 119.657 37.4054L120.54 37.8746ZM121.769 36.6054C122.305 36.3028 122.929 36.145 123.653 36.145V35.145C122.778 35.145 121.981 35.3372 121.278 35.7346L121.769 36.6054ZM123.653 36.145C124.358 36.145 124.961 36.2979 125.477 36.59L125.97 35.72C125.285 35.3321 124.508 35.145 123.653 35.145V36.145ZM125.477 36.59C125.996 36.884 126.387 37.2852 126.662 37.8003L127.545 37.3297C127.179 36.6448 126.651 36.106 125.97 35.72L125.477 36.59ZM126.667 37.8091C126.951 38.3166 127.098 38.9009 127.098 39.575H128.098C128.098 38.7491 127.916 37.9934 127.54 37.3209L126.667 37.8091ZM126.688 39.29C126.688 38.6949 126.556 38.1544 126.268 37.691L125.419 38.219C125.591 38.4956 125.688 38.8451 125.688 39.29H126.688ZM126.271 37.6961C125.991 37.2326 125.602 36.8805 125.113 36.6484L124.684 37.5516C124.995 37.6995 125.236 37.9174 125.416 38.2139L126.271 37.6961ZM125.127 36.6551C124.659 36.4155 124.145 36.3 123.593 36.3V37.3C124.002 37.3 124.357 37.3845 124.67 37.5449L125.127 36.6551ZM123.593 36.3C122.786 36.3 122.076 36.5614 121.489 37.088L122.157 37.832C122.551 37.4786 123.02 37.3 123.593 37.3V36.3ZM121.485 37.0914C120.896 37.6321 120.579 38.3677 120.5 39.2453L121.496 39.3347C121.558 38.6523 121.791 38.1679 122.161 37.8286L121.485 37.0914ZM120.998 39.79H126.188V38.79H120.998V39.79Z" fill="black"/>
<path d="M198.373 41.057H196.456V43.001H195.691V41.057H193.783V40.364H195.691V38.411H196.456V40.364H198.373V41.057ZM199.936 38.24V37.493H201.628V44H200.8V38.24H199.936ZM203.88 44.054C203.724 44.054 203.592 44 203.484 43.892C203.376 43.784 203.322 43.652 203.322 43.496C203.322 43.34 203.376 43.208 203.484 43.1C203.592 42.992 203.724 42.938 203.88 42.938C204.03 42.938 204.156 42.992 204.258 43.1C204.366 43.208 204.42 43.34 204.42 43.496C204.42 43.652 204.366 43.784 204.258 43.892C204.156 44 204.03 44.054 203.88 44.054ZM209.973 38.204H206.814V40.256C206.952 40.064 207.156 39.908 207.426 39.788C207.696 39.662 207.987 39.599 208.299 39.599C208.797 39.599 209.202 39.704 209.514 39.914C209.826 40.118 210.048 40.385 210.18 40.715C210.318 41.039 210.387 41.384 210.387 41.75C210.387 42.182 210.306 42.569 210.144 42.911C209.982 43.253 209.733 43.523 209.397 43.721C209.067 43.919 208.656 44.018 208.164 44.018C207.534 44.018 207.024 43.856 206.634 43.532C206.244 43.208 206.007 42.776 205.923 42.236H206.724C206.802 42.578 206.967 42.845 207.219 43.037C207.471 43.229 207.789 43.325 208.173 43.325C208.647 43.325 209.004 43.184 209.244 42.902C209.484 42.614 209.604 42.236 209.604 41.768C209.604 41.3 209.484 40.94 209.244 40.688C209.004 40.43 208.65 40.301 208.182 40.301C207.864 40.301 207.585 40.379 207.345 40.535C207.111 40.685 206.94 40.892 206.832 41.156H206.058V37.484H209.973V38.204ZM211.745 38.96C211.745 38.552 211.868 38.228 212.114 37.988C212.36 37.742 212.675 37.619 213.059 37.619C213.443 37.619 213.758 37.742 214.004 37.988C214.25 38.228 214.373 38.552 214.373 38.96C214.373 39.374 214.25 39.704 214.004 39.95C213.758 40.19 213.443 40.31 213.059 40.31C212.675 40.31 212.36 40.19 212.114 39.95C211.868 39.704 211.745 39.374 211.745 38.96ZM217.001 37.718L213.356 44H212.546L216.191 37.718H217.001ZM213.059 38.123C212.855 38.123 212.693 38.195 212.573 38.339C212.459 38.477 212.402 38.684 212.402 38.96C212.402 39.236 212.459 39.446 212.573 39.59C212.693 39.734 212.855 39.806 213.059 39.806C213.263 39.806 213.425 39.734 213.545 39.59C213.665 39.44 213.725 39.23 213.725 38.96C213.725 38.684 213.665 38.477 213.545 38.339C213.425 38.195 213.263 38.123 213.059 38.123ZM215.192 42.758C215.192 42.344 215.315 42.017 215.561 41.777C215.807 41.531 216.122 41.408 216.506 41.408C216.89 41.408 217.202 41.531 217.442 41.777C217.688 42.017 217.811 42.344 217.811 42.758C217.811 43.166 217.688 43.493 217.442 43.739C217.202 43.985 216.89 44.108 216.506 44.108C216.122 44.108 215.807 43.988 215.561 43.748C215.315 43.502 215.192 43.172 215.192 42.758ZM216.497 41.921C216.293 41.921 216.131 41.993 216.011 42.137C215.891 42.275 215.831 42.482 215.831 42.758C215.831 43.028 215.891 43.235 216.011 43.379C216.131 43.517 216.293 43.586 216.497 43.586C216.701 43.586 216.863 43.517 216.983 43.379C217.103 43.235 217.163 43.028 217.163 42.758C217.163 42.482 217.103 42.275 216.983 42.137C216.863 41.993 216.701 41.921 216.497 41.921Z" fill="black"/>
<path d="M14.293 28.5827L18.9745 23.9011C19.3574 23.5184 19.8766 23.3034 20.418 23.3034C20.9593 23.3034 21.4786 23.5184 21.8614 23.9011L25.0995 27.1392C25.4824 27.522 26.0016 27.737 26.543 27.737C27.0843 27.737 27.6036 27.522 27.9864 27.1392L34.7096 20.416M34.7096 20.416V25.5202M34.7096 20.416H29.6055" stroke="black" stroke-width="2.5" stroke-linecap="round" stroke-linejoin="round"/>
<path d="M44.9173 24.4997C44.9173 34.1241 44.9173 38.9363 41.9263 41.9253C38.9393 44.9163 34.1251 44.9163 24.5006 44.9163C14.8762 44.9163 10.064 44.9163 7.07298 41.9253C4.08398 38.9383 4.08398 34.1241 4.08398 24.4997C4.08398 14.8753 4.08398 10.063 7.07298 7.07201C10.0661 4.08301 14.8762 4.08301 24.5006 4.08301C34.1251 4.08301 38.9373 4.08301 41.9263 7.07201C43.9149 9.06059 44.5804 11.8556 44.805 16.333" stroke="black" stroke-width="2.5" stroke-linecap="round"/>
</svg>
