<svg width="20" height="21" viewBox="0 0 20 21" fill="none" xmlns="http://www.w3.org/2000/svg">
<path fill-rule="evenodd" clip-rule="evenodd" d="M11.9994 7.5C11.7342 7.5 11.4799 7.39464 11.2923 7.20711C11.1048 7.01957 10.9994 6.76522 10.9994 6.5C10.9994 6.23478 11.1048 5.98043 11.2923 5.79289C11.4799 5.60536 11.7342 5.5 11.9994 5.5H16.9994C17.2646 5.5 17.519 5.60536 17.7065 5.79289C17.8941 5.98043 17.9994 6.23478 17.9994 6.5V11.5C17.9994 11.7652 17.8941 12.0196 17.7065 12.2071C17.519 12.3946 17.2646 12.5 16.9994 12.5C16.7342 12.5 16.4799 12.3946 16.2923 12.2071C16.1048 12.0196 15.9994 11.7652 15.9994 11.5V8.914L11.7064 13.207C11.5189 13.3945 11.2646 13.4998 10.9994 13.4998C10.7343 13.4998 10.48 13.3945 10.2924 13.207L7.99943 10.914L3.70643 15.207C3.51783 15.3892 3.26523 15.49 3.00303 15.4877C2.74083 15.4854 2.49002 15.3802 2.30461 15.1948C2.1192 15.0094 2.01403 14.7586 2.01176 14.4964C2.00948 14.2342 2.11027 13.9816 2.29243 13.793L7.29243 8.793C7.47996 8.60553 7.73427 8.50021 7.99943 8.50021C8.2646 8.50021 8.5189 8.60553 8.70643 8.793L10.9994 11.086L14.5854 7.5H11.9994Z" fill="#9B1C1C"/>
</svg>
