<svg width="24" height="24" viewBox="0 0 24 24" fill="none" xmlns="http://www.w3.org/2000/svg">
<path d="M15.5992 7.2001C15.5992 8.15488 15.2199 9.07055 14.5448 9.74568C13.8697 10.4208 12.954 10.8001 11.9992 10.8001C11.0444 10.8001 10.1288 10.4208 9.45364 9.74568C8.7785 9.07055 8.39922 8.15488 8.39922 7.2001C8.39922 6.24532 8.7785 5.32964 9.45364 4.65451C10.1288 3.97938 11.0444 3.6001 11.9992 3.6001C12.954 3.6001 13.8697 3.97938 14.5448 4.65451C15.2199 5.32964 15.5992 6.24532 15.5992 7.2001ZM21.5992 9.6001C21.5992 10.2366 21.3464 10.8471 20.8963 11.2972C20.4462 11.7472 19.8357 12.0001 19.1992 12.0001C18.5627 12.0001 17.9523 11.7472 17.5022 11.2972C17.0521 10.8471 16.7992 10.2366 16.7992 9.6001C16.7992 8.96358 17.0521 8.35313 17.5022 7.90304C17.9523 7.45295 18.5627 7.2001 19.1992 7.2001C19.8357 7.2001 20.4462 7.45295 20.8963 7.90304C21.3464 8.35313 21.5992 8.96358 21.5992 9.6001ZM16.7992 18.0001C16.7992 16.7271 16.2935 15.5062 15.3933 14.606C14.4932 13.7058 13.2723 13.2001 11.9992 13.2001C10.7262 13.2001 9.50528 13.7058 8.60511 14.606C7.70493 15.5062 7.19922 16.7271 7.19922 18.0001V21.6001H16.7992V18.0001ZM7.19922 9.6001C7.19922 10.2366 6.94636 10.8471 6.49628 11.2972C6.04619 11.7472 5.43574 12.0001 4.79922 12.0001C4.1627 12.0001 3.55225 11.7472 3.10216 11.2972C2.65208 10.8471 2.39922 10.2366 2.39922 9.6001C2.39922 8.96358 2.65208 8.35313 3.10216 7.90304C3.55225 7.45295 4.1627 7.2001 4.79922 7.2001C5.43574 7.2001 6.04619 7.45295 6.49628 7.90304C6.94636 8.35313 7.19922 8.96358 7.19922 9.6001ZM19.1992 21.6001V18.0001C19.201 16.78 18.8912 15.5797 18.2992 14.5129C18.8312 14.3767 19.3873 14.3639 19.9251 14.4754C20.4628 14.5868 20.968 14.8196 21.402 15.156C21.8361 15.4924 22.1876 15.9235 22.4298 16.4164C22.6719 16.9092 22.7983 17.4509 22.7992 18.0001V21.6001H19.1992ZM5.69922 14.5129C5.10732 15.5798 4.79754 16.78 4.79922 18.0001V21.6001H1.19922V18.0001C1.19899 17.4505 1.32457 16.9082 1.56636 16.4147C1.80814 15.9212 2.15969 15.4896 2.59408 15.153C3.02847 14.8164 3.53416 14.5837 4.07239 14.4727C4.61063 14.3618 5.16712 14.3755 5.69922 14.5129Z" fill="#A7B3A7"/>
</svg>
