<svg width="59" height="58" viewBox="0 0 59 58" fill="none" xmlns="http://www.w3.org/2000/svg">
<path id="Vector" d="M59 6.72188V51.3679C59 54.729 56.1685 57.4559 52.6786 57.4559H20.3339C21.6246 55.3758 23.2839 52.3825 23.9424 49.9346C24.3375 48.476 25.9574 42.5274 25.9574 42.5274C27.0109 44.468 30.0926 46.1042 33.3719 46.1042C43.1306 46.1042 50.15 37.4667 50.15 26.7365C50.15 16.4501 41.4317 8.75124 30.2112 8.75124C16.2513 8.75124 8.85 17.7692 8.85 27.5989C8.85 32.165 11.3786 37.8472 15.4085 39.661C16.0275 39.94 16.3435 39.8132 16.4884 39.2424C16.5938 38.8112 17.1469 36.693 17.3839 35.7164C17.4629 35.3993 17.4234 35.1329 17.16 34.8285C15.8299 33.2685 14.75 30.402 14.75 27.7258C14.75 20.8513 20.1496 14.2052 29.3551 14.2052C37.2964 14.2052 42.8672 19.4181 42.8672 26.876C42.8672 35.2978 38.4554 41.1323 32.7002 41.1323C29.5263 41.1323 27.1558 38.6082 27.9065 35.5008C28.8152 31.7972 30.5799 27.8019 30.5799 25.1257C30.5799 18.4034 20.6368 19.3293 20.6368 28.2965C20.6368 31.0489 21.5982 32.926 21.5982 32.926C17.4629 49.7697 16.844 49.9853 17.7 57.3545L17.9897 57.4559H6.32143C2.83147 57.4559 0 54.729 0 51.3679V6.72188C0 3.36074 2.83147 0.633789 6.32143 0.633789H52.6786C56.1685 0.633789 59 3.36074 59 6.72188Z" fill="#EA4335"/>
</svg>
