<svg width="49" height="48" viewBox="0 0 49 48" fill="none" xmlns="http://www.w3.org/2000/svg">
<path id="Vector" d="M47.04 0.413086H1.96C0.875875 0.413086 0 1.25663 0 2.30074V45.7167C0 46.7608 0.875875 47.6044 1.96 47.6044H47.04C48.1241 47.6044 49 46.7608 49 45.7167V2.30074C49 1.25663 48.1241 0.413086 47.04 0.413086ZM41.3805 14.187H37.4666C34.398 14.187 33.8039 15.591 33.8039 17.6556V22.2037H41.1294L40.1739 29.3236H33.8039V47.6044H26.166V29.3295H19.7776V22.2037H26.166V16.9536C26.166 10.8601 30.0309 7.53897 35.6781 7.53897C38.3854 7.53897 40.7068 7.73363 41.3866 7.82212V14.187H41.3805Z" fill="#1877F2"/>
</svg>
