<svg width="44" height="35" viewBox="0 0 44 35" fill="none" xmlns="http://www.w3.org/2000/svg">
<path id="Vector" d="M39.4954 8.78545C39.5223 9.16165 39.5223 9.53784 39.5223 9.91759C39.5223 21.4848 30.4416 34.8254 13.8373 34.8254V34.8183C8.93204 34.8252 4.12843 33.4629 0 30.894C0.713289 30.9772 1.43 31.0187 2.14867 31.0203C6.21418 31.0234 10.1627 29.7011 13.3599 27.2657C11.4762 27.2312 9.65068 26.6267 8.13863 25.5367C6.62658 24.4468 5.50354 22.9259 4.92653 21.1866C6.27899 21.4395 7.67325 21.3879 9.00191 21.0359C4.79062 20.2107 1.76073 16.6225 1.76073 12.4552V12.3443C3.01618 13.0224 4.42122 13.3981 5.85762 13.4399C1.89127 10.8691 0.668556 5.75194 3.06362 1.75104C5.32994 4.45552 8.15758 6.66743 11.3629 8.24309C14.5682 9.81874 18.0794 10.7229 21.6685 10.8968C21.3107 9.40305 21.3635 7.84434 21.8218 6.37658C22.2801 4.90882 23.1277 3.58347 24.2799 2.53307C27.9158 -0.781343 33.6341 -0.61138 37.0519 2.91258C39.0735 2.52553 41.0121 1.80684 42.7844 0.787442C42.1105 2.81436 40.7002 4.53487 38.8161 5.62892C40.6056 5.42447 42.3531 4.95994 44 4.25095C42.7885 6.01032 41.2631 7.54573 39.4954 8.78545Z" fill="white"/>
</svg>
