<svg width="121" height="31" viewBox="0 0 121 31" fill="none" xmlns="http://www.w3.org/2000/svg">
<path d="M9.53613 27.1305V15.5218C9.53613 14.3286 9.74707 13.1831 10.1314 12.1204C8.31017 10.3928 5.83947 9.33008 3.12023 9.33008H0V20.4664C0 26.2832 4.75554 31 10.6201 31H13.2641V27.0766C12.907 27.1118 12.5457 27.1305 12.1802 27.1305H9.53613Z" fill="#123726"/>
<path d="M19.6795 5.46045C15.2811 5.46045 11.5364 8.23833 10.1309 12.1203C12.0606 13.9515 13.2636 16.5326 13.2636 19.3913V27.0765C18.6206 26.5379 22.7998 22.0511 22.7998 16.5968V5.46045H19.6795Z" fill="#3B5C53"/>
<path d="M10.1323 12.1204C9.74804 13.183 9.53711 14.3286 9.53711 15.5218V27.1304H12.1812C12.5466 27.1304 12.908 27.1118 13.2651 27.0766V19.3913C13.2651 16.5327 12.0642 13.9516 10.1323 12.1204Z" fill="#3B5C53"/>
<path d="M9.53732 8.61329C11.9353 8.61329 13.8793 6.68514 13.8793 4.30664C13.8793 1.92815 11.9353 0 9.53732 0C7.1393 0 5.19531 1.92815 5.19531 4.30664C5.19531 6.68514 7.1393 8.61329 9.53732 8.61329Z" fill="#123726"/>
<path d="M35.6319 26.2314C34.7714 26.2314 33.9465 26.0968 33.157 25.8296C32.3676 25.5603 31.6742 25.175 31.081 24.6716C30.4879 24.1682 30.0618 23.5634 29.8008 22.857L32.3488 21.9289C32.4532 22.2231 32.6641 22.4924 32.9837 22.7348C33.3032 22.9771 33.6917 23.1718 34.1511 23.3189C34.6106 23.466 35.1035 23.5406 35.6319 23.5406C36.1728 23.5406 36.6803 23.4577 37.1502 23.292C37.6222 23.1263 38.0024 22.8943 38.2906 22.596C38.5788 22.2977 38.725 21.9497 38.725 21.5519C38.725 21.148 38.5725 20.8145 38.2697 20.5535C37.9648 20.2925 37.5763 20.0853 37.1022 19.9299C36.6281 19.7746 36.1373 19.6586 35.634 19.5757C34.5292 19.4059 33.5371 19.1448 32.662 18.7927C31.787 18.4405 31.0957 17.9496 30.5861 17.324C30.0786 16.6984 29.8238 15.8885 29.8238 14.8962C29.8238 13.962 30.0953 13.1458 30.6362 12.4456C31.1771 11.7475 31.8893 11.2027 32.7727 10.8112C33.6562 10.4218 34.6085 10.2271 35.6319 10.2271C36.484 10.2271 37.309 10.3596 38.1026 10.6248C38.8962 10.8899 39.5917 11.2752 40.189 11.7827C40.7863 12.2903 41.2145 12.9014 41.4735 13.614L38.915 14.5296C38.8106 14.2354 38.5997 13.9661 38.2801 13.7237C37.9606 13.4814 37.5721 13.2887 37.1127 13.1437C36.6532 13.0008 36.1603 12.9283 35.6319 12.9283C35.1056 12.9221 34.6064 13.0029 34.1344 13.1769C33.6624 13.3509 33.2802 13.5829 32.9837 13.877C32.6871 14.1712 32.5388 14.5109 32.5388 14.8921C32.5388 15.3851 32.6787 15.7559 32.9565 16.0065C33.2343 16.2572 33.6081 16.4395 34.076 16.5534C34.5438 16.6673 35.0617 16.773 35.634 16.8683C36.672 17.0298 37.6327 17.3033 38.5161 17.6844C39.3996 18.0677 40.1076 18.5773 40.6422 19.2132C41.1769 19.8492 41.4442 20.628 41.4442 21.5478C41.4442 22.482 41.1769 23.3003 40.6422 24.0046C40.1076 24.7068 39.3996 25.2537 38.5161 25.6431C37.6306 26.0367 36.6699 26.2314 35.6319 26.2314Z" fill="#123726"/>
<path d="M54.6831 14.9088V25.9457H51.968L51.8448 24.5764C51.5399 25.0694 51.1389 25.4692 50.6376 25.7738C50.1364 26.0783 49.5453 26.2316 48.8624 26.2316C48.0395 26.2316 47.2668 26.0762 46.5483 25.7675C45.8278 25.4589 45.1971 25.0322 44.652 24.4874C44.1069 23.9426 43.6808 23.3128 43.3717 22.6002C43.0647 21.8876 42.9102 21.1212 42.9102 20.305C42.9102 19.5178 43.0564 18.7783 43.3487 18.0864C43.6411 17.3946 44.0526 16.7876 44.5789 16.2656C45.1052 15.7436 45.7129 15.3355 46.4042 15.0413C47.0934 14.7472 47.8349 14.6001 48.6306 14.6001C49.3657 14.6001 50.0236 14.7617 50.6063 15.0848C51.189 15.408 51.684 15.8202 52.0912 16.3215M48.7956 23.638C49.3741 23.638 49.8858 23.4951 50.3306 23.2072C50.7755 22.9192 51.1243 22.5319 51.377 22.043C51.6297 21.5541 51.755 21.0155 51.755 20.4251C51.755 19.8286 51.6297 19.2858 51.377 18.797C51.1243 18.3081 50.7734 17.9186 50.3244 17.6328C49.8753 17.3469 49.3657 17.2019 48.7935 17.2019C48.2212 17.2019 47.7012 17.3469 47.2292 17.6369C46.7572 17.9269 46.3833 18.3164 46.1056 18.8011C45.8278 19.2858 45.6879 19.8286 45.6879 20.4231C45.6879 21.0197 45.8278 21.5603 46.1098 22.0451C46.3917 22.5298 46.7676 22.9172 47.2396 23.203C47.7137 23.4951 48.2317 23.638 48.7956 23.638Z" fill="#123726"/>
<path d="M67.7905 14.9088V25.9457H65.0754L64.9522 24.5764C64.6473 25.0694 64.2463 25.4692 63.7451 25.7738C63.2438 26.0783 62.6528 26.2316 61.9698 26.2316C61.147 26.2316 60.3742 26.0762 59.6558 25.7675C58.9352 25.4589 58.3045 25.0322 57.7594 24.4874C57.2143 23.9426 56.7882 23.3128 56.4791 22.6002C56.1721 21.8876 56.0176 21.1212 56.0176 20.305C56.0176 19.5178 56.1638 18.7783 56.4562 18.0864C56.7486 17.3946 57.16 16.7876 57.6863 16.2656C58.2126 15.7436 58.8204 15.3355 59.5116 15.0413C60.2009 14.7472 60.9423 14.6001 61.738 14.6001C62.4732 14.6001 63.131 14.7617 63.7137 15.0848C64.2964 15.408 64.7914 15.8202 65.1987 16.3215M61.9051 23.638C62.4836 23.638 62.9953 23.4951 63.4401 23.2072C63.885 22.9192 64.2338 22.5319 64.4865 22.043C64.7392 21.5541 64.8645 21.0155 64.8645 20.4251C64.8645 19.8286 64.7392 19.2858 64.4865 18.797C64.2338 18.3081 63.8829 17.9186 63.436 17.6328C62.9869 17.3469 62.4773 17.2019 61.9051 17.2019C61.3328 17.2019 60.8128 17.3469 60.3408 17.6369C59.8688 17.9269 59.4949 18.3164 59.2172 18.8011C58.9394 19.2858 58.7995 19.8286 58.7995 20.4231C58.7995 21.0197 58.9394 21.5603 59.2213 22.0451C59.5033 22.5298 59.8792 22.9172 60.3512 23.203C60.8232 23.4951 61.3412 23.638 61.9051 23.638Z" fill="#123726"/>
<path d="M75.6241 26.2314C74.7636 26.2314 73.9387 26.0968 73.1492 25.8296C72.3597 25.5603 71.6664 25.175 71.0732 24.6716C70.4801 24.1682 70.054 23.5634 69.793 22.857L72.341 21.9289C72.4454 22.2231 72.6563 22.4924 72.9759 22.7348C73.2954 22.9771 73.6839 23.1718 74.1433 23.3189C74.6028 23.466 75.0957 23.5406 75.6241 23.5406C76.165 23.5406 76.6725 23.4577 77.1424 23.292C77.6144 23.1263 77.9945 22.8943 78.2828 22.596C78.5731 22.2977 78.7172 21.9497 78.7172 21.5519C78.7172 21.148 78.5647 20.8145 78.2619 20.5535C77.957 20.2925 77.5685 20.0853 77.0944 19.9299C76.6203 19.7746 76.1295 19.6586 75.6262 19.5757C74.5214 19.4059 73.5293 19.1448 72.6542 18.7927C71.7791 18.4405 71.0878 17.9496 70.5782 17.324C70.0707 16.6984 69.816 15.8885 69.816 14.8962C69.816 13.962 70.0874 13.1458 70.6284 12.4456C71.1693 11.7475 71.8815 11.2027 72.7649 10.8112C73.6484 10.4218 74.6007 10.2271 75.6241 10.2271C76.4762 10.2271 77.3012 10.3596 78.0948 10.6248C78.8884 10.8899 79.5839 11.2752 80.1812 11.7827C80.7785 12.2903 81.2067 12.9014 81.4656 13.614L78.9051 14.5296C78.8007 14.2354 78.5898 13.9661 78.2702 13.7237C77.9507 13.4814 77.5622 13.2887 77.1027 13.1437C76.6433 13.0008 76.1483 12.9283 75.622 12.9283C75.0957 12.9221 74.5965 13.0029 74.1245 13.1769C73.6525 13.3509 73.2703 13.5829 72.9738 13.877C72.6772 14.1712 72.5289 14.5109 72.5289 14.8921C72.5289 15.3851 72.6689 15.7559 72.9466 16.0065C73.2244 16.2572 73.5982 16.4395 74.0661 16.5534C74.5339 16.6673 75.0518 16.773 75.6241 16.8683C76.6621 17.0298 77.6228 17.3033 78.5062 17.6844C79.3897 18.0677 80.0977 18.5773 80.6323 19.2132C81.167 19.8492 81.4343 20.628 81.4343 21.5478C81.4343 22.482 81.167 23.3003 80.6323 24.0046C80.0977 24.7068 79.3897 25.2537 78.5062 25.6431C77.6228 26.0367 76.6621 26.2314 75.6241 26.2314Z" fill="#123726"/>
<path d="M89.624 17.6014H87.4645V25.9454H84.7494V17.6014H83.1016V14.9085H84.7494V11.4429H87.4645V14.9085H89.624V17.6014Z" fill="#123726"/>
<path d="M102.488 14.9088V25.9457H99.7727L99.6495 24.5764C99.3446 25.0694 98.9436 25.4692 98.4423 25.7738C97.9411 26.0783 97.35 26.2316 96.6671 26.2316C95.8442 26.2316 95.0715 26.0762 94.353 25.7675C93.6325 25.4589 93.0018 25.0322 92.4567 24.4874C91.9116 23.9426 91.4855 23.3128 91.1764 22.6002C90.8694 21.8876 90.7148 21.1212 90.7148 20.305C90.7148 19.5178 90.861 18.7783 91.1534 18.0864C91.4458 17.3946 91.8573 16.7876 92.3836 16.2656C92.9099 15.7436 93.5176 15.3355 94.2089 15.0413C94.8981 14.7472 95.6395 14.6001 96.4353 14.6001C97.1704 14.6001 97.8283 14.7617 98.411 15.0848C98.9937 15.408 99.4887 15.8202 99.8959 16.3215M96.6003 23.638C97.1788 23.638 97.6905 23.4951 98.1353 23.2072C98.5802 22.9192 98.9289 22.5319 99.1817 22.043C99.4344 21.5541 99.5597 21.0155 99.5597 20.4251C99.5597 19.8286 99.4344 19.2858 99.1817 18.797C98.9289 18.3081 98.5781 17.9186 98.129 17.6328C97.68 17.3469 97.1704 17.2019 96.5982 17.2019C96.0259 17.2019 95.5059 17.3469 95.0339 17.6369C94.5619 17.9269 94.188 18.3164 93.9103 18.8011C93.6325 19.2858 93.4926 19.8286 93.4926 20.4231C93.4926 21.0197 93.6325 21.5603 93.9144 22.0451C94.1964 22.5298 94.5723 22.9172 95.0443 23.203C95.5205 23.4951 96.0364 23.638 96.6003 23.638Z" fill="#123726"/>
<path d="M104.713 14.9087H107.428V25.9456H104.713V14.9087Z" fill="#123726"/>
<path d="M120.202 18.9686V25.9434H117.487V19.675C117.487 19.24 117.378 18.8464 117.163 18.488C116.948 18.1317 116.66 17.848 116.3 17.6387C115.941 17.4295 115.542 17.3239 115.104 17.3239C114.665 17.3239 114.268 17.4295 113.907 17.6387C113.548 17.848 113.262 18.1317 113.051 18.488C112.84 18.8443 112.733 19.24 112.733 19.675V25.9434H110.018L110.008 14.9064H112.723L112.733 15.8883C113.111 15.4906 113.565 15.1757 114.091 14.9437C114.617 14.7117 115.185 14.5957 115.793 14.5957C116.601 14.5957 117.341 14.7925 118.007 15.1861C118.675 15.5797 119.208 16.1058 119.604 16.7646C120.003 17.4254 120.202 18.1608 120.202 18.9686Z" fill="#123726"/>
<path d="M107.746 13.3157C108.761 10.9024 110.456 9.11466 112.236 7.3746C111.459 7.69569 110.812 8.20527 110.239 8.79358C109.667 9.38396 109.12 10.0095 108.639 10.6745C108.153 11.3457 107.758 12.0852 107.271 12.8786C107.013 11.8988 107.004 10.9914 107.169 10.0924C107.551 8.0002 108.917 6.67858 110.751 5.76712C112.48 4.90745 114.335 4.48279 116.252 4.30257C116.359 4.29222 116.465 4.3005 116.668 4.3005C116.542 5.22232 116.457 6.11306 116.292 6.98931C116.031 8.36685 115.611 9.69054 114.859 10.9024C114.197 11.9692 113.228 12.6031 112.077 12.9966C110.847 13.4151 109.569 13.5104 108.276 13.4254C108.124 13.4172 107.975 13.3654 107.746 13.3157Z" fill="#123726"/>
<path d="M101.237 10.3223C102.713 11.0846 104.144 11.907 105.192 13.2866C102.697 14.2146 100.387 13.908 99.1316 11.329C98.787 10.6185 98.5322 9.86653 98.2377 9.13115C98.1333 8.87014 98.1981 8.7272 98.5072 8.69613C100.097 8.53663 101.661 8.5677 103.173 9.16222C104.524 9.69252 105.462 11.0328 105.487 12.487C105.489 12.5595 105.468 12.632 105.441 12.8143C104.192 11.6397 102.931 10.6143 101.237 10.3223Z" fill="#123726"/>
</svg>
